M48
;Layer_Color=9474304
;FILE_FORMAT=4:4
METRIC,LZ
;TYPE=PLATED
T02F00S00C0.6000
T03F00S00C0.7000
T04F00S00C0.9000
;TYPE=NON_PLATED
%
G90
G05
T02
G00X00040478Y0034267
M15
G01X00048478
M16
G00X00080779Y0034267
M15
G01X00091779
M16
G00X0045208Y00063871
M15
G01Y00074871
M16
G00X0045208Y0002357
M15
G01Y0003157
M16
G00X0053848Y0002357
M15
G01Y0003157
M16
G00X0053848Y00063871
M15
G01Y00074871
M16
G00X00080779Y00429069
M15
G01X00091779
M16
G00X00040478Y00429069
M15
G01X00048478
M16
T03
G00X0001944Y0011504
M15
G01X0003744
M16
G00X0001944Y0024404
M15
G01X0003744
M16
G00X0090462Y0028713
M15
G01X0088662
M16
G00X0090462Y0041613
M15
G01X0088662
M16
T04
G00X00167198Y005414
M15
G01Y00525401
M16
G00X002842Y005414
M15
G01Y00525401
M16
M17
M30
