G04*
G04 #@! TF.GenerationSoftware,Altium Limited,Altium Designer,25.8.1 (18)*
G04*
G04 Layer_Color=8388736*
%FSLAX44Y44*%
%MOMM*%
G71*
G04*
G04 #@! TF.SameCoordinates,CD10F3BA-3B56-4BC4-8898-64E60C3F5DAF*
G04*
G04*
G04 #@! TF.FilePolarity,Negative*
G04*
G01*
G75*
%ADD38R,2.9816X1.2216*%
%ADD39R,1.1600X1.5100*%
%ADD40R,1.5600X0.9600*%
%ADD41R,0.9600X0.9600*%
G04:AMPARAMS|DCode=42|XSize=0.98mm|YSize=1.04mm|CornerRadius=0mm|HoleSize=0mm|Usage=FLASHONLY|Rotation=315.000|XOffset=0mm|YOffset=0mm|HoleType=Round|Shape=Rectangle|*
%AMROTATEDRECTD42*
4,1,4,-0.7142,-0.0212,0.0212,0.7142,0.7142,0.0212,-0.0212,-0.7142,-0.7142,-0.0212,0.0*
%
%ADD42ROTATEDRECTD42*%

%ADD43R,1.0400X0.9800*%
%ADD44R,1.5100X1.1600*%
%ADD45R,0.7100X1.1100*%
%ADD46R,1.1100X0.7100*%
G04:AMPARAMS|DCode=47|XSize=1.27mm|YSize=0.65mm|CornerRadius=0.1038mm|HoleSize=0mm|Usage=FLASHONLY|Rotation=270.000|XOffset=0mm|YOffset=0mm|HoleType=Round|Shape=RoundedRectangle|*
%AMROUNDEDRECTD47*
21,1,1.2700,0.4425,0,0,270.0*
21,1,1.0625,0.6500,0,0,270.0*
1,1,0.2075,-0.2213,-0.5313*
1,1,0.2075,-0.2213,0.5313*
1,1,0.2075,0.2213,0.5313*
1,1,0.2075,0.2213,-0.5313*
%
%ADD47ROUNDEDRECTD47*%
%ADD48R,0.7000X1.3400*%
%ADD49R,0.9800X1.0400*%
%ADD50R,1.0800X1.1000*%
G04:AMPARAMS|DCode=51|XSize=0.32mm|YSize=1.14mm|CornerRadius=0mm|HoleSize=0mm|Usage=FLASHONLY|Rotation=315.000|XOffset=0mm|YOffset=0mm|HoleType=Round|Shape=Rectangle|*
%AMROTATEDRECTD51*
4,1,4,-0.5162,-0.2899,0.2899,0.5162,0.5162,0.2899,-0.2899,-0.5162,-0.5162,-0.2899,0.0*
%
%ADD51ROTATEDRECTD51*%

%ADD52R,1.1016X2.6016*%
G04:AMPARAMS|DCode=53|XSize=1.27mm|YSize=0.65mm|CornerRadius=0.1038mm|HoleSize=0mm|Usage=FLASHONLY|Rotation=180.000|XOffset=0mm|YOffset=0mm|HoleType=Round|Shape=RoundedRectangle|*
%AMROUNDEDRECTD53*
21,1,1.2700,0.4425,0,0,180.0*
21,1,1.0625,0.6500,0,0,180.0*
1,1,0.2075,-0.5313,0.2213*
1,1,0.2075,0.5313,0.2213*
1,1,0.2075,0.5313,-0.2213*
1,1,0.2075,-0.5313,-0.2213*
%
%ADD53ROUNDEDRECTD53*%
%ADD54P,5.3174X4X180.0*%
G04:AMPARAMS|DCode=55|XSize=1.5016mm|YSize=1.2516mm|CornerRadius=0mm|HoleSize=0mm|Usage=FLASHONLY|Rotation=315.000|XOffset=0mm|YOffset=0mm|HoleType=Round|Shape=Rectangle|*
%AMROTATEDRECTD55*
4,1,4,-0.9734,0.0884,-0.0884,0.9734,0.9734,-0.0884,0.0884,-0.9734,-0.9734,0.0884,0.0*
%
%ADD55ROTATEDRECTD55*%

G04:AMPARAMS|DCode=56|XSize=1.1mm|YSize=1.08mm|CornerRadius=0mm|HoleSize=0mm|Usage=FLASHONLY|Rotation=315.000|XOffset=0mm|YOffset=0mm|HoleType=Round|Shape=Rectangle|*
%AMROTATEDRECTD56*
4,1,4,-0.7708,0.0071,-0.0071,0.7708,0.7708,-0.0071,0.0071,-0.7708,-0.7708,0.0071,0.0*
%
%ADD56ROTATEDRECTD56*%

G04:AMPARAMS|DCode=57|XSize=0.98mm|YSize=1.04mm|CornerRadius=0mm|HoleSize=0mm|Usage=FLASHONLY|Rotation=45.000|XOffset=0mm|YOffset=0mm|HoleType=Round|Shape=Rectangle|*
%AMROTATEDRECTD57*
4,1,4,0.0212,-0.7142,-0.7142,0.0212,-0.0212,0.7142,0.7142,-0.0212,0.0212,-0.7142,0.0*
%
%ADD57ROTATEDRECTD57*%

%ADD58R,1.1000X1.0800*%
%ADD59R,0.9600X1.5600*%
%ADD60C,0.8220*%
G04:AMPARAMS|DCode=61|XSize=0.32mm|YSize=1.14mm|CornerRadius=0mm|HoleSize=0mm|Usage=FLASHONLY|Rotation=225.000|XOffset=0mm|YOffset=0mm|HoleType=Round|Shape=Rectangle|*
%AMROTATEDRECTD61*
4,1,4,-0.2899,0.5162,0.5162,-0.2899,0.2899,-0.5162,-0.5162,0.2899,-0.2899,0.5162,0.0*
%
%ADD61ROTATEDRECTD61*%

%ADD62R,0.4000X1.3400*%
%ADD63O,3.2016X1.3016*%
%ADD64C,4.1000*%
%ADD65O,2.2000X1.1000*%
%ADD66O,1.9000X1.1000*%
%ADD67C,0.7100*%
%ADD68O,1.1000X2.2000*%
%ADD69O,1.1000X1.9000*%
%ADD70O,1.4016X3.1016*%
%ADD71C,1.3600*%
%ADD72C,0.6600*%
G36*
X362153Y211888D02*
X362233Y211880D01*
X362329Y211851D01*
X362417Y211804D01*
X362494Y211740D01*
X369835Y204401D01*
X369839Y204396D01*
X369844Y204392D01*
X369871Y204357D01*
X369899Y204323D01*
X369902Y204318D01*
X369905Y204313D01*
X369925Y204274D01*
X369946Y204235D01*
X369948Y204229D01*
X369950Y204224D01*
X369962Y204182D01*
X369975Y204139D01*
X369976Y204133D01*
X369977Y204128D01*
X369981Y204084D01*
X369985Y204040D01*
X369984Y204034D01*
X369985Y204028D01*
X369865Y198788D01*
X369859Y198744D01*
X369855Y198700D01*
X369853Y198695D01*
X369852Y198689D01*
X369838Y198646D01*
X369826Y198605D01*
X369823Y198599D01*
X369821Y198594D01*
X369799Y198555D01*
X369779Y198516D01*
X369775Y198512D01*
X369772Y198507D01*
X369743Y198473D01*
X369715Y198439D01*
X364262Y192987D01*
X364262Y192987D01*
X364212Y192946D01*
X364185Y192923D01*
X364096Y192876D01*
X364045Y192861D01*
X364001Y192847D01*
X363901Y192837D01*
X363901D01*
X363901D01*
X363881Y192839D01*
X363801Y192847D01*
X363706Y192876D01*
X363706Y192876D01*
D01*
X363618Y192924D01*
X363590Y192946D01*
X363540Y192987D01*
X353641Y202886D01*
X353577Y202964D01*
X353530Y203052D01*
X353501Y203148D01*
X353491Y203247D01*
X353501Y203347D01*
X353530Y203443D01*
X353577Y203531D01*
X353641Y203608D01*
X361772Y211740D01*
X361850Y211804D01*
X361938Y211851D01*
X361989Y211866D01*
X362034Y211880D01*
X362133Y211890D01*
X362133D01*
X362133D01*
X362153Y211888D01*
D02*
G37*
D38*
X116340Y144541D02*
D03*
Y169540D02*
D03*
Y189540D02*
D03*
Y214539D02*
D03*
D39*
X786020Y472440D02*
D03*
X701150Y323850D02*
D03*
X225950Y250190D02*
D03*
X804020Y472440D02*
D03*
X683150Y323850D02*
D03*
X243950Y250190D02*
D03*
D40*
X819150Y298450D02*
D03*
X644150D02*
D03*
Y196850D02*
D03*
Y209550D02*
D03*
Y285750D02*
D03*
Y158750D02*
D03*
X819150Y133350D02*
D03*
X644150Y273050D02*
D03*
Y260350D02*
D03*
Y247650D02*
D03*
Y234950D02*
D03*
Y222250D02*
D03*
Y184150D02*
D03*
Y171450D02*
D03*
X819150Y146050D02*
D03*
Y158750D02*
D03*
Y171450D02*
D03*
Y184150D02*
D03*
Y196850D02*
D03*
Y209550D02*
D03*
Y222250D02*
D03*
Y234950D02*
D03*
Y247650D02*
D03*
Y260350D02*
D03*
Y273050D02*
D03*
Y285750D02*
D03*
X644150Y133350D02*
D03*
Y146050D02*
D03*
D41*
X730650Y235250D02*
D03*
X716650D02*
D03*
X702650D02*
D03*
X730650Y221250D02*
D03*
X716650D02*
D03*
X730650Y207250D02*
D03*
X716650D02*
D03*
X702650Y221250D02*
D03*
Y207250D02*
D03*
D42*
X498310Y338620D02*
D03*
X485610Y325920D02*
D03*
X496570Y314960D02*
D03*
X509270Y327660D02*
D03*
D43*
X612140Y253740D02*
D03*
Y301250D02*
D03*
X842010Y151390D02*
D03*
X424180Y43440D02*
D03*
X612140Y285750D02*
D03*
X424180Y27940D02*
D03*
X842010Y135890D02*
D03*
X612140Y269240D02*
D03*
D44*
X541020Y326280D02*
D03*
X577850Y61070D02*
D03*
X541020Y344280D02*
D03*
X577850Y43070D02*
D03*
D45*
X549320Y268400D02*
D03*
Y226900D02*
D03*
X570820D02*
D03*
Y268400D02*
D03*
D46*
X818310Y76880D02*
D03*
X776810D02*
D03*
X818310Y98380D02*
D03*
X776810D02*
D03*
D47*
X603250Y184000D02*
D03*
X494030Y123040D02*
D03*
X167640Y90320D02*
D03*
Y115420D02*
D03*
X177140D02*
D03*
X158140D02*
D03*
X593750Y158900D02*
D03*
X612750D02*
D03*
X494030Y97940D02*
D03*
X158140Y90320D02*
D03*
X177140D02*
D03*
X484530Y123040D02*
D03*
X503530D02*
D03*
X612750Y184000D02*
D03*
X593750D02*
D03*
X484530Y97940D02*
D03*
X503530D02*
D03*
X603250Y158900D02*
D03*
D48*
X527280Y75571D02*
D03*
X463280Y75571D02*
D03*
X471279D02*
D03*
X519281D02*
D03*
D49*
X298710Y473710D02*
D03*
X88900Y450850D02*
D03*
X73400D02*
D03*
X283210Y473710D02*
D03*
D50*
X419100Y359410D02*
D03*
X383540D02*
D03*
X401320D02*
D03*
X316230Y359140D02*
D03*
X351790D02*
D03*
X591820Y284210D02*
D03*
X842010Y106950D02*
D03*
Y121650D02*
D03*
X591820Y269510D02*
D03*
X598170Y44720D02*
D03*
Y59420D02*
D03*
X316230Y344440D02*
D03*
X334010Y359140D02*
D03*
Y344440D02*
D03*
X419100Y344710D02*
D03*
X401320D02*
D03*
X351790Y344440D02*
D03*
X383540Y344710D02*
D03*
D51*
X474960Y272897D02*
D03*
X464353Y283504D02*
D03*
X424543Y243694D02*
D03*
X417472Y250765D02*
D03*
X421008Y247229D02*
D03*
X428079Y240158D02*
D03*
X471424Y276433D02*
D03*
X467889Y279968D02*
D03*
X460818Y287039D02*
D03*
X457282Y290575D02*
D03*
X453747Y294110D02*
D03*
X450211Y297646D02*
D03*
X410401Y257836D02*
D03*
X413937Y254300D02*
D03*
X431614Y236623D02*
D03*
X435150Y233087D02*
D03*
X478495Y269361D02*
D03*
X438685Y229551D02*
D03*
D52*
X260699Y510901D02*
D03*
X215699D02*
D03*
X235699D02*
D03*
X190699D02*
D03*
D53*
X237340Y441960D02*
D03*
X212240Y451460D02*
D03*
Y432460D02*
D03*
X237340Y451460D02*
D03*
Y432460D02*
D03*
X212240Y441960D02*
D03*
D54*
X444448Y263599D02*
D03*
D55*
X374333Y213677D02*
D03*
X378575Y186805D02*
D03*
X389890Y198120D02*
D03*
D56*
X432034Y192806D02*
D03*
X421640Y203200D02*
D03*
D57*
X397018Y170958D02*
D03*
X358632Y227822D02*
D03*
X347672Y216862D02*
D03*
X407978Y181918D02*
D03*
D58*
X541290Y359410D02*
D03*
X555990D02*
D03*
X803640Y452120D02*
D03*
X788940D02*
D03*
X663940Y323850D02*
D03*
X649240D02*
D03*
X242300Y229870D02*
D03*
X227600D02*
D03*
D59*
X687200Y120850D02*
D03*
X661800D02*
D03*
X674500D02*
D03*
X699900D02*
D03*
X712600D02*
D03*
X725300D02*
D03*
X738000D02*
D03*
X750700D02*
D03*
X763400D02*
D03*
X776100D02*
D03*
X788800D02*
D03*
X801500D02*
D03*
D60*
X363092Y202443D02*
D03*
D61*
X450211Y229551D02*
D03*
X453747Y233087D02*
D03*
X457282Y236623D02*
D03*
X460818Y240158D02*
D03*
X467889Y247229D02*
D03*
X471424Y250765D02*
D03*
X474960Y254300D02*
D03*
X478495Y257836D02*
D03*
X464353Y243694D02*
D03*
X438685Y297646D02*
D03*
X435150Y294110D02*
D03*
X431614Y290575D02*
D03*
X428079Y287039D02*
D03*
X424543Y283504D02*
D03*
X421008Y279968D02*
D03*
X417472Y276433D02*
D03*
X413937Y272897D02*
D03*
X410401Y269361D02*
D03*
D62*
X487780Y75571D02*
D03*
X497780D02*
D03*
X492781D02*
D03*
X502781D02*
D03*
X482781D02*
D03*
X512781D02*
D03*
X477780D02*
D03*
X507779D02*
D03*
D63*
X28440Y115040D02*
D03*
Y244040D02*
D03*
X895620Y416130D02*
D03*
Y287130D02*
D03*
D64*
X889000Y471210D02*
D03*
Y70100D02*
D03*
X30100Y471210D02*
D03*
X357780Y30520D02*
D03*
X30100Y70100D02*
D03*
D65*
X86279Y342670D02*
D03*
Y429069D02*
D03*
D66*
X44478Y342670D02*
D03*
Y429069D02*
D03*
D67*
X81280Y356870D02*
D03*
Y414769D02*
D03*
X466281Y64372D02*
D03*
X524180D02*
D03*
D68*
X538480Y69371D02*
D03*
X452080D02*
D03*
D69*
X538480Y27570D02*
D03*
X452080D02*
D03*
D70*
X284200Y533401D02*
D03*
X167198Y533400D02*
D03*
D71*
X203200Y533400D02*
D03*
X248199D02*
D03*
D72*
X892810Y486450D02*
D03*
X902470Y479292D02*
D03*
X880918Y484680D02*
D03*
X904240Y467400D02*
D03*
X897082Y457740D02*
D03*
X873760Y475020D02*
D03*
X875530Y463128D02*
D03*
X885190Y455970D02*
D03*
X892810Y85340D02*
D03*
X902470Y78182D02*
D03*
X904240Y66290D02*
D03*
X897082Y56630D02*
D03*
X880918Y83570D02*
D03*
X873760Y73910D02*
D03*
X885190Y54860D02*
D03*
X875530Y62018D02*
D03*
X43570Y479292D02*
D03*
X45340Y467400D02*
D03*
X38182Y457740D02*
D03*
X33910Y486450D02*
D03*
X22018Y484680D02*
D03*
X14860Y475020D02*
D03*
X26290Y455970D02*
D03*
X16630Y463128D02*
D03*
X373020Y26710D02*
D03*
X361590Y45760D02*
D03*
X371250Y38602D02*
D03*
X349698Y43990D02*
D03*
X365862Y17050D02*
D03*
X353970Y15280D02*
D03*
X344310Y22438D02*
D03*
X342540Y34330D02*
D03*
X33910Y85340D02*
D03*
X22018Y83570D02*
D03*
X45340Y66290D02*
D03*
X43570Y78182D02*
D03*
X16630Y62018D02*
D03*
X14860Y73910D02*
D03*
X38182Y56630D02*
D03*
X26290Y54860D02*
D03*
M02*
