G04*
G04 #@! TF.GenerationSoftware,Altium Limited,Altium Designer,25.8.1 (18)*
G04*
G04 Layer_Physical_Order=4*
G04 Layer_Color=16711680*
%FSLAX44Y44*%
%MOMM*%
G71*
G04*
G04 #@! TF.SameCoordinates,CD10F3BA-3B56-4BC4-8898-64E60C3F5DAF*
G04*
G04*
G04 #@! TF.FilePolarity,Positive*
G04*
G01*
G75*
%ADD12C,0.3000*%
%ADD13C,0.2540*%
G04:AMPARAMS|DCode=20|XSize=0.92mm|YSize=0.98mm|CornerRadius=0mm|HoleSize=0mm|Usage=FLASHONLY|Rotation=315.000|XOffset=0mm|YOffset=0mm|HoleType=Round|Shape=Rectangle|*
%AMROTATEDRECTD20*
4,1,4,-0.6718,-0.0212,0.0212,0.6718,0.6718,0.0212,-0.0212,-0.6718,-0.6718,-0.0212,0.0*
%
%ADD20ROTATEDRECTD20*%

%ADD21R,0.9800X0.9200*%
%ADD26R,0.9200X0.9800*%
%ADD27R,1.0200X1.0400*%
G04:AMPARAMS|DCode=29|XSize=1.21mm|YSize=0.59mm|CornerRadius=0.0738mm|HoleSize=0mm|Usage=FLASHONLY|Rotation=180.000|XOffset=0mm|YOffset=0mm|HoleType=Round|Shape=RoundedRectangle|*
%AMROUNDEDRECTD29*
21,1,1.2100,0.4425,0,0,180.0*
21,1,1.0625,0.5900,0,0,180.0*
1,1,0.1475,-0.5313,0.2213*
1,1,0.1475,0.5313,0.2213*
1,1,0.1475,0.5313,-0.2213*
1,1,0.1475,-0.5313,-0.2213*
%
%ADD29ROUNDEDRECTD29*%
G04:AMPARAMS|DCode=33|XSize=0.92mm|YSize=0.98mm|CornerRadius=0mm|HoleSize=0mm|Usage=FLASHONLY|Rotation=45.000|XOffset=0mm|YOffset=0mm|HoleType=Round|Shape=Rectangle|*
%AMROTATEDRECTD33*
4,1,4,0.0212,-0.6718,-0.6718,0.0212,-0.0212,0.6718,0.6718,-0.0212,0.0212,-0.6718,0.0*
%
%ADD33ROTATEDRECTD33*%

%ADD34R,1.0400X1.0200*%
%ADD73R,2.8800X1.1200*%
%ADD78C,0.1468*%
%ADD79C,0.5000*%
%ADD80C,0.6000*%
%ADD81C,1.0000*%
%ADD82C,0.1427*%
%ADD83O,3.1000X1.2000*%
%ADD84C,4.5000*%
%ADD85O,2.1000X1.0000*%
%ADD86O,1.8000X1.0000*%
%ADD87C,0.6500*%
%ADD88O,1.0000X2.1000*%
%ADD89O,1.0000X1.8000*%
%ADD90O,1.3000X3.0000*%
%ADD91C,1.3000*%
%ADD92C,0.6000*%
%ADD105R,0.9200X1.3800*%
%ADD106R,1.1000X3.5000*%
%ADD107R,0.6000X1.7000*%
%ADD108R,0.2800X0.5850*%
%ADD109R,1.2000X0.5000*%
%ADD110R,1.3200X0.5900*%
%ADD111R,1.7000X0.6000*%
%ADD112R,1.2400X0.6000*%
%ADD113R,0.5900X1.3200*%
%ADD114R,0.5000X1.2000*%
%ADD115R,0.5850X0.2800*%
%ADD116R,1.2400X0.3000*%
%ADD117R,1.0000X2.8000*%
%ADD118R,1.1430X1.0160*%
%ADD119R,2.7000X1.0000*%
G04:AMPARAMS|DCode=120|XSize=1.97mm|YSize=0.6mm|CornerRadius=0.075mm|HoleSize=0mm|Usage=FLASHONLY|Rotation=180.000|XOffset=0mm|YOffset=0mm|HoleType=Round|Shape=RoundedRectangle|*
%AMROUNDEDRECTD120*
21,1,1.9700,0.4500,0,0,180.0*
21,1,1.8200,0.6000,0,0,180.0*
1,1,0.1500,-0.9100,0.2250*
1,1,0.1500,0.9100,0.2250*
1,1,0.1500,0.9100,-0.2250*
1,1,0.1500,-0.9100,-0.2250*
%
%ADD120ROUNDEDRECTD120*%
%ADD121C,0.4000*%
G36*
X310378Y500247D02*
X900000Y500247D01*
X901970Y500247D01*
X905834Y499478D01*
X909473Y497971D01*
X912749Y495782D01*
X915535Y492996D01*
X917724Y489720D01*
X919231Y486081D01*
X919925Y482594D01*
X920000Y480248D01*
Y480247D01*
X920000D01*
X920000Y480247D01*
X920000Y233787D01*
X917670Y233280D01*
X917460Y233280D01*
X886670D01*
Y219280D01*
X917460D01*
X920000Y218773D01*
Y134289D01*
X917670Y133782D01*
X917460Y133781D01*
X886670D01*
Y119782D01*
X917460D01*
X920000Y119275D01*
Y60500D01*
X920000Y58530D01*
X919231Y54666D01*
X917724Y51026D01*
X915535Y47751D01*
X912749Y44965D01*
X909473Y42776D01*
X905834Y41269D01*
X901970Y40500D01*
X900000D01*
X644485Y40500D01*
Y500D01*
X230500D01*
Y40500D01*
X18530D01*
X14666Y41269D01*
X11026Y42776D01*
X7751Y44965D01*
X4965Y47751D01*
X2776Y51026D01*
X1269Y54666D01*
X500Y58530D01*
X500Y60500D01*
Y480247D01*
Y482217D01*
X1269Y486081D01*
X2776Y489721D01*
X4965Y492996D01*
X7751Y495782D01*
X11026Y497971D01*
X14666Y499478D01*
X18530Y500247D01*
X20500D01*
X20500Y500247D01*
X140505Y500247D01*
Y560247D01*
X161656D01*
X162949Y557707D01*
X162928Y557676D01*
X162674Y556400D01*
X162928Y555124D01*
X163650Y554042D01*
X164732Y553320D01*
X166008Y553066D01*
X285388D01*
X286664Y553320D01*
X287746Y554042D01*
X288468Y555124D01*
X288722Y556400D01*
X288468Y557676D01*
X288447Y557707D01*
X289740Y560247D01*
X310378D01*
Y500247D01*
D02*
G37*
%LPC*%
G36*
X249318Y541900D02*
X247080D01*
X244918Y541321D01*
X242979Y540202D01*
X241397Y538619D01*
X240278Y536681D01*
X239699Y534519D01*
Y532281D01*
X240278Y530119D01*
X241397Y528181D01*
X242979Y526598D01*
X244918Y525479D01*
X247080Y524900D01*
X249318D01*
X251480Y525479D01*
X253418Y526598D01*
X255000Y528181D01*
X256119Y530119D01*
X256699Y532281D01*
Y534519D01*
X256119Y536681D01*
X255000Y538619D01*
X253418Y540202D01*
X251480Y541321D01*
X249318Y541900D01*
D02*
G37*
G36*
X204319D02*
X202081D01*
X199919Y541321D01*
X197981Y540202D01*
X196398Y538619D01*
X195279Y536681D01*
X194700Y534519D01*
Y532281D01*
X195279Y530119D01*
X196398Y528181D01*
X197981Y526598D01*
X199919Y525479D01*
X202081Y524900D01*
X204319D01*
X206481Y525479D01*
X208419Y526598D01*
X210002Y528181D01*
X211121Y530119D01*
X211700Y532281D01*
Y534519D01*
X211121Y536681D01*
X210002Y538619D01*
X208419Y540202D01*
X206481Y541321D01*
X204319Y541900D01*
D02*
G37*
G36*
X284200Y550474D02*
X281981Y550182D01*
X279914Y549325D01*
X278138Y547963D01*
X276776Y546187D01*
X275919Y544120D01*
X275627Y541901D01*
Y524901D01*
X275919Y522682D01*
X276776Y520614D01*
X278138Y518838D01*
X279914Y517476D01*
X281981Y516619D01*
X284200Y516327D01*
X286419Y516619D01*
X288487Y517476D01*
X290263Y518838D01*
X291625Y520614D01*
X292482Y522682D01*
X292774Y524901D01*
Y541901D01*
X292482Y544120D01*
X291625Y546187D01*
X290263Y547963D01*
X288487Y549325D01*
X286419Y550182D01*
X284200Y550474D01*
D02*
G37*
G36*
X167198Y550474D02*
X164979Y550182D01*
X162912Y549325D01*
X161136Y547963D01*
X159774Y546187D01*
X158917Y544119D01*
X158625Y541900D01*
Y524900D01*
X158917Y522682D01*
X159774Y520614D01*
X161136Y518838D01*
X162912Y517476D01*
X164979Y516619D01*
X167198Y516327D01*
X169417Y516619D01*
X171485Y517476D01*
X173261Y518838D01*
X174623Y520614D01*
X175480Y522682D01*
X175772Y524900D01*
Y541900D01*
X175480Y544119D01*
X174623Y546187D01*
X173261Y547963D01*
X171485Y549325D01*
X169417Y550182D01*
X167198Y550474D01*
D02*
G37*
G36*
X891466Y496250D02*
X890270D01*
Y472480D01*
X914040D01*
Y473676D01*
X913078Y478514D01*
X911190Y483071D01*
X908450Y487172D01*
X904962Y490660D01*
X900861Y493400D01*
X896304Y495288D01*
X891466Y496250D01*
D02*
G37*
G36*
X887730D02*
X886534D01*
X881696Y495288D01*
X877139Y493400D01*
X873038Y490660D01*
X869550Y487172D01*
X866810Y483071D01*
X864922Y478514D01*
X863960Y473676D01*
Y472480D01*
X887730D01*
Y496250D01*
D02*
G37*
G36*
X32566D02*
X31370D01*
Y472480D01*
X55140D01*
Y473676D01*
X54178Y478514D01*
X52290Y483071D01*
X49550Y487172D01*
X46062Y490660D01*
X41961Y493400D01*
X37404Y495288D01*
X32566Y496250D01*
D02*
G37*
G36*
X28830D02*
X27634D01*
X22796Y495288D01*
X18239Y493400D01*
X14138Y490660D01*
X10650Y487172D01*
X7910Y483071D01*
X6022Y478514D01*
X5060Y473676D01*
Y472480D01*
X28830D01*
Y496250D01*
D02*
G37*
G36*
X750147Y486309D02*
X743377D01*
Y467539D01*
X750147D01*
Y486309D01*
D02*
G37*
G36*
X740837D02*
X734067D01*
Y467539D01*
X740837D01*
Y486309D01*
D02*
G37*
G36*
X428833Y490520D02*
X414832D01*
Y458520D01*
X428833D01*
Y490520D01*
D02*
G37*
G36*
X503330Y490519D02*
X489330D01*
Y458520D01*
X503330D01*
Y490519D01*
D02*
G37*
G36*
X520118Y490094D02*
X506118D01*
Y458094D01*
X520118D01*
Y490094D01*
D02*
G37*
G36*
X594616Y490094D02*
X593031Y490094D01*
X580616D01*
Y458094D01*
X593031D01*
X595412Y457710D01*
X596997Y457710D01*
X609412D01*
Y489710D01*
X596997D01*
X594616Y490094D01*
D02*
G37*
G36*
X683910Y489710D02*
X669910D01*
Y457710D01*
X683910D01*
Y489710D01*
D02*
G37*
G36*
X350260Y459740D02*
X344390D01*
Y453570D01*
X350260D01*
Y459740D01*
D02*
G37*
G36*
X652870Y453250D02*
X650554Y452710D01*
X650330Y452710D01*
X640950D01*
X640910Y452710D01*
X638410D01*
X638370Y452710D01*
X628450D01*
X628410Y452710D01*
X625910D01*
X625871Y452710D01*
X615910D01*
Y447210D01*
X613935D01*
X612097Y446449D01*
X610691Y445042D01*
X609930Y443204D01*
Y441215D01*
X610691Y439377D01*
X612097Y437971D01*
X613935Y437210D01*
X615910D01*
Y431710D01*
X625871D01*
X625910Y431710D01*
X628410D01*
X628450Y431710D01*
X631060D01*
Y419652D01*
X630994Y419625D01*
X629588Y418219D01*
X628826Y416381D01*
Y414392D01*
X629588Y412554D01*
X630994Y411148D01*
X632832Y410387D01*
X634821D01*
X636659Y411148D01*
X638065Y412554D01*
X638826Y414392D01*
Y416381D01*
X638065Y418219D01*
X636659Y419625D01*
X636593Y419652D01*
Y429907D01*
X638410Y431710D01*
X640910D01*
X640950Y431710D01*
X642300D01*
X642381Y431584D01*
X643079Y429170D01*
X642191Y428282D01*
X641430Y426445D01*
Y424455D01*
X642191Y422618D01*
X643598Y421211D01*
X645435Y420450D01*
X647425D01*
X649262Y421211D01*
X650669Y422618D01*
X651430Y424455D01*
Y426445D01*
X650669Y428282D01*
X649781Y429170D01*
X650479Y431584D01*
X650559Y431708D01*
X652870Y431170D01*
X653227Y431170D01*
X657140D01*
Y442210D01*
Y453250D01*
X653227D01*
X652870Y453250D01*
D02*
G37*
G36*
X840480Y454480D02*
X834610D01*
Y448310D01*
X840480D01*
Y454480D01*
D02*
G37*
G36*
X384810Y453170D02*
X378640D01*
Y447300D01*
X384810D01*
Y453170D01*
D02*
G37*
G36*
X750147Y464999D02*
X743377D01*
Y446229D01*
X750147D01*
Y464999D01*
D02*
G37*
G36*
X740837D02*
X734067D01*
Y446229D01*
X740837D01*
Y464999D01*
D02*
G37*
G36*
X914040Y469940D02*
X890270D01*
Y446170D01*
X891466D01*
X896304Y447132D01*
X900861Y449020D01*
X904962Y451760D01*
X908450Y455248D01*
X911190Y459349D01*
X913078Y463906D01*
X914040Y468744D01*
Y469940D01*
D02*
G37*
G36*
X887730D02*
X863960D01*
Y468744D01*
X864922Y463906D01*
X866810Y459349D01*
X869550Y455248D01*
X873038Y451760D01*
X877139Y449020D01*
X881696Y447132D01*
X886534Y446170D01*
X887730D01*
Y469940D01*
D02*
G37*
G36*
X55140D02*
X31370D01*
Y446170D01*
X32566D01*
X37404Y447132D01*
X41961Y449020D01*
X46062Y451760D01*
X49550Y455248D01*
X52290Y459349D01*
X54178Y463906D01*
X55140Y468744D01*
Y469940D01*
D02*
G37*
G36*
X28830D02*
X5060D01*
Y468744D01*
X6022Y463906D01*
X7910Y459349D01*
X10650Y455248D01*
X14138Y451760D01*
X18239Y449020D01*
X22796Y447132D01*
X27634Y446170D01*
X28830D01*
Y469940D01*
D02*
G37*
G36*
X704670Y451900D02*
X698500D01*
Y446030D01*
X704670D01*
Y451900D01*
D02*
G37*
G36*
X695960D02*
X689790D01*
Y446030D01*
X695960D01*
Y451900D01*
D02*
G37*
G36*
X479101Y454059D02*
Y444289D01*
X483371D01*
Y454059D01*
X479101D01*
D02*
G37*
G36*
X574656Y453633D02*
X570386D01*
Y443863D01*
X574656D01*
Y453633D01*
D02*
G37*
G36*
X659680Y453250D02*
Y443480D01*
X663950D01*
Y453250D01*
X659680D01*
D02*
G37*
G36*
X840480Y445770D02*
X834610D01*
Y439600D01*
X840480D01*
Y445770D01*
D02*
G37*
G36*
X789665Y446960D02*
X787675D01*
X785838Y446199D01*
X784431Y444792D01*
X783670Y442955D01*
Y440965D01*
X784431Y439128D01*
X785838Y437721D01*
X787675Y436960D01*
X789665D01*
X791502Y437721D01*
X792909Y439128D01*
X793670Y440965D01*
Y442955D01*
X792909Y444792D01*
X791502Y446199D01*
X789665Y446960D01*
D02*
G37*
G36*
X483371Y441749D02*
X479101D01*
Y431979D01*
X483371D01*
Y441749D01*
D02*
G37*
G36*
X453115Y471090D02*
X451125D01*
X449288Y470329D01*
X447881Y468922D01*
X447120Y467085D01*
Y465095D01*
X447881Y463258D01*
X449288Y461851D01*
X449353Y461824D01*
Y455445D01*
X447831Y453519D01*
X445331D01*
X445291Y453519D01*
X435331D01*
Y448230D01*
X433345D01*
X431508Y447469D01*
X430101Y446062D01*
X429340Y444225D01*
Y442235D01*
X430101Y440398D01*
X431508Y438991D01*
X433345Y438230D01*
X435331D01*
Y432519D01*
X445291D01*
X445331Y432519D01*
X447831D01*
X447871Y432519D01*
X457790D01*
X457831Y432519D01*
X460331D01*
X460371Y432519D01*
X469974Y432519D01*
X472291Y431979D01*
X472647Y431979D01*
X476561D01*
Y443019D01*
Y454059D01*
X472647D01*
X472291Y454059D01*
X472167Y454030D01*
X471757Y454188D01*
X469820Y456091D01*
Y456925D01*
X469059Y458762D01*
X467652Y460169D01*
X465815Y460930D01*
X463825D01*
X461988Y460169D01*
X460581Y458762D01*
X459820Y456925D01*
Y454935D01*
X457831Y453519D01*
X457790Y453519D01*
X454887D01*
Y461824D01*
X454952Y461851D01*
X456359Y463258D01*
X457120Y465095D01*
Y467085D01*
X456359Y468922D01*
X454952Y470329D01*
X453115Y471090D01*
D02*
G37*
G36*
X574656Y441323D02*
X570386D01*
Y431553D01*
X574656D01*
Y441323D01*
D02*
G37*
G36*
X543285Y472360D02*
X541295D01*
X539458Y471599D01*
X538051Y470192D01*
X537290Y468355D01*
Y466365D01*
X538051Y464528D01*
X539458Y463121D01*
X539523Y463094D01*
Y455482D01*
X539116Y453093D01*
X536616D01*
X536576Y453093D01*
X526616D01*
Y447593D01*
X525419D01*
X523581Y446832D01*
X522175Y445426D01*
X521413Y443588D01*
Y441599D01*
X522175Y439761D01*
X523581Y438355D01*
X525419Y437593D01*
X526616D01*
Y432093D01*
X536576D01*
X536616Y432093D01*
X539116D01*
X539156Y432093D01*
X549076D01*
X549116Y432093D01*
X551616D01*
X551656Y432093D01*
X561260Y432093D01*
X563576Y431553D01*
X563932Y431553D01*
X567846D01*
Y442593D01*
Y453633D01*
X564740D01*
X563095Y454603D01*
X562530Y455740D01*
Y456925D01*
X561769Y458762D01*
X560362Y460169D01*
X558525Y460930D01*
X556535D01*
X554698Y460169D01*
X553291Y458762D01*
X552530Y456925D01*
Y455255D01*
X550845Y453093D01*
X549116D01*
X549076Y453093D01*
X545057D01*
Y463094D01*
X545122Y463121D01*
X546529Y464528D01*
X547290Y466365D01*
Y468355D01*
X546529Y470192D01*
X545122Y471599D01*
X543285Y472360D01*
D02*
G37*
G36*
X663950Y440940D02*
X659680D01*
Y431170D01*
X663950D01*
Y440940D01*
D02*
G37*
G36*
X267790Y424180D02*
X261620D01*
Y418310D01*
X267790D01*
Y424180D01*
D02*
G37*
G36*
X259080D02*
X252910D01*
Y418310D01*
X259080D01*
Y424180D01*
D02*
G37*
G36*
X248740Y423920D02*
X242570D01*
Y418050D01*
X248740D01*
Y423920D01*
D02*
G37*
G36*
X240030D02*
X233860D01*
Y418050D01*
X240030D01*
Y423920D01*
D02*
G37*
G36*
X196850Y503666D02*
X180317Y503666D01*
X179536Y503511D01*
X178875Y503068D01*
X178874Y503068D01*
X136988Y461182D01*
X136546Y460520D01*
X136391Y459740D01*
Y417830D01*
X136546Y417050D01*
X136988Y416388D01*
X137650Y415946D01*
X138430Y415791D01*
X149216D01*
X149315Y415811D01*
X149416Y415801D01*
X149702Y415888D01*
X149996Y415946D01*
X150080Y416002D01*
X150177Y416032D01*
X150409Y416222D01*
X150658Y416388D01*
X150714Y416472D01*
X150792Y416536D01*
X150933Y416800D01*
X151100Y417050D01*
X151119Y417149D01*
X151167Y417238D01*
X151600Y418665D01*
X151610Y418766D01*
X151649Y418859D01*
Y419126D01*
X169691D01*
Y418859D01*
X169730Y418766D01*
X169740Y418665D01*
X170173Y417238D01*
X170221Y417149D01*
X170240Y417050D01*
X170407Y416800D01*
X170548Y416536D01*
X170626Y416472D01*
X170682Y416388D01*
X170931Y416222D01*
X171163Y416032D01*
X171260Y416002D01*
X171344Y415946D01*
X171638Y415888D01*
X171924Y415801D01*
X172025Y415811D01*
X172124Y415791D01*
X179070D01*
X179850Y415946D01*
X180512Y416388D01*
X180954Y417050D01*
X181109Y417830D01*
Y462705D01*
X198292Y479888D01*
X198734Y480550D01*
X198889Y481330D01*
Y501627D01*
X198734Y502407D01*
X198292Y503069D01*
X197630Y503511D01*
X196850Y503666D01*
D02*
G37*
G36*
X749607Y440869D02*
X734607D01*
Y413958D01*
X734178Y413528D01*
X722270D01*
Y417840D01*
X709070D01*
Y400040D01*
X722270D01*
Y404352D01*
X729472D01*
Y368079D01*
X729111Y367623D01*
X726932Y366272D01*
X726823Y366294D01*
X716198D01*
X715129Y366081D01*
X714224Y365476D01*
X713619Y364571D01*
X713406Y363503D01*
Y360547D01*
X712565Y359985D01*
X708427Y355848D01*
X704331D01*
X704016Y356179D01*
X703784Y356481D01*
X702962Y358388D01*
X703500Y359685D01*
Y361675D01*
X702739Y363512D01*
X701332Y364919D01*
X699495Y365680D01*
X697505D01*
X695668Y364919D01*
X694261Y363512D01*
X693500Y361675D01*
Y359685D01*
X694261Y357848D01*
X695668Y356441D01*
X695713Y356423D01*
Y354592D01*
X695925Y353525D01*
X696529Y352621D01*
X697497Y351653D01*
X697485Y351531D01*
X696625Y350671D01*
X696021Y349767D01*
X695808Y348700D01*
Y347280D01*
X694453Y345924D01*
X693692Y344086D01*
Y342097D01*
X694453Y340260D01*
X695860Y338853D01*
X697697Y338092D01*
X699687D01*
X701524Y338853D01*
X702931Y340260D01*
X703692Y342097D01*
Y344086D01*
X703632Y344232D01*
X705329Y346772D01*
X709387D01*
X712565Y343595D01*
X713406Y343033D01*
Y340078D01*
X713619Y339009D01*
X714224Y338104D01*
X715129Y337499D01*
X716198Y337286D01*
X726823D01*
X727891Y337499D01*
X728796Y338104D01*
X729401Y339009D01*
X729614Y340078D01*
Y344502D01*
X729401Y345571D01*
X729185Y347215D01*
X729910Y348299D01*
X730164Y349577D01*
Y350685D01*
X732704Y351737D01*
X736011Y348430D01*
X737092Y347708D01*
X737689Y346924D01*
X738534Y344640D01*
X738506Y344502D01*
Y340078D01*
X738719Y339009D01*
X739324Y338104D01*
X740229Y337499D01*
X741298Y337286D01*
X751923D01*
X752991Y337499D01*
X753896Y338104D01*
X754501Y339009D01*
X754714Y340078D01*
Y343033D01*
X755555Y343595D01*
X757905Y345945D01*
X758509Y346849D01*
X758590Y347252D01*
X779023D01*
X779827Y347092D01*
X791320D01*
Y334030D01*
X824120D01*
Y349230D01*
X809806D01*
X809635Y350087D01*
X809031Y350991D01*
X808392Y351630D01*
X809031Y352269D01*
X809635Y353173D01*
X809806Y354030D01*
X824120D01*
Y369230D01*
X791320D01*
Y356167D01*
X781921D01*
X781117Y356328D01*
X758590D01*
X758509Y356731D01*
X757905Y357635D01*
X755555Y359985D01*
X754714Y360547D01*
Y363503D01*
X754501Y364571D01*
X753896Y365476D01*
X752991Y366081D01*
X751923Y366294D01*
X741298D01*
X741188Y366272D01*
X739009Y367623D01*
X738648Y368079D01*
Y401869D01*
X743119D01*
X743650Y401338D01*
X745138Y400344D01*
X746894Y399994D01*
X796207D01*
X799626Y396575D01*
X798654Y394229D01*
X791320D01*
Y379029D01*
X824120D01*
Y394229D01*
X812308D01*
Y394970D01*
X811959Y396726D01*
X810964Y398214D01*
X801352Y407827D01*
X799863Y408821D01*
X798108Y409171D01*
X749607D01*
Y440869D01*
D02*
G37*
G36*
X387200Y417850D02*
X380730D01*
Y411480D01*
X387200D01*
Y417850D01*
D02*
G37*
G36*
X848890Y454480D02*
X848334Y454480D01*
X843020D01*
Y447040D01*
Y439600D01*
X848334D01*
X848890Y439600D01*
X851206Y440140D01*
X853865Y440140D01*
X878077Y415928D01*
X878326Y414042D01*
X879132Y412095D01*
X880414Y410424D01*
X882085Y409142D01*
X884032Y408336D01*
X886120Y408061D01*
X905120D01*
X907208Y408336D01*
X909154Y409142D01*
X910826Y410424D01*
X912108Y412095D01*
X912914Y414042D01*
X913189Y416130D01*
X912914Y418218D01*
X912108Y420164D01*
X910826Y421836D01*
X909154Y423118D01*
X907208Y423924D01*
X905120Y424199D01*
X889776D01*
X863850Y450125D01*
Y453940D01*
X858468D01*
X857250Y454100D01*
X856032Y453940D01*
X851206Y453940D01*
X848890Y454480D01*
D02*
G37*
G36*
X387200Y408940D02*
X380730D01*
Y402570D01*
X387200D01*
Y408940D01*
D02*
G37*
G36*
X704670Y443490D02*
X697230D01*
X689790D01*
Y437620D01*
X689790Y437620D01*
X689790Y437620D01*
X690330Y435304D01*
Y422660D01*
X692642D01*
Y417840D01*
X689970D01*
Y400040D01*
X703170D01*
Y417840D01*
X701818D01*
Y422660D01*
X704130D01*
Y426434D01*
X706395Y428070D01*
X708385D01*
X710222Y428831D01*
X711629Y430238D01*
X712390Y432075D01*
Y434065D01*
X711629Y435902D01*
X710222Y437309D01*
X708385Y438070D01*
X706395D01*
X704670Y440105D01*
Y443490D01*
D02*
G37*
G36*
X600435Y407590D02*
X598445D01*
X596608Y406829D01*
X595201Y405422D01*
X594440Y403585D01*
Y401595D01*
X594852Y400601D01*
Y399442D01*
X592439Y398283D01*
X591080Y398600D01*
X591080Y398600D01*
X591080Y398600D01*
X585210D01*
Y391160D01*
X583940D01*
Y389890D01*
X576800D01*
Y388011D01*
X574453Y387039D01*
X568376Y393116D01*
X567479Y393716D01*
X566420Y393927D01*
X524966D01*
X524939Y393992D01*
X523532Y395399D01*
X521695Y396160D01*
X519705D01*
X517868Y395399D01*
X516461Y393992D01*
X515700Y392155D01*
Y390165D01*
X516461Y388328D01*
X517868Y386921D01*
X519705Y386160D01*
X521695D01*
X523532Y386921D01*
X524939Y388328D01*
X524966Y388393D01*
X565274D01*
X567201Y386467D01*
X566229Y384120D01*
X558050D01*
Y382190D01*
X556535D01*
X554698Y381429D01*
X553291Y380022D01*
X552530Y378185D01*
Y376195D01*
X553291Y374358D01*
X554698Y372951D01*
X556535Y372190D01*
X557881D01*
X558050Y369720D01*
Y369420D01*
X558050D01*
Y365987D01*
X476706D01*
X476679Y366052D01*
X475272Y367459D01*
X473435Y368220D01*
X471445D01*
X469608Y367459D01*
X468201Y366052D01*
X467440Y364215D01*
Y362225D01*
X468201Y360388D01*
X469608Y358981D01*
X471445Y358220D01*
X473435D01*
X475272Y358981D01*
X476679Y360388D01*
X476706Y360453D01*
X558050D01*
Y355020D01*
X572250D01*
Y355373D01*
X577400D01*
Y353215D01*
X577800D01*
X579196Y351043D01*
X577380Y350540D01*
Y350540D01*
X570910D01*
Y342900D01*
Y335260D01*
X577380D01*
Y335800D01*
X591540D01*
Y350000D01*
X591540D01*
X590775Y352540D01*
X591141Y353215D01*
X594200D01*
Y354806D01*
X600570D01*
Y352810D01*
X614370D01*
Y354822D01*
X624210D01*
X644319Y334712D01*
X644731Y333718D01*
X646138Y332311D01*
X647975Y331550D01*
X649965D01*
X651802Y332311D01*
X653209Y333718D01*
X653970Y335555D01*
Y337545D01*
X653209Y339382D01*
X651802Y340789D01*
X650808Y341201D01*
X629354Y362654D01*
X627866Y363649D01*
X626110Y363998D01*
X616214D01*
X614623Y366538D01*
X614910Y367770D01*
X614910Y368326D01*
Y373640D01*
X607470D01*
Y376180D01*
X614910D01*
Y382050D01*
X606837D01*
X606040Y384260D01*
X606040Y384590D01*
Y398060D01*
X604028D01*
Y400601D01*
X604440Y401595D01*
Y403585D01*
X603679Y405422D01*
X602272Y406829D01*
X600435Y407590D01*
D02*
G37*
G36*
X582670Y398600D02*
X576800D01*
Y392430D01*
X582670D01*
Y398600D01*
D02*
G37*
G36*
X203740Y391180D02*
X197270D01*
Y384810D01*
X203740D01*
Y391180D01*
D02*
G37*
G36*
X265210Y382913D02*
X259340D01*
Y376743D01*
X265210D01*
Y382913D01*
D02*
G37*
G36*
X203740Y382270D02*
X197270D01*
Y375900D01*
X203740D01*
Y382270D01*
D02*
G37*
G36*
X265210Y374203D02*
X259340D01*
Y368033D01*
X265210D01*
Y374203D01*
D02*
G37*
G36*
X323330Y366340D02*
X309130D01*
Y363728D01*
X305249D01*
X304254Y364140D01*
X302265D01*
X300428Y363379D01*
X299021Y361972D01*
X298260Y360135D01*
Y358145D01*
X299021Y356308D01*
X300428Y354901D01*
X302265Y354140D01*
X304254D01*
X305249Y354552D01*
X307334D01*
X309130Y352756D01*
X309130Y349400D01*
Y337240D01*
X310142D01*
X310508Y336910D01*
X311630Y334700D01*
X311230Y333735D01*
Y331745D01*
X311991Y329908D01*
X313398Y328501D01*
X315235Y327740D01*
X317225D01*
X319062Y328501D01*
X320469Y329908D01*
X321230Y331745D01*
Y333735D01*
X320830Y334700D01*
X321952Y336910D01*
X322318Y337240D01*
X323330D01*
Y349400D01*
X323330Y351640D01*
X323330Y354180D01*
Y366340D01*
D02*
G37*
G36*
X568370Y350540D02*
X561900D01*
Y344170D01*
X568370D01*
Y350540D01*
D02*
G37*
G36*
X286840Y349030D02*
X280670D01*
Y343160D01*
X286840D01*
Y349030D01*
D02*
G37*
G36*
X568370Y341630D02*
X561900D01*
Y335260D01*
X568370D01*
Y341630D01*
D02*
G37*
G36*
X323850Y383767D02*
X298450D01*
X297391Y383556D01*
X296494Y382956D01*
X269099Y355562D01*
X266752Y356534D01*
Y358366D01*
X257792D01*
Y358906D01*
X253572D01*
Y349766D01*
Y340626D01*
X257792D01*
Y341166D01*
X266752D01*
Y346999D01*
X267216D01*
X268275Y347210D01*
X269172Y347810D01*
X269420Y348057D01*
X271960Y347005D01*
Y343160D01*
X278130D01*
Y349030D01*
X273985D01*
X272933Y351570D01*
X299596Y378233D01*
X322704D01*
X331243Y369694D01*
Y337006D01*
X331178Y336979D01*
X329771Y335572D01*
X329010Y333735D01*
Y331745D01*
X329771Y329908D01*
X331178Y328501D01*
X333015Y327740D01*
X335005D01*
X336842Y328501D01*
X338249Y329908D01*
X339010Y331745D01*
Y333735D01*
X338249Y335572D01*
X336842Y336979D01*
X336777Y337006D01*
Y370840D01*
X336566Y371899D01*
X335966Y372796D01*
X325806Y382956D01*
X324909Y383556D01*
X323850Y383767D01*
D02*
G37*
G36*
X824660Y324771D02*
X808990D01*
Y317901D01*
X824660D01*
Y324771D01*
D02*
G37*
G36*
X806450D02*
X790780D01*
Y317901D01*
X806450D01*
Y324771D01*
D02*
G37*
G36*
X86279Y436130D02*
X44478D01*
X42650Y435889D01*
X41447Y435391D01*
X40478D01*
X38059Y434910D01*
X36008Y433539D01*
X34637Y431488D01*
X34156Y429069D01*
X34637Y426650D01*
X36008Y424599D01*
X38059Y423229D01*
X40478Y422748D01*
X41417D01*
Y422692D01*
X41658Y420865D01*
X42363Y419162D01*
X43485Y417700D01*
X46280Y414906D01*
Y354456D01*
X43485Y351662D01*
X42363Y350200D01*
X41948Y349199D01*
X41447Y348991D01*
X40478D01*
X38059Y348510D01*
X36008Y347140D01*
X34637Y345089D01*
X34156Y342670D01*
X34637Y340251D01*
X36008Y338200D01*
X38059Y336829D01*
X40478Y336348D01*
X41447D01*
X42650Y335850D01*
X44478Y335609D01*
X86279D01*
X88107Y335850D01*
X89310Y336348D01*
X91779D01*
X94199Y336829D01*
X96249Y338200D01*
X97620Y340251D01*
X98101Y342670D01*
X97620Y345089D01*
X97151Y345790D01*
X98509Y348330D01*
X101219D01*
Y348330D01*
X103697Y348182D01*
X104580Y348006D01*
X109092D01*
Y345414D01*
X104580D01*
X103507Y345200D01*
X102597Y344593D01*
X101990Y343683D01*
X101776Y342610D01*
Y338110D01*
X101990Y337037D01*
X102597Y336127D01*
X103507Y335520D01*
X104580Y335306D01*
X109092D01*
Y332714D01*
X104580D01*
X103507Y332500D01*
X102597Y331893D01*
X101990Y330983D01*
X101776Y329910D01*
Y325410D01*
X101990Y324337D01*
X102597Y323427D01*
X103507Y322820D01*
X104580Y322606D01*
X109092D01*
Y320014D01*
X104580D01*
X103507Y319800D01*
X102597Y319193D01*
X101990Y318283D01*
X101776Y317210D01*
Y312710D01*
X101990Y311637D01*
X102597Y310727D01*
X103507Y310120D01*
X104580Y309906D01*
X122780D01*
X123853Y310120D01*
X124763Y310727D01*
X125370Y311637D01*
X125584Y312710D01*
Y317210D01*
X125370Y318283D01*
X124763Y319193D01*
X123853Y319800D01*
X122780Y320014D01*
X118268D01*
Y322606D01*
X122780D01*
X123853Y322820D01*
X124763Y323427D01*
X125370Y324337D01*
X125584Y325410D01*
Y329910D01*
X125370Y330983D01*
X124763Y331893D01*
X123853Y332500D01*
X122780Y332714D01*
X118268D01*
Y335306D01*
X122780D01*
X123853Y335520D01*
X124763Y336127D01*
X125370Y337037D01*
X125584Y338110D01*
Y342610D01*
X125370Y343683D01*
X124763Y344593D01*
X123853Y345200D01*
X122780Y345414D01*
X118268D01*
Y348006D01*
X122780D01*
X123853Y348220D01*
X124763Y348827D01*
X125370Y349737D01*
X125584Y350810D01*
Y355310D01*
X125370Y356383D01*
X124763Y357293D01*
X123853Y357900D01*
X122780Y358114D01*
X118888D01*
Y358140D01*
X118539Y359896D01*
X117544Y361384D01*
X113816Y365113D01*
X112538Y365967D01*
Y406941D01*
X112189Y408697D01*
X111194Y410186D01*
X108265Y413115D01*
X106777Y414109D01*
X105021Y414458D01*
X101219D01*
Y416599D01*
X92479D01*
Y419139D01*
X101219D01*
Y423409D01*
X98509D01*
X97151Y425949D01*
X97620Y426650D01*
X98101Y429069D01*
X97620Y431488D01*
X96249Y433539D01*
X94199Y434910D01*
X91779Y435391D01*
X89310D01*
X88107Y435889D01*
X86279Y436130D01*
D02*
G37*
G36*
X824660Y315361D02*
X808990D01*
Y308491D01*
X824660D01*
Y315361D01*
D02*
G37*
G36*
X806450D02*
X790780D01*
Y308491D01*
X806450D01*
Y315361D01*
D02*
G37*
G36*
X265210Y307340D02*
X259340D01*
Y301170D01*
X265210D01*
Y307340D01*
D02*
G37*
G36*
X142510Y287040D02*
X136040D01*
Y280670D01*
X142510D01*
Y287040D01*
D02*
G37*
G36*
X905120Y295199D02*
X886120D01*
X884032Y294924D01*
X882085Y294118D01*
X880414Y292836D01*
X879132Y291164D01*
X878326Y289218D01*
X878051Y287130D01*
X878326Y285042D01*
X879132Y283095D01*
X880414Y281424D01*
X882085Y280142D01*
X884032Y279336D01*
X886120Y279061D01*
X905120D01*
X907208Y279336D01*
X909154Y280142D01*
X910826Y281424D01*
X912108Y283095D01*
X912914Y285042D01*
X913189Y287130D01*
X912914Y289218D01*
X912108Y291164D01*
X910826Y292836D01*
X909154Y294118D01*
X907208Y294924D01*
X905120Y295199D01*
D02*
G37*
G36*
X449036Y285981D02*
X444885Y281830D01*
X449248Y277467D01*
X453399Y281618D01*
X449036Y285981D01*
D02*
G37*
G36*
X435976Y284402D02*
X431613Y280040D01*
X435764Y275889D01*
X440127Y280252D01*
X435976Y284402D01*
D02*
G37*
G36*
X142510Y278130D02*
X136040D01*
Y271760D01*
X142510D01*
Y278130D01*
D02*
G37*
G36*
X455195Y279822D02*
X451044Y275671D01*
X455407Y271308D01*
X459558Y275459D01*
X455195Y279822D01*
D02*
G37*
G36*
X429817Y278244D02*
X425454Y273881D01*
X429605Y269730D01*
X433968Y274093D01*
X429817Y278244D01*
D02*
G37*
G36*
X657585Y278050D02*
X655595D01*
X653758Y277289D01*
X652351Y275882D01*
X651590Y274045D01*
Y272055D01*
X652351Y270218D01*
X653758Y268811D01*
X655595Y268050D01*
X657585D01*
X659422Y268811D01*
X660829Y270218D01*
X661590Y272055D01*
Y274045D01*
X660829Y275882D01*
X659422Y277289D01*
X657585Y278050D01*
D02*
G37*
G36*
X391594Y489728D02*
X251460D01*
X249704Y489379D01*
X248216Y488384D01*
X238056Y478224D01*
X237061Y476736D01*
X236712Y474980D01*
Y468640D01*
X234700D01*
Y466868D01*
X220721D01*
X220343Y467120D01*
X219270Y467334D01*
X201070D01*
X199997Y467120D01*
X199087Y466513D01*
X198480Y465603D01*
X198266Y464530D01*
Y460030D01*
X198480Y458957D01*
X199087Y458047D01*
X199997Y457440D01*
X201070Y457226D01*
X205582D01*
Y454634D01*
X201070D01*
X199997Y454420D01*
X199087Y453813D01*
X198480Y452903D01*
X198266Y451830D01*
Y449009D01*
X196684Y447093D01*
X195800Y446960D01*
X194585D01*
X192748Y446199D01*
X191341Y444792D01*
X190580Y442955D01*
Y440965D01*
X190992Y439971D01*
Y436880D01*
Y407178D01*
X177800D01*
X176044Y406829D01*
X174556Y405834D01*
X159936Y391214D01*
X158941Y389726D01*
X158592Y387970D01*
Y358114D01*
X154080D01*
X153007Y357900D01*
X152097Y357293D01*
X151490Y356383D01*
X151276Y355310D01*
Y350810D01*
X151490Y349737D01*
X152097Y348827D01*
X153007Y348220D01*
X154080Y348006D01*
X158592D01*
Y345414D01*
X154080D01*
X153007Y345200D01*
X152097Y344593D01*
X151490Y343683D01*
X151276Y342610D01*
Y338110D01*
X151490Y337037D01*
X152097Y336127D01*
X153007Y335520D01*
X154080Y335306D01*
X158592D01*
Y332714D01*
X154080D01*
X153007Y332500D01*
X152629Y332248D01*
X148590D01*
X146834Y331899D01*
X145346Y330904D01*
X140536Y326094D01*
X139541Y324606D01*
X139192Y322850D01*
Y304280D01*
X136580D01*
Y290080D01*
X148740D01*
X150980Y290080D01*
X153917Y290080D01*
X154957Y289040D01*
X153905Y286500D01*
X151520D01*
Y287040D01*
X145050D01*
Y279400D01*
Y271760D01*
X151520D01*
Y272300D01*
X165680D01*
Y286500D01*
X161247D01*
Y290080D01*
X165680D01*
Y300637D01*
X165736Y300721D01*
X165947Y301780D01*
Y309906D01*
X172280D01*
X173353Y310120D01*
X174263Y310727D01*
X174870Y311637D01*
X175084Y312710D01*
Y317210D01*
X174870Y318283D01*
X174263Y319193D01*
X173353Y319800D01*
X172280Y320014D01*
X154080D01*
X153007Y319800D01*
X152097Y319193D01*
X151490Y318283D01*
X151276Y317210D01*
Y312710D01*
X151490Y311637D01*
X152097Y310727D01*
X153007Y310120D01*
X154080Y309906D01*
X160413D01*
Y304280D01*
X151280Y304280D01*
X150164D01*
X148368Y306076D01*
Y320950D01*
X150491Y323072D01*
X152629D01*
X153007Y322820D01*
X154080Y322606D01*
X172280D01*
X173353Y322820D01*
X174263Y323427D01*
X174870Y324337D01*
X175084Y325410D01*
Y329910D01*
X174870Y330983D01*
X174263Y331893D01*
X173353Y332500D01*
X172280Y332714D01*
X167768D01*
Y335306D01*
X172280D01*
X173353Y335520D01*
X174263Y336127D01*
X174870Y337037D01*
X175084Y338110D01*
Y342610D01*
X174870Y343683D01*
X174263Y344593D01*
X173353Y345200D01*
X172280Y345414D01*
X167768D01*
Y348006D01*
X172280D01*
X173353Y348220D01*
X174263Y348827D01*
X174870Y349737D01*
X175084Y350810D01*
Y355310D01*
X174870Y356383D01*
X174263Y357293D01*
X173353Y357900D01*
X172280Y358114D01*
X167768D01*
Y386069D01*
X179701Y398002D01*
X197540D01*
Y394220D01*
X211940D01*
Y394220D01*
X212240D01*
Y394220D01*
X216943D01*
Y390640D01*
X212750D01*
Y391180D01*
X206280D01*
Y383540D01*
Y375900D01*
X212750D01*
Y376440D01*
X226910D01*
Y390640D01*
X222477D01*
Y394220D01*
X226640D01*
Y408420D01*
X222207D01*
Y409396D01*
X221996Y410455D01*
X221396Y411352D01*
X215969Y416780D01*
X216941Y419126D01*
X219270D01*
X220343Y419340D01*
X221253Y419947D01*
X221860Y420857D01*
X222074Y421930D01*
Y426430D01*
X221860Y427503D01*
X221253Y428413D01*
X220343Y429020D01*
X219270Y429234D01*
X203417D01*
X202635Y430530D01*
X203417Y431826D01*
X219270D01*
X220343Y432040D01*
X220721Y432292D01*
X233860D01*
Y426460D01*
X241300D01*
X248740D01*
Y432330D01*
X248740Y432330D01*
X248740Y432330D01*
X248200Y434646D01*
Y447290D01*
X234400D01*
Y441468D01*
X220721D01*
X220343Y441720D01*
X219270Y441934D01*
X214758D01*
Y444526D01*
X219270D01*
X220343Y444740D01*
X221253Y445347D01*
X221860Y446257D01*
X222074Y447330D01*
Y451830D01*
X221860Y452903D01*
X221253Y453813D01*
X220343Y454420D01*
X219270Y454634D01*
X214758D01*
Y457226D01*
X219270D01*
X220343Y457440D01*
X220721Y457692D01*
X234700D01*
Y450840D01*
X247900D01*
Y468640D01*
X245888D01*
Y473079D01*
X253361Y480552D01*
X330050D01*
X330301Y478012D01*
X329984Y477949D01*
X328496Y476954D01*
X302899Y451358D01*
X267000D01*
Y468640D01*
X253800D01*
Y450840D01*
X255812D01*
Y447550D01*
X253450D01*
X253450Y434906D01*
X252910Y432590D01*
X252910Y432034D01*
Y426720D01*
X260350D01*
X267790D01*
Y432034D01*
X267790Y432590D01*
X267250Y434906D01*
X267250Y440025D01*
X269326Y442182D01*
X276082D01*
Y421001D01*
X247082Y392001D01*
X246088Y391589D01*
X244681Y390182D01*
X244269Y389188D01*
X240004Y384922D01*
X239009Y383434D01*
X238798Y382373D01*
X235970D01*
Y368573D01*
X238214D01*
Y358366D01*
X237852D01*
Y341166D01*
X237852Y341166D01*
X238182Y338626D01*
X237686Y337428D01*
Y335439D01*
X237852Y335038D01*
Y318266D01*
X238214D01*
Y315510D01*
X235970D01*
Y301710D01*
X248614Y301710D01*
X250930Y301170D01*
X251486Y301170D01*
X256800D01*
Y308610D01*
X258070D01*
Y309880D01*
X265210D01*
Y315726D01*
X265210Y316050D01*
X265992Y318266D01*
X266752D01*
Y323623D01*
X272500D01*
Y319790D01*
X286300D01*
X286300Y332434D01*
X286840Y334750D01*
X286840Y335306D01*
Y340620D01*
X279400D01*
X271960D01*
Y335306D01*
X271960Y334750D01*
X272500Y332434D01*
X272500Y329157D01*
X266752D01*
Y335466D01*
X256852D01*
Y318590D01*
X256852Y318266D01*
X256070Y316050D01*
X251486D01*
X250930Y316050D01*
X249930Y315817D01*
X249183Y316318D01*
X247752Y318266D01*
Y335466D01*
X247686D01*
Y337428D01*
X247414Y338086D01*
X248872Y340606D01*
X248902Y340626D01*
X251032D01*
Y349766D01*
Y358906D01*
X247390D01*
Y366771D01*
X247862Y367249D01*
X249834Y368289D01*
X250930Y368033D01*
X250930Y368033D01*
X250930Y368033D01*
X256800D01*
Y375473D01*
Y382913D01*
X255034D01*
X254743Y383163D01*
X253546Y385453D01*
X253571Y385512D01*
X283914Y415856D01*
X284909Y417344D01*
X285258Y419100D01*
Y442182D01*
X300212D01*
Y404579D01*
X299800Y403585D01*
Y401595D01*
X300561Y399758D01*
X301968Y398351D01*
X303805Y397590D01*
X305795D01*
X307632Y398351D01*
X309039Y399758D01*
X309800Y401595D01*
Y403585D01*
X309388Y404579D01*
Y444869D01*
X333641Y469122D01*
X342128D01*
X344390Y468450D01*
X344390Y466582D01*
Y462280D01*
X351530D01*
Y461010D01*
X352800D01*
Y453570D01*
X355386D01*
X356490Y451676D01*
X356573Y451030D01*
X356240Y450631D01*
X354186D01*
Y448472D01*
X333946D01*
X332887Y448262D01*
X331989Y447662D01*
X326596Y442269D01*
X325996Y441371D01*
X325786Y440312D01*
Y399158D01*
X325996Y398099D01*
X326596Y397201D01*
X340133Y383664D01*
Y354330D01*
X340344Y353271D01*
X340944Y352374D01*
X379044Y314274D01*
X379941Y313674D01*
X381000Y313463D01*
X430074D01*
X430101Y313398D01*
X431508Y311991D01*
X433345Y311230D01*
X435335D01*
X437172Y311991D01*
X438579Y313398D01*
X439340Y315235D01*
Y317225D01*
X438579Y319062D01*
X437927Y319714D01*
X437433Y321310D01*
X437927Y322906D01*
X438579Y323558D01*
X439340Y325395D01*
Y327385D01*
X438579Y329222D01*
X437172Y330629D01*
X435335Y331390D01*
X433345D01*
X431508Y330629D01*
X430101Y329222D01*
X430074Y329157D01*
X425777D01*
X424080Y331697D01*
X424100Y331745D01*
Y333735D01*
X423700Y334700D01*
X424822Y336910D01*
X425188Y337240D01*
X426200D01*
Y349400D01*
X426200Y352756D01*
X427996Y354552D01*
X439059D01*
X446262Y347350D01*
Y308610D01*
X446611Y306854D01*
X447606Y305366D01*
X457125Y295846D01*
Y294885D01*
X456505Y292874D01*
X454983Y291927D01*
X454590Y291534D01*
X450832Y287777D01*
X456093Y282516D01*
X461354Y277255D01*
X465111Y281012D01*
X465505Y281406D01*
X466173Y282480D01*
X469094Y283151D01*
X474508Y277736D01*
X473837Y274815D01*
X472763Y274147D01*
X472370Y273754D01*
X468612Y269997D01*
X473873Y264736D01*
X479134Y259475D01*
X481676Y262017D01*
X484673Y261421D01*
X484711Y261328D01*
X486118Y259921D01*
X486283Y259091D01*
X472133Y244942D01*
X470263Y246812D01*
X469007Y248832D01*
X468613Y249225D01*
X464856Y252983D01*
X459595Y247722D01*
X454334Y242461D01*
X458092Y238704D01*
X458485Y238310D01*
X459559Y237642D01*
X459736Y236962D01*
X458879Y235583D01*
X457645Y235322D01*
X457013Y235332D01*
X453544Y238801D01*
X448495Y233752D01*
X447597Y234650D01*
X446699Y233752D01*
X441438Y239013D01*
X437681Y235255D01*
X437288Y234862D01*
X436161Y233050D01*
X435379Y232485D01*
X433134D01*
X426618Y239001D01*
X424949Y240850D01*
X429100Y245001D01*
X423839Y250262D01*
X424737Y251160D01*
X423839Y252058D01*
X428888Y257107D01*
X424731Y261264D01*
X424525Y261469D01*
X423432Y263557D01*
X427427Y267552D01*
X423276Y271702D01*
X418015Y266442D01*
X416219Y268238D01*
X421480Y273498D01*
X417723Y277256D01*
X417329Y277649D01*
X416255Y278317D01*
X416117Y278921D01*
X418236Y281040D01*
X418840Y280902D01*
X419508Y279827D01*
X419901Y279434D01*
X423658Y275677D01*
X428919Y280938D01*
X434180Y286199D01*
X430423Y289956D01*
X430029Y290349D01*
X428010Y291605D01*
X419069Y300546D01*
X419069D01*
X417134Y302202D01*
X416989Y302552D01*
X415582Y303959D01*
X413745Y304720D01*
X411755D01*
X409918Y303959D01*
X408511Y302552D01*
X407750Y300715D01*
Y298725D01*
X408511Y296888D01*
X409918Y295481D01*
X410268Y295336D01*
X411246Y292723D01*
X409311Y290788D01*
X410734Y289365D01*
X407792Y286423D01*
X406369Y287846D01*
X405416Y286892D01*
X403019Y286042D01*
X401612Y287449D01*
X399775Y288210D01*
X397785D01*
X395948Y287449D01*
X394541Y286042D01*
X393780Y284205D01*
Y282215D01*
X394541Y280378D01*
X395948Y278971D01*
X396611Y278088D01*
Y278088D01*
X397132Y275763D01*
X395536Y274167D01*
X394541Y272678D01*
X394192Y270923D01*
Y255197D01*
X394541Y253441D01*
X395536Y251953D01*
X396409Y251080D01*
X395811Y250482D01*
X395050Y248645D01*
Y246655D01*
X395811Y244818D01*
X397218Y243411D01*
X399055Y242650D01*
X399342D01*
X405037Y236955D01*
X406525Y235961D01*
X408281Y235612D01*
X409031D01*
X413989Y230654D01*
X417988Y234653D01*
X427915Y224726D01*
X427091Y223902D01*
X436849Y214144D01*
X436849D01*
X438991Y213068D01*
X440398Y211661D01*
X442235Y210900D01*
X444225D01*
X446062Y211661D01*
X446186Y211785D01*
X448371D01*
X450126Y212134D01*
X451615Y213129D01*
X468022Y229536D01*
X469445Y228114D01*
X471751Y230420D01*
X475409Y226762D01*
X475821Y225768D01*
X477228Y224361D01*
X479065Y223600D01*
X481055D01*
X482892Y224361D01*
X484299Y225768D01*
X485060Y227605D01*
Y229595D01*
X484299Y231432D01*
X482892Y232839D01*
X481898Y233251D01*
X478240Y236909D01*
X479203Y237872D01*
X478622Y238453D01*
X494734Y254566D01*
X495729Y256054D01*
X496078Y257810D01*
Y266761D01*
X495729Y268516D01*
X494734Y270005D01*
X492194Y272545D01*
X492194Y272545D01*
X491817Y272922D01*
X493481Y274586D01*
X483723Y284344D01*
X482301Y282921D01*
X475180Y290042D01*
X475701Y292366D01*
X476852Y294520D01*
X477949Y295618D01*
X478710Y297455D01*
Y299445D01*
X478164Y300763D01*
X478914Y302525D01*
X479520Y303303D01*
X486410D01*
X487469Y303514D01*
X488366Y304114D01*
X498986Y314733D01*
X523364D01*
X540793Y297304D01*
Y239906D01*
X490804Y189916D01*
X490204Y189019D01*
X489993Y187960D01*
Y142197D01*
X485890D01*
Y146630D01*
X471690D01*
Y134470D01*
X471690Y132230D01*
Y130979D01*
X469894Y129183D01*
X467753D01*
X467085Y129460D01*
X465095D01*
X463258Y128699D01*
X461851Y127292D01*
X461090Y125455D01*
Y123465D01*
X461851Y121628D01*
X463258Y120221D01*
X465095Y119460D01*
X467085D01*
X468405Y120007D01*
X471690D01*
Y117530D01*
X485890D01*
Y129690D01*
X485890Y131930D01*
X485890Y134867D01*
X487686Y136663D01*
X507140D01*
Y136045D01*
X512773D01*
Y131560D01*
X508120D01*
Y132100D01*
X501650D01*
Y124460D01*
Y116820D01*
X508120D01*
Y117360D01*
X522280D01*
Y131560D01*
X518307D01*
Y136045D01*
X523940D01*
Y137636D01*
X529040D01*
Y135750D01*
X542840D01*
Y137762D01*
X547862D01*
Y118360D01*
X545550D01*
Y105160D01*
X545550Y105160D01*
X545010Y103400D01*
X545010Y103400D01*
X545010Y102827D01*
Y97530D01*
X552450D01*
X559890D01*
Y103400D01*
X559890D01*
X559512Y104632D01*
X560430Y106543D01*
X562970Y105965D01*
Y100320D01*
X576170D01*
Y116062D01*
X582070D01*
Y100320D01*
X584692D01*
Y95290D01*
X581780D01*
Y80378D01*
X559045D01*
X552650Y86773D01*
X553622Y89120D01*
X559890D01*
Y94990D01*
X552450D01*
X545010D01*
Y90438D01*
X522423D01*
X522262Y90599D01*
X520425Y91360D01*
X518435D01*
X516598Y90599D01*
X515191Y89192D01*
X514893Y88471D01*
X512736Y86315D01*
X511852Y84992D01*
X511542Y83431D01*
X511542Y83431D01*
Y63735D01*
X511539Y61979D01*
X509723Y60851D01*
X509701Y60842D01*
X508294Y59435D01*
X507533Y57597D01*
Y55608D01*
X506518Y54090D01*
X503340D01*
Y39890D01*
X517740D01*
Y39890D01*
X518040D01*
Y39890D01*
X532440D01*
Y54090D01*
X528809D01*
Y54230D01*
X528537Y55596D01*
X527763Y56754D01*
X526677Y57840D01*
X526701Y60599D01*
X527952Y61851D01*
X528630Y63487D01*
Y65257D01*
X527952Y66893D01*
X526701Y68144D01*
X525065Y68822D01*
X523295D01*
X522238Y68384D01*
X520396Y69195D01*
X519698Y69776D01*
Y81360D01*
X520425D01*
X522262Y82121D01*
X522423Y82282D01*
X533839D01*
X534609Y79742D01*
X534010Y79341D01*
X532640Y77290D01*
X532159Y74871D01*
Y63871D01*
X532640Y61452D01*
X534010Y59401D01*
X536061Y58031D01*
X538480Y57550D01*
X540899Y58031D01*
X542950Y59401D01*
X544320Y61452D01*
X544801Y63871D01*
Y74871D01*
X544320Y77290D01*
X542950Y79341D01*
X542351Y79742D01*
X543121Y82282D01*
X545606D01*
X553570Y74318D01*
X553627Y74034D01*
X554621Y72546D01*
X556110Y71551D01*
X557865Y71202D01*
X581780D01*
Y56290D01*
X596780D01*
Y95290D01*
X593868D01*
Y100320D01*
X595270D01*
Y115409D01*
X597810Y115791D01*
X603472Y110129D01*
Y61409D01*
X603060Y60415D01*
Y58425D01*
X603821Y56588D01*
X605228Y55181D01*
X607065Y54420D01*
X609055D01*
X610892Y55181D01*
X612299Y56588D01*
X613060Y58425D01*
Y60415D01*
X612648Y61409D01*
Y112030D01*
X612299Y113786D01*
X611304Y115274D01*
X602684Y123894D01*
X601196Y124889D01*
X599440Y125238D01*
X571500D01*
X569744Y124889D01*
X568256Y123894D01*
X566326Y121964D01*
X565331Y120476D01*
X564982Y118720D01*
Y118120D01*
X562970D01*
Y116348D01*
X559350D01*
Y118360D01*
X557038D01*
Y139700D01*
X556689Y141456D01*
X555694Y142944D01*
X553044Y145595D01*
X551556Y146589D01*
X549800Y146938D01*
X544684D01*
X543093Y149478D01*
X543380Y150710D01*
X543380Y151267D01*
Y156580D01*
X535940D01*
X528500D01*
Y151267D01*
X528500Y150710D01*
X529040Y148394D01*
X529040Y144304D01*
X524080D01*
Y147375D01*
X515540D01*
X507000D01*
Y143605D01*
X505043Y142197D01*
X495527D01*
Y186814D01*
X545516Y236804D01*
X546116Y237701D01*
X546327Y238760D01*
Y298450D01*
X546116Y299509D01*
X545516Y300406D01*
X526466Y319456D01*
X525569Y320056D01*
X524510Y320267D01*
X497840D01*
X496781Y320056D01*
X495884Y319456D01*
X486652Y310225D01*
X485864Y310044D01*
X485369Y310183D01*
X483790Y312696D01*
Y314685D01*
X483763Y314750D01*
X492636Y323623D01*
X534794D01*
X559843Y298574D01*
Y246256D01*
X500964Y187376D01*
X500364Y186479D01*
X500153Y185420D01*
Y157046D01*
X500364Y155987D01*
X500964Y155090D01*
X501800Y154254D01*
X502697Y153654D01*
X503756Y153443D01*
X507000D01*
Y149915D01*
X515540D01*
X524080D01*
Y153685D01*
X523940D01*
Y156530D01*
X524328Y156918D01*
X525050Y157999D01*
X525304Y159275D01*
Y168360D01*
X528014Y168360D01*
X530330Y167820D01*
X530886Y167820D01*
X536200D01*
Y175260D01*
Y182700D01*
X530886D01*
X530330Y182700D01*
X529213Y182440D01*
X526970Y184103D01*
Y185145D01*
X526209Y186982D01*
X524802Y188389D01*
X522965Y189150D01*
X520975D01*
X519138Y188389D01*
X517731Y186982D01*
X516970Y185145D01*
Y183155D01*
X515370Y182160D01*
X515370D01*
Y168360D01*
X518636D01*
Y161785D01*
X516810D01*
Y156320D01*
X514270D01*
Y161785D01*
X511600D01*
Y161245D01*
X507140D01*
X505687Y163183D01*
Y184274D01*
X564566Y243154D01*
X565166Y244051D01*
X565377Y245110D01*
Y299720D01*
X565166Y300779D01*
X564566Y301676D01*
X537896Y328346D01*
X536999Y328946D01*
X535940Y329157D01*
X491490D01*
X490431Y328946D01*
X489534Y328346D01*
X479850Y318663D01*
X479785Y318690D01*
X477795D01*
X475958Y317929D01*
X475888Y317859D01*
X474035Y318832D01*
X473630Y319193D01*
Y321035D01*
X472869Y322872D01*
X471462Y324279D01*
X469625Y325040D01*
X467635D01*
X465798Y324279D01*
X464391Y322872D01*
X463630Y321035D01*
Y319045D01*
X463657Y318980D01*
X461594Y316916D01*
X460994Y316019D01*
X460783Y314960D01*
Y312420D01*
X460783Y312420D01*
X460994Y311361D01*
X461594Y310464D01*
X467944Y304114D01*
X468403Y303806D01*
X468416Y303776D01*
X468221Y303438D01*
X465943Y302124D01*
X465943D01*
X465161Y301342D01*
X464679Y301269D01*
X455438Y310511D01*
Y349250D01*
X455089Y351006D01*
X454094Y352494D01*
X444204Y362384D01*
X442716Y363379D01*
X440960Y363728D01*
X426200D01*
Y366340D01*
X412000D01*
Y363728D01*
X408420D01*
Y366340D01*
X394220D01*
Y363728D01*
X390640D01*
Y366340D01*
X376440D01*
Y354180D01*
X376440Y351940D01*
X376440Y349400D01*
Y338501D01*
X373900Y337449D01*
X355827Y355522D01*
Y401288D01*
X357560Y403110D01*
X371720D01*
Y402570D01*
X378190D01*
Y410210D01*
Y417850D01*
X371720D01*
Y417310D01*
X365353D01*
Y425431D01*
X370986D01*
Y427021D01*
X379180D01*
Y423930D01*
X392980D01*
Y425942D01*
X395521D01*
X396515Y425530D01*
X398505D01*
X400342Y426291D01*
X401749Y427698D01*
X402510Y429535D01*
Y431525D01*
X401749Y433362D01*
X400342Y434769D01*
X398505Y435530D01*
X396515D01*
X395521Y435118D01*
X394824D01*
X393233Y437658D01*
X393520Y438890D01*
X393520Y439446D01*
Y444760D01*
X386080D01*
X378640D01*
Y439446D01*
X378640Y438890D01*
X379180Y436574D01*
X379180Y433690D01*
X371126D01*
Y436761D01*
X362586D01*
X354046D01*
Y433122D01*
X348730D01*
Y434920D01*
X334530D01*
Y422760D01*
X334530Y420520D01*
X334530Y417980D01*
Y405820D01*
X334964D01*
X336630Y403585D01*
Y401595D01*
X337391Y399758D01*
X338798Y398351D01*
X340635Y397590D01*
X342625D01*
X344462Y398351D01*
X345869Y399758D01*
X346630Y401595D01*
Y403585D01*
X346939Y403999D01*
X347792Y404021D01*
X350293Y401569D01*
Y354441D01*
X350150Y354305D01*
X347936Y353206D01*
X345667Y355476D01*
Y384810D01*
X345456Y385869D01*
X344856Y386766D01*
X331319Y400304D01*
Y439166D01*
X335092Y442939D01*
X354046D01*
Y439301D01*
X362586D01*
X371126D01*
Y443071D01*
X370986D01*
Y450631D01*
X370920D01*
Y454110D01*
X373630D01*
Y467910D01*
X371618D01*
Y472874D01*
X371269Y474630D01*
X370274Y476118D01*
X369438Y476954D01*
X367950Y477949D01*
X367634Y478012D01*
X367884Y480552D01*
X387842D01*
Y463550D01*
X388191Y461794D01*
X389186Y460306D01*
X393966Y455525D01*
X393935Y455466D01*
X393935Y455466D01*
X392729Y453170D01*
X391307Y453170D01*
X387350D01*
Y447300D01*
X393520D01*
Y450774D01*
X393520Y452379D01*
X395875Y453616D01*
X431166Y418326D01*
X432654Y417331D01*
X434410Y416982D01*
X598879D01*
X644382Y371479D01*
Y364490D01*
X644731Y362734D01*
X645726Y361246D01*
X707956Y299016D01*
X709444Y298021D01*
X711200Y297672D01*
X715502D01*
Y284054D01*
X713400D01*
Y271894D01*
X713400Y268539D01*
X711604Y266743D01*
X708666D01*
X706870Y268539D01*
X706870Y271630D01*
Y283790D01*
X704358D01*
Y284914D01*
X704009Y286670D01*
X703014Y288158D01*
X702178Y288994D01*
X700690Y289989D01*
X698934Y290338D01*
X675089D01*
X674095Y290750D01*
X672105D01*
X670268Y289989D01*
X668861Y288582D01*
X668100Y286745D01*
Y284755D01*
X668861Y282918D01*
X670268Y281511D01*
X672105Y280750D01*
X674095D01*
X675089Y281162D01*
X692670D01*
Y271630D01*
X692670Y269390D01*
X691153Y267478D01*
X676910D01*
X675154Y267129D01*
X673666Y266134D01*
X663916Y256384D01*
X662921Y254896D01*
X662572Y253140D01*
Y250308D01*
X660032Y248717D01*
X658800Y249004D01*
X658244Y249004D01*
X652930D01*
Y241564D01*
Y234124D01*
X657783D01*
X658859Y231609D01*
X656756Y229506D01*
X655761Y228017D01*
X655520Y226804D01*
X647300D01*
Y217844D01*
X646760D01*
Y213624D01*
X655900D01*
X665040D01*
Y217844D01*
X664500D01*
Y221861D01*
X664588Y222304D01*
Y224361D01*
X669423Y229195D01*
X670417Y230684D01*
X670766Y232439D01*
Y234664D01*
X673760D01*
Y248464D01*
X671748D01*
Y251239D01*
X678811Y258302D01*
X692670D01*
Y254690D01*
X706870D01*
Y257566D01*
X713400D01*
Y254954D01*
X727600D01*
Y257566D01*
X736705D01*
X745391Y248881D01*
Y198159D01*
X732154Y184923D01*
X703470D01*
Y187534D01*
X689270D01*
Y173134D01*
X689270D01*
Y172834D01*
X689270D01*
Y168401D01*
X684420D01*
Y172864D01*
X684960D01*
Y179334D01*
X677320D01*
X669680D01*
Y172864D01*
X670220D01*
Y168671D01*
X667092D01*
X666977Y168786D01*
Y198194D01*
X666766Y199253D01*
X666166Y200151D01*
X664500Y201817D01*
Y206864D01*
X665040D01*
Y211084D01*
X655900D01*
X646760D01*
Y206864D01*
X647300D01*
Y197904D01*
X660587D01*
X661443Y197048D01*
Y167640D01*
X661654Y166581D01*
X662254Y165684D01*
X663989Y163948D01*
X664887Y163348D01*
X665946Y163138D01*
X670220D01*
Y158705D01*
X684420D01*
Y162868D01*
X689270D01*
Y158434D01*
X703470D01*
Y172834D01*
X703470D01*
Y173134D01*
X703470D01*
Y175746D01*
X734054D01*
X735810Y176096D01*
X737299Y177090D01*
X753223Y193015D01*
X754218Y194503D01*
X754567Y196259D01*
Y250781D01*
X754218Y252537D01*
X753223Y254025D01*
X741850Y265399D01*
X740361Y266393D01*
X738606Y266743D01*
X729396D01*
X727600Y268539D01*
X727600Y271894D01*
Y284054D01*
X724678D01*
Y302260D01*
X724329Y304016D01*
X723334Y305504D01*
X721846Y306499D01*
X720090Y306848D01*
X713101D01*
X653558Y366390D01*
Y373380D01*
X653209Y375136D01*
X652214Y376624D01*
X604024Y424814D01*
X602536Y425809D01*
X600780Y426158D01*
X436310D01*
X397018Y465451D01*
Y484304D01*
X396669Y486060D01*
X395674Y487548D01*
X394838Y488384D01*
X393350Y489379D01*
X391594Y489728D01*
D02*
G37*
G36*
X466816Y268201D02*
X462665Y264050D01*
X467028Y259687D01*
X471179Y263838D01*
X466816Y268201D01*
D02*
G37*
G36*
X472975Y262042D02*
X468824Y257891D01*
X473187Y253528D01*
X477338Y257679D01*
X472975Y262042D01*
D02*
G37*
G36*
X458909Y258930D02*
X454546Y254567D01*
X458697Y250416D01*
X463060Y254779D01*
X458909Y258930D01*
D02*
G37*
G36*
X219435Y361870D02*
X217445D01*
X215608Y361109D01*
X214201Y359702D01*
X213789Y358708D01*
X194876Y339794D01*
X193881Y338306D01*
X193532Y336550D01*
Y250610D01*
X190992Y250359D01*
X190929Y250676D01*
X189934Y252164D01*
X188446Y253159D01*
X188073Y253233D01*
X186415Y253920D01*
X184425D01*
X183431Y253508D01*
X180590D01*
Y255820D01*
X167946Y255820D01*
X165630Y256360D01*
X165074Y256360D01*
X159760D01*
Y248920D01*
Y241480D01*
X165074D01*
X165630Y241480D01*
X166862Y241767D01*
X169402Y240176D01*
Y237500D01*
X169320D01*
Y219700D01*
X182520D01*
Y237500D01*
X178578D01*
Y242020D01*
X180590D01*
Y244332D01*
X183431D01*
X184425Y243920D01*
X186415D01*
X188073Y244607D01*
X188446Y244681D01*
X189934Y245676D01*
X190929Y247164D01*
X190992Y247481D01*
X193532Y247230D01*
Y208999D01*
X193120Y208005D01*
Y206015D01*
X193532Y205021D01*
Y200514D01*
X190992Y198923D01*
X189760Y199210D01*
X189204Y199210D01*
X183890D01*
Y191770D01*
Y184330D01*
X189204D01*
X189760Y184330D01*
X192076Y184870D01*
X195946Y184870D01*
Y178660D01*
X194355D01*
Y174200D01*
X193815D01*
Y171530D01*
X199280D01*
Y168990D01*
X193815D01*
Y168027D01*
X185580D01*
X184521Y167816D01*
X183624Y167216D01*
X179654Y163246D01*
X179054Y162349D01*
X178843Y161290D01*
Y139700D01*
X179054Y138641D01*
X179654Y137744D01*
X187274Y130124D01*
X188171Y129524D01*
X189230Y129313D01*
X422910D01*
X423969Y129524D01*
X424866Y130124D01*
X530276Y235534D01*
X530876Y236431D01*
X531087Y237490D01*
Y287020D01*
X530876Y288079D01*
X530276Y288976D01*
X525196Y294056D01*
X524299Y294656D01*
X523240Y294867D01*
X514350D01*
X513291Y294656D01*
X513016Y294472D01*
X512805Y294560D01*
X510815D01*
X508978Y293799D01*
X507571Y292392D01*
X506810Y290555D01*
Y289385D01*
X504707Y288310D01*
X502840Y289868D01*
Y291825D01*
X502079Y293662D01*
X500672Y295069D01*
X498835Y295830D01*
X496845D01*
X495008Y295069D01*
X493601Y293662D01*
X492840Y291825D01*
Y289835D01*
X493601Y287998D01*
X495008Y286591D01*
X496845Y285830D01*
X498835D01*
X498900Y285857D01*
X509043Y275714D01*
Y236096D01*
X424304Y151357D01*
X221560D01*
Y156960D01*
X217397D01*
Y161860D01*
X219555D01*
Y167493D01*
X226750D01*
Y163080D01*
X240910D01*
Y162540D01*
X247380D01*
Y170180D01*
Y177820D01*
X240910D01*
Y177280D01*
X226750D01*
Y173027D01*
X219555D01*
Y178660D01*
X219234D01*
Y184870D01*
X221944Y184870D01*
X224260Y184330D01*
X224816Y184330D01*
X230130D01*
Y191770D01*
Y199210D01*
X224816D01*
X224260Y199210D01*
X223028Y198923D01*
X220488Y200514D01*
Y227881D01*
X220900Y228875D01*
Y230865D01*
X220139Y232702D01*
X218732Y234109D01*
X216895Y234870D01*
X214905D01*
X213068Y234109D01*
X211661Y232702D01*
X210900Y230865D01*
Y228875D01*
X211312Y227881D01*
Y198670D01*
X209300D01*
Y184870D01*
X212566D01*
Y181103D01*
X211995Y178800D01*
X208225D01*
Y170260D01*
X205685D01*
Y178800D01*
X202614D01*
Y184870D01*
X204720D01*
Y198670D01*
X202708D01*
Y205021D01*
X203120Y206015D01*
Y208005D01*
X202708Y208999D01*
Y334650D01*
X220278Y352219D01*
X221272Y352631D01*
X222679Y354038D01*
X223440Y355875D01*
Y357865D01*
X222679Y359702D01*
X221272Y361109D01*
X219435Y361870D01*
D02*
G37*
G36*
X157220Y256360D02*
X151350D01*
Y250190D01*
X157220D01*
Y256360D01*
D02*
G37*
G36*
X430684Y255311D02*
X426533Y251160D01*
X430896Y246797D01*
X435047Y250948D01*
X430684Y255311D01*
D02*
G37*
G36*
X452750Y252771D02*
X448387Y248408D01*
X452538Y244257D01*
X456901Y248620D01*
X452750Y252771D01*
D02*
G37*
G36*
X650390Y249004D02*
X644520D01*
Y242834D01*
X650390D01*
Y249004D01*
D02*
G37*
G36*
X157220Y247650D02*
X151350D01*
Y241480D01*
X157220D01*
Y247650D01*
D02*
G37*
G36*
X447385Y244960D02*
X443234Y240809D01*
X447597Y236446D01*
X451748Y240597D01*
X447385Y244960D01*
D02*
G37*
G36*
X650390Y240294D02*
X644520D01*
Y234124D01*
X650390D01*
Y240294D01*
D02*
G37*
G36*
X163420Y237500D02*
X150220D01*
Y219700D01*
X147800Y219410D01*
X142497D01*
X141965Y219630D01*
X139975D01*
X138138Y218869D01*
X136731Y217462D01*
X135970Y215625D01*
Y213635D01*
X136382Y212641D01*
Y106129D01*
X135970Y105135D01*
Y103145D01*
X136731Y101308D01*
X138138Y99901D01*
X139975Y99140D01*
X141965D01*
X143802Y99901D01*
X145209Y101308D01*
X145970Y103145D01*
Y105135D01*
X145558Y106129D01*
Y210233D01*
X152634D01*
X154390Y210582D01*
X155878Y211577D01*
X158807Y214506D01*
X159802Y215994D01*
X160151Y217750D01*
Y219700D01*
X163420D01*
Y237500D01*
D02*
G37*
G36*
X889225Y212779D02*
X887236D01*
X886242Y212367D01*
X880669D01*
Y212779D01*
X859669D01*
Y202819D01*
X859669Y202779D01*
Y200279D01*
X858832Y198046D01*
X765509D01*
X764451Y197835D01*
X763553Y197236D01*
X734644Y168326D01*
X734044Y167429D01*
X733833Y166370D01*
Y146050D01*
X734044Y144991D01*
X734644Y144094D01*
X739724Y139014D01*
X740621Y138414D01*
X741680Y138203D01*
X758156D01*
X759567Y136608D01*
X759034Y134080D01*
X757328Y134080D01*
X744109D01*
Y119920D01*
X749057D01*
Y107430D01*
X744910D01*
Y93230D01*
X757070D01*
X758916Y93230D01*
X760485Y91724D01*
X760810Y91165D01*
Y89175D01*
X761571Y87338D01*
X762978Y85931D01*
X764815Y85170D01*
X766805D01*
X768642Y85931D01*
X770049Y87338D01*
X770810Y89175D01*
Y91165D01*
X772704Y93230D01*
X774010D01*
Y107430D01*
X761850D01*
X759610Y107430D01*
X757130Y107430D01*
X754590Y107576D01*
Y119920D01*
X758384Y119920D01*
X760183Y119456D01*
X761496Y118512D01*
X762584Y117424D01*
X763481Y116824D01*
X764429Y116636D01*
Y111030D01*
X775311D01*
X783363Y102978D01*
Y92710D01*
X783574Y91651D01*
X784174Y90754D01*
X789254Y85674D01*
X790151Y85074D01*
X791210Y84863D01*
X814070D01*
X815129Y85074D01*
X816026Y85674D01*
X820566Y90214D01*
X821166Y91111D01*
X821377Y92170D01*
Y93230D01*
X825810D01*
Y107430D01*
X813650D01*
X811410Y107430D01*
X808870Y107430D01*
X804153D01*
Y111030D01*
X809101D01*
Y125190D01*
X793671D01*
Y111030D01*
X798620D01*
Y107430D01*
X796710D01*
Y93230D01*
X809701D01*
X811059Y90690D01*
X810863Y90397D01*
X792356D01*
X788897Y93856D01*
Y104124D01*
X788686Y105182D01*
X788086Y106080D01*
X779859Y114308D01*
Y125190D01*
X765402D01*
Y128810D01*
X779859D01*
Y142970D01*
X774247D01*
X773740Y145300D01*
X773740D01*
Y159500D01*
X761365D01*
X760313Y162040D01*
X778386Y180113D01*
X785903D01*
Y139700D01*
X786114Y138641D01*
X786714Y137744D01*
X789254Y135204D01*
X790151Y134604D01*
X791210Y134393D01*
X793671D01*
Y128810D01*
X809101D01*
Y142970D01*
X793671D01*
Y142970D01*
X791437Y143707D01*
Y180113D01*
X859076D01*
X859669Y177779D01*
Y175279D01*
X859072Y172947D01*
X846276D01*
X846249Y173012D01*
X844842Y174419D01*
X843005Y175180D01*
X841015D01*
X839178Y174419D01*
X837771Y173012D01*
X837010Y171175D01*
Y169185D01*
X837771Y167348D01*
X839178Y165941D01*
X841015Y165180D01*
X843005D01*
X844842Y165941D01*
X846249Y167348D01*
X846276Y167413D01*
X858593D01*
X859669Y165279D01*
Y162779D01*
X857129Y161890D01*
X855705Y162480D01*
X853715D01*
X851878Y161719D01*
X850471Y160312D01*
X849710Y158475D01*
Y156485D01*
X850471Y154648D01*
X851878Y153241D01*
X853715Y152480D01*
X855705D01*
X857037Y153032D01*
X857941Y152653D01*
X859155Y150929D01*
X859129Y150819D01*
X859129Y150463D01*
Y146549D01*
X870169D01*
X881209D01*
Y150463D01*
X881209Y150819D01*
X880669Y153135D01*
X880669Y153359D01*
Y162739D01*
X880669Y162779D01*
Y165279D01*
X880669Y165319D01*
Y175239D01*
X880669Y175279D01*
Y177779D01*
X880669Y177819D01*
Y187739D01*
X880669Y187779D01*
Y190279D01*
X880669Y190319D01*
Y200239D01*
X880669Y200279D01*
Y202779D01*
X883056Y203191D01*
X886242D01*
X887236Y202779D01*
X889225D01*
X891063Y203540D01*
X892470Y204947D01*
X893231Y206784D01*
Y208774D01*
X892470Y210611D01*
X891063Y212018D01*
X889225Y212779D01*
D02*
G37*
G36*
X384201Y210573D02*
X380050Y206422D01*
X384413Y202059D01*
X388564Y206210D01*
X384201Y210573D01*
D02*
G37*
G36*
X390360Y204414D02*
X386209Y200263D01*
X390572Y195900D01*
X394723Y200051D01*
X390360Y204414D01*
D02*
G37*
G36*
X614680Y201670D02*
X608510D01*
Y195800D01*
X614680D01*
Y201670D01*
D02*
G37*
G36*
X232670Y199210D02*
Y193040D01*
X238540D01*
Y199210D01*
X232670D01*
D02*
G37*
G36*
X181350D02*
X175480D01*
Y193040D01*
X181350D01*
Y199210D01*
D02*
G37*
G36*
X397209Y198181D02*
X393058Y194030D01*
X397421Y189667D01*
X401572Y193818D01*
X397209Y198181D01*
D02*
G37*
G36*
X401108Y226716D02*
X392326Y217934D01*
X392167Y217775D01*
X390148Y216520D01*
X389754Y216126D01*
X385997Y212369D01*
X391258Y207108D01*
X396519Y201847D01*
X400276Y205604D01*
X400670Y205998D01*
X402084Y208176D01*
X404551Y210643D01*
X407493Y207701D01*
X405176Y205384D01*
X403156Y204128D01*
X402762Y203734D01*
X399005Y199977D01*
X404266Y194716D01*
X409527Y189455D01*
X413284Y193213D01*
X413678Y193606D01*
X414934Y195625D01*
X423874Y204566D01*
X420951Y207489D01*
X422326Y208864D01*
X422926Y209761D01*
X423137Y210820D01*
Y214174D01*
X423202Y214201D01*
X424609Y215608D01*
X425370Y217445D01*
Y219435D01*
X424609Y221272D01*
X423202Y222679D01*
X421365Y223440D01*
X419375D01*
X417538Y222679D01*
X416131Y221272D01*
X415370Y219435D01*
Y217445D01*
X415924Y216108D01*
X414116Y214324D01*
X414116D01*
X411405Y211614D01*
X408464Y214555D01*
X410866Y216958D01*
X401108Y226716D01*
D02*
G37*
G36*
X649230Y192860D02*
Y186690D01*
X655100D01*
Y192860D01*
X649230D01*
D02*
G37*
G36*
X238540Y190500D02*
X232670D01*
Y184330D01*
X238540D01*
Y190500D01*
D02*
G37*
G36*
X181350D02*
X175480D01*
Y184330D01*
X181350D01*
Y190500D01*
D02*
G37*
G36*
X403368Y192022D02*
X399217Y187871D01*
X403580Y183508D01*
X407731Y187659D01*
X403368Y192022D01*
D02*
G37*
G36*
X684960Y188344D02*
X678590D01*
Y181874D01*
X684960D01*
Y188344D01*
D02*
G37*
G36*
X676050D02*
X669680D01*
Y181874D01*
X676050D01*
Y188344D01*
D02*
G37*
G36*
X45980Y185240D02*
Y179070D01*
X51850D01*
Y185240D01*
X45980D01*
D02*
G37*
G36*
X655100Y184150D02*
X649230D01*
Y177980D01*
X655100D01*
Y184150D01*
D02*
G37*
G36*
X630915Y290750D02*
X628925D01*
X627088Y289989D01*
X625681Y288582D01*
X624920Y286745D01*
Y284755D01*
X625332Y283761D01*
Y241931D01*
X613892Y230490D01*
X612897Y229002D01*
X612548Y227246D01*
Y225040D01*
X609050D01*
Y221758D01*
X593926D01*
X592170Y221409D01*
X590682Y220414D01*
X589846Y219578D01*
X588851Y218090D01*
X588502Y216334D01*
Y147320D01*
X588851Y145564D01*
X589846Y144076D01*
X676206Y57716D01*
X677694Y56721D01*
X679450Y56372D01*
X833120D01*
X834876Y56721D01*
X836364Y57716D01*
X852874Y74226D01*
X853869Y75714D01*
X854218Y77470D01*
Y104691D01*
X854630Y105685D01*
Y107675D01*
X853869Y109512D01*
X852462Y110919D01*
X850625Y111680D01*
X848635D01*
X846798Y110919D01*
X845391Y109512D01*
X844630Y107675D01*
Y105685D01*
X845042Y104691D01*
Y79370D01*
X831219Y65548D01*
X681350D01*
X597678Y149221D01*
Y212582D01*
X608418D01*
X608510Y210080D01*
X608510Y209524D01*
Y204210D01*
X615950D01*
Y202940D01*
X617220D01*
Y195800D01*
X623348D01*
X623348Y195800D01*
X623390D01*
X624441Y197904D01*
X625930Y197904D01*
X629693D01*
Y192320D01*
X625860D01*
Y178520D01*
X638504Y178520D01*
X640820Y177980D01*
X641376Y177980D01*
X646690D01*
Y185420D01*
Y192860D01*
X641376D01*
X640820Y192860D01*
X638504Y192320D01*
X635227Y192320D01*
Y197904D01*
X641600D01*
Y207804D01*
X625930D01*
X624400Y207804D01*
X623390Y209926D01*
Y210080D01*
X622850Y212396D01*
X622850Y215007D01*
X624400Y216905D01*
X641600D01*
Y226804D01*
X626775D01*
X625723Y229344D01*
X633164Y236786D01*
X634159Y238274D01*
X634508Y240030D01*
Y283761D01*
X634920Y284755D01*
Y286745D01*
X634159Y288582D01*
X632752Y289989D01*
X630915Y290750D01*
D02*
G37*
G36*
X538740Y182700D02*
Y176530D01*
X544610D01*
Y182700D01*
X538740D01*
D02*
G37*
G36*
X256390Y177820D02*
X249920D01*
Y171450D01*
X256390D01*
Y177820D01*
D02*
G37*
G36*
X51850Y176530D02*
X45980D01*
Y170360D01*
X51850D01*
Y176530D01*
D02*
G37*
G36*
X37940Y252109D02*
X18940D01*
X16851Y251834D01*
X14905Y251028D01*
X13234Y249746D01*
X11952Y248074D01*
X11146Y246128D01*
X10871Y244040D01*
X11146Y241952D01*
X11952Y240005D01*
X13234Y238334D01*
X14905Y237052D01*
X16851Y236246D01*
X18940Y235971D01*
X23852D01*
Y184700D01*
X22610D01*
Y170900D01*
X23852D01*
Y123109D01*
X18940D01*
X16851Y122834D01*
X14905Y122028D01*
X13234Y120746D01*
X11952Y119074D01*
X11146Y117128D01*
X10871Y115040D01*
X11146Y112952D01*
X11952Y111005D01*
X13234Y109334D01*
X14905Y108052D01*
X16851Y107246D01*
X18940Y106971D01*
X37940D01*
X40028Y107246D01*
X41974Y108052D01*
X43645Y109334D01*
X44928Y111005D01*
X45734Y112952D01*
X46009Y115040D01*
X45734Y117128D01*
X44928Y119074D01*
X43645Y120746D01*
X41974Y122028D01*
X40028Y122834D01*
X37940Y123109D01*
X33028D01*
Y169104D01*
X34339Y170415D01*
X35568Y170827D01*
X37570Y170360D01*
X38126Y170360D01*
X43440D01*
Y177800D01*
X44710D01*
D01*
X43440D01*
Y185240D01*
X38126D01*
X37570Y185240D01*
X35568Y184773D01*
X34339Y185185D01*
X33028Y186496D01*
Y235971D01*
X37940D01*
X40028Y236246D01*
X41974Y237052D01*
X43645Y238334D01*
X44928Y240005D01*
X45734Y241952D01*
X46009Y244040D01*
X45734Y246128D01*
X44928Y248074D01*
X43645Y249746D01*
X41974Y251028D01*
X40028Y251834D01*
X37940Y252109D01*
D02*
G37*
G36*
X544610Y173990D02*
X538740D01*
Y167820D01*
X544610D01*
Y173990D01*
D02*
G37*
G36*
X622025Y175180D02*
X620035D01*
X618198Y174419D01*
X616791Y173012D01*
X616030Y171175D01*
Y169185D01*
X616791Y167348D01*
X618198Y165941D01*
X620035Y165180D01*
X622025D01*
X623862Y165941D01*
X625269Y167348D01*
X626030Y169185D01*
Y171175D01*
X625269Y173012D01*
X623862Y174419D01*
X622025Y175180D01*
D02*
G37*
G36*
X256390Y168910D02*
X249920D01*
Y162540D01*
X256390D01*
Y168910D01*
D02*
G37*
G36*
X543380Y164990D02*
X537210D01*
Y159120D01*
X543380D01*
Y164990D01*
D02*
G37*
G36*
X534670D02*
X528500D01*
Y159120D01*
X534670D01*
Y164990D01*
D02*
G37*
G36*
X881209Y144009D02*
X871439D01*
Y139739D01*
X881209D01*
Y144009D01*
D02*
G37*
G36*
X868899D02*
X859129D01*
Y139739D01*
X868899D01*
Y144009D01*
D02*
G37*
G36*
X499110Y132100D02*
X492640D01*
Y125730D01*
X499110D01*
Y132100D01*
D02*
G37*
G36*
X806175Y175180D02*
X804185D01*
X802348Y174419D01*
X800941Y173012D01*
X800180Y171175D01*
Y169185D01*
X800941Y167348D01*
X801683Y166606D01*
Y160770D01*
X797250D01*
Y146570D01*
X809410D01*
X811650Y146570D01*
X814587Y146570D01*
X816383Y144774D01*
Y134080D01*
X813991D01*
Y119920D01*
X829421D01*
Y134080D01*
X821917D01*
Y146570D01*
X826350D01*
Y160770D01*
X814190D01*
X811950Y160770D01*
X809013Y160770D01*
X807217Y162566D01*
Y165612D01*
X808012Y165941D01*
X809419Y167348D01*
X810180Y169185D01*
Y171175D01*
X809419Y173012D01*
X808012Y174419D01*
X806175Y175180D01*
D02*
G37*
G36*
X499110Y123190D02*
X492640D01*
Y116820D01*
X499110D01*
Y123190D01*
D02*
G37*
G36*
X891466Y95140D02*
X890270D01*
Y71370D01*
X914040D01*
Y72566D01*
X913078Y77404D01*
X911190Y81961D01*
X908450Y86062D01*
X904962Y89550D01*
X900861Y92290D01*
X896304Y94178D01*
X891466Y95140D01*
D02*
G37*
G36*
X887730D02*
X886534D01*
X881696Y94178D01*
X877139Y92290D01*
X873038Y89550D01*
X869550Y86062D01*
X866810Y81961D01*
X864922Y77404D01*
X863960Y72566D01*
Y71370D01*
X887730D01*
Y95140D01*
D02*
G37*
G36*
X32566D02*
X31370D01*
Y71370D01*
X55140D01*
Y72566D01*
X54178Y77404D01*
X52290Y81961D01*
X49550Y86062D01*
X46062Y89550D01*
X41961Y92290D01*
X37404Y94178D01*
X32566Y95140D01*
D02*
G37*
G36*
X28830D02*
X27634D01*
X22796Y94178D01*
X18239Y92290D01*
X14138Y89550D01*
X10650Y86062D01*
X7910Y81961D01*
X6022Y77404D01*
X5060Y72566D01*
Y71370D01*
X28830D01*
Y95140D01*
D02*
G37*
G36*
X472165Y92630D02*
X470175D01*
X468338Y91869D01*
X466931Y90462D01*
X466170Y88625D01*
Y86635D01*
X466931Y84798D01*
X468338Y83391D01*
X469332Y82979D01*
X470392Y81919D01*
Y70026D01*
X470159Y69750D01*
X467852Y68538D01*
X467166Y68822D01*
X465396D01*
X463760Y68144D01*
X462508Y66893D01*
X461831Y65257D01*
Y63487D01*
X462508Y61851D01*
X463760Y60599D01*
X465396Y59922D01*
X466401D01*
X467637Y57621D01*
X467647Y57575D01*
X467356Y57284D01*
X466361Y55796D01*
X466022Y54090D01*
X460700D01*
Y39890D01*
X472860D01*
X475100Y39890D01*
Y39890D01*
X475400D01*
Y39890D01*
X489800D01*
Y54090D01*
X488131D01*
X487600Y54886D01*
Y56875D01*
X486839Y58712D01*
X485432Y60119D01*
X483595Y60880D01*
X481605D01*
X479568Y62785D01*
Y83820D01*
X479219Y85576D01*
X478224Y87064D01*
X475821Y89468D01*
X475409Y90462D01*
X474002Y91869D01*
X472165Y92630D01*
D02*
G37*
G36*
X452080Y81193D02*
X449661Y80712D01*
X447610Y79341D01*
X446240Y77290D01*
X445759Y74871D01*
Y63871D01*
X446240Y61452D01*
X447610Y59401D01*
X449661Y58031D01*
X452080Y57550D01*
X454500Y58031D01*
X456550Y59401D01*
X457921Y61452D01*
X458402Y63871D01*
Y74871D01*
X457921Y77290D01*
X456550Y79341D01*
X454500Y80712D01*
X452080Y81193D01*
D02*
G37*
G36*
X914040Y68830D02*
X890270D01*
Y45060D01*
X891466D01*
X896304Y46022D01*
X900861Y47910D01*
X904962Y50650D01*
X908450Y54138D01*
X911190Y58239D01*
X913078Y62796D01*
X914040Y67634D01*
Y68830D01*
D02*
G37*
G36*
X887730D02*
X863960D01*
Y67634D01*
X864922Y62796D01*
X866810Y58239D01*
X869550Y54138D01*
X873038Y50650D01*
X877139Y47910D01*
X881696Y46022D01*
X886534Y45060D01*
X887730D01*
Y68830D01*
D02*
G37*
G36*
X55140D02*
X31370D01*
Y45060D01*
X32566D01*
X37404Y46022D01*
X41961Y47910D01*
X46062Y50650D01*
X49550Y54138D01*
X52290Y58239D01*
X54178Y62796D01*
X55140Y67634D01*
Y68830D01*
D02*
G37*
G36*
X28830D02*
X5060D01*
Y67634D01*
X6022Y62796D01*
X7910Y58239D01*
X10650Y54138D01*
X14138Y50650D01*
X18239Y47910D01*
X22796Y46022D01*
X27634Y45060D01*
X28830D01*
Y68830D01*
D02*
G37*
G36*
X597320Y50930D02*
X590550D01*
Y32160D01*
X597320D01*
Y50930D01*
D02*
G37*
G36*
X588010D02*
X581240D01*
Y32160D01*
X588010D01*
Y50930D01*
D02*
G37*
G36*
X360246Y55560D02*
X359050D01*
Y31790D01*
X382820D01*
Y32986D01*
X381858Y37824D01*
X379970Y42381D01*
X377230Y46482D01*
X373742Y49970D01*
X369641Y52710D01*
X365084Y54598D01*
X360246Y55560D01*
D02*
G37*
G36*
X356510D02*
X355314D01*
X350476Y54598D01*
X345919Y52710D01*
X341818Y49970D01*
X338330Y46482D01*
X335590Y42381D01*
X333702Y37824D01*
X332740Y32986D01*
Y31790D01*
X356510D01*
Y55560D01*
D02*
G37*
G36*
X538480Y37891D02*
X536061Y37410D01*
X534010Y36040D01*
X532640Y33989D01*
X532159Y31570D01*
Y23570D01*
X532640Y21151D01*
X534010Y19100D01*
X536061Y17729D01*
X538480Y17248D01*
X540899Y17729D01*
X542950Y19100D01*
X544320Y21151D01*
X544801Y23570D01*
Y31570D01*
X544320Y33989D01*
X542950Y36040D01*
X540899Y37410D01*
X538480Y37891D01*
D02*
G37*
G36*
X452080D02*
X449661Y37410D01*
X447610Y36040D01*
X446240Y33989D01*
X445759Y31570D01*
Y23570D01*
X446240Y21151D01*
X447610Y19100D01*
X449661Y17729D01*
X452080Y17248D01*
X454500Y17729D01*
X456550Y19100D01*
X457921Y21151D01*
X458402Y23570D01*
Y31570D01*
X457921Y33989D01*
X456550Y36040D01*
X454500Y37410D01*
X452080Y37891D01*
D02*
G37*
G36*
X597320Y29620D02*
X590550D01*
Y10850D01*
X597320D01*
Y29620D01*
D02*
G37*
G36*
X588010D02*
X581240D01*
Y10850D01*
X588010D01*
Y29620D01*
D02*
G37*
G36*
X382820Y29250D02*
X359050D01*
Y5480D01*
X360246D01*
X365084Y6442D01*
X369641Y8330D01*
X373742Y11070D01*
X377230Y14558D01*
X379970Y18659D01*
X381858Y23216D01*
X382820Y28054D01*
Y29250D01*
D02*
G37*
G36*
X356510D02*
X332740D01*
Y28054D01*
X333702Y23216D01*
X335590Y18659D01*
X338330Y14558D01*
X341818Y11070D01*
X345919Y8330D01*
X350476Y6442D01*
X355314Y5480D01*
X356510D01*
Y29250D01*
D02*
G37*
%LPD*%
G36*
X196850Y481330D02*
X179070Y463550D01*
Y417830D01*
X172124D01*
X171691Y419257D01*
X172142Y419558D01*
X172869Y420646D01*
X173125Y421930D01*
Y422910D01*
X160670D01*
X148216D01*
Y421930D01*
X148471Y420646D01*
X149198Y419558D01*
X149649Y419257D01*
X149216Y417830D01*
X138430D01*
Y459740D01*
X180317Y501627D01*
X196850Y501627D01*
Y481330D01*
D02*
G37*
%LPC*%
G36*
X169770Y467884D02*
X161940D01*
Y463550D01*
X173125D01*
Y464530D01*
X172869Y465814D01*
X172142Y466902D01*
X171054Y467629D01*
X169770Y467884D01*
D02*
G37*
G36*
X159400D02*
X151570D01*
X150286Y467629D01*
X149198Y466902D01*
X148471Y465814D01*
X148216Y464530D01*
Y463550D01*
X159400D01*
Y467884D01*
D02*
G37*
G36*
X173125Y461010D02*
X161940D01*
Y456675D01*
X169770D01*
X171054Y456931D01*
X172142Y457658D01*
X172869Y458746D01*
X173125Y460030D01*
Y461010D01*
D02*
G37*
G36*
X159400D02*
X148216D01*
Y460030D01*
X148471Y458746D01*
X149198Y457658D01*
X150286Y456931D01*
X151570Y456675D01*
X159400D01*
Y461010D01*
D02*
G37*
G36*
X169770Y455185D02*
X161940D01*
Y450850D01*
X173125D01*
Y451830D01*
X172869Y453114D01*
X172142Y454202D01*
X171054Y454929D01*
X169770Y455185D01*
D02*
G37*
G36*
X159400D02*
X151570D01*
X150286Y454929D01*
X149198Y454202D01*
X148471Y453114D01*
X148216Y451830D01*
Y450850D01*
X159400D01*
Y455185D01*
D02*
G37*
G36*
X173125Y448310D02*
X161940D01*
Y443975D01*
X169770D01*
X171054Y444231D01*
X172142Y444958D01*
X172869Y446046D01*
X173125Y447330D01*
Y448310D01*
D02*
G37*
G36*
X159400D02*
X148216D01*
Y447330D01*
X148471Y446046D01*
X149198Y444958D01*
X150286Y444231D01*
X151570Y443975D01*
X159400D01*
Y448310D01*
D02*
G37*
G36*
X169770Y442485D02*
X161940D01*
Y438150D01*
X173125D01*
Y439130D01*
X172869Y440414D01*
X172142Y441502D01*
X171054Y442229D01*
X169770Y442485D01*
D02*
G37*
G36*
X159400D02*
X151570D01*
X150286Y442229D01*
X149198Y441502D01*
X148471Y440414D01*
X148216Y439130D01*
Y438150D01*
X159400D01*
Y442485D01*
D02*
G37*
G36*
X173125Y435610D02*
X161940D01*
Y431275D01*
X169770D01*
X171054Y431531D01*
X172142Y432258D01*
X172869Y433346D01*
X173125Y434630D01*
Y435610D01*
D02*
G37*
G36*
X159400D02*
X148216D01*
Y434630D01*
X148471Y433346D01*
X149198Y432258D01*
X150286Y431531D01*
X151570Y431275D01*
X159400D01*
Y435610D01*
D02*
G37*
G36*
X169770Y429785D02*
X161940D01*
Y425450D01*
X173125D01*
Y426430D01*
X172869Y427714D01*
X172142Y428802D01*
X171054Y429529D01*
X169770Y429785D01*
D02*
G37*
G36*
X159400D02*
X151570D01*
X150286Y429529D01*
X149198Y428802D01*
X148471Y427714D01*
X148216Y426430D01*
Y425450D01*
X159400D01*
Y429785D01*
D02*
G37*
%LPD*%
G36*
X81844Y421759D02*
X80395Y419219D01*
X78759Y418542D01*
X77508Y417290D01*
X76830Y415654D01*
Y413884D01*
X77508Y412249D01*
X78759Y410997D01*
X80395Y410319D01*
X82165D01*
X82539Y410474D01*
X85079Y408956D01*
Y395668D01*
Y385669D01*
Y375669D01*
Y362683D01*
X82539Y361165D01*
X82165Y361320D01*
X80395D01*
X78759Y360643D01*
X77508Y359391D01*
X76830Y357755D01*
Y355985D01*
X77508Y354349D01*
X78759Y353097D01*
X80395Y352420D01*
X81665Y349880D01*
X81619Y349730D01*
X61981D01*
X60400Y351532D01*
Y417830D01*
X60185Y419469D01*
X60212Y419726D01*
X61935Y422009D01*
X81768D01*
X81844Y421759D01*
D02*
G37*
D12*
X190500Y172720D02*
X191312D01*
X193672Y170360D01*
X199180D01*
X199280Y170260D01*
X206955D01*
X513080Y164288D02*
Y165100D01*
Y164288D02*
X515440Y161928D01*
Y156420D02*
X515540Y156320D01*
X515440Y156420D02*
Y161928D01*
X524455Y148645D02*
X524510Y148590D01*
X515540Y148645D02*
X524455D01*
X506785D02*
X515540D01*
X506730Y148590D02*
X506785Y148645D01*
X353120Y438090D02*
X362526D01*
X362646D02*
X372050D01*
X362526D02*
X362586Y438031D01*
X353060Y438150D02*
X353120Y438090D01*
X515620Y63735D02*
X521486Y57868D01*
X521602D02*
X525240Y54230D01*
Y46990D02*
Y54230D01*
D13*
X190500Y149860D02*
X199660D01*
X215900Y175390D02*
Y191770D01*
X215770Y175260D02*
X215900Y175390D01*
X214630Y175260D02*
X215770D01*
X728706Y349050D02*
X735330Y342426D01*
X727350Y349050D02*
X728706D01*
X724610Y351790D02*
X727350Y349050D01*
X721510Y351790D02*
X724610D01*
X735330Y330200D02*
Y342426D01*
X583940Y391160D02*
X585800Y389300D01*
Y373490D02*
Y389300D01*
X595602Y365788D02*
X595630Y365760D01*
X585827Y365788D02*
X595602D01*
X585800Y365815D02*
Y373490D01*
Y365815D02*
X585827Y365788D01*
X372050Y438090D02*
X372110Y438150D01*
X362586Y438031D02*
Y445706D01*
X90749Y352140D02*
X92479Y353870D01*
X73660Y358140D02*
X73939Y357861D01*
X84639Y352140D02*
X90749D01*
X73939Y356121D02*
Y357861D01*
X83649Y351150D02*
X84639Y352140D01*
X78911Y351150D02*
X83649D01*
X73939Y356121D02*
X78911Y351150D01*
X198120Y191770D02*
X199280Y190610D01*
Y175260D02*
Y190610D01*
X590800Y382220D02*
X599440Y390860D01*
X590800Y373490D02*
Y382220D01*
Y358140D02*
X606200D01*
X521970Y159275D02*
Y175260D01*
X520540Y156320D02*
Y157845D01*
X521970Y159275D01*
X367586Y445706D02*
Y460454D01*
X520540Y140970D02*
X534560D01*
X367586Y430355D02*
X385905D01*
D20*
X429817Y280040D02*
D03*
X458697Y248620D02*
D03*
X417117Y267340D02*
D03*
X418857Y291000D02*
D03*
X469657Y237660D02*
D03*
X406157Y278300D02*
D03*
D21*
X697230Y444760D02*
D03*
X607470Y374910D02*
D03*
X615950Y202940D02*
D03*
X535940Y157850D02*
D03*
X552450Y96260D02*
D03*
X386080Y446030D02*
D03*
X279400Y341890D02*
D03*
X260350Y425450D02*
D03*
X241300Y425190D02*
D03*
X615950Y218440D02*
D03*
X697230Y429260D02*
D03*
X607470Y359410D02*
D03*
X241300Y440690D02*
D03*
X386080Y430530D02*
D03*
X535940Y142350D02*
D03*
X552450Y111760D02*
D03*
X279400Y326390D02*
D03*
X260350Y440950D02*
D03*
D26*
X158490Y248920D02*
D03*
X173990D02*
D03*
X44710Y177800D02*
D03*
X29210D02*
D03*
X841750Y447040D02*
D03*
X583940Y391160D02*
D03*
X651660Y241564D02*
D03*
X647960Y185420D02*
D03*
X537470Y175260D02*
D03*
X351530Y461010D02*
D03*
X258070Y375473D02*
D03*
Y308610D02*
D03*
X231400Y191770D02*
D03*
X182620D02*
D03*
X857250Y447040D02*
D03*
X242570Y375473D02*
D03*
X632460Y185420D02*
D03*
X667160Y241564D02*
D03*
X367030Y461010D02*
D03*
X521970Y175260D02*
D03*
X599440Y391160D02*
D03*
X242570Y308610D02*
D03*
X198120Y191770D02*
D03*
X215900D02*
D03*
D27*
X677320Y180604D02*
D03*
X419100Y344440D02*
D03*
Y359140D02*
D03*
X401320Y344440D02*
D03*
Y359140D02*
D03*
X383540Y344440D02*
D03*
Y359140D02*
D03*
X316230Y344440D02*
D03*
Y359140D02*
D03*
X677320Y165904D02*
D03*
X696370Y165634D02*
D03*
Y180334D02*
D03*
X720500Y276854D02*
D03*
Y262154D02*
D03*
X699770Y276590D02*
D03*
Y261890D02*
D03*
X341630Y427720D02*
D03*
Y413020D02*
D03*
X478790Y124730D02*
D03*
Y139430D02*
D03*
X565150Y362220D02*
D03*
Y376920D02*
D03*
D29*
X721510Y351790D02*
D03*
X746610Y361290D02*
D03*
Y351790D02*
D03*
Y342290D02*
D03*
X721510Y361290D02*
D03*
Y342290D02*
D03*
D33*
X455195Y281618D02*
D03*
X472975Y263838D02*
D03*
X424737Y251160D02*
D03*
X447597Y234650D02*
D03*
X403368Y193818D02*
D03*
X390360Y206210D02*
D03*
X466155Y292578D02*
D03*
X414328Y204778D02*
D03*
X401320Y217170D02*
D03*
X436637Y223690D02*
D03*
X413777Y240200D02*
D03*
X483935Y274798D02*
D03*
D34*
X569640Y342900D02*
D03*
X500380Y124460D02*
D03*
X379460Y410210D02*
D03*
X205010Y383540D02*
D03*
X143780Y279400D02*
D03*
X248650Y170180D02*
D03*
X766810Y100330D02*
D03*
X819150Y153670D02*
D03*
X751840Y152400D02*
D03*
X804450Y153670D02*
D03*
X467900Y46990D02*
D03*
X525240D02*
D03*
X482600D02*
D03*
X510540D02*
D03*
X143780Y297180D02*
D03*
X204740Y401320D02*
D03*
X364760Y410210D02*
D03*
X515080Y124460D02*
D03*
X584340Y342900D02*
D03*
X214360Y149860D02*
D03*
X199660D02*
D03*
X233950Y170180D02*
D03*
X766540Y152400D02*
D03*
X752110Y100330D02*
D03*
X818610D02*
D03*
X803910D02*
D03*
X158480Y279400D02*
D03*
Y297180D02*
D03*
X219440Y401320D02*
D03*
X219710Y383540D02*
D03*
D73*
X807720Y316631D02*
D03*
Y386629D02*
D03*
Y341630D02*
D03*
Y361630D02*
D03*
D78*
X702819Y349560D02*
X710542D01*
X714536Y345566D01*
X702819Y349560D02*
X702819Y349560D01*
X698596Y348700D02*
X699456Y349560D01*
X702819D01*
X704269Y353060D02*
X704269Y353060D01*
X698596Y343188D02*
Y348700D01*
X698500Y354592D02*
X700032Y353060D01*
X704269D01*
X704269Y353060D02*
X709582D01*
X714536Y358014D01*
X698500Y354592D02*
Y360680D01*
X715132Y358014D02*
X718408Y361290D01*
X714536Y358014D02*
X715132D01*
X718408Y361290D02*
X721510D01*
X698596Y343188D02*
X698692Y343092D01*
X715132Y345566D02*
X718408Y342290D01*
X714536Y345566D02*
X715132D01*
X718408Y342290D02*
X721510D01*
X781117Y353540D02*
X781277Y353380D01*
X756794Y353540D02*
X781117D01*
X755934Y354400D02*
X756794Y353540D01*
X806200Y353380D02*
X807060Y354240D01*
Y360970D01*
X807720Y361630D01*
X755934Y354400D02*
Y355664D01*
X753584Y358014D02*
X755934Y355664D01*
X752988Y358014D02*
X753584D01*
X781277Y353380D02*
X806200D01*
X746610Y361290D02*
X749712D01*
X752988Y358014D01*
X746610Y342290D02*
X749712D01*
X752988Y345566D01*
X753584D01*
X807060Y342290D02*
Y349020D01*
X806200Y349880D02*
X807060Y349020D01*
X779827Y349880D02*
X806200D01*
X755934Y349180D02*
X756794Y350040D01*
X755934Y347916D02*
Y349180D01*
X753584Y345566D02*
X755934Y347916D01*
X807060Y342290D02*
X807720Y341630D01*
X779667Y350040D02*
X779827Y349880D01*
X756794Y350040D02*
X779667D01*
D79*
X466090Y124460D02*
X466225Y124595D01*
X478655D01*
X478790Y124730D01*
X215900Y191770D02*
Y229870D01*
X173990Y248920D02*
X186690D01*
X198120Y207010D02*
Y336550D01*
Y191770D02*
Y207010D01*
Y336550D02*
X218440Y356870D01*
X44710Y177800D02*
X57150D01*
X28440Y115040D02*
Y177030D01*
X29210Y177800D01*
X28440Y178570D02*
Y244040D01*
Y178570D02*
X29210Y177800D01*
X140970Y104140D02*
Y214630D01*
X155563Y217750D02*
Y227343D01*
X141161Y214821D02*
X152634D01*
X155563Y227343D02*
X156820Y228600D01*
X152634Y214821D02*
X155563Y217750D01*
X158490Y248920D02*
Y261360D01*
X158750Y261620D01*
X173990Y230530D02*
X175920Y228600D01*
X173990Y230530D02*
Y248920D01*
X466934Y293357D02*
X468346D01*
X466155Y292578D02*
X466934Y293357D01*
X468346D02*
X473439Y298450D01*
X473710D01*
X190500Y485260D02*
Y496570D01*
X167520Y462280D02*
X190500Y485260D01*
X160670Y462280D02*
X167520D01*
X467900Y46990D02*
X468000D01*
X470600Y49590D01*
Y54040D01*
X474980Y58420D01*
Y83820D01*
X160670Y449580D02*
Y462280D01*
Y436880D02*
Y449580D01*
Y424180D02*
Y436880D01*
X617136Y227246D02*
X629920Y240030D01*
Y285750D01*
X617136Y219626D02*
Y227246D01*
X614680Y217170D02*
X617136Y219626D01*
X615950Y219970D02*
X618490D01*
X471170Y87630D02*
X474980Y83820D01*
X667160Y241564D02*
Y253140D01*
X676910Y262890D01*
X660000Y226261D02*
X666178Y232439D01*
Y240583D01*
X667160Y241564D01*
X660000Y222304D02*
Y226261D01*
X659550Y221854D02*
X660000Y222304D01*
X655900Y221854D02*
X659550D01*
X676910Y262890D02*
X698624D01*
X701340Y433070D02*
X707390D01*
X697530Y429260D02*
X701340Y433070D01*
X697230Y429260D02*
X697530D01*
X739255Y351675D02*
X746495D01*
X734060Y356870D02*
X739255Y351675D01*
X746495D02*
X746610Y351790D01*
X734060Y356870D02*
Y408940D01*
X742107Y414969D02*
Y416987D01*
X737321Y410183D02*
X742107Y414969D01*
Y416987D02*
Y421369D01*
X715670Y408940D02*
X734060D01*
X737321D01*
X742107Y413727D02*
Y416987D01*
X737321Y408940D02*
X742107Y413727D01*
Y409369D02*
Y413727D01*
X92479Y409870D02*
X105021D01*
X107950Y406941D01*
Y361869D02*
Y406941D01*
Y361869D02*
X110571D01*
X92479D02*
X107950D01*
X107950D02*
X107950Y361869D01*
X471000Y237660D02*
X480060Y228600D01*
X366194Y473710D02*
X367030Y472874D01*
X304800Y446770D02*
X331740Y473710D01*
X366194D01*
X367030Y461010D02*
Y472874D01*
X248920Y387350D02*
X280670Y419100D01*
X163180Y347920D02*
Y353060D01*
Y340360D02*
Y347920D01*
X195580Y436880D02*
X210170D01*
X195580D02*
Y441960D01*
X148590Y327660D02*
X163180D01*
X143780Y322850D02*
X148590Y327660D01*
X143780Y297180D02*
Y322850D01*
X593090Y147320D02*
Y216334D01*
X679450Y60960D02*
X833120D01*
X593090Y147320D02*
X679450Y60960D01*
X593926Y217170D02*
X614680D01*
X593090Y216334D02*
X593926Y217170D01*
X833120Y60960D02*
X849630Y77470D01*
Y106680D01*
X243248Y381678D02*
X248920Y387350D01*
X280670Y419100D02*
Y446770D01*
X600780Y421570D02*
X648970Y373380D01*
Y364490D02*
Y373380D01*
Y364490D02*
X711200Y302260D01*
X720090D01*
Y277264D02*
Y302260D01*
X434410Y421570D02*
X600780D01*
X720090Y277264D02*
X720500Y276854D01*
X113680Y314960D02*
Y327660D01*
Y340360D01*
Y353060D01*
X114300Y353680D01*
Y358140D01*
X110571Y361869D02*
X114300Y358140D01*
X392430Y463550D02*
X434410Y421570D01*
X392430Y463550D02*
Y484304D01*
X241300Y474980D02*
X251460Y485140D01*
X391594D01*
X392430Y484304D01*
X241300Y459740D02*
Y474980D01*
X599440Y390860D02*
Y402590D01*
X210170Y436880D02*
X237490D01*
X241300Y440690D01*
X210170Y462280D02*
X238760D01*
X241300Y459740D01*
X210170Y436880D02*
Y449580D01*
Y462280D01*
X194310Y402590D02*
X195580Y403860D01*
Y436880D01*
X194310Y402590D02*
X203470D01*
X204740Y401320D01*
X177800Y402590D02*
X194310D01*
X163180Y387970D02*
X177800Y402590D01*
X163180Y353060D02*
Y387970D01*
Y327660D02*
Y340360D01*
X614930Y442210D02*
X620910D01*
X526413Y442593D02*
X531616D01*
X434340Y443230D02*
X440120D01*
X440331Y443019D01*
X699770Y276590D02*
Y284914D01*
X698934Y285750D02*
X699770Y284914D01*
X673100Y285750D02*
X698934D01*
X626110Y359410D02*
X648970Y336550D01*
X607470Y359410D02*
X626110D01*
X557530Y377190D02*
X564880D01*
X565150Y376920D01*
X606200Y358140D02*
X607470Y359410D01*
X386080Y430530D02*
X397510D01*
X403690Y278300D02*
X406157D01*
X398780Y283210D02*
X403690Y278300D01*
X746894Y404582D02*
X798108D01*
X742107Y409369D02*
X746894Y404582D01*
X798108D02*
X807720Y394970D01*
Y386629D02*
Y394970D01*
X696570Y408940D02*
X697230Y409600D01*
Y429260D01*
X698624Y262890D02*
X699770Y261744D01*
X618490Y219970D02*
X620374Y221854D01*
X633000D01*
X870169Y207779D02*
X888231D01*
X521970Y175260D02*
Y184150D01*
X486443Y271808D02*
X491490Y266761D01*
X569570Y118720D02*
X571500Y120650D01*
X599440D02*
X608060Y112030D01*
X571500Y120650D02*
X599440D01*
X569570Y109220D02*
Y118720D01*
X567030Y111760D02*
X569570Y109220D01*
X552450Y111760D02*
X567030D01*
X608060Y59420D02*
Y112030D01*
X304800Y402590D02*
Y446770D01*
X280670D02*
X304800D01*
X341630Y402590D02*
Y413020D01*
X749979Y196259D02*
Y250781D01*
X696370Y180334D02*
X734054D01*
X749979Y196259D01*
X738606Y262154D02*
X749979Y250781D01*
X720500Y262154D02*
X738606D01*
X557865Y75790D02*
X589280D01*
Y108610D01*
X588670Y109220D02*
X589280Y108610D01*
X243248Y376151D02*
Y381678D01*
X242570Y375473D02*
X243248Y376151D01*
X260650Y440950D02*
X264536Y444837D01*
Y445136D01*
X266170Y446770D02*
X280670D01*
X264536Y445136D02*
X266170Y446770D01*
X260350Y440950D02*
X260650D01*
X699770Y261744D02*
X700180Y262154D01*
X720500D01*
X367030Y461010D02*
X367586Y460454D01*
X242570Y336550D02*
X242802Y336318D01*
Y326866D02*
Y336318D01*
X242570Y375473D02*
X242802Y375241D01*
Y349766D02*
Y375241D01*
X260350Y440950D02*
X260400Y441000D01*
Y459740D01*
X242570Y308610D02*
X242802Y308842D01*
Y326866D01*
X466155Y292578D02*
Y293305D01*
X450850Y308610D02*
X466155Y293305D01*
X450850Y308610D02*
Y349250D01*
X440960Y359140D02*
X450850Y349250D01*
X419100Y359140D02*
X440960D01*
X418930Y240200D02*
X443230Y215900D01*
X303260Y359140D02*
X316230D01*
X401320D02*
X419100D01*
X383540D02*
X401320D01*
X406157Y278300D02*
Y278300D01*
X398780Y270923D02*
X406157Y278300D01*
X398780Y255197D02*
Y270923D01*
Y255197D02*
X413777Y240200D01*
Y240200D02*
Y240200D01*
Y240200D02*
X418930D01*
X443230Y215900D02*
X443703Y216373D01*
X448371D01*
X469657Y237660D01*
X469657D01*
X486443Y271808D02*
Y271808D01*
X491490Y257810D02*
Y266761D01*
X471340Y237660D02*
X491490Y257810D01*
X486443Y271808D02*
X488950Y269300D01*
X466155Y292578D02*
X483935Y274798D01*
X406157Y278300D02*
X418857Y291000D01*
X552450Y111760D02*
Y139700D01*
X549800Y142350D02*
X552450Y139700D01*
X535940Y142350D02*
X549800D01*
X534560Y140970D02*
X535940Y142350D01*
X385905Y430355D02*
X386080Y430530D01*
X488950Y264160D02*
Y269300D01*
X408281Y240200D02*
X413777D01*
X400050Y247650D02*
X400830D01*
X408281Y240200D01*
X412750Y299720D02*
X418857Y293613D01*
Y291000D02*
Y293613D01*
D80*
X842010Y447300D02*
Y457200D01*
X841750Y447040D02*
X842010Y447300D01*
X744468Y468630D02*
X754380D01*
X742107Y466269D02*
X744468Y468630D01*
X696970Y444500D02*
X697230Y444760D01*
X689610Y444500D02*
X696970D01*
X808121Y316230D02*
X826770D01*
X807720Y316631D02*
X808121Y316230D01*
X658410Y441960D02*
Y442210D01*
Y441960D02*
X664210D01*
X607210Y374650D02*
X607470Y374910D01*
X599440Y374650D02*
X607210D01*
X582670Y392430D02*
X583940Y391160D01*
X569116Y443230D02*
X574040D01*
X576580Y392430D02*
X582670D01*
X477831Y443230D02*
X482600D01*
X477831Y443019D02*
Y443230D01*
X569116Y442593D02*
Y443230D01*
X561340Y342900D02*
X569640D01*
X657560Y247764D02*
Y252430D01*
X657860Y252730D01*
X653260Y243465D02*
X657560Y247764D01*
X653260Y243165D02*
Y243465D01*
X651660Y241564D02*
X653260Y243165D01*
X655900Y212354D02*
X655950Y212304D01*
X665266D02*
X668020Y209550D01*
X655950Y212304D02*
X665266D01*
X883421Y145279D02*
X883920Y144780D01*
X870169Y145279D02*
X883421D01*
X678180Y181465D02*
Y190500D01*
X677320Y180604D02*
X678180Y181465D01*
X647960Y185420D02*
X657860D01*
X608330Y203200D02*
X617220D01*
X537470Y175260D02*
X544830D01*
X535940Y157850D02*
X536310Y157480D01*
X543560D01*
X552190Y96520D02*
X552450Y96260D01*
X543560Y96520D02*
X552190D01*
X589280Y30890D02*
X589690Y30480D01*
X598170D01*
X500380Y124460D02*
X500480D01*
X502580Y118825D02*
Y122360D01*
X500480Y124460D02*
X502580Y122360D01*
Y118825D02*
X510915Y110490D01*
X513080D01*
X386340Y445770D02*
X394970D01*
X386080Y446030D02*
X386340Y445770D01*
X379460Y410210D02*
X388620D01*
X344170Y461010D02*
X351530D01*
X448200Y281830D02*
X454983D01*
X445770Y279400D02*
X448200Y281830D01*
X454983D02*
X455195Y281618D01*
X429817Y280040D02*
X429890D01*
X438150Y271780D01*
X417329Y267552D02*
X425868D01*
X417117Y267340D02*
X417329Y267552D01*
X279140Y341630D02*
X279400Y341890D01*
X271780Y341630D02*
X279140D01*
X260350Y417830D02*
Y425450D01*
X241300Y417830D02*
Y425190D01*
X92479Y417869D02*
X104101D01*
X104140Y417830D01*
X258517Y375920D02*
X265430D01*
X258070Y375473D02*
X258517Y375920D01*
X252352Y359032D02*
X252730Y359410D01*
X204470Y375920D02*
Y383000D01*
X258070Y308610D02*
X265430D01*
X252352Y349816D02*
Y359032D01*
X252302Y349766D02*
X252352Y349816D01*
X204470Y383000D02*
X205010Y383540D01*
X143510Y279130D02*
X143780Y279400D01*
X143510Y267970D02*
Y279130D01*
X463440Y264050D02*
X472763D01*
X472975Y263838D01*
X462280Y262890D02*
X463440Y264050D01*
X454660Y255270D02*
X458872Y251058D01*
Y248795D02*
Y251058D01*
X458697Y248620D02*
X458872Y248795D01*
X444500Y246380D02*
X447385Y243495D01*
Y234862D02*
X447597Y234650D01*
X447385Y234862D02*
Y243495D01*
X432770Y251160D02*
X436880Y255270D01*
X427424Y251160D02*
X432770D01*
X425868Y267552D02*
X429260Y264160D01*
X424949Y250948D02*
X427212D01*
X424737Y251160D02*
X424949Y250948D01*
X427212D02*
X427424Y251160D01*
X388620Y215530D02*
Y222250D01*
X403368Y193818D02*
X403580Y193606D01*
X410914D01*
X412750Y191770D01*
X388620Y215530D02*
X390148Y214002D01*
Y206422D02*
Y214002D01*
Y206422D02*
X390360Y206210D01*
X231400Y191770D02*
X243840D01*
X170180D02*
X182620D01*
X248650Y170180D02*
X262890D01*
D81*
X44478Y342670D02*
X48478D01*
X44478Y342670D02*
X44478Y342670D01*
X48478D02*
Y346670D01*
X44478Y342670D02*
X86279D01*
X48478Y346670D02*
X53340Y351532D01*
X44478Y429069D02*
X48478D01*
X44478Y429069D02*
X44478Y429069D01*
X44478Y429069D02*
X48478D01*
X86279D01*
X48478Y422692D02*
X53340Y417830D01*
X48478Y422692D02*
Y429069D01*
X53340Y351532D02*
Y417830D01*
X887860Y416130D02*
X895620D01*
X857250Y446740D02*
X887860Y416130D01*
X857250Y446740D02*
Y447040D01*
D82*
X181610Y139700D02*
Y161290D01*
Y139700D02*
X189230Y132080D01*
X422910D01*
X425450Y148590D02*
X511810Y234950D01*
X214360Y149860D02*
X215630Y148590D01*
X425450D01*
X422910Y132080D02*
X528320Y237490D01*
X181610Y161290D02*
X185580Y165260D01*
X199280D01*
X214360Y149860D02*
X214630Y150130D01*
Y165260D01*
Y170260D02*
X233870D01*
X233950Y170180D01*
X353060Y430355D02*
X357586D01*
X353060Y354376D02*
X381046Y326390D01*
X353060Y354376D02*
Y430355D01*
X357586Y428831D02*
Y430355D01*
X584340Y342900D02*
Y351051D01*
X585800Y352511D01*
Y358140D01*
X520700Y391160D02*
X566420D01*
X580196Y377384D01*
Y374094D02*
X580800Y373490D01*
X580196Y374094D02*
Y377384D01*
X543560Y238760D02*
Y298450D01*
X497840Y317500D02*
X524510D01*
X543560Y298450D01*
X523240Y292100D02*
X528320Y287020D01*
Y237490D02*
Y287020D01*
X511810Y289560D02*
X514350Y292100D01*
X523240D01*
X562610Y245110D02*
Y299720D01*
X535940Y326390D02*
X562610Y299720D01*
X502920Y185420D02*
X562610Y245110D01*
X486410Y306070D02*
X497840Y317500D01*
X492760Y187960D02*
X543560Y238760D01*
X491490Y326390D02*
X535940D01*
X564150Y363220D02*
X569230Y358140D01*
X472440Y363220D02*
X564150D01*
X569230Y358140D02*
X580800D01*
X452120Y443730D02*
Y466090D01*
Y443730D02*
X452831Y443019D01*
X542290Y444420D02*
X544116Y442593D01*
X542290Y444420D02*
Y467360D01*
X557530Y443507D02*
Y455930D01*
X556616Y442593D02*
X557530Y443507D01*
X464820Y443530D02*
Y455930D01*
Y443530D02*
X465331Y443019D01*
X646430Y425450D02*
Y441690D01*
X645910Y442210D02*
X646430Y441690D01*
X633826Y415387D02*
Y441794D01*
X633410Y442210D02*
X633826Y441794D01*
X842010Y170180D02*
X870070D01*
X267216Y349766D02*
X298450Y381000D01*
X261802Y349766D02*
X267216D01*
X298450Y381000D02*
X323850D01*
X334010Y370840D01*
X492760Y139430D02*
X509854D01*
X478790D02*
X492760D01*
Y139430D02*
Y187960D01*
Y139430D02*
X492760Y139430D01*
X804450Y153670D02*
Y169450D01*
X805180Y170180D01*
X342900Y354330D02*
X381000Y316230D01*
X434340D01*
X342900Y354330D02*
Y384810D01*
X328552Y399158D02*
Y440312D01*
Y399158D02*
X342900Y384810D01*
X333946Y445706D02*
X357586D01*
X328552Y440312D02*
X333946Y445706D01*
X341630Y427720D02*
X344266Y430355D01*
X353060D01*
X381046Y326390D02*
X434340D01*
X870070Y170180D02*
X870169Y170279D01*
X869870Y157480D02*
X870169Y157779D01*
X854710Y157480D02*
X869870D01*
X786130Y92710D02*
Y104124D01*
X791210Y87630D02*
X814070D01*
X786130Y92710D02*
X791210Y87630D01*
X814070D02*
X818610Y92170D01*
Y100330D01*
X736600Y146050D02*
Y166370D01*
Y146050D02*
X741680Y140970D01*
X759460D01*
X762635Y137795D01*
Y121285D02*
Y137795D01*
Y121285D02*
X764540Y119380D01*
X770874D01*
X772144Y118110D01*
X765509Y195279D02*
X870169D01*
X736600Y166370D02*
X765509Y195279D01*
X765810Y90170D02*
Y99330D01*
X766810Y100330D01*
X510540Y46990D02*
X512437Y48887D01*
Y56507D01*
X512533Y56603D01*
X482600Y46990D02*
Y55880D01*
X659550Y202854D02*
X664210Y198194D01*
Y167640D02*
X665946Y165904D01*
X664210Y167640D02*
Y198194D01*
X753165Y153725D02*
Y158805D01*
X777240Y182880D02*
X788670D01*
X751840Y152400D02*
X753165Y153725D01*
Y158805D02*
X777240Y182880D01*
X261802Y326866D02*
X262278Y326390D01*
X279400D01*
X158480Y297180D02*
X158580D01*
X163180Y301780D01*
Y314960D01*
X158480Y279400D02*
Y297180D01*
X502920Y157046D02*
Y185420D01*
Y157046D02*
X503756Y156210D01*
X510430D01*
X511810Y234950D02*
Y276860D01*
X677320Y165904D02*
X677590Y165634D01*
X696370D01*
X665946Y165904D02*
X677320D01*
X655900Y202854D02*
X659550D01*
X632460Y202314D02*
X633000Y202854D01*
X632460Y185420D02*
Y202314D01*
X362586Y412384D02*
X364760Y410210D01*
X362586Y412384D02*
Y430355D01*
X515080Y124460D02*
X515540Y124920D01*
Y140970D01*
X497840Y290830D02*
X511810Y276860D01*
X463550Y312420D02*
X469900Y306070D01*
X486410D01*
X463550Y314960D02*
X468630Y320040D01*
X463550Y312420D02*
Y314960D01*
X478790Y313690D02*
X491490Y326390D01*
X334010Y332740D02*
Y370840D01*
X316230Y332740D02*
Y344440D01*
X210170Y418666D02*
X219440Y409396D01*
Y401320D02*
Y409396D01*
Y401320D02*
X219710Y401050D01*
Y383540D02*
Y401050D01*
X210170Y418666D02*
Y424180D01*
X401936Y217170D02*
X414328Y204778D01*
X401320Y217170D02*
X401936D01*
X414328Y204778D02*
Y204778D01*
X420370Y210820D01*
Y218440D01*
X819150Y129556D02*
X821706Y127000D01*
X819150Y129556D02*
Y153670D01*
X788670Y139700D02*
Y182880D01*
X870069D01*
X870169Y182779D01*
X791210Y137160D02*
X800116D01*
X801386Y135890D01*
X788670Y139700D02*
X791210Y137160D01*
X777145Y113109D02*
X786130Y104124D01*
X777145Y113109D02*
Y113743D01*
X772779Y118110D02*
X777145Y113743D01*
X771509Y135890D02*
X772144D01*
X766540Y140859D02*
X771509Y135890D01*
X766540Y140859D02*
Y152400D01*
X751824Y100616D02*
X752110Y100330D01*
X751824Y100616D02*
Y127000D01*
X801386Y102854D02*
X803910Y100330D01*
X801386Y102854D02*
Y118110D01*
X510540Y140117D02*
Y140970D01*
X509854Y139430D02*
X510540Y140117D01*
X510430Y156210D02*
X510540Y156320D01*
X383540Y332740D02*
Y344440D01*
X401320Y332740D02*
Y344440D01*
X419100Y332740D02*
Y344440D01*
D83*
X28440Y115040D02*
D03*
Y244040D02*
D03*
X895620Y416130D02*
D03*
Y287130D02*
D03*
D84*
X889000Y471210D02*
D03*
Y70100D02*
D03*
X30100Y471210D02*
D03*
X357780Y30520D02*
D03*
X30100Y70100D02*
D03*
D85*
X86279Y342670D02*
D03*
Y429069D02*
D03*
D86*
X44478Y342670D02*
D03*
Y429069D02*
D03*
D87*
X81280Y356870D02*
D03*
Y414769D02*
D03*
X466281Y64372D02*
D03*
X524180D02*
D03*
D88*
X538480Y69371D02*
D03*
X452080D02*
D03*
D89*
X538480Y27570D02*
D03*
X452080D02*
D03*
D90*
X284200Y533401D02*
D03*
X167198Y533400D02*
D03*
D91*
X203200Y533400D02*
D03*
X248199D02*
D03*
D92*
X873760Y406400D02*
D03*
X853440Y365760D02*
D03*
X873760Y325120D02*
D03*
X853440Y284480D02*
D03*
X873760Y243840D02*
D03*
X853440Y121920D02*
D03*
X833120Y487680D02*
D03*
Y406400D02*
D03*
Y325120D02*
D03*
Y162560D02*
D03*
Y81280D02*
D03*
X792480Y487680D02*
D03*
X772160Y447040D02*
D03*
Y284480D02*
D03*
X792480Y81280D02*
D03*
X751840D02*
D03*
X711200Y487680D02*
D03*
X690880Y365760D02*
D03*
X711200Y81280D02*
D03*
X670560Y406400D02*
D03*
X650240Y121920D02*
D03*
X670560Y81280D02*
D03*
X629920Y162560D02*
D03*
Y81280D02*
D03*
X609600Y40640D02*
D03*
X568960Y284480D02*
D03*
X589280Y243840D02*
D03*
X568960Y203200D02*
D03*
X528320Y121920D02*
D03*
X447040Y365760D02*
D03*
Y203200D02*
D03*
X426720Y162560D02*
D03*
Y81280D02*
D03*
X406400Y40640D02*
D03*
X386080Y162560D02*
D03*
Y81280D02*
D03*
X325120Y447040D02*
D03*
X345440Y243840D02*
D03*
X325120Y203200D02*
D03*
X345440Y162560D02*
D03*
Y81280D02*
D03*
X325120Y40640D02*
D03*
X284480Y284480D02*
D03*
X304800Y243840D02*
D03*
X284480Y203200D02*
D03*
X304800Y162560D02*
D03*
Y81280D02*
D03*
X284480Y40640D02*
D03*
X243840Y284480D02*
D03*
X264160Y243840D02*
D03*
X243840Y203200D02*
D03*
X264160Y162560D02*
D03*
Y81280D02*
D03*
X243840Y40640D02*
D03*
X203200Y365760D02*
D03*
X223520Y325120D02*
D03*
Y162560D02*
D03*
Y81280D02*
D03*
X182880Y325120D02*
D03*
X162560Y203200D02*
D03*
X142240Y487680D02*
D03*
X121920Y447040D02*
D03*
X142240Y406400D02*
D03*
X121920Y365760D02*
D03*
Y284480D02*
D03*
X142240Y243840D02*
D03*
X121920Y203200D02*
D03*
Y121920D02*
D03*
X142240Y81280D02*
D03*
X101600Y487680D02*
D03*
X81280Y365760D02*
D03*
Y284480D02*
D03*
X101600Y243840D02*
D03*
X81280Y203200D02*
D03*
Y121920D02*
D03*
X101600Y81280D02*
D03*
X60960Y487680D02*
D03*
X40640Y365760D02*
D03*
X60960Y325120D02*
D03*
X40640Y284480D02*
D03*
X60960Y243840D02*
D03*
X40640Y203200D02*
D03*
X60960Y162560D02*
D03*
Y81280D02*
D03*
X466090Y124460D02*
D03*
X215900Y229870D02*
D03*
X185420Y248920D02*
D03*
X198120Y207010D02*
D03*
X190500Y149860D02*
D03*
X57150Y177800D02*
D03*
X95250Y144780D02*
D03*
X140970Y214630D02*
D03*
X158750Y261620D02*
D03*
X140970Y104140D02*
D03*
X191770Y102870D02*
D03*
X190500Y172720D02*
D03*
X892810Y486450D02*
D03*
X902470Y479292D02*
D03*
X880918Y484680D02*
D03*
X904240Y467400D02*
D03*
X897082Y457740D02*
D03*
X873760Y475020D02*
D03*
X875530Y463128D02*
D03*
X842010Y457200D02*
D03*
X885190Y455970D02*
D03*
X775970Y472440D02*
D03*
X754380Y468630D02*
D03*
X689610Y444500D02*
D03*
X664210Y441960D02*
D03*
X826770Y316230D02*
D03*
X735330Y330200D02*
D03*
X807720Y298450D02*
D03*
X723900Y234950D02*
D03*
X730250Y228600D02*
D03*
X711200Y323850D02*
D03*
X709930Y234950D02*
D03*
X716280Y228600D02*
D03*
X702310D02*
D03*
X599440Y374650D02*
D03*
X595630Y365760D02*
D03*
X574040Y443230D02*
D03*
X576580Y392430D02*
D03*
X482600Y443230D02*
D03*
X561340Y342900D02*
D03*
X492760Y344170D02*
D03*
X480060Y331470D02*
D03*
X656590Y298450D02*
D03*
X619760Y254000D02*
D03*
X657860Y252730D02*
D03*
X552450Y326390D02*
D03*
X603250Y300990D02*
D03*
X554990Y267970D02*
D03*
X730250Y214630D02*
D03*
X716280D02*
D03*
X723900Y207010D02*
D03*
X709930D02*
D03*
X702310Y214630D02*
D03*
X668020Y209550D02*
D03*
X883920Y144780D02*
D03*
X842010Y160020D02*
D03*
X892810Y85340D02*
D03*
X902470Y78182D02*
D03*
X904240Y66290D02*
D03*
X897082Y56630D02*
D03*
X880918Y83570D02*
D03*
X873760Y73910D02*
D03*
X885190Y54860D02*
D03*
X875530Y62018D02*
D03*
X678180Y190500D02*
D03*
X657860Y185420D02*
D03*
X819150Y71120D02*
D03*
X777240D02*
D03*
X608330Y203200D02*
D03*
X603250Y193040D02*
D03*
X554990Y227330D02*
D03*
X544830Y175260D02*
D03*
X543560Y157480D02*
D03*
X513080Y165100D02*
D03*
X524510Y148590D02*
D03*
X506730D02*
D03*
X543560Y96520D02*
D03*
X529590D02*
D03*
X598170Y30480D02*
D03*
X567690Y60960D02*
D03*
X520700Y110490D02*
D03*
X513080D02*
D03*
X394970Y445770D02*
D03*
X372110Y438150D02*
D03*
X388620Y410210D02*
D03*
X401320Y373380D02*
D03*
X419100D02*
D03*
X383540D02*
D03*
X344170Y461010D02*
D03*
X311150Y473710D02*
D03*
X269240Y511810D02*
D03*
X353060Y438150D02*
D03*
X445770Y279400D02*
D03*
X453390Y271780D02*
D03*
X438150D02*
D03*
X363490Y359140D02*
D03*
X316230Y372110D02*
D03*
X271780Y341630D02*
D03*
X265430Y308610D02*
D03*
X260350Y417830D02*
D03*
X227330Y424180D02*
D03*
X43570Y479292D02*
D03*
X45340Y467400D02*
D03*
X38182Y457740D02*
D03*
X33910Y486450D02*
D03*
X22018Y484680D02*
D03*
X14860Y475020D02*
D03*
X26290Y455970D02*
D03*
X16630Y463128D02*
D03*
X104101Y417869D02*
D03*
X100330Y450850D02*
D03*
X265430Y375920D02*
D03*
X241300Y417830D02*
D03*
X252730Y359410D02*
D03*
X204470Y375920D02*
D03*
X73660Y358140D02*
D03*
X143510Y267970D02*
D03*
X462280Y262890D02*
D03*
X445770Y264160D02*
D03*
X454660Y255270D02*
D03*
X444500Y246380D02*
D03*
X436880Y255270D02*
D03*
X429260Y264160D02*
D03*
X388620Y222250D02*
D03*
X381000Y219710D02*
D03*
X438150Y199390D02*
D03*
X412750Y191770D02*
D03*
X458470Y92710D02*
D03*
X424180Y57150D02*
D03*
X391160Y176530D02*
D03*
X373020Y26710D02*
D03*
X353060Y232410D02*
D03*
X372110Y180340D02*
D03*
X243840Y191770D02*
D03*
X226060Y264160D02*
D03*
X170180Y191770D02*
D03*
X262890Y170180D02*
D03*
X361590Y45760D02*
D03*
X371250Y38602D02*
D03*
X349698Y43990D02*
D03*
X365862Y17050D02*
D03*
X353970Y15280D02*
D03*
X344310Y22438D02*
D03*
X342540Y34330D02*
D03*
X33910Y85340D02*
D03*
X22018Y83570D02*
D03*
X45340Y66290D02*
D03*
X43570Y78182D02*
D03*
X16630Y62018D02*
D03*
X14860Y73910D02*
D03*
X38182Y56630D02*
D03*
X26290Y54860D02*
D03*
X218440Y356870D02*
D03*
X473710Y298450D02*
D03*
X190500Y490220D02*
D03*
Y496570D02*
D03*
X629920Y285750D02*
D03*
X480060Y228600D02*
D03*
X698692Y343092D02*
D03*
X698500Y360680D02*
D03*
X599440Y402590D02*
D03*
X707390Y433070D02*
D03*
X614930Y442210D02*
D03*
X526413Y442593D02*
D03*
X434340Y443230D02*
D03*
X849630Y106680D02*
D03*
X673100Y285750D02*
D03*
X648970Y336550D02*
D03*
X557530Y377190D02*
D03*
X511810Y289560D02*
D03*
X397510Y430530D02*
D03*
X398780Y283210D02*
D03*
X472440Y363220D02*
D03*
X520700Y391160D02*
D03*
X452120Y466090D02*
D03*
X542290Y467360D02*
D03*
X464820Y455930D02*
D03*
X557530D02*
D03*
X633826Y415387D02*
D03*
X646430Y425450D02*
D03*
X888231Y207779D02*
D03*
X842010Y170180D02*
D03*
X805180D02*
D03*
X656590Y273050D02*
D03*
X304800Y402590D02*
D03*
X341630D02*
D03*
X434340Y326390D02*
D03*
Y316230D02*
D03*
X248920Y387350D02*
D03*
X471170Y87630D02*
D03*
X303260Y359140D02*
D03*
X788670Y441960D02*
D03*
X608060Y59420D02*
D03*
X242686Y336434D02*
D03*
X521970Y184150D02*
D03*
X854710Y157480D02*
D03*
X621030Y170180D02*
D03*
X765810Y90170D02*
D03*
X519430Y86360D02*
D03*
X512533Y56603D02*
D03*
X482600Y55880D02*
D03*
X195580Y441960D02*
D03*
X497840Y290830D02*
D03*
X488950Y264160D02*
D03*
X478790Y313690D02*
D03*
X468630Y320040D02*
D03*
X334010Y332740D02*
D03*
X316230D02*
D03*
X420370Y218440D02*
D03*
X383540Y332740D02*
D03*
X401320D02*
D03*
X419100D02*
D03*
X443230Y215900D02*
D03*
X400050Y247650D02*
D03*
X412750Y299720D02*
D03*
D105*
X175920Y228600D02*
D03*
X156820D02*
D03*
X715670Y408940D02*
D03*
X588670Y109220D02*
D03*
X696570Y408940D02*
D03*
X241300Y459740D02*
D03*
X569570Y109220D02*
D03*
X260400Y459740D02*
D03*
D106*
X742107Y466269D02*
D03*
X589280Y30890D02*
D03*
X742107Y421369D02*
D03*
X589280Y75790D02*
D03*
D107*
X658410Y442210D02*
D03*
X569116Y442593D02*
D03*
X477831Y443019D02*
D03*
X645910Y442210D02*
D03*
X633410D02*
D03*
X620910D02*
D03*
X440331Y443019D02*
D03*
X531616Y442593D02*
D03*
X556616D02*
D03*
X544116D02*
D03*
X465331Y443019D02*
D03*
X452831D02*
D03*
D108*
X585800Y373490D02*
D03*
X515540Y156320D02*
D03*
X362586Y445706D02*
D03*
X590800Y358140D02*
D03*
X367586Y445706D02*
D03*
X357586D02*
D03*
Y430355D02*
D03*
X362586D02*
D03*
X367586D02*
D03*
X520540Y156320D02*
D03*
X510540D02*
D03*
Y140970D02*
D03*
X515540D02*
D03*
X520540D02*
D03*
X585800Y358140D02*
D03*
X580800D02*
D03*
Y373490D02*
D03*
X590800D02*
D03*
D109*
X585800Y365815D02*
D03*
X515540Y148645D02*
D03*
X362586Y438031D02*
D03*
D110*
X655900Y212354D02*
D03*
X633000Y221854D02*
D03*
X655900D02*
D03*
Y202854D02*
D03*
X633000D02*
D03*
D111*
X870169Y145279D02*
D03*
Y207779D02*
D03*
Y182779D02*
D03*
Y157779D02*
D03*
Y170279D02*
D03*
Y195279D02*
D03*
D112*
X92479Y417869D02*
D03*
X92479Y353870D02*
D03*
Y361869D02*
D03*
Y409870D02*
D03*
D113*
X252302Y349766D02*
D03*
X242802D02*
D03*
X261802D02*
D03*
X242802Y326866D02*
D03*
X261802D02*
D03*
D114*
X206955Y170260D02*
D03*
D115*
X199280D02*
D03*
X214630Y175260D02*
D03*
Y170260D02*
D03*
Y165260D02*
D03*
X199280D02*
D03*
Y175260D02*
D03*
D116*
X92479Y368369D02*
D03*
Y373370D02*
D03*
Y378369D02*
D03*
Y383370D02*
D03*
Y388369D02*
D03*
Y393370D02*
D03*
Y398368D02*
D03*
Y403370D02*
D03*
D117*
X602412Y473710D02*
D03*
X676910Y473710D02*
D03*
X587616Y474094D02*
D03*
X513118Y474094D02*
D03*
X421833Y474520D02*
D03*
X496330Y474520D02*
D03*
D118*
X801386Y118110D02*
D03*
Y135890D02*
D03*
X821706Y127000D02*
D03*
X751824D02*
D03*
X772144Y118110D02*
D03*
Y135890D02*
D03*
D119*
X902170Y226280D02*
D03*
Y126782D02*
D03*
D120*
X163180Y353060D02*
D03*
Y340360D02*
D03*
Y327660D02*
D03*
X210170Y462280D02*
D03*
Y449580D02*
D03*
Y436880D02*
D03*
X113680Y314960D02*
D03*
Y327660D02*
D03*
Y340360D02*
D03*
Y353060D02*
D03*
X163180Y314960D02*
D03*
X160670Y462280D02*
D03*
Y449580D02*
D03*
Y436880D02*
D03*
Y424180D02*
D03*
X210170D02*
D03*
D121*
X515620Y83431D02*
X518549Y86360D01*
X547295D01*
X515620Y63735D02*
Y83431D01*
X547295Y86360D02*
X557865Y75790D01*
M02*
