M48
;Layer_Color=9474304
;FILE_FORMAT=4:4
METRIC,LZ
;TYPE=PLATED
T01F00S00C0.3000
T05F00S00C2.2000
;TYPE=NON_PLATED
T06F00S00C0.6500
T07F00S00C1.3000
%
T01
X0001663Y00062018
X0001486Y0007391
X00022018Y0008357
X0003391Y0008534
X0004357Y00078182
X0004534Y0006629
X00038182Y0005663
X0002629Y0005486
X0006096Y0008128
X001016
X0014224
X0014097Y0010414
X0012192Y0012192
X0008128
X0009525Y0014478
X0006096Y0016256
X0005715Y001778
X0004064Y002032
X0008128
X0012192
X0014097Y0021463
X0014224Y0024384
X0014351Y0026797
X0015875Y0026162
X0018542Y0024892
X002159Y0022987
X0019812Y0020701
X0016256Y002032
X0017018Y0019177
X001905Y0017272
Y0014986
X0022352Y0016256
X0026416
X0026289Y0017018
X0024384Y0019177
Y002032
X0028448
X0032512
X0035306Y0023241
X0034544Y0024384
X003048
X0026416
X0022606Y0026416
X0024384Y0028448
X0028448
X0026543Y0030861
X0027178Y0034163
X00242686Y00336434
X0022352Y0032512
X0021844Y0035687
X002032Y0036576
X0020447Y0037592
X0024892Y0038735
X0026543Y0037592
X0025273Y0035941
X0030326Y0035914
X0031623Y0037211
Y0033274
X0033401
X0038354
Y0037338
X0036349Y0035914
X00381Y0021971
X0038862Y0022225
X0039116Y0017653
X0038608Y0016256
X0037211Y0018034
X0034544Y0016256
X003048
Y0008128
X0034544
X0038608
X0037125Y00038602
X0037302Y0002671
X00365862Y0001705
X0035397Y0001528
X0034431Y00022438
X0034254Y0003433
X00349698Y0004399
X0036159Y0004576
X0032512Y0004064
X0028448
X0024384
X0026416Y0008128
X0022352
X0019177Y0010287
X0018288Y0032512
X0012192Y0036576
X0008128
X0007366Y0035814
X0004064Y0036576
X0006096Y0032512
X0008128Y0028448
X0012192
X001016Y0024384
X0006096
X0004064Y0028448
X0039878Y0028321
X0041275Y0029972
X0043434Y0031623
Y0032639
X004191Y0033274
X0040132
Y0037338
X004191
X0044704Y0036576
X0047244Y0036322
X0049276Y0034417
X0048006Y0033147
X0047879Y0031369
X0046863Y0032004
X0047371Y0029845
X0049784Y0029083
X0051181Y0028956
X0048895Y0026416
X0046228Y0026289
X0045466Y0025527
X0045339Y0027178
X0044577Y002794
X0043815Y0027178
X0044577Y0026416
X0042926
X0043688Y0025527
X004445Y0024638
X0044323Y002159
X0044704Y002032
X0043815Y0019939
X0041275Y0019177
X0042037Y0021844
X0040005Y0024765
X0048006Y002286
X0055499Y0022733
X0056896Y002032
X0060833
X0060325Y0019304
X0062103Y0017018
X0062992Y0016256
X0065786Y0018542
X0067818Y001905
X0066802Y0020955
X0070231Y0021463
Y002286
X0070993Y0023495
X0071628Y002286
X007239Y0023495
X0073025Y002286
Y0021463
X0071628
X0070993Y0020701
X007239
X0065786Y0025273
X0065659Y0027305
Y0029845
X006731Y0028575
X0062992
X0061976Y00254
X0058928Y0024384
X0055499Y0026797
X0056896Y0028448
X0060325Y0030099
X0059563Y0036576
X0059944Y0037465
X0057658Y0039243
X0055753Y0037719
X0056134Y003429
X0055245Y0032639
X005207Y0039116
X0064897Y0033655
X00698692Y00343092
X006985Y0036068
X0069088Y0036576
X007112Y0032385
X0073533Y003302
X0077216Y0028448
X0076581Y0009017
X0075184Y0008128
X0077724Y0007112
X0079248Y0008128
X007112
X0067056
X0062992
X0060806Y0005942
X006096Y0004064
X0059817Y0003048
X0056769Y0006096
X00512533Y00056603
X004826Y0005588
X0047117Y0008763
X0045847Y0009271
X0046609Y0012446
X0051308Y0011049
X005207
X0052832Y0012192
X0052959Y0009652
X0054356
X0051943Y0008636
X0052451Y0014859
X0050673
X0051308Y001651
X0052197Y0018415
X0054483Y0017526
X0054356Y0015748
X0042672Y0016256
Y0008128
X0042418Y0005715
X004064Y0004064
X0065024Y0012192
X0085344
X0084963Y0010668
X0083312Y0008128
X0081915Y0007112
X0087376Y0007391
X0087553Y00062018
X0088519Y0005486
X00897082Y0005663
X0090424Y0006629
X0090247Y00078182
X0089281Y0008534
X00880918Y0008357
X0088392Y0014478
X0085471Y0015748
X0084201Y0016002
Y0017018
X0083312Y0016256
X0080518Y0017018
X00888231Y00207779
X0087376Y0024384
X0085344Y0028448
X0082677Y0031623
X0083312Y0032512
X0087376
X0085344Y0036576
X0080772Y0029845
X0083312Y004064
X0087376
X0087553Y00463128
X0087376Y0047502
X00880918Y0048468
X0089281Y0048645
X0090247Y00479292
X0090424Y004674
X00897082Y0045774
X0088519Y0045597
X0084201Y004572
X0083312Y0048768
X0079248
X0077597Y0047244
X0075438Y0046863
X0077216Y0044704
X0078867Y0044196
X0070739Y0043307
X0068961Y004445
X0066421Y0044196
X0064643Y0042545
X00633826Y00415387
X0067056Y004064
X0059944Y0040259
X0061493Y0044221
X0057404Y0044323
X0055753Y0045593
X0054229Y0046736
X00526413Y00442593
X004826Y0044323
X0046482Y0045593
X0045212Y0046609
X0043434Y0044323
X0039751Y0043053
X007112Y0048768
X0039497Y0044577
X0037211Y0043815
X0035306
X0034417Y0046101
X0032512Y0044704
X0031115Y0047371
X003048Y0040259
X0034163
X0038862Y0041021
X0026035Y0041783
X002413
X0022733Y0042418
X0019558Y0044196
X001905Y0049022
Y0049657
X0014224Y0048768
X001016
X0010033Y0045085
X0012192Y0044704
X00104101Y00417869
X0014224Y004064
X00038182Y0045774
X0002629Y0045597
X0001663Y00463128
X0001486Y0047502
X00022018Y0048468
X0003391Y0048645
X0004357Y00479292
X0004534Y004674
X0006096Y0048768
X0026924Y0051181
T05
X000301Y000701
X0035778Y0003052
X00889Y000701
Y0047121
X000301
T06
X0008128Y0035687
X00466281Y00064372
X0052418
X0008128Y00414769
T07
X002032Y005334
X00248199
M30
