G04*
G04 #@! TF.GenerationSoftware,Altium Limited,Altium Designer,25.8.1 (18)*
G04*
G04 Layer_Color=12632256*
%FSLAX44Y44*%
%MOMM*%
G71*
G04*
G04 #@! TF.SameCoordinates,0A9D1E7D-D055-42B5-8BE4-5928FCC89D19*
G04*
G04*
G04 #@! TF.FilePolarity,Positive*
G04*
G01*
G75*
%ADD83O,3.1000X1.2000*%
%ADD84C,4.5000*%
%ADD85O,2.1000X1.0000*%
%ADD86O,1.8000X1.0000*%
%ADD87C,0.6500*%
%ADD88O,1.0000X2.1000*%
%ADD89O,1.0000X1.8000*%
%ADD90O,1.3000X3.0000*%
%ADD91C,1.3000*%
D83*
X28440Y115040D02*
D03*
Y244040D02*
D03*
X895620Y416130D02*
D03*
Y287130D02*
D03*
D84*
X889000Y471210D02*
D03*
Y70100D02*
D03*
X30100Y471210D02*
D03*
X357780Y30520D02*
D03*
X30100Y70100D02*
D03*
D85*
X86279Y342670D02*
D03*
Y429069D02*
D03*
D86*
X44478Y342670D02*
D03*
Y429069D02*
D03*
D87*
X81280Y356870D02*
D03*
Y414769D02*
D03*
X466281Y64372D02*
D03*
X524180D02*
D03*
D88*
X538480Y69371D02*
D03*
X452080D02*
D03*
D89*
X538480Y27570D02*
D03*
X452080D02*
D03*
D90*
X284200Y533401D02*
D03*
X167198Y533400D02*
D03*
D91*
X203200Y533400D02*
D03*
X248199D02*
D03*
M02*
