G04*
G04 #@! TF.GenerationSoftware,Altium Limited,Altium Designer,25.8.1 (18)*
G04*
G04 Layer_Physical_Order=1*
G04 Layer_Color=255*
%FSLAX44Y44*%
%MOMM*%
G71*
G04*
G04 #@! TF.SameCoordinates,0A9D1E7D-D055-42B5-8BE4-5928FCC89D19*
G04*
G04*
G04 #@! TF.FilePolarity,Positive*
G04*
G01*
G75*
%ADD12C,0.3000*%
%ADD13C,0.2540*%
%ADD17R,1.1000X1.4500*%
%ADD18R,1.5000X0.9000*%
%ADD19R,0.9000X0.9000*%
G04:AMPARAMS|DCode=20|XSize=0.92mm|YSize=0.98mm|CornerRadius=0mm|HoleSize=0mm|Usage=FLASHONLY|Rotation=315.000|XOffset=0mm|YOffset=0mm|HoleType=Round|Shape=Rectangle|*
%AMROTATEDRECTD20*
4,1,4,-0.6718,-0.0212,0.0212,0.6718,0.6718,0.0212,-0.0212,-0.6718,-0.6718,-0.0212,0.0*
%
%ADD20ROTATEDRECTD20*%

%ADD21R,0.9800X0.9200*%
%ADD22R,1.4500X1.1000*%
%ADD23R,0.6500X1.0500*%
%ADD24R,1.0500X0.6500*%
G04:AMPARAMS|DCode=25|XSize=1.21mm|YSize=0.59mm|CornerRadius=0.0738mm|HoleSize=0mm|Usage=FLASHONLY|Rotation=270.000|XOffset=0mm|YOffset=0mm|HoleType=Round|Shape=RoundedRectangle|*
%AMROUNDEDRECTD25*
21,1,1.2100,0.4425,0,0,270.0*
21,1,1.0625,0.5900,0,0,270.0*
1,1,0.1475,-0.2213,-0.5313*
1,1,0.1475,-0.2213,0.5313*
1,1,0.1475,0.2213,0.5313*
1,1,0.1475,0.2213,-0.5313*
%
%ADD25ROUNDEDRECTD25*%
%ADD26R,0.9200X0.9800*%
%ADD27R,1.0200X1.0400*%
G04:AMPARAMS|DCode=28|XSize=0.26mm|YSize=1.08mm|CornerRadius=0mm|HoleSize=0mm|Usage=FLASHONLY|Rotation=315.000|XOffset=0mm|YOffset=0mm|HoleType=Round|Shape=Rectangle|*
%AMROTATEDRECTD28*
4,1,4,-0.4738,-0.2899,0.2899,0.4738,0.4738,0.2899,-0.2899,-0.4738,-0.4738,-0.2899,0.0*
%
%ADD28ROTATEDRECTD28*%

G04:AMPARAMS|DCode=29|XSize=1.21mm|YSize=0.59mm|CornerRadius=0.0738mm|HoleSize=0mm|Usage=FLASHONLY|Rotation=180.000|XOffset=0mm|YOffset=0mm|HoleType=Round|Shape=RoundedRectangle|*
%AMROUNDEDRECTD29*
21,1,1.2100,0.4425,0,0,180.0*
21,1,1.0625,0.5900,0,0,180.0*
1,1,0.1475,-0.5313,0.2213*
1,1,0.1475,0.5313,0.2213*
1,1,0.1475,0.5313,-0.2213*
1,1,0.1475,-0.5313,-0.2213*
%
%ADD29ROUNDEDRECTD29*%
G04:AMPARAMS|DCode=31|XSize=1.4mm|YSize=1.15mm|CornerRadius=0mm|HoleSize=0mm|Usage=FLASHONLY|Rotation=315.000|XOffset=0mm|YOffset=0mm|HoleType=Round|Shape=Rectangle|*
%AMROTATEDRECTD31*
4,1,4,-0.9016,0.0884,-0.0884,0.9016,0.9016,-0.0884,0.0884,-0.9016,-0.9016,0.0884,0.0*
%
%ADD31ROTATEDRECTD31*%

G04:AMPARAMS|DCode=32|XSize=1.04mm|YSize=1.02mm|CornerRadius=0mm|HoleSize=0mm|Usage=FLASHONLY|Rotation=315.000|XOffset=0mm|YOffset=0mm|HoleType=Round|Shape=Rectangle|*
%AMROTATEDRECTD32*
4,1,4,-0.7283,0.0071,-0.0071,0.7283,0.7283,-0.0071,0.0071,-0.7283,-0.7283,0.0071,0.0*
%
%ADD32ROTATEDRECTD32*%

G04:AMPARAMS|DCode=33|XSize=0.92mm|YSize=0.98mm|CornerRadius=0mm|HoleSize=0mm|Usage=FLASHONLY|Rotation=45.000|XOffset=0mm|YOffset=0mm|HoleType=Round|Shape=Rectangle|*
%AMROTATEDRECTD33*
4,1,4,0.0212,-0.6718,-0.6718,0.0212,-0.0212,0.6718,0.6718,-0.0212,0.0212,-0.6718,0.0*
%
%ADD33ROTATEDRECTD33*%

%ADD34R,1.0400X1.0200*%
%ADD35R,0.9000X1.5000*%
%ADD36C,0.7620*%
G04:AMPARAMS|DCode=37|XSize=0.26mm|YSize=1.08mm|CornerRadius=0mm|HoleSize=0mm|Usage=FLASHONLY|Rotation=225.000|XOffset=0mm|YOffset=0mm|HoleType=Round|Shape=Rectangle|*
%AMROTATEDRECTD37*
4,1,4,-0.2899,0.4738,0.4738,-0.2899,0.2899,-0.4738,-0.4738,0.2899,-0.2899,0.4738,0.0*
%
%ADD37ROTATEDRECTD37*%

%ADD73R,2.8800X1.1200*%
%ADD74R,0.6000X1.2400*%
%ADD75R,1.0000X2.5000*%
%ADD76P,5.2326X4X180.0*%
%ADD77R,0.3000X1.2400*%
%ADD78C,0.1468*%
%ADD79C,0.5000*%
%ADD80C,0.6000*%
%ADD81C,1.0000*%
%ADD82C,0.1427*%
%ADD83O,3.1000X1.2000*%
%ADD84C,4.5000*%
%ADD85O,2.1000X1.0000*%
%ADD86O,1.8000X1.0000*%
%ADD87C,0.6500*%
%ADD88O,1.0000X2.1000*%
%ADD89O,1.0000X1.8000*%
%ADD90O,1.3000X3.0000*%
%ADD91C,1.3000*%
%ADD92C,0.6000*%
G36*
X310378Y500247D02*
X900000Y500247D01*
X901970Y500247D01*
X905834Y499478D01*
X909473Y497971D01*
X912749Y495782D01*
X915535Y492996D01*
X917724Y489720D01*
X919231Y486081D01*
X919925Y482594D01*
X920000Y480248D01*
Y480247D01*
X920000D01*
X920000Y480247D01*
X920000Y60500D01*
X920000Y58530D01*
X919231Y54666D01*
X917724Y51026D01*
X915535Y47751D01*
X912749Y44965D01*
X909473Y42776D01*
X905834Y41269D01*
X901970Y40500D01*
X900000D01*
X644485Y40500D01*
Y500D01*
X230500D01*
Y40500D01*
X18530D01*
X14666Y41269D01*
X11026Y42776D01*
X7751Y44965D01*
X4965Y47751D01*
X2776Y51026D01*
X1269Y54666D01*
X500Y58530D01*
X500Y60500D01*
Y480247D01*
Y482217D01*
X1269Y486081D01*
X2776Y489721D01*
X4965Y492996D01*
X7751Y495782D01*
X11026Y497971D01*
X14666Y499478D01*
X18530Y500247D01*
X20500D01*
X20500Y500247D01*
X140505Y500247D01*
Y560247D01*
X161656D01*
X162949Y557707D01*
X162928Y557676D01*
X162674Y556400D01*
X162928Y555124D01*
X163650Y554042D01*
X164732Y553320D01*
X165007Y550675D01*
X164567Y550011D01*
X162912Y549325D01*
X161136Y547963D01*
X159774Y546187D01*
X158917Y544119D01*
X158625Y541900D01*
Y524900D01*
X158917Y522682D01*
X159774Y520614D01*
X161136Y518838D01*
X162912Y517476D01*
X164979Y516619D01*
X167198Y516327D01*
X169417Y516619D01*
X171485Y517476D01*
X173261Y518838D01*
X174623Y520614D01*
X175480Y522682D01*
X175772Y524900D01*
Y539677D01*
X177164Y541070D01*
X195257D01*
X196247Y538943D01*
X196346Y538530D01*
X195279Y536681D01*
X194700Y534519D01*
Y532281D01*
X195279Y530119D01*
X196398Y528181D01*
X196638Y527941D01*
X195586Y525401D01*
X183699D01*
Y496401D01*
X185500D01*
Y495575D01*
X186261Y493738D01*
X186604Y493395D01*
X186261Y493052D01*
X185500Y491215D01*
Y489225D01*
X186261Y487388D01*
X187668Y485981D01*
X189505Y485220D01*
X191495D01*
X193332Y485981D01*
X194739Y487388D01*
X195500Y489225D01*
Y491215D01*
X194739Y493052D01*
X194396Y493395D01*
X194739Y493738D01*
X195500Y495575D01*
Y496401D01*
X197699D01*
Y523828D01*
X199279Y525003D01*
X200239Y525393D01*
X202081Y524900D01*
X204319D01*
X206159Y525393D01*
X207132Y524994D01*
X208699Y523827D01*
Y496401D01*
X221162D01*
Y461042D01*
X221162Y461042D01*
Y457422D01*
X218622Y456250D01*
X218621Y456251D01*
X217553Y456464D01*
X206928D01*
X205859Y456251D01*
X204954Y455646D01*
X204349Y454741D01*
X204136Y453672D01*
Y449248D01*
X204168Y449088D01*
X202856Y446940D01*
X202384Y446548D01*
X197569D01*
X196575Y446960D01*
X194585D01*
X192748Y446199D01*
X191341Y444792D01*
X190580Y442955D01*
Y440965D01*
X191341Y439128D01*
X192748Y437721D01*
X194585Y436960D01*
X196575D01*
X197569Y437372D01*
X202384D01*
X202856Y436980D01*
X204168Y434832D01*
X204136Y434673D01*
Y430247D01*
X204349Y429179D01*
X204954Y428274D01*
X205859Y427669D01*
X206928Y427456D01*
X217553D01*
X218621Y427669D01*
X219526Y428274D01*
X220131Y429179D01*
X220344Y430247D01*
Y433203D01*
X221185Y433765D01*
X223535Y436115D01*
X224139Y437019D01*
X224352Y438086D01*
X226416Y439804D01*
X226824Y439794D01*
X227227Y439679D01*
X228870Y438821D01*
X228940Y438469D01*
X229664Y437385D01*
X229449Y435741D01*
X229236Y434673D01*
Y430247D01*
X229449Y429179D01*
X230054Y428274D01*
X230959Y427669D01*
X232027Y427456D01*
X242652D01*
X243721Y427669D01*
X244626Y428274D01*
X245231Y429179D01*
X245444Y430247D01*
Y431753D01*
X245503Y431765D01*
X246407Y432369D01*
X251461Y437422D01*
X261255D01*
X279463Y419215D01*
Y330020D01*
X279675Y328954D01*
X280279Y328049D01*
X375103Y233225D01*
X376008Y232621D01*
X377074Y232409D01*
X405122D01*
X406174Y229869D01*
X397512Y221207D01*
X395709D01*
X394651Y220996D01*
X393753Y220396D01*
X386545Y213189D01*
X381093Y218641D01*
X375231Y212779D01*
X374333Y213677D01*
X373435Y212779D01*
X366689Y219525D01*
X361725Y214561D01*
Y214561D01*
X360421Y212619D01*
X358314Y211133D01*
X356278Y213170D01*
Y215710D01*
X356824Y216256D01*
X358844Y217512D01*
X359238Y217906D01*
X362995Y221663D01*
X357734Y226924D01*
X352473Y232185D01*
X348716Y228428D01*
X348322Y228034D01*
X347066Y226014D01*
X338126Y217074D01*
X347884Y207316D01*
X351095Y210527D01*
X354746Y206876D01*
X352560Y204689D01*
X352118Y204028D01*
X351962Y203247D01*
X352118Y202467D01*
X352560Y201805D01*
X362459Y191906D01*
X362811Y191671D01*
X362985Y191555D01*
X363120Y191464D01*
X363121Y191464D01*
X363121Y191464D01*
X363121Y191464D01*
X363395Y191409D01*
X363901Y191309D01*
X363901Y191309D01*
X364681Y191464D01*
X364681Y191464D01*
X364682Y191464D01*
X365097Y191742D01*
X365343Y191906D01*
X365343Y191906D01*
X365343Y191906D01*
X365343Y191906D01*
X370796Y197358D01*
X371005Y197670D01*
X371220Y197977D01*
X371225Y198000D01*
X371238Y198019D01*
X371255Y198102D01*
X372425Y198244D01*
X372976Y198173D01*
X373935Y195656D01*
X372727Y194449D01*
X379473Y187703D01*
X386219Y180957D01*
X391183Y185921D01*
X390801Y186303D01*
X394298Y189800D01*
X398930Y185168D01*
Y184253D01*
X398305Y182200D01*
X396806Y181268D01*
X396413Y180874D01*
X392655Y177117D01*
X397916Y171856D01*
X403177Y166595D01*
X406934Y170352D01*
X407328Y170746D01*
X408584Y172766D01*
X417524Y181706D01*
X407766Y191464D01*
X404112Y187810D01*
X398210Y193712D01*
X401734Y197236D01*
X395402Y203568D01*
X413577Y221744D01*
X415731Y220305D01*
X415370Y219435D01*
Y217445D01*
X416131Y215608D01*
X417538Y214201D01*
X418478Y213812D01*
X419249Y211410D01*
X419221Y210964D01*
X411528Y203271D01*
X421541Y193258D01*
X421159Y192876D01*
X425734Y188301D01*
X431136Y193704D01*
X436539Y199106D01*
X431964Y203681D01*
X431582Y203299D01*
X428617Y206264D01*
X430403Y208050D01*
X431003Y208948D01*
X431213Y210007D01*
Y222966D01*
X433753Y224018D01*
X435786Y221985D01*
X436481Y222680D01*
X439021Y221628D01*
Y218762D01*
X438991Y218732D01*
X438230Y216895D01*
Y214905D01*
X438991Y213068D01*
X440398Y211661D01*
X442235Y210900D01*
X444225D01*
X446062Y211661D01*
X447469Y213068D01*
X448230Y214905D01*
Y216895D01*
X447469Y218732D01*
X446062Y220139D01*
X445689Y220293D01*
Y225814D01*
X445837Y225955D01*
X448047Y227049D01*
X451861Y223234D01*
Y177363D01*
X352215Y77717D01*
X175099D01*
X173444Y79582D01*
X176079Y82216D01*
X179352D01*
X180421Y82429D01*
X181326Y83034D01*
X181931Y83939D01*
X182144Y85007D01*
Y95632D01*
X181931Y96701D01*
X181326Y97606D01*
X180421Y98211D01*
X179352Y98424D01*
X174928D01*
X173859Y98211D01*
X172215Y97996D01*
X171131Y98720D01*
X169853Y98974D01*
X168910D01*
Y90320D01*
X166370D01*
Y98974D01*
X165701D01*
X165529Y99192D01*
X165083Y101617D01*
X168825Y105359D01*
X169599Y106516D01*
X169758Y107316D01*
X169853D01*
X170921Y107529D01*
X172390Y107966D01*
X173859Y107529D01*
X174928Y107316D01*
X179352D01*
X180421Y107529D01*
X181326Y108134D01*
X181931Y109039D01*
X182144Y110107D01*
Y120732D01*
X181931Y121801D01*
X181326Y122706D01*
X180421Y123311D01*
X179352Y123524D01*
X176079D01*
X173427Y126175D01*
X172523Y126779D01*
X172178Y126848D01*
Y155730D01*
X171965Y156797D01*
X171361Y157701D01*
X145801Y183261D01*
X144897Y183865D01*
X143830Y184078D01*
X132740D01*
Y197140D01*
X99940D01*
Y181940D01*
X121928D01*
X122098Y181083D01*
X122703Y180179D01*
X123341Y179540D01*
X122703Y178901D01*
X122098Y177997D01*
X121928Y177140D01*
X99940D01*
Y161940D01*
X132740D01*
Y175002D01*
X141226D01*
X163102Y153126D01*
Y126848D01*
X162757Y126779D01*
X161853Y126175D01*
X159201Y123524D01*
X155927D01*
X154859Y123311D01*
X153954Y122706D01*
X153349Y121801D01*
X153136Y120732D01*
Y110107D01*
X151574Y107929D01*
X151221Y107709D01*
X144473D01*
X143802Y108379D01*
X141965Y109140D01*
X139975D01*
X138138Y108379D01*
X136731Y106972D01*
X135970Y105135D01*
Y103145D01*
X136731Y101308D01*
X138138Y99901D01*
X139975Y99140D01*
X141965D01*
X143802Y99901D01*
X144473Y100571D01*
X152776D01*
X153131Y100111D01*
X153954Y97606D01*
X153349Y96701D01*
X153136Y95632D01*
Y85007D01*
X153349Y83939D01*
X153954Y83034D01*
X154859Y82429D01*
X155927Y82216D01*
X159201D01*
X161853Y79565D01*
X162757Y78961D01*
X163102Y78892D01*
Y78010D01*
X163315Y76943D01*
X163919Y76039D01*
X170499Y69459D01*
X171404Y68855D01*
X172470Y68643D01*
X354820D01*
X355886Y68855D01*
X356791Y69459D01*
X460120Y172788D01*
X460724Y173692D01*
X460936Y174759D01*
Y226221D01*
X463126Y227340D01*
X463868Y226807D01*
X464883Y225781D01*
Y219400D01*
X465095Y218333D01*
X465699Y217429D01*
X489492Y193635D01*
Y135020D01*
X489089Y134939D01*
X488185Y134335D01*
X485835Y131985D01*
X485273Y131144D01*
X482318D01*
X481249Y130931D01*
X480344Y130326D01*
X479739Y129421D01*
X479526Y128352D01*
Y117727D01*
X479548Y117618D01*
X478197Y115439D01*
X477741Y115078D01*
X476250D01*
X474494Y114729D01*
X473006Y113734D01*
X468035Y108764D01*
X467041Y107275D01*
X466691Y105520D01*
Y89883D01*
X466170Y88625D01*
Y86636D01*
X464551Y84460D01*
Y75571D01*
X462010D01*
Y84311D01*
X457741D01*
Y81601D01*
X455201Y80243D01*
X454500Y80712D01*
X452080Y81193D01*
X449661Y80712D01*
X447610Y79341D01*
X446240Y77290D01*
X445759Y74871D01*
Y72402D01*
X445261Y71199D01*
X445020Y69371D01*
Y34630D01*
X433468D01*
X431620Y36300D01*
X431620Y37170D01*
Y42170D01*
X424180D01*
X416740D01*
Y36856D01*
X416740Y36300D01*
X417280Y33984D01*
X417280Y29158D01*
X417120Y27940D01*
X417280Y26722D01*
Y21340D01*
X421298D01*
X422723Y20750D01*
X424550Y20509D01*
X446669D01*
X447610Y19100D01*
X449661Y17729D01*
X452080Y17248D01*
X454500Y17729D01*
X456550Y19100D01*
X457492Y20509D01*
X533068D01*
X534010Y19100D01*
X536061Y17729D01*
X538480Y17248D01*
X540899Y17729D01*
X542950Y19100D01*
X544320Y21151D01*
X544801Y23570D01*
Y24539D01*
X545300Y25742D01*
X545540Y27570D01*
Y69371D01*
X545300Y71199D01*
X544801Y72402D01*
Y74871D01*
X544320Y77290D01*
X542950Y79341D01*
X540899Y80712D01*
X538480Y81193D01*
X536061Y80712D01*
X535360Y80243D01*
X532820Y81601D01*
Y84311D01*
X528550D01*
Y75571D01*
X526010D01*
Y84645D01*
X524430Y85365D01*
Y87355D01*
X523669Y89192D01*
X522262Y90599D01*
X520425Y91360D01*
X518435D01*
X516598Y90599D01*
X515191Y89192D01*
X514430Y87355D01*
Y85365D01*
X512924Y82971D01*
X506422D01*
X505761Y85511D01*
X506105Y86026D01*
X506318Y87093D01*
Y89951D01*
X506811Y90049D01*
X507716Y90654D01*
X508321Y91559D01*
X508534Y92627D01*
Y103252D01*
X508321Y104321D01*
X507716Y105226D01*
X506811Y105831D01*
X505742Y106044D01*
X501317D01*
X501091Y105998D01*
X498269Y107166D01*
X497274Y108654D01*
X494083Y111846D01*
X495135Y114386D01*
X496242D01*
X497521Y114640D01*
X498605Y115365D01*
X500249Y115149D01*
X501317Y114936D01*
X505742D01*
X506811Y115149D01*
X507716Y115754D01*
X508321Y116659D01*
X508534Y117727D01*
Y128352D01*
X508321Y129421D01*
X507716Y130326D01*
X506811Y130931D01*
X505742Y131144D01*
X502787D01*
X502225Y131985D01*
X499875Y134335D01*
X498971Y134939D01*
X498568Y135020D01*
Y196240D01*
X498355Y197306D01*
X497751Y198211D01*
X474182Y221780D01*
X474431Y223947D01*
X476779Y224810D01*
X477228Y224361D01*
X479065Y223600D01*
X481055D01*
X482892Y224361D01*
X484299Y225768D01*
X485060Y227605D01*
Y229595D01*
X484522Y230892D01*
X485294Y232683D01*
X485891Y233433D01*
X499356D01*
X565659Y167129D01*
X566564Y166525D01*
X567630Y166312D01*
X586771D01*
X586867Y166267D01*
X588746Y164212D01*
Y153588D01*
X588959Y152519D01*
X589564Y151614D01*
X590469Y151009D01*
X591538Y150796D01*
X594493D01*
X595055Y149955D01*
X598712Y146297D01*
Y146050D01*
X598925Y144984D01*
X599529Y144079D01*
X607629Y135979D01*
X608534Y135375D01*
X609600Y135162D01*
X634650D01*
Y126850D01*
X652760D01*
X653650Y126850D01*
X655300Y124993D01*
Y111350D01*
X808000D01*
Y124993D01*
X809650Y126850D01*
X810540Y126850D01*
X828254D01*
X828504Y124310D01*
X827981Y124206D01*
X827084Y123606D01*
X816354Y112876D01*
X815754Y111979D01*
X815543Y110920D01*
Y103630D01*
X811060D01*
Y100557D01*
X784060D01*
Y103630D01*
X769560D01*
Y96778D01*
X767020Y95081D01*
X766805Y95170D01*
X764815D01*
X762978Y94409D01*
X761571Y93002D01*
X760810Y91165D01*
Y89175D01*
X761571Y87338D01*
X762978Y85931D01*
X764815Y85170D01*
X766805D01*
X768642Y85931D01*
X770049Y87338D01*
X770076Y87403D01*
X774700D01*
X775759Y87614D01*
X776656Y88214D01*
X778766Y90324D01*
X779366Y91221D01*
X779577Y92280D01*
Y93130D01*
X784060D01*
Y95023D01*
X811060D01*
Y93130D01*
X825560D01*
Y103630D01*
X821077D01*
Y109774D01*
X830186Y118883D01*
X833114D01*
X834910Y117087D01*
X834910Y114450D01*
X834910Y111910D01*
Y99750D01*
X849110D01*
Y101680D01*
X850625D01*
X851619Y102092D01*
X876300D01*
X878056Y102441D01*
X879544Y103436D01*
X901134Y125026D01*
X902129Y126514D01*
X902478Y128270D01*
Y198120D01*
X902129Y199876D01*
X901134Y201364D01*
X892881Y209617D01*
X892470Y210611D01*
X891063Y212018D01*
X889225Y212779D01*
X887236D01*
X885399Y212018D01*
X883992Y210611D01*
X883231Y208774D01*
Y206784D01*
X883992Y204947D01*
X885399Y203540D01*
X886393Y203129D01*
X893302Y196220D01*
Y130170D01*
X874399Y111268D01*
X851619D01*
X850625Y111680D01*
X849110Y113195D01*
Y114150D01*
X849110Y116690D01*
Y128850D01*
X849110D01*
X848910Y129290D01*
X848910Y141934D01*
X849450Y144250D01*
X849450Y144806D01*
Y150120D01*
X842010D01*
X834570D01*
Y144806D01*
X834570Y144250D01*
X835110Y141934D01*
X835110Y136117D01*
X828650D01*
Y139550D01*
Y152250D01*
Y164950D01*
Y177650D01*
Y190350D01*
Y203050D01*
Y215750D01*
Y228450D01*
Y242075D01*
X831190Y243127D01*
X839243Y235074D01*
Y174446D01*
X839178Y174419D01*
X837771Y173012D01*
X837010Y171175D01*
Y169185D01*
X837771Y167348D01*
X839178Y165941D01*
X841015Y165180D01*
X843005D01*
X844842Y165941D01*
X846249Y167348D01*
X847010Y169185D01*
Y171175D01*
X846249Y173012D01*
X844842Y174419D01*
X844777Y174446D01*
Y236220D01*
X844566Y237279D01*
X843966Y238176D01*
X832536Y249606D01*
X831639Y250206D01*
X830580Y250417D01*
X828650D01*
Y257583D01*
X834514D01*
X851943Y240154D01*
Y161746D01*
X851878Y161719D01*
X850708Y160549D01*
X850471Y160312D01*
X848669Y158530D01*
X847193Y158530D01*
X843280D01*
Y152660D01*
X850666D01*
X851878Y153241D01*
X853715Y152480D01*
X855705D01*
X857542Y153241D01*
X858949Y154648D01*
X859710Y156485D01*
Y158475D01*
X858949Y160312D01*
X857542Y161719D01*
X857477Y161746D01*
Y241300D01*
X857266Y242359D01*
X856666Y243256D01*
X837616Y262306D01*
X836719Y262906D01*
X835660Y263117D01*
X828650D01*
Y266550D01*
Y279250D01*
Y291410D01*
X829190D01*
Y297180D01*
X809110D01*
Y291410D01*
X809650D01*
Y279250D01*
Y266550D01*
Y253850D01*
Y241150D01*
Y228450D01*
Y215750D01*
Y203050D01*
Y190350D01*
Y176280D01*
X809360Y175950D01*
X807110Y174792D01*
X806175Y175180D01*
X804185D01*
X802348Y174419D01*
X800941Y173012D01*
X800180Y171175D01*
Y169185D01*
X800941Y167348D01*
X802348Y165941D01*
X804185Y165180D01*
X806175D01*
X807110Y165567D01*
X807926Y165369D01*
X809284Y164496D01*
X809650Y164080D01*
Y152250D01*
Y139550D01*
Y132206D01*
X808000Y130350D01*
X807110Y130350D01*
X695111D01*
X694139Y132697D01*
X697106Y135663D01*
X711200D01*
X712259Y135874D01*
X713156Y136474D01*
X796976Y220294D01*
X797576Y221191D01*
X797787Y222250D01*
Y410210D01*
X797576Y411269D01*
X796976Y412166D01*
X739826Y469316D01*
X738929Y469916D01*
X737870Y470127D01*
X546556D01*
X546529Y470192D01*
X545122Y471599D01*
X543285Y472360D01*
X541295D01*
X539458Y471599D01*
X538051Y470192D01*
X537761Y469492D01*
X455789D01*
X454952Y470329D01*
X453115Y471090D01*
X451125D01*
X449288Y470329D01*
X447881Y468922D01*
X447120Y467085D01*
Y465095D01*
X447881Y463258D01*
X449288Y461851D01*
X451125Y461090D01*
X453115D01*
X454952Y461851D01*
X456359Y463258D01*
X456649Y463958D01*
X538621D01*
X539458Y463121D01*
X541295Y462360D01*
X543285D01*
X545122Y463121D01*
X546529Y464528D01*
X546556Y464593D01*
X736724D01*
X792253Y409064D01*
Y223396D01*
X710054Y141197D01*
X695960D01*
X694901Y140986D01*
X694004Y140386D01*
X685244Y131626D01*
X684644Y130729D01*
X684569Y130350D01*
X656190D01*
X655300Y130350D01*
X653650Y132206D01*
Y139550D01*
Y152250D01*
Y155983D01*
X709930D01*
X710989Y156194D01*
X711886Y156794D01*
X784276Y229184D01*
X784876Y230081D01*
X785087Y231140D01*
Y403860D01*
X784876Y404919D01*
X784276Y405816D01*
X732206Y457886D01*
X731309Y458486D01*
X730250Y458697D01*
X561796D01*
X561769Y458762D01*
X560362Y460169D01*
X558525Y460930D01*
X556535D01*
X554698Y460169D01*
X553291Y458762D01*
X553264Y458697D01*
X469086D01*
X469059Y458762D01*
X467652Y460169D01*
X465815Y460930D01*
X463825D01*
X461988Y460169D01*
X460581Y458762D01*
X459820Y456925D01*
Y454935D01*
X460581Y453098D01*
X461988Y451691D01*
X463825Y450930D01*
X465815D01*
X467652Y451691D01*
X469059Y453098D01*
X469086Y453163D01*
X553264D01*
X553291Y453098D01*
X554698Y451691D01*
X556535Y450930D01*
X558525D01*
X560362Y451691D01*
X561769Y453098D01*
X561796Y453163D01*
X729104D01*
X779553Y402714D01*
Y232286D01*
X708784Y161517D01*
X653650D01*
Y164950D01*
Y177650D01*
Y190350D01*
Y194083D01*
X669050D01*
X670108Y194294D01*
X671006Y194894D01*
X686486Y210374D01*
X687086Y211272D01*
X687297Y212330D01*
Y238884D01*
X772846Y324434D01*
X773446Y325331D01*
X773657Y326390D01*
Y394970D01*
X773446Y396029D01*
X772846Y396926D01*
X742366Y427406D01*
X741469Y428006D01*
X740410Y428217D01*
X713200D01*
X712594Y428996D01*
X711844Y430757D01*
X712390Y432075D01*
Y434065D01*
X711629Y435902D01*
X710222Y437309D01*
X708385Y438070D01*
X706395D01*
X704558Y437309D01*
X703151Y435902D01*
X702390Y434065D01*
Y432075D01*
X702936Y430757D01*
X702186Y428996D01*
X701580Y428217D01*
X650696D01*
X650669Y428282D01*
X649262Y429689D01*
X647425Y430450D01*
X645435D01*
X643598Y429689D01*
X642191Y428282D01*
X641430Y426445D01*
Y424455D01*
X642191Y422618D01*
X643598Y421211D01*
X644848Y420693D01*
X644343Y418153D01*
X638092D01*
X638065Y418219D01*
X636659Y419625D01*
X634821Y420387D01*
X632832D01*
X630994Y419625D01*
X629588Y418219D01*
X628826Y416381D01*
Y414392D01*
X629588Y412554D01*
X630994Y411148D01*
X632832Y410387D01*
X634821D01*
X636659Y411148D01*
X638065Y412554D01*
X638092Y412620D01*
X731547D01*
X756693Y387474D01*
Y333886D01*
X672414Y249606D01*
X671814Y248709D01*
X671603Y247650D01*
Y229746D01*
X656190Y214333D01*
X653650Y215385D01*
Y228450D01*
Y241150D01*
Y253850D01*
Y266107D01*
X655411Y267908D01*
X655595Y268050D01*
X657585D01*
X659422Y268811D01*
X660829Y270218D01*
X661590Y272055D01*
Y274045D01*
X660829Y275882D01*
X659422Y277289D01*
X657585Y278050D01*
X655595D01*
X653650Y279993D01*
Y291410D01*
X654190D01*
Y297180D01*
X634110D01*
Y291410D01*
X632014Y290338D01*
X631909D01*
X630915Y290750D01*
X628925D01*
X627931Y290338D01*
X620884D01*
X619293Y292878D01*
X619580Y294110D01*
X619580Y294666D01*
Y299980D01*
X612140D01*
X604700D01*
Y294666D01*
X604700Y294110D01*
X604987Y292878D01*
X603396Y290338D01*
X598920D01*
Y291410D01*
X584720D01*
Y277010D01*
X584720D01*
Y276710D01*
X584720D01*
Y272277D01*
X576070D01*
Y275650D01*
X565570D01*
Y261150D01*
X568053D01*
Y234150D01*
X565570D01*
Y219650D01*
X576070D01*
Y234150D01*
X573587D01*
Y261150D01*
X576070D01*
Y266743D01*
X584720D01*
Y262310D01*
X598920D01*
Y266743D01*
X605240D01*
X605240Y263196D01*
X604700Y260880D01*
X604700Y260324D01*
Y255010D01*
X612140D01*
X619580D01*
Y260324D01*
X619580Y260880D01*
X619040Y263196D01*
X619040Y270283D01*
X634650D01*
Y266550D01*
Y253850D01*
Y241150D01*
Y228450D01*
Y215750D01*
Y203050D01*
Y190350D01*
Y177650D01*
Y164950D01*
Y152250D01*
Y144237D01*
X612627D01*
X610710Y146159D01*
X610718Y149228D01*
X612287Y150796D01*
X614963D01*
X616031Y151009D01*
X616936Y151614D01*
X617541Y152519D01*
X617754Y153588D01*
Y163376D01*
X619553Y164975D01*
X619990Y165161D01*
X620151Y165180D01*
X622025D01*
X623862Y165941D01*
X625269Y167348D01*
X626030Y169185D01*
Y171175D01*
X625269Y173012D01*
X623862Y174419D01*
X622025Y175180D01*
X620035D01*
X618458Y174527D01*
X618288Y174563D01*
X617680Y175530D01*
X617587Y175777D01*
X617523Y177591D01*
X617541Y177619D01*
X617754Y178687D01*
Y189312D01*
X617541Y190381D01*
X616936Y191286D01*
X616031Y191891D01*
X614963Y192104D01*
X610537D01*
X609469Y191891D01*
X607825Y191675D01*
X606741Y192400D01*
X605462Y192654D01*
X604520D01*
Y184000D01*
X601980D01*
Y192654D01*
X601037D01*
X599759Y192400D01*
X598675Y191675D01*
X597031Y191891D01*
X595962Y192104D01*
X591538D01*
X590469Y191891D01*
X589564Y191286D01*
X588959Y190381D01*
X588746Y189312D01*
Y178687D01*
X588898Y177927D01*
X588697Y177246D01*
X587395Y175387D01*
X570235D01*
X503931Y241691D01*
X503027Y242295D01*
X501960Y242507D01*
X485165D01*
X485096Y242612D01*
X486454Y245152D01*
X515729D01*
X516796Y245364D01*
X517700Y245968D01*
X541183Y269451D01*
X543530Y268479D01*
Y260610D01*
X548050D01*
Y268400D01*
X549320D01*
Y269670D01*
X555110D01*
Y276190D01*
X551241D01*
X550269Y278537D01*
X648985Y377253D01*
X718625D01*
X721112Y374765D01*
Y361835D01*
X715701Y356423D01*
X704689D01*
X704594Y356493D01*
X703201Y358964D01*
X703500Y359685D01*
Y361675D01*
X702739Y363512D01*
X701332Y364919D01*
X699495Y365680D01*
X697505D01*
X695668Y364919D01*
X694261Y363512D01*
X693500Y361675D01*
Y359685D01*
X694261Y357848D01*
X695668Y356441D01*
X695713Y356423D01*
Y354592D01*
X695925Y353525D01*
X696529Y352621D01*
X697264Y351886D01*
X696625Y351247D01*
X696021Y350343D01*
X695808Y349276D01*
Y347280D01*
X694453Y345924D01*
X693692Y344086D01*
Y342097D01*
X694453Y340260D01*
X695860Y338853D01*
X697697Y338092D01*
X699687D01*
X701524Y338853D01*
X702931Y340260D01*
X703692Y342097D01*
Y344086D01*
X703393Y344808D01*
X704786Y347279D01*
X704881Y347348D01*
X718306D01*
X719372Y347561D01*
X720277Y348165D01*
X729371Y357259D01*
X729975Y358163D01*
X730188Y359230D01*
Y377370D01*
X729975Y378437D01*
X729371Y379341D01*
X723201Y385511D01*
X722297Y386115D01*
X721230Y386328D01*
X646380D01*
X645313Y386115D01*
X644409Y385511D01*
X513125Y254226D01*
X486356D01*
X486061Y254937D01*
Y254937D01*
X477399Y263599D01*
X479312Y265511D01*
X481899Y265626D01*
X483950Y263641D01*
Y263165D01*
X484711Y261328D01*
X486118Y259921D01*
X487955Y259160D01*
X489945D01*
X491782Y259921D01*
X493189Y261328D01*
X493950Y263165D01*
Y265155D01*
X493189Y266992D01*
X491782Y268399D01*
X489945Y269160D01*
X488665D01*
X485813Y272012D01*
X486061Y272261D01*
X484546Y273776D01*
X483289Y275796D01*
X484253Y278122D01*
X503695D01*
X504753Y278332D01*
X505651Y278932D01*
X511279Y284560D01*
X512805D01*
X514642Y285321D01*
X516049Y286728D01*
X516810Y288565D01*
Y290555D01*
X516049Y292392D01*
X514642Y293799D01*
X512805Y294560D01*
X510815D01*
X508978Y293799D01*
X507571Y292392D01*
X506810Y290555D01*
Y288565D01*
X507000Y288106D01*
X502629Y283736D01*
X500870Y283924D01*
X500496Y286518D01*
X500672Y286591D01*
X502079Y287998D01*
X502840Y289835D01*
Y291825D01*
X502079Y293662D01*
X500672Y295069D01*
X498835Y295830D01*
X496845D01*
X495008Y295069D01*
X493601Y293662D01*
X492840Y291825D01*
Y289835D01*
X490493Y289787D01*
X484978D01*
X484006Y292133D01*
X498314Y306442D01*
X498914Y307339D01*
X499071Y308127D01*
X506116Y315172D01*
X503405Y317883D01*
X506347Y320825D01*
X509058Y318114D01*
X518816Y327872D01*
X510034Y336654D01*
X509875Y336813D01*
X508619Y338832D01*
X508226Y339226D01*
X504469Y342983D01*
X499208Y337722D01*
X493947Y332461D01*
X497704Y328704D01*
X498098Y328311D01*
X500117Y327054D01*
X502435Y324737D01*
X499493Y321795D01*
X497175Y324113D01*
X495919Y326132D01*
X495526Y326526D01*
X491769Y330283D01*
X486508Y325022D01*
X485610Y325920D01*
X484712Y325022D01*
X479663Y330071D01*
X475300Y325708D01*
X479778Y321230D01*
X478726Y318690D01*
X477795D01*
X475958Y317929D01*
X475888Y317859D01*
X474035Y318832D01*
X473630Y319193D01*
Y321035D01*
X472869Y322872D01*
X471462Y324279D01*
X469625Y325040D01*
X467635D01*
X465798Y324279D01*
X464391Y322872D01*
X463630Y321035D01*
Y319045D01*
X463657Y318980D01*
X461594Y316916D01*
X461237Y316382D01*
X459731Y316451D01*
X458697Y316805D01*
Y325244D01*
X519640Y386187D01*
X519705Y386160D01*
X521695D01*
X523532Y386921D01*
X524939Y388328D01*
X525700Y390165D01*
Y392155D01*
X524939Y393992D01*
X523532Y395399D01*
X523380Y395462D01*
X523885Y398002D01*
X552942D01*
Y379179D01*
X552530Y378185D01*
Y376195D01*
X552942Y375201D01*
Y368306D01*
X551146Y366510D01*
X548790Y366510D01*
X546250Y366510D01*
X534090D01*
Y352310D01*
X531770Y351780D01*
Y336860D01*
X531770Y336780D01*
X531577Y334320D01*
X531230D01*
Y327550D01*
X541020D01*
X550810D01*
Y334320D01*
X550463D01*
X550270Y336780D01*
X550270Y336860D01*
Y349770D01*
X550270Y351780D01*
X552590Y352310D01*
X563190D01*
Y366510D01*
X562118D01*
Y375201D01*
X562530Y376195D01*
Y378185D01*
X562118Y379179D01*
Y398002D01*
X597451D01*
X598445Y397590D01*
X600435D01*
X602272Y398351D01*
X603679Y399758D01*
X604440Y401595D01*
Y403585D01*
X603679Y405422D01*
X602272Y406829D01*
X600435Y407590D01*
X598445D01*
X597451Y407178D01*
X343619D01*
X342625Y407590D01*
X340635D01*
X338798Y406829D01*
X337391Y405422D01*
X336630Y403585D01*
Y401595D01*
X337391Y399758D01*
X338798Y398351D01*
X340635Y397590D01*
X342625D01*
X343619Y398002D01*
X517515D01*
X518020Y395462D01*
X517868Y395399D01*
X516461Y393992D01*
X515700Y392155D01*
Y390165D01*
X515727Y390100D01*
X453974Y328346D01*
X453617Y327812D01*
X452111Y327881D01*
X451077Y328234D01*
Y337944D01*
X471380Y358247D01*
X471445Y358220D01*
X473435D01*
X475272Y358981D01*
X476679Y360388D01*
X477440Y362225D01*
Y364215D01*
X476679Y366052D01*
X475272Y367459D01*
X473435Y368220D01*
X471445D01*
X469608Y367459D01*
X468201Y366052D01*
X467440Y364215D01*
Y362225D01*
X467467Y362160D01*
X446354Y341046D01*
X445754Y340149D01*
X445543Y339090D01*
Y311776D01*
X439031Y304571D01*
X438050Y304546D01*
X435786Y305212D01*
X435786Y305212D01*
X433461Y306175D01*
Y311230D01*
X435335D01*
X437172Y311991D01*
X438579Y313398D01*
X439340Y315235D01*
Y317225D01*
X438579Y319062D01*
X437927Y319714D01*
X437433Y321310D01*
X437927Y322906D01*
X438579Y323558D01*
X439340Y325395D01*
Y327385D01*
X438579Y329222D01*
X437172Y330629D01*
X435335Y331390D01*
X433345D01*
X431508Y330629D01*
X430101Y329222D01*
X429712Y328282D01*
X429655D01*
X428596Y328071D01*
X427699Y327471D01*
X424407Y324179D01*
X421867Y325231D01*
Y328474D01*
X421932Y328501D01*
X423339Y329908D01*
X424100Y331745D01*
Y333735D01*
X423588Y334970D01*
X424421Y336840D01*
X424993Y337510D01*
X426200D01*
Y351670D01*
X426740D01*
Y358140D01*
X419100D01*
Y359410D01*
X417830D01*
Y367150D01*
X411460D01*
Y367150D01*
X408960D01*
Y367150D01*
X402590D01*
Y359410D01*
X400050D01*
Y367150D01*
X393680D01*
Y367150D01*
X391180D01*
Y367150D01*
X384810D01*
Y359410D01*
X383540D01*
Y358140D01*
X375900D01*
Y351670D01*
X376440D01*
Y337510D01*
X377647D01*
X378219Y336840D01*
X379052Y334970D01*
X378540Y333735D01*
Y331745D01*
X379301Y329908D01*
X380708Y328501D01*
X380773Y328474D01*
Y310365D01*
X380984Y309306D01*
X381584Y308408D01*
X399242Y290750D01*
X398190Y288210D01*
X397785D01*
X395948Y287449D01*
X394541Y286042D01*
X393780Y284205D01*
Y282215D01*
X394541Y280378D01*
X395948Y278971D01*
X397785Y278210D01*
X399775D01*
X401612Y278971D01*
X402220Y279579D01*
X402539D01*
X406346Y275772D01*
X402835Y272261D01*
X402835Y272261D01*
X402835Y272261D01*
X400454Y272128D01*
X395994D01*
X338232Y329891D01*
X338249Y329908D01*
X339010Y331745D01*
Y333735D01*
X338610Y334700D01*
X339732Y336910D01*
X340098Y337240D01*
X341110D01*
Y341673D01*
X344690D01*
Y337240D01*
X358890D01*
Y351400D01*
X359430D01*
Y357870D01*
X351790D01*
X344150D01*
Y351400D01*
X344690D01*
Y349015D01*
X342150Y347963D01*
X341110Y349003D01*
X341110Y351640D01*
X341110Y354180D01*
Y366340D01*
X338598D01*
Y373380D01*
X338249Y375136D01*
X337254Y376624D01*
X309451Y404428D01*
X309039Y405422D01*
X307632Y406829D01*
X305795Y407590D01*
X303805D01*
X301968Y406829D01*
X300561Y405422D01*
X299800Y403585D01*
Y401595D01*
X300561Y399758D01*
X301968Y398351D01*
X302962Y397939D01*
X329422Y371479D01*
Y366340D01*
X326910D01*
Y354180D01*
X326910Y351940D01*
X326910Y349400D01*
Y337240D01*
X327922D01*
X328288Y336910D01*
X329410Y334700D01*
X329010Y333735D01*
Y331745D01*
X329771Y329908D01*
X331178Y328501D01*
X332552Y327932D01*
X332929Y327369D01*
X392892Y267405D01*
X393790Y266805D01*
X394849Y266595D01*
X406717D01*
X407776Y266805D01*
X408084Y267011D01*
X410535Y264561D01*
X410071Y263609D01*
X409038Y262466D01*
X408413Y262590D01*
X385213D01*
X319182Y328621D01*
X320469Y329908D01*
X321230Y331745D01*
Y333735D01*
X320830Y334700D01*
X321952Y336910D01*
X322318Y337240D01*
X323330D01*
Y351400D01*
X323870D01*
Y357870D01*
X316230D01*
Y359140D01*
X314960D01*
Y366880D01*
X308590D01*
Y364473D01*
X306092Y363379D01*
X304254Y364140D01*
X302265D01*
X300428Y363379D01*
X299021Y361972D01*
X298260Y360135D01*
Y358145D01*
X299021Y356308D01*
X300428Y354901D01*
X302265Y354140D01*
X304254D01*
X306092Y354901D01*
X308590Y353807D01*
Y351400D01*
X309130D01*
Y337240D01*
X310142D01*
X310508Y336910D01*
X311630Y334700D01*
X311230Y333735D01*
Y331745D01*
X311991Y329908D01*
X313398Y328501D01*
X313463Y328474D01*
Y327660D01*
X313674Y326601D01*
X314274Y325704D01*
X382110Y257867D01*
X383008Y257267D01*
X384067Y257057D01*
X401550D01*
X402815Y254872D01*
X402757Y254690D01*
X401045Y252650D01*
X399055D01*
X397218Y251889D01*
X395811Y250482D01*
X395050Y248645D01*
Y246655D01*
X395811Y244818D01*
X396605Y244023D01*
X395739Y241483D01*
X379679D01*
X288538Y332625D01*
Y421820D01*
X288325Y422887D01*
X287721Y423791D01*
X265831Y445681D01*
X264926Y446285D01*
X263860Y446497D01*
X251461D01*
X246407Y451551D01*
X245503Y452155D01*
X245444Y452167D01*
Y453672D01*
X245231Y454741D01*
X244626Y455646D01*
X243721Y456251D01*
X242652Y456464D01*
X232027D01*
X230237Y458591D01*
Y462491D01*
X230237Y462491D01*
Y496401D01*
X242699D01*
Y523827D01*
X244266Y524994D01*
X245239Y525393D01*
X247080Y524900D01*
X249318D01*
X250619Y525249D01*
X252671Y524087D01*
X253159Y523516D01*
Y512171D01*
X259429D01*
Y525941D01*
X256352D01*
X255524Y527314D01*
X255174Y528481D01*
X256119Y530119D01*
X256699Y532281D01*
Y534519D01*
X256119Y536681D01*
X255052Y538530D01*
X255152Y538943D01*
X256142Y541070D01*
X274235D01*
X275627Y539677D01*
Y524901D01*
X275919Y522682D01*
X276183Y522044D01*
X276150Y521789D01*
Y473710D01*
X276390Y471883D01*
X276610Y471352D01*
Y466810D01*
X281992D01*
X283210Y466650D01*
X284428Y466810D01*
X289254Y466810D01*
X291570Y466270D01*
X292126Y466270D01*
X297440D01*
Y473710D01*
Y481150D01*
X292810D01*
X291570Y481150D01*
X290270Y483152D01*
Y518848D01*
X291625Y520614D01*
X292482Y522682D01*
X292774Y524901D01*
Y541901D01*
X292482Y544120D01*
X291625Y546187D01*
X290263Y547963D01*
X288487Y549325D01*
X286842Y550007D01*
X286397Y550677D01*
X286664Y553320D01*
X287746Y554042D01*
X288468Y555124D01*
X288722Y556400D01*
X288468Y557676D01*
X288447Y557707D01*
X289740Y560247D01*
X310378D01*
Y500247D01*
D02*
G37*
G36*
X768123Y393824D02*
Y327536D01*
X682574Y241986D01*
X681974Y241089D01*
X681763Y240030D01*
Y213476D01*
X667904Y199617D01*
X653650D01*
Y206783D01*
X655320D01*
X656379Y206994D01*
X657276Y207594D01*
X676326Y226644D01*
X676926Y227541D01*
X677137Y228600D01*
Y246504D01*
X761416Y330784D01*
X762016Y331681D01*
X762227Y332740D01*
Y388620D01*
X762016Y389679D01*
X761416Y390576D01*
X734650Y417343D01*
X733752Y417943D01*
X732693Y418153D01*
X648517D01*
X648012Y420693D01*
X649262Y421211D01*
X650669Y422618D01*
X650696Y422683D01*
X739264D01*
X768123Y393824D01*
D02*
G37*
G36*
X369474Y204040D02*
X369354Y198800D01*
X363901Y193348D01*
X354002Y203247D01*
X362133Y211379D01*
X369474Y204040D01*
D02*
G37*
%LPC*%
G36*
X268239Y525941D02*
X261969D01*
Y512171D01*
X268239D01*
Y525941D01*
D02*
G37*
G36*
Y509631D02*
X261969D01*
Y495861D01*
X268239D01*
Y509631D01*
D02*
G37*
G36*
X259429D02*
X253159D01*
Y495861D01*
X259429D01*
Y509631D01*
D02*
G37*
G36*
X299980Y481150D02*
Y474980D01*
X305850D01*
Y481150D01*
X299980D01*
D02*
G37*
G36*
X784750Y482230D02*
X777980D01*
Y473710D01*
X784750D01*
Y482230D01*
D02*
G37*
G36*
X891466Y496250D02*
X890270D01*
Y472480D01*
X914040D01*
Y473676D01*
X913078Y478514D01*
X911190Y483071D01*
X908450Y487172D01*
X904962Y490660D01*
X900861Y493400D01*
X896304Y495288D01*
X891466Y496250D01*
D02*
G37*
G36*
X887730D02*
X886534D01*
X881696Y495288D01*
X877139Y493400D01*
X873038Y490660D01*
X869550Y487172D01*
X866810Y483071D01*
X864922Y478514D01*
X863960Y473676D01*
Y472480D01*
X887730D01*
Y496250D01*
D02*
G37*
G36*
X32566D02*
X31370D01*
Y472480D01*
X55140D01*
Y473676D01*
X54178Y478514D01*
X52290Y483071D01*
X49550Y487172D01*
X46062Y490660D01*
X41961Y493400D01*
X37404Y495288D01*
X32566Y496250D01*
D02*
G37*
G36*
X28830D02*
X27634D01*
X22796Y495288D01*
X18239Y493400D01*
X14138Y490660D01*
X10650Y487172D01*
X7910Y483071D01*
X6022Y478514D01*
X5060Y473676D01*
Y472480D01*
X28830D01*
Y496250D01*
D02*
G37*
G36*
X305850Y472440D02*
X299980D01*
Y466270D01*
X305850D01*
Y472440D01*
D02*
G37*
G36*
X784750Y471170D02*
X777980D01*
Y462650D01*
X784750D01*
Y471170D01*
D02*
G37*
G36*
X794060Y482230D02*
X787290D01*
Y472440D01*
Y462650D01*
X794060D01*
Y462997D01*
X796520Y463190D01*
X796600Y463190D01*
X800370D01*
X800887Y460650D01*
X799457Y459220D01*
X796440Y459220D01*
X793900Y459220D01*
X781740D01*
Y445020D01*
X781834D01*
X783670Y442954D01*
Y440965D01*
X784431Y439128D01*
X785838Y437721D01*
X787675Y436960D01*
X789665D01*
X791502Y437721D01*
X792909Y439128D01*
X793670Y440965D01*
Y442954D01*
X795506Y445020D01*
X798680Y445020D01*
X810840D01*
Y459220D01*
X806787D01*
Y463190D01*
X811520D01*
Y481690D01*
X796600D01*
X796520Y481690D01*
X794060Y481883D01*
Y482230D01*
D02*
G37*
G36*
X81760Y458290D02*
X79444Y457750D01*
X74618Y457750D01*
X73400Y457910D01*
X72182Y457750D01*
X66800D01*
Y453208D01*
X66580Y452677D01*
X66340Y450850D01*
Y434927D01*
X66580Y433100D01*
X67285Y431397D01*
X68408Y429935D01*
X74265Y424077D01*
X75728Y422955D01*
X77431Y422249D01*
X79258Y422009D01*
X86279D01*
X88107Y422249D01*
X89310Y422748D01*
X91779D01*
X94199Y423229D01*
X96249Y424599D01*
X97620Y426650D01*
X98101Y429069D01*
X97620Y431488D01*
X96249Y433539D01*
X94199Y434910D01*
X91779Y435391D01*
X89310D01*
X88107Y435889D01*
X86279Y436130D01*
X82182D01*
X80460Y437852D01*
Y441408D01*
X81760Y443410D01*
X83000Y443410D01*
X87630D01*
Y450850D01*
Y458290D01*
X82316D01*
X81760Y458290D01*
D02*
G37*
G36*
X90170Y458290D02*
Y452120D01*
X96040D01*
Y458290D01*
X90170D01*
D02*
G37*
G36*
X914040Y469940D02*
X890270D01*
Y446170D01*
X891466D01*
X896304Y447132D01*
X900861Y449020D01*
X904962Y451760D01*
X908450Y455248D01*
X911190Y459349D01*
X913078Y463906D01*
X914040Y468744D01*
Y469940D01*
D02*
G37*
G36*
X887730D02*
X863960D01*
Y468744D01*
X864922Y463906D01*
X866810Y459349D01*
X869550Y455248D01*
X873038Y451760D01*
X877139Y449020D01*
X881696Y447132D01*
X886534Y446170D01*
X887730D01*
Y469940D01*
D02*
G37*
G36*
X55140D02*
X31370D01*
Y446170D01*
X32566D01*
X37404Y447132D01*
X41961Y449020D01*
X46062Y451760D01*
X49550Y455248D01*
X52290Y459349D01*
X54178Y463906D01*
X55140Y468744D01*
Y469940D01*
D02*
G37*
G36*
X28830D02*
X5060D01*
Y468744D01*
X6022Y463906D01*
X7910Y459349D01*
X10650Y455248D01*
X14138Y451760D01*
X18239Y449020D01*
X22796Y447132D01*
X27634Y446170D01*
X28830D01*
Y469940D01*
D02*
G37*
G36*
X96040Y449580D02*
X90170D01*
Y443410D01*
X96040D01*
Y449580D01*
D02*
G37*
G36*
X435335Y448230D02*
X433345D01*
X431508Y447469D01*
X430101Y446062D01*
X429340Y444225D01*
Y442235D01*
X429752Y441241D01*
Y434340D01*
X430101Y432584D01*
X431096Y431096D01*
X432366Y429826D01*
X433854Y428831D01*
X435610Y428482D01*
X613410D01*
X615166Y428831D01*
X616654Y429826D01*
X618174Y431345D01*
X619169Y432834D01*
X619518Y434590D01*
Y440221D01*
X619930Y441215D01*
Y443204D01*
X619169Y445042D01*
X617762Y446449D01*
X615924Y447210D01*
X613935D01*
X612097Y446449D01*
X610691Y445042D01*
X609930Y443204D01*
Y441215D01*
X610341Y440221D01*
Y437658D01*
X531002D01*
Y440605D01*
X531413Y441599D01*
Y443588D01*
X530652Y445426D01*
X529246Y446832D01*
X527408Y447593D01*
X525419D01*
X523581Y446832D01*
X522175Y445426D01*
X521413Y443588D01*
Y441599D01*
X521825Y440605D01*
Y437658D01*
X438928D01*
Y441241D01*
X439340Y442235D01*
Y444225D01*
X438579Y446062D01*
X437172Y447469D01*
X435335Y448230D01*
D02*
G37*
G36*
X398505Y435530D02*
X396515D01*
X394678Y434769D01*
X393271Y433362D01*
X392510Y431525D01*
Y429535D01*
X393271Y427698D01*
X394678Y426291D01*
X396515Y425530D01*
X398505D01*
X400342Y426291D01*
X401749Y427698D01*
X402510Y429535D01*
Y431525D01*
X401749Y433362D01*
X400342Y434769D01*
X398505Y435530D01*
D02*
G37*
G36*
X48478Y435391D02*
X40478D01*
X38059Y434910D01*
X36008Y433539D01*
X34637Y431488D01*
X34156Y429069D01*
X34637Y426650D01*
X36008Y424599D01*
X38059Y423229D01*
X40478Y422748D01*
X48478D01*
X50897Y423229D01*
X52948Y424599D01*
X54318Y426650D01*
X54799Y429069D01*
X54318Y431488D01*
X52948Y433539D01*
X50897Y434910D01*
X48478Y435391D01*
D02*
G37*
G36*
X82165Y419219D02*
X80395D01*
X78759Y418542D01*
X77508Y417290D01*
X76830Y415654D01*
Y413884D01*
X77508Y412249D01*
X78759Y410997D01*
X80395Y410319D01*
X82165D01*
X83801Y410997D01*
X85052Y412249D01*
X85730Y413884D01*
Y415654D01*
X85052Y417290D01*
X83801Y418542D01*
X82165Y419219D01*
D02*
G37*
G36*
X249915Y392350D02*
X247925D01*
X246088Y391589D01*
X244681Y390182D01*
X243920Y388345D01*
Y386355D01*
X244681Y384518D01*
X246088Y383111D01*
X247925Y382350D01*
X249915D01*
X251752Y383111D01*
X253159Y384518D01*
X253920Y386355D01*
Y388345D01*
X253159Y390182D01*
X251752Y391589D01*
X249915Y392350D01*
D02*
G37*
G36*
X426740Y367150D02*
X420370D01*
Y360680D01*
X426740D01*
Y367150D01*
D02*
G37*
G36*
X382270D02*
X375900D01*
Y360680D01*
X382270D01*
Y367150D01*
D02*
G37*
G36*
X359430Y366880D02*
X353060D01*
Y360410D01*
X359430D01*
Y366880D01*
D02*
G37*
G36*
X323870D02*
X317500D01*
Y360410D01*
X323870D01*
Y366880D01*
D02*
G37*
G36*
X350520D02*
X344150D01*
Y360410D01*
X350520D01*
Y366880D01*
D02*
G37*
G36*
X82165Y361320D02*
X80395D01*
X78759Y360643D01*
X77508Y359391D01*
X76830Y357755D01*
Y355985D01*
X77508Y354349D01*
X78759Y353097D01*
X80395Y352420D01*
X82165D01*
X83801Y353097D01*
X85052Y354349D01*
X85730Y355985D01*
Y357755D01*
X85052Y359391D01*
X83801Y360643D01*
X82165Y361320D01*
D02*
G37*
G36*
X219435Y361870D02*
X217445D01*
X215608Y361109D01*
X214201Y359702D01*
X213440Y357865D01*
Y355875D01*
X214201Y354038D01*
X215608Y352631D01*
X217445Y351870D01*
X219435D01*
X221272Y352631D01*
X222679Y354038D01*
X223440Y355875D01*
Y357865D01*
X222679Y359702D01*
X221272Y361109D01*
X219435Y361870D01*
D02*
G37*
G36*
X498522Y348930D02*
X494159Y344567D01*
X498310Y340416D01*
X502673Y344779D01*
X498522Y348930D01*
D02*
G37*
G36*
X91779Y348991D02*
X80779D01*
X78360Y348510D01*
X76309Y347140D01*
X74939Y345089D01*
X74458Y342670D01*
X74939Y340251D01*
X76309Y338200D01*
X78360Y336829D01*
X80779Y336348D01*
X91779D01*
X94199Y336829D01*
X96249Y338200D01*
X97620Y340251D01*
X98101Y342670D01*
X97620Y345089D01*
X96249Y347140D01*
X94199Y348510D01*
X91779Y348991D01*
D02*
G37*
G36*
X48478D02*
X40478D01*
X38059Y348510D01*
X36008Y347140D01*
X34637Y345089D01*
X34156Y342670D01*
X34637Y340251D01*
X36008Y338200D01*
X38059Y336829D01*
X40478Y336348D01*
X48478D01*
X50897Y336829D01*
X52948Y338200D01*
X54318Y340251D01*
X54799Y342670D01*
X54318Y345089D01*
X52948Y347140D01*
X50897Y348510D01*
X48478Y348991D01*
D02*
G37*
G36*
X492363Y342771D02*
X488000Y338408D01*
X492151Y334257D01*
X496514Y338620D01*
X492363Y342771D01*
D02*
G37*
G36*
X243681Y341434D02*
X241692D01*
X239854Y340673D01*
X238447Y339266D01*
X237686Y337428D01*
Y335439D01*
X238447Y333602D01*
X239854Y332195D01*
X241692Y331434D01*
X243681D01*
X245518Y332195D01*
X246925Y333602D01*
X247686Y335439D01*
Y337428D01*
X246925Y339266D01*
X245518Y340673D01*
X243681Y341434D01*
D02*
G37*
G36*
X485822Y336230D02*
X481459Y331867D01*
X485610Y327716D01*
X489973Y332079D01*
X485822Y336230D01*
D02*
G37*
G36*
X709190Y333640D02*
X702420D01*
Y325120D01*
X709190D01*
Y333640D01*
D02*
G37*
G36*
X550810Y325010D02*
X542290D01*
Y318240D01*
X550810D01*
Y325010D01*
D02*
G37*
G36*
X539750D02*
X531230D01*
Y318240D01*
X539750D01*
Y325010D01*
D02*
G37*
G36*
X709190Y322580D02*
X702420D01*
Y314060D01*
X709190D01*
Y322580D01*
D02*
G37*
G36*
X649965Y341550D02*
X647975D01*
X646138Y340789D01*
X644731Y339382D01*
X643970Y337545D01*
Y335555D01*
X644382Y334561D01*
Y330950D01*
X642040D01*
Y316750D01*
X644652D01*
Y315960D01*
X645001Y314204D01*
X645996Y312716D01*
X650875Y307837D01*
X649903Y305490D01*
X645420D01*
Y299720D01*
X654190D01*
Y301979D01*
X656590Y304022D01*
X668512D01*
Y287739D01*
X668100Y286745D01*
Y284755D01*
X668787Y283097D01*
X668861Y282724D01*
X669856Y281236D01*
X671344Y280241D01*
X673100Y279892D01*
X674856Y280241D01*
X676344Y281236D01*
X677339Y282724D01*
X677413Y283097D01*
X678100Y284755D01*
Y286745D01*
X677688Y287739D01*
Y307774D01*
X677339Y309530D01*
X676344Y311018D01*
X675508Y311854D01*
X675433Y312283D01*
X677327Y314600D01*
X690570D01*
X690650Y314600D01*
X693110Y314407D01*
Y314060D01*
X699880D01*
Y323850D01*
Y333640D01*
X693110D01*
Y333293D01*
X690650Y333100D01*
X690570Y333100D01*
X675650D01*
Y326617D01*
X671140D01*
Y330950D01*
X658980D01*
X656740Y330950D01*
X655354D01*
X653558Y332746D01*
Y334561D01*
X653970Y335555D01*
Y337545D01*
X653209Y339382D01*
X651802Y340789D01*
X649965Y341550D01*
D02*
G37*
G36*
X619580Y308390D02*
X613410D01*
Y302520D01*
X619580D01*
Y308390D01*
D02*
G37*
G36*
X610870D02*
X604700D01*
Y302520D01*
X610870D01*
Y308390D01*
D02*
G37*
G36*
X829190Y305490D02*
X820420D01*
Y299720D01*
X829190D01*
Y305490D01*
D02*
G37*
G36*
X817880D02*
X809110D01*
Y299720D01*
X817880D01*
Y305490D01*
D02*
G37*
G36*
X642880D02*
X634110D01*
Y299720D01*
X642880D01*
Y305490D01*
D02*
G37*
G36*
X905120Y424199D02*
X886120D01*
X884032Y423924D01*
X882085Y423118D01*
X880414Y421836D01*
X879132Y420164D01*
X878326Y418218D01*
X878051Y416130D01*
X878326Y414042D01*
X879132Y412095D01*
X880414Y410424D01*
X882085Y409142D01*
X884032Y408336D01*
X886120Y408061D01*
X888559D01*
Y295199D01*
X886120D01*
X884032Y294924D01*
X882085Y294118D01*
X880414Y292836D01*
X879132Y291164D01*
X878326Y289218D01*
X878051Y287130D01*
X878326Y285042D01*
X879132Y283095D01*
X880414Y281424D01*
X882085Y280142D01*
X884032Y279336D01*
X886120Y279061D01*
X905120D01*
X907208Y279336D01*
X909154Y280142D01*
X910826Y281424D01*
X912108Y283095D01*
X912914Y285042D01*
X913189Y287130D01*
X912914Y289218D01*
X912108Y291164D01*
X910826Y292836D01*
X909154Y294118D01*
X907208Y294924D01*
X905120Y295199D01*
X902680D01*
Y408061D01*
X905120D01*
X907208Y408336D01*
X909154Y409142D01*
X910826Y410424D01*
X912108Y412095D01*
X912914Y414042D01*
X913189Y416130D01*
X912914Y418218D01*
X912108Y420164D01*
X910826Y421836D01*
X909154Y423118D01*
X907208Y423924D01*
X905120Y424199D01*
D02*
G37*
G36*
X555110Y267130D02*
X550590D01*
Y260610D01*
X555110D01*
Y267130D01*
D02*
G37*
G36*
X224680Y259980D02*
X217910D01*
Y251460D01*
X224680D01*
Y259980D01*
D02*
G37*
G36*
X619580Y252470D02*
X613410D01*
Y246600D01*
X619580D01*
Y252470D01*
D02*
G37*
G36*
X610870D02*
X604700D01*
Y246600D01*
X610870D01*
Y252470D01*
D02*
G37*
G36*
X224680Y248920D02*
X217910D01*
Y240400D01*
X224680D01*
Y248920D01*
D02*
G37*
G36*
X233990Y259980D02*
X227220D01*
Y250190D01*
Y240400D01*
X233990D01*
Y240747D01*
X236450Y240940D01*
X236530Y240940D01*
X241183D01*
Y236970D01*
X235100Y236970D01*
X232560Y236970D01*
X220400D01*
Y234458D01*
X217889D01*
X217738Y234521D01*
X200286Y251973D01*
X198797Y252968D01*
X197041Y253317D01*
X187871D01*
X186415Y253920D01*
X184425D01*
X182588Y253159D01*
X181181Y251752D01*
X180420Y249915D01*
Y247925D01*
X181181Y246088D01*
X182588Y244681D01*
X184425Y243920D01*
X186415D01*
X186947Y244140D01*
X195141D01*
X211249Y228032D01*
X211661Y227038D01*
X213068Y225631D01*
X214905Y224870D01*
X216895D01*
X217889Y225282D01*
X220400D01*
Y222770D01*
X232560D01*
X234800Y222770D01*
X237340Y222770D01*
X249500D01*
Y236970D01*
X246717D01*
Y240940D01*
X251450D01*
Y259440D01*
X236530D01*
X236450Y259440D01*
X233990Y259633D01*
Y259980D01*
D02*
G37*
G36*
X737690Y242290D02*
X731920D01*
Y236520D01*
X737690D01*
Y242290D01*
D02*
G37*
G36*
X701380D02*
X695610D01*
Y236520D01*
X701380D01*
Y242290D01*
D02*
G37*
G36*
X37940Y252109D02*
X18940D01*
X16851Y251834D01*
X14905Y251028D01*
X13234Y249746D01*
X11952Y248074D01*
X11146Y246128D01*
X10871Y244040D01*
X11146Y241952D01*
X11952Y240005D01*
X13234Y238334D01*
X14905Y237052D01*
X16851Y236246D01*
X18940Y235971D01*
X37940D01*
X40028Y236246D01*
X41974Y237052D01*
X43645Y238334D01*
X44928Y240005D01*
X45734Y241952D01*
X46009Y244040D01*
X45734Y246128D01*
X44928Y248074D01*
X43645Y249746D01*
X41974Y251028D01*
X40028Y251834D01*
X37940Y252109D01*
D02*
G37*
G36*
X729380Y242290D02*
X717920D01*
Y235250D01*
X715380D01*
Y242290D01*
X703920D01*
Y235250D01*
X702650D01*
Y233980D01*
X695610D01*
Y228210D01*
Y222520D01*
X702650D01*
Y219980D01*
X695610D01*
Y214210D01*
Y208520D01*
X702650D01*
Y207250D01*
X703920D01*
Y200210D01*
X715380D01*
Y207250D01*
X717920D01*
Y200210D01*
X729380D01*
Y207250D01*
X730650D01*
Y208520D01*
X737690D01*
Y214210D01*
Y219980D01*
X730650D01*
Y222520D01*
X737690D01*
Y228210D01*
Y233980D01*
X730650D01*
Y235250D01*
X729380D01*
Y242290D01*
D02*
G37*
G36*
X358420Y238132D02*
X354269Y233981D01*
X358632Y229618D01*
X362783Y233769D01*
X358420Y238132D01*
D02*
G37*
G36*
X555110Y234690D02*
X550590D01*
Y228170D01*
X555110D01*
Y234690D01*
D02*
G37*
G36*
X548050D02*
X543530D01*
Y228170D01*
X548050D01*
Y234690D01*
D02*
G37*
G36*
X364579Y231973D02*
X360428Y227822D01*
X364791Y223459D01*
X368942Y227610D01*
X364579Y231973D01*
D02*
G37*
G36*
X555110Y225630D02*
X550590D01*
Y219110D01*
X555110D01*
Y225630D01*
D02*
G37*
G36*
X548050D02*
X543530D01*
Y219110D01*
X548050D01*
Y225630D01*
D02*
G37*
G36*
X373449Y226285D02*
X368485Y221321D01*
X374333Y215473D01*
X379296Y220437D01*
X373449Y226285D01*
D02*
G37*
G36*
X132740Y222139D02*
X99940D01*
Y206939D01*
X132740D01*
Y209996D01*
X139091D01*
X139975Y209630D01*
X141965D01*
X143802Y210391D01*
X145209Y211798D01*
X145970Y213635D01*
Y215625D01*
X145209Y217462D01*
X143802Y218869D01*
X141965Y219630D01*
X139975D01*
X138871Y219172D01*
X132740D01*
Y222139D01*
D02*
G37*
G36*
X737690Y205980D02*
X731920D01*
Y200210D01*
X737690D01*
Y205980D01*
D02*
G37*
G36*
X701380D02*
X695610D01*
Y200210D01*
X701380D01*
Y205980D01*
D02*
G37*
G36*
X438335Y197310D02*
X433830Y192806D01*
X438405Y188231D01*
X442910Y192735D01*
X438335Y197310D01*
D02*
G37*
G36*
X432034Y191010D02*
X427530Y186505D01*
X432105Y181930D01*
X436609Y186434D01*
X432034Y191010D01*
D02*
G37*
G36*
X370931Y192653D02*
X365967Y187689D01*
X371815Y181841D01*
X376779Y186805D01*
X370931Y192653D01*
D02*
G37*
G36*
X522965Y189150D02*
X520975D01*
X519138Y188389D01*
X517731Y186982D01*
X516970Y185145D01*
Y183155D01*
X517731Y181318D01*
X519138Y179911D01*
X520975Y179150D01*
X522965D01*
X524802Y179911D01*
X526209Y181318D01*
X526970Y183155D01*
Y185145D01*
X526209Y186982D01*
X524802Y188389D01*
X522965Y189150D01*
D02*
G37*
G36*
X378575Y185009D02*
X373611Y180045D01*
X379459Y174197D01*
X384423Y179161D01*
X378575Y185009D01*
D02*
G37*
G36*
X390859Y175321D02*
X386708Y171170D01*
X391071Y166807D01*
X395222Y170958D01*
X390859Y175321D01*
D02*
G37*
G36*
X397018Y169162D02*
X392867Y165011D01*
X397230Y160648D01*
X401381Y164799D01*
X397018Y169162D01*
D02*
G37*
G36*
X199115Y212010D02*
X197125D01*
X195288Y211249D01*
X193881Y209842D01*
X193120Y208005D01*
Y206015D01*
X193881Y204178D01*
X195288Y202771D01*
X196282Y202359D01*
X197560Y201082D01*
Y154518D01*
X197489Y154448D01*
X192489D01*
X191495Y154860D01*
X189505D01*
X187668Y154099D01*
X186261Y152692D01*
X185500Y150855D01*
Y148865D01*
X186261Y147028D01*
X187668Y145621D01*
X189505Y144860D01*
X191495D01*
X192489Y145272D01*
X199390D01*
X201146Y145621D01*
X202634Y146616D01*
X205392Y149374D01*
X206387Y150862D01*
X206736Y152618D01*
Y202982D01*
X206387Y204738D01*
X205392Y206226D01*
X202771Y208848D01*
X202359Y209842D01*
X200952Y211249D01*
X199115Y212010D01*
D02*
G37*
G36*
X840740Y158530D02*
X834570D01*
Y152660D01*
X840740D01*
Y158530D01*
D02*
G37*
G36*
X133280Y152681D02*
X117610D01*
Y145811D01*
X133280D01*
Y152681D01*
D02*
G37*
G36*
X115070D02*
X99400D01*
Y145811D01*
X115070D01*
Y152681D01*
D02*
G37*
G36*
X133280Y143271D02*
X117610D01*
Y136401D01*
X133280D01*
Y143271D01*
D02*
G37*
G36*
X115070D02*
X99400D01*
Y136401D01*
X115070D01*
Y143271D01*
D02*
G37*
G36*
X467085Y129460D02*
X465095D01*
X463258Y128699D01*
X461851Y127292D01*
X461090Y125455D01*
Y123465D01*
X461851Y121628D01*
X463258Y120221D01*
X465095Y119460D01*
X467085D01*
X468922Y120221D01*
X470329Y121628D01*
X471090Y123465D01*
Y125455D01*
X470329Y127292D01*
X468922Y128699D01*
X467085Y129460D01*
D02*
G37*
G36*
X37940Y123109D02*
X18940D01*
X16851Y122834D01*
X14905Y122028D01*
X13234Y120746D01*
X11952Y119074D01*
X11146Y117128D01*
X10871Y115040D01*
X11146Y112952D01*
X11952Y111005D01*
X13234Y109334D01*
X14905Y108052D01*
X16851Y107246D01*
X18940Y106971D01*
X37940D01*
X40028Y107246D01*
X41974Y108052D01*
X43645Y109334D01*
X44928Y111005D01*
X45734Y112952D01*
X46009Y115040D01*
X45734Y117128D01*
X44928Y119074D01*
X43645Y120746D01*
X41974Y122028D01*
X40028Y122834D01*
X37940Y123109D01*
D02*
G37*
G36*
X784600Y82670D02*
X778080D01*
Y78150D01*
X784600D01*
Y82670D01*
D02*
G37*
G36*
X826100D02*
X819580D01*
Y78150D01*
X826100D01*
Y82670D01*
D02*
G37*
G36*
X817040D02*
X810520D01*
Y78150D01*
X817040D01*
Y82670D01*
D02*
G37*
G36*
X775540D02*
X769020D01*
Y78150D01*
X775540D01*
Y82670D01*
D02*
G37*
G36*
X891466Y95140D02*
X890270D01*
Y71370D01*
X914040D01*
Y72566D01*
X913078Y77404D01*
X911190Y81961D01*
X908450Y86062D01*
X904962Y89550D01*
X900861Y92290D01*
X896304Y94178D01*
X891466Y95140D01*
D02*
G37*
G36*
X887730D02*
X886534D01*
X881696Y94178D01*
X877139Y92290D01*
X873038Y89550D01*
X869550Y86062D01*
X866810Y81961D01*
X864922Y77404D01*
X863960Y72566D01*
Y71370D01*
X887730D01*
Y95140D01*
D02*
G37*
G36*
X32566D02*
X31370D01*
Y71370D01*
X55140D01*
Y72566D01*
X54178Y77404D01*
X52290Y81961D01*
X49550Y86062D01*
X46062Y89550D01*
X41961Y92290D01*
X37404Y94178D01*
X32566Y95140D01*
D02*
G37*
G36*
X28830D02*
X27634D01*
X22796Y94178D01*
X18239Y92290D01*
X14138Y89550D01*
X10650Y86062D01*
X7910Y81961D01*
X6022Y77404D01*
X5060Y72566D01*
Y71370D01*
X28830D01*
Y95140D01*
D02*
G37*
G36*
X826100Y75610D02*
X819580D01*
Y71090D01*
X826100D01*
Y75610D01*
D02*
G37*
G36*
X817040D02*
X810520D01*
Y71090D01*
X817040D01*
Y75610D01*
D02*
G37*
G36*
X784600D02*
X778080D01*
Y71090D01*
X784600D01*
Y75610D01*
D02*
G37*
G36*
X775540D02*
X769020D01*
Y71090D01*
X775540D01*
Y75610D01*
D02*
G37*
G36*
X587640Y69110D02*
X579120D01*
Y62340D01*
X587640D01*
Y69110D01*
D02*
G37*
G36*
X576580D02*
X568060D01*
Y62340D01*
X576580D01*
Y69110D01*
D02*
G37*
G36*
X605270Y66620D02*
X591070D01*
Y54460D01*
X591070Y52220D01*
X591070Y49680D01*
Y45837D01*
X587100D01*
Y50490D01*
X587100Y50570D01*
X587293Y53030D01*
X587640D01*
Y59800D01*
X577850D01*
X568060D01*
Y53030D01*
X568407D01*
X568600Y50570D01*
X568600Y50490D01*
Y35570D01*
X587100D01*
Y40303D01*
X591070D01*
Y37520D01*
X605270D01*
Y49680D01*
X605270Y52414D01*
X607066Y54420D01*
X609055D01*
X610892Y55181D01*
X612299Y56588D01*
X613060Y58425D01*
Y60415D01*
X612299Y62252D01*
X610892Y63659D01*
X609055Y64420D01*
X607066D01*
X605270Y66426D01*
Y66620D01*
D02*
G37*
G36*
X914040Y68830D02*
X890270D01*
Y45060D01*
X891466D01*
X896304Y46022D01*
X900861Y47910D01*
X904962Y50650D01*
X908450Y54138D01*
X911190Y58239D01*
X913078Y62796D01*
X914040Y67634D01*
Y68830D01*
D02*
G37*
G36*
X887730D02*
X863960D01*
Y67634D01*
X864922Y62796D01*
X866810Y58239D01*
X869550Y54138D01*
X873038Y50650D01*
X877139Y47910D01*
X881696Y46022D01*
X886534Y45060D01*
X887730D01*
Y68830D01*
D02*
G37*
G36*
X55140D02*
X31370D01*
Y45060D01*
X32566D01*
X37404Y46022D01*
X41961Y47910D01*
X46062Y50650D01*
X49550Y54138D01*
X52290Y58239D01*
X54178Y62796D01*
X55140Y67634D01*
Y68830D01*
D02*
G37*
G36*
X28830D02*
X5060D01*
Y67634D01*
X6022Y62796D01*
X7910Y58239D01*
X10650Y54138D01*
X14138Y50650D01*
X18239Y47910D01*
X22796Y46022D01*
X27634Y45060D01*
X28830D01*
Y68830D01*
D02*
G37*
G36*
X431620Y50580D02*
X425450D01*
Y44710D01*
X431620D01*
Y50580D01*
D02*
G37*
G36*
X422910D02*
X416740D01*
Y44710D01*
X422910D01*
Y50580D01*
D02*
G37*
G36*
X360246Y55560D02*
X359050D01*
Y31790D01*
X382820D01*
Y32986D01*
X381858Y37824D01*
X379970Y42381D01*
X377230Y46482D01*
X373742Y49970D01*
X369641Y52710D01*
X365084Y54598D01*
X360246Y55560D01*
D02*
G37*
G36*
X356510D02*
X355314D01*
X350476Y54598D01*
X345919Y52710D01*
X341818Y49970D01*
X338330Y46482D01*
X335590Y42381D01*
X333702Y37824D01*
X332740Y32986D01*
Y31790D01*
X356510D01*
Y55560D01*
D02*
G37*
G36*
X382820Y29250D02*
X359050D01*
Y5480D01*
X360246D01*
X365084Y6442D01*
X369641Y8330D01*
X373742Y11070D01*
X377230Y14558D01*
X379970Y18659D01*
X381858Y23216D01*
X382820Y28054D01*
Y29250D01*
D02*
G37*
G36*
X356510D02*
X332740D01*
Y28054D01*
X333702Y23216D01*
X335590Y18659D01*
X338330Y14558D01*
X341818Y11070D01*
X345919Y8330D01*
X350476Y6442D01*
X355314Y5480D01*
X356510D01*
Y29250D01*
D02*
G37*
%LPD*%
D12*
X166302Y107882D02*
Y114082D01*
X162560Y104140D02*
X166302Y107882D01*
X140970Y104140D02*
X162560D01*
X166302Y114082D02*
X167640Y115420D01*
X171450Y102870D02*
X191770D01*
X167640Y99060D02*
X171450Y102870D01*
X167640Y90320D02*
Y99060D01*
D13*
X116340Y214539D02*
X116431Y214630D01*
X298710Y473710D02*
X311150D01*
X237340Y441810D02*
Y441960D01*
X236220Y440690D02*
X237340Y441810D01*
X231500Y439220D02*
X232970Y440690D01*
X236220D01*
X230144Y439220D02*
X231500D01*
X224790Y427656D02*
X227330Y425116D01*
Y424180D02*
Y425116D01*
X224790Y433866D02*
X230144Y439220D01*
X224790Y427656D02*
Y433866D01*
X464953Y262890D02*
X474960Y272897D01*
X462280Y262890D02*
X464953D01*
X473048Y297788D02*
X473710Y298450D01*
X460818Y287039D02*
X471566Y297788D01*
X473048D01*
X603700Y164280D02*
X609600Y170180D01*
X603700Y159350D02*
Y164280D01*
X438685Y229551D02*
X442355Y225882D01*
Y216775D02*
Y225882D01*
Y216775D02*
X443230Y215900D01*
X609600Y170180D02*
X621030D01*
X464353Y243694D02*
X479167Y228879D01*
X479781D01*
X480060Y228600D01*
X555990Y359410D02*
X557530Y360950D01*
X398780Y283210D02*
X399077Y282913D01*
X403921D01*
X413937Y272897D01*
X481537Y271573D02*
X488950Y264160D01*
X480707Y271573D02*
X481537D01*
X478495Y269361D02*
X480707Y271573D01*
X400050Y247650D02*
X407286D01*
X413937Y254300D01*
X412750Y299720D02*
X412900Y299570D01*
Y295454D02*
Y299570D01*
Y295454D02*
X424543Y283810D01*
Y283504D02*
Y283810D01*
D17*
X786020Y472440D02*
D03*
X701150Y323850D02*
D03*
X225950Y250190D02*
D03*
X804020Y472440D02*
D03*
X683150Y323850D02*
D03*
X243950Y250190D02*
D03*
D18*
X819150Y298450D02*
D03*
X644150D02*
D03*
Y196850D02*
D03*
Y209550D02*
D03*
Y285750D02*
D03*
Y158750D02*
D03*
X819150Y133350D02*
D03*
X644150Y273050D02*
D03*
Y260350D02*
D03*
Y247650D02*
D03*
Y234950D02*
D03*
Y222250D02*
D03*
Y184150D02*
D03*
Y171450D02*
D03*
X819150Y146050D02*
D03*
Y158750D02*
D03*
Y171450D02*
D03*
Y184150D02*
D03*
Y196850D02*
D03*
Y209550D02*
D03*
Y222250D02*
D03*
Y234950D02*
D03*
Y247650D02*
D03*
Y260350D02*
D03*
Y273050D02*
D03*
Y285750D02*
D03*
X644150Y133350D02*
D03*
Y146050D02*
D03*
D19*
X730650Y235250D02*
D03*
X716650D02*
D03*
X702650D02*
D03*
X730650Y221250D02*
D03*
X716650D02*
D03*
X730650Y207250D02*
D03*
X716650D02*
D03*
X702650Y221250D02*
D03*
Y207250D02*
D03*
D20*
X498310Y338620D02*
D03*
X485610Y325920D02*
D03*
X496570Y314960D02*
D03*
X509270Y327660D02*
D03*
D21*
X612140Y253740D02*
D03*
Y301250D02*
D03*
X842010Y151390D02*
D03*
X424180Y43440D02*
D03*
X612140Y285750D02*
D03*
X424180Y27940D02*
D03*
X842010Y135890D02*
D03*
X612140Y269240D02*
D03*
D22*
X541020Y326280D02*
D03*
X577850Y61070D02*
D03*
X541020Y344280D02*
D03*
X577850Y43070D02*
D03*
D23*
X549320Y268400D02*
D03*
Y226900D02*
D03*
X570820D02*
D03*
Y268400D02*
D03*
D24*
X818310Y76880D02*
D03*
X776810D02*
D03*
X818310Y98380D02*
D03*
X776810D02*
D03*
D25*
X603250Y184000D02*
D03*
X494030Y123040D02*
D03*
X167640Y90320D02*
D03*
Y115420D02*
D03*
X177140D02*
D03*
X158140D02*
D03*
X593750Y158900D02*
D03*
X612750D02*
D03*
X494030Y97940D02*
D03*
X158140Y90320D02*
D03*
X177140D02*
D03*
X484530Y123040D02*
D03*
X503530D02*
D03*
X612750Y184000D02*
D03*
X593750D02*
D03*
X484530Y97940D02*
D03*
X503530D02*
D03*
X603250Y158900D02*
D03*
D26*
X298710Y473710D02*
D03*
X88900Y450850D02*
D03*
X73400D02*
D03*
X283210Y473710D02*
D03*
D27*
X419100Y359410D02*
D03*
X383540D02*
D03*
X401320D02*
D03*
X316230Y359140D02*
D03*
X351790D02*
D03*
X591820Y284210D02*
D03*
X842010Y106950D02*
D03*
Y121650D02*
D03*
X591820Y269510D02*
D03*
X598170Y44720D02*
D03*
Y59420D02*
D03*
X316230Y344440D02*
D03*
X334010Y359140D02*
D03*
Y344440D02*
D03*
X419100Y344710D02*
D03*
X401320D02*
D03*
X351790Y344440D02*
D03*
X383540Y344710D02*
D03*
D28*
X474960Y272897D02*
D03*
X464353Y283504D02*
D03*
X424543Y243694D02*
D03*
X417472Y250765D02*
D03*
X421008Y247229D02*
D03*
X428079Y240158D02*
D03*
X471424Y276433D02*
D03*
X467889Y279968D02*
D03*
X460818Y287039D02*
D03*
X457282Y290575D02*
D03*
X453747Y294110D02*
D03*
X450211Y297646D02*
D03*
X410401Y257836D02*
D03*
X413937Y254300D02*
D03*
X431614Y236623D02*
D03*
X435150Y233087D02*
D03*
X478495Y269361D02*
D03*
X438685Y229551D02*
D03*
D29*
X237340Y441960D02*
D03*
X212240Y451460D02*
D03*
Y432460D02*
D03*
X237340Y451460D02*
D03*
Y432460D02*
D03*
X212240Y441960D02*
D03*
D31*
X374333Y213677D02*
D03*
X378575Y186805D02*
D03*
X389890Y198120D02*
D03*
D32*
X432034Y192806D02*
D03*
X421640Y203200D02*
D03*
D33*
X397018Y170958D02*
D03*
X358632Y227822D02*
D03*
X347672Y216862D02*
D03*
X407978Y181918D02*
D03*
D34*
X541290Y359410D02*
D03*
X555990D02*
D03*
X803640Y452120D02*
D03*
X788940D02*
D03*
X663940Y323850D02*
D03*
X649240D02*
D03*
X242300Y229870D02*
D03*
X227600D02*
D03*
D35*
X687200Y120850D02*
D03*
X661800D02*
D03*
X674500D02*
D03*
X699900D02*
D03*
X712600D02*
D03*
X725300D02*
D03*
X738000D02*
D03*
X750700D02*
D03*
X763400D02*
D03*
X776100D02*
D03*
X788800D02*
D03*
X801500D02*
D03*
D36*
X363092Y202443D02*
D03*
D37*
X450211Y229551D02*
D03*
X453747Y233087D02*
D03*
X457282Y236623D02*
D03*
X460818Y240158D02*
D03*
X467889Y247229D02*
D03*
X471424Y250765D02*
D03*
X474960Y254300D02*
D03*
X478495Y257836D02*
D03*
X464353Y243694D02*
D03*
X438685Y297646D02*
D03*
X435150Y294110D02*
D03*
X431614Y290575D02*
D03*
X428079Y287039D02*
D03*
X424543Y283504D02*
D03*
X421008Y279968D02*
D03*
X417472Y276433D02*
D03*
X413937Y272897D02*
D03*
X410401Y269361D02*
D03*
D73*
X116340Y144541D02*
D03*
Y169540D02*
D03*
Y189540D02*
D03*
Y214539D02*
D03*
D74*
X527280Y75571D02*
D03*
X463280Y75571D02*
D03*
X471279D02*
D03*
X519281D02*
D03*
D75*
X260699Y510901D02*
D03*
X215699D02*
D03*
X235699D02*
D03*
X190699D02*
D03*
D76*
X444448Y263599D02*
D03*
D77*
X487780Y75571D02*
D03*
X497780D02*
D03*
X492781D02*
D03*
X502781D02*
D03*
X482781D02*
D03*
X512781D02*
D03*
X477780D02*
D03*
X507779D02*
D03*
D78*
X169390Y125064D02*
Y155730D01*
X125534Y181290D02*
X143830D01*
X125534Y177790D02*
X142380D01*
X165890Y125064D02*
Y154280D01*
X143830Y181290D02*
X169390Y155730D01*
X142380Y177790D02*
X165890Y154280D01*
X458149Y174759D02*
Y227318D01*
X451012Y228629D02*
Y229551D01*
X354820Y71430D02*
X458149Y174759D01*
X353370Y74930D02*
X454649Y176209D01*
X451012Y228629D02*
X454649Y224992D01*
X457124Y228344D02*
Y228909D01*
X454649Y176209D02*
Y224992D01*
X457124Y228344D02*
X458149Y227318D01*
X169390Y125064D02*
X170250Y124204D01*
X171456D01*
X177140Y115420D02*
Y118520D01*
X171456Y124204D02*
X177140Y118520D01*
X124674Y182150D02*
Y184674D01*
X116340Y189540D02*
X119808D01*
X124674Y184674D01*
Y182150D02*
X125534Y181290D01*
X165030Y124204D02*
X165890Y125064D01*
X163824Y124204D02*
X165030D01*
X158140Y118520D02*
X163824Y124204D01*
X158140Y115420D02*
Y118520D01*
X124674Y176930D02*
X125534Y177790D01*
X124674Y174406D02*
Y176930D01*
X116340Y169540D02*
X119808D01*
X124674Y174406D01*
X158140Y87220D02*
X163824Y81536D01*
X158140Y87220D02*
Y90320D01*
X172470Y71430D02*
X354820D01*
X165890Y78010D02*
X172470Y71430D01*
X165030Y81536D02*
X165890Y80676D01*
Y78010D02*
Y80676D01*
X163824Y81536D02*
X165030D01*
X453747Y232286D02*
X457124Y228909D01*
X453747Y232286D02*
Y233087D01*
X171456Y81536D02*
X177140Y87220D01*
X169390Y80676D02*
X170250Y81536D01*
X171456D01*
X177140Y87220D02*
Y90320D01*
X169390Y79460D02*
X173920Y74930D01*
X169390Y79460D02*
Y80676D01*
X173920Y74930D02*
X353370D01*
X450211Y229551D02*
X451012D01*
X377074Y235196D02*
X407914D01*
X415471Y242753D01*
X406464Y238696D02*
X412996Y245228D01*
X282250Y330020D02*
X377074Y235196D01*
X378524Y238696D02*
X406464D01*
X285750Y331470D02*
X378524Y238696D01*
X224539Y442025D02*
X227449Y444935D01*
X227449Y462491D02*
Y510041D01*
X223778Y442025D02*
X224539D01*
X227449Y444935D02*
Y462491D01*
X221564Y438086D02*
Y439811D01*
X227449Y462491D02*
X227449Y462491D01*
X223949Y461042D02*
X223949Y461042D01*
X223949Y461042D02*
Y510041D01*
X223089Y445525D02*
X223949Y446385D01*
X221873Y445525D02*
X223089D01*
X219214Y448184D02*
X221873Y445525D01*
X221564Y439811D02*
X223778Y442025D01*
X223949Y446385D02*
Y461042D01*
X215342Y432460D02*
X218618Y435736D01*
X212240Y432460D02*
X215342D01*
X218618Y435736D02*
X219214D01*
X227449Y510041D02*
X228309Y510901D01*
X235699D01*
X219214Y435736D02*
X221564Y438086D01*
X215342Y451460D02*
X218618Y448184D01*
X212240Y451460D02*
X215342D01*
X218618Y448184D02*
X219214D01*
X223089Y510901D02*
X223949Y510041D01*
X215699Y510901D02*
X223089D01*
X501960Y239720D02*
X569080Y172600D01*
X500510Y236220D02*
X567630Y169100D01*
X479958Y236220D02*
X500510D01*
X569080Y172600D02*
X598516D01*
X481408Y239720D02*
X501960D01*
X567630Y169100D02*
X599966D01*
X698596Y343188D02*
X698692Y343092D01*
X699456Y350136D02*
X718306D01*
X698596Y349276D02*
X699456Y350136D01*
X698596Y343188D02*
Y349276D01*
X721230Y383540D02*
X727400Y377370D01*
Y359230D02*
Y377370D01*
X718306Y350136D02*
X727400Y359230D01*
X646380Y383540D02*
X721230D01*
X482971Y252299D02*
X483831Y251439D01*
X478495Y257233D02*
X482971Y252757D01*
X514279Y251439D02*
X646380Y383540D01*
X478495Y257233D02*
Y257836D01*
X482971Y252299D02*
Y252757D01*
X483831Y251439D02*
X514279D01*
X699456Y353636D02*
X716856D01*
X698500Y354592D02*
X699456Y353636D01*
X698500Y354592D02*
Y360680D01*
X719780Y380040D02*
X723900Y375920D01*
Y360680D02*
Y375920D01*
X716856Y353636D02*
X723900Y360680D01*
X647830Y380040D02*
X719780D01*
X474960Y254300D02*
X475562D01*
X480038Y249824D01*
X515729Y247939D02*
X647830Y380040D01*
X482382Y247939D02*
X515729D01*
X480038Y249824D02*
X480497D01*
X482382Y247939D01*
X597026Y151926D02*
Y152522D01*
Y151926D02*
X601500Y147452D01*
X609600Y137950D02*
X636550D01*
X601500Y146050D02*
Y147452D01*
Y146050D02*
X609600Y137950D01*
X606528Y149576D02*
X607124D01*
X610536Y156686D02*
X612750Y158900D01*
X610536Y152988D02*
Y156686D01*
X607124Y149576D02*
X610536Y152988D01*
X605334Y147166D02*
X611050Y141450D01*
X605334Y147166D02*
Y148382D01*
X606528Y149576D01*
X611050Y141450D02*
X636550D01*
X239220Y434340D02*
X244436D01*
X237340Y432460D02*
X239220Y434340D01*
X250306Y440210D02*
X262410D01*
X244436Y434340D02*
X250306Y440210D01*
X250306Y443710D02*
X263860D01*
X237340Y451460D02*
X239220Y449580D01*
X244436D01*
X250306Y443710D01*
X282250Y330020D02*
Y420370D01*
X285750Y331470D02*
Y421820D01*
X475900Y245228D02*
X481408Y239720D01*
X473425Y242753D02*
X479958Y236220D01*
X604267Y173816D02*
X605000D01*
X602876Y172425D02*
X604267Y173816D01*
X602876Y172010D02*
Y172425D01*
X599966Y169100D02*
X602876Y172010D01*
X599376Y173460D02*
Y174676D01*
X597026Y177026D02*
X599376Y174676D01*
X598516Y172600D02*
X599376Y173460D01*
X605000Y173816D02*
X605860Y174676D01*
X593750Y155798D02*
X597026Y152522D01*
X593750Y155798D02*
Y158900D01*
X462819Y232146D02*
X467670Y227295D01*
Y219400D02*
X492280Y194790D01*
X467670Y219400D02*
Y227295D01*
X471170Y220850D02*
Y228745D01*
Y220850D02*
X495780Y196240D01*
X465294Y234621D02*
X471170Y228745D01*
X636550Y137950D02*
X641150Y133350D01*
X644150D01*
X636550Y141450D02*
X641150Y146050D01*
X644150D01*
X484530Y89510D02*
Y97940D01*
Y89510D02*
X487780Y86260D01*
Y65530D02*
Y86260D01*
X502781Y75571D02*
Y86344D01*
X503530Y87093D01*
Y97940D01*
X496980Y64670D02*
X497840Y65530D01*
Y75510D01*
X487780Y65530D02*
X488639Y64670D01*
X496980D01*
X501650Y86360D02*
X502781Y85229D01*
X494071Y86360D02*
X501650D01*
X492781Y85069D02*
X494071Y86360D01*
X492781Y75571D02*
Y85069D01*
X497780Y75571D02*
X497840Y75510D01*
X475900Y245228D02*
Y245686D01*
X472967Y242753D02*
X473425D01*
X471424Y250162D02*
X475900Y245686D01*
X495780Y133224D02*
Y196240D01*
X492280Y133224D02*
Y194790D01*
X607124Y174676D02*
X609474Y177026D01*
Y177622D01*
X605860Y174676D02*
X607124D01*
X612750Y180898D02*
Y184000D01*
X609474Y177622D02*
X612750Y180898D01*
X468491Y247229D02*
X472967Y242753D01*
X467889Y247229D02*
X468491D01*
X593750Y180898D02*
X597026Y177622D01*
X593750Y180898D02*
Y184000D01*
X597026Y177026D02*
Y177622D01*
X471424Y250162D02*
Y250765D01*
X503530Y123040D02*
Y126142D01*
X500254Y129418D02*
Y130014D01*
X495780Y133224D02*
X496640Y132364D01*
X497904D01*
X500254Y130014D01*
X460818Y239556D02*
X465294Y235079D01*
Y234621D02*
Y235079D01*
X500254Y129418D02*
X503530Y126142D01*
X460818Y239556D02*
Y240158D01*
X487806Y129418D02*
Y130014D01*
X484530Y126142D02*
X487806Y129418D01*
X490156Y132364D02*
X491420D01*
X487806Y130014D02*
X490156Y132364D01*
X491420D02*
X492280Y133224D01*
X484530Y123040D02*
Y126142D01*
X457885Y236623D02*
X462361Y232146D01*
X462819D01*
X457282Y236623D02*
X457885D01*
X263860Y443710D02*
X285750Y421820D01*
X417472Y250162D02*
Y250765D01*
X412996Y245686D02*
X417472Y250162D01*
X412996Y245228D02*
Y245686D01*
X262410Y440210D02*
X282250Y420370D01*
X420405Y247229D02*
X421008D01*
X415929Y242753D02*
X420405Y247229D01*
X415471Y242753D02*
X415929D01*
D79*
X197041Y248729D02*
X215900Y229870D01*
X227600D01*
X185611Y248729D02*
X197041D01*
X185420Y248920D02*
X185611Y248729D01*
X202148Y152618D02*
Y202982D01*
X198120Y207010D02*
X202148Y202982D01*
X199390Y149860D02*
X202148Y152618D01*
X190500Y149860D02*
X199390D01*
X95250Y144780D02*
X95369Y144661D01*
X116220D02*
X116340Y144541D01*
X95369Y144661D02*
X116220D01*
X116477Y214584D02*
X140924D01*
X140970Y214630D01*
X116431D02*
X116477Y214584D01*
X190500Y496570D02*
Y510701D01*
X603250Y158900D02*
X603700Y159350D01*
X593360Y285750D02*
X644150D01*
X557530Y360950D02*
Y377190D01*
X434340Y434340D02*
Y443230D01*
X888231Y207779D02*
X897890Y198120D01*
Y128270D02*
Y198120D01*
X876300Y106680D02*
X897890Y128270D01*
X849630Y106680D02*
X876300D01*
X435610Y433070D02*
X527267D01*
X434340Y434340D02*
X435610Y433070D01*
X613410D02*
X614930Y434590D01*
X527267Y433070D02*
X613410D01*
X614930Y434590D02*
Y442210D01*
X526413Y433924D02*
X527267Y433070D01*
X526413Y433924D02*
Y442593D01*
X557530Y402590D02*
X599440D01*
X557530Y377190D02*
Y402590D01*
X341630D02*
X557530D01*
X788670Y441960D02*
Y451850D01*
X788940Y452120D01*
X842010Y106950D02*
X842280Y106680D01*
X849630D01*
X648970Y324120D02*
X649240Y323850D01*
X648970Y324120D02*
Y336550D01*
X649240Y315960D02*
Y323850D01*
X673100Y284480D02*
Y307774D01*
X672264Y308610D02*
X673100Y307774D01*
X656590Y308610D02*
X672264D01*
X649240Y315960D02*
X656590Y308610D01*
X591820Y284210D02*
X593360Y285750D01*
X304800Y402590D02*
X334010Y373380D01*
Y359140D02*
Y373380D01*
X471279Y75571D02*
Y105520D01*
X598170Y59420D02*
X608060D01*
X519281Y75571D02*
X519430Y75720D01*
Y86360D01*
X471279Y105520D02*
X476250Y110490D01*
X488950D01*
X494030Y105410D01*
Y97940D02*
Y105410D01*
X195580Y441960D02*
X212240D01*
D80*
X775970Y472440D02*
X786020D01*
X807720Y298450D02*
X819150D01*
X730350Y234950D02*
X730650Y235250D01*
X730250Y234850D02*
X730650Y235250D01*
X723900Y234950D02*
X730350D01*
X730250Y228600D02*
Y234850D01*
X701150Y323850D02*
X711200D01*
X716650Y234950D02*
X723900D01*
X709930D02*
X716650D01*
X702650Y235250D02*
X702950Y234950D01*
X709930D01*
X716280Y234580D02*
X716650Y234950D01*
X716280Y228600D02*
Y234580D01*
X702310Y234310D02*
X702950Y234950D01*
X702310Y228600D02*
Y234310D01*
X492760Y344170D02*
X498310Y338620D01*
X480060Y331470D02*
X485610Y325920D01*
X644150Y298450D02*
X656590D01*
X612140Y253740D02*
X612400Y254000D01*
X611880Y300990D02*
X612140Y301250D01*
X612400Y254000D02*
X619760D01*
X541130Y326390D02*
X552450D01*
X603250Y300990D02*
X611880D01*
X541020Y326280D02*
X541130Y326390D01*
X549320Y268220D02*
X549570Y267970D01*
X554990D01*
X549320Y268220D02*
Y268400D01*
X730250Y214630D02*
Y228600D01*
X716280Y221620D02*
Y228600D01*
Y220880D02*
X716650Y221250D01*
X716280Y214630D02*
Y220880D01*
X723900Y207010D02*
X730410D01*
X716280Y207620D02*
X716650Y207250D01*
X716280Y207620D02*
Y214630D01*
X702310D02*
Y228600D01*
Y207590D02*
X702650Y207250D01*
X702890Y207010D01*
X709930D02*
X723900D01*
X702890D02*
X709930D01*
X702310Y207590D02*
Y214630D01*
X842010Y151390D02*
Y160020D01*
X776810Y76880D02*
X776990D01*
X818310D02*
X818900D01*
X819150Y76630D01*
Y71120D02*
Y76630D01*
X776990Y76880D02*
X777240Y76630D01*
Y71120D02*
Y76630D01*
X549570Y227330D02*
X554990D01*
X549320Y227080D02*
X549570Y227330D01*
X549320Y226900D02*
Y227080D01*
X603250Y184000D02*
Y193040D01*
X529590Y85206D02*
Y96520D01*
X527280Y75571D02*
Y82896D01*
X577740Y60960D02*
X577850Y61070D01*
X567690Y60960D02*
X577740D01*
X494080Y116087D02*
Y122990D01*
X513080Y110490D02*
X520700D01*
X527280Y82896D02*
X529590Y85206D01*
X494080Y116087D02*
X499677Y110490D01*
X513080D01*
X419100Y359410D02*
Y373380D01*
X383540Y359410D02*
Y373380D01*
X261609Y511810D02*
X269240D01*
X401320Y359410D02*
Y373380D01*
X316230Y359140D02*
Y372110D01*
X351790Y359140D02*
X363490D01*
X260699Y510901D02*
X261609Y511810D01*
X88900Y450850D02*
X100330D01*
X432034Y193274D02*
X438150Y199390D01*
X432034Y192806D02*
Y193274D01*
X458470Y83581D02*
X463280Y78771D01*
X458470Y83581D02*
Y92710D01*
X463280Y75571D02*
Y78771D01*
X424180Y43440D02*
Y57150D01*
X374967Y213677D02*
X381000Y219710D01*
X374333Y213677D02*
X374967D01*
X391160Y176530D02*
X396732Y170958D01*
X397018D01*
X372110Y180340D02*
X378575Y186805D01*
X353060Y232410D02*
X357648Y227822D01*
X226060Y250300D02*
Y264160D01*
X357648Y227822D02*
X358632D01*
X225950Y250190D02*
X226060Y250300D01*
D81*
X73400Y434927D02*
Y450850D01*
Y434927D02*
X79258Y429069D01*
X86279D01*
X283210Y521789D02*
X283626Y522205D01*
X283210Y473710D02*
Y521789D01*
X283626Y532827D02*
X284200Y533401D01*
X283626Y522205D02*
Y532827D01*
X167198Y533400D02*
Y541089D01*
X174240Y548130D02*
X277159D01*
X284200Y541089D01*
X167198Y541089D02*
X174240Y548130D01*
X895620Y287130D02*
Y416130D01*
X424180Y27940D02*
X424550Y27570D01*
X452080D01*
X538480D01*
Y69371D01*
X452080Y27570D02*
Y69371D01*
D82*
X243950Y231520D02*
Y250190D01*
X242300Y229870D02*
X243950Y231520D01*
X541020Y344280D02*
X541290Y344550D01*
Y359410D01*
X663940Y323850D02*
X683150D01*
X503695Y280888D02*
X511810Y289004D01*
Y289560D01*
X476511Y280888D02*
X503695D01*
X759460Y332740D02*
Y388620D01*
X633826Y415387D02*
X732693D01*
X759460Y388620D01*
X770890Y326390D02*
Y394970D01*
X646430Y425450D02*
X740410D01*
X770890Y394970D01*
X730250Y455930D02*
X782320Y403860D01*
X557530Y455930D02*
X730250D01*
X782320Y231140D02*
Y403860D01*
X737870Y467360D02*
X795020Y410210D01*
X542290Y467360D02*
X737870D01*
X795020Y222250D02*
Y410210D01*
X674370Y247650D02*
X759460Y332740D01*
X684530Y240030D02*
X770890Y326390D01*
X709930Y158750D02*
X782320Y231140D01*
X711200Y138430D02*
X795020Y222250D01*
X655320Y209550D02*
X674370Y228600D01*
X644150Y209550D02*
X655320D01*
X674370Y228600D02*
Y247650D01*
X684530Y212330D02*
Y240030D01*
X669050Y196850D02*
X684530Y212330D01*
X644150Y196850D02*
X669050D01*
X438598Y299965D02*
X447942Y310303D01*
X448310Y339090D02*
X472440Y363220D01*
X447942Y310303D02*
X448310Y310711D01*
Y339090D01*
X455930Y303365D02*
Y326390D01*
X520700Y391160D01*
X452755Y466725D02*
X541655D01*
X542290Y467360D01*
X452120Y466090D02*
X452755Y466725D01*
X695960Y138430D02*
X711200D01*
X687200Y129670D02*
X695960Y138430D01*
X687200Y120850D02*
Y129670D01*
X464820Y455930D02*
X557530D01*
X644150Y158750D02*
X709930D01*
X854710Y157480D02*
Y241300D01*
X819150Y260350D02*
X835660D01*
X854710Y241300D01*
X830580Y247650D02*
X842010Y236220D01*
Y170180D02*
Y236220D01*
X644150Y273050D02*
X656590D01*
X433465Y325515D02*
X434340Y326390D01*
X429655Y325515D02*
X433465D01*
X425450Y321310D02*
X429655Y325515D01*
X435150Y294110D02*
Y294742D01*
X430694Y299197D02*
X435150Y294742D01*
X430694Y299197D02*
Y312584D01*
X434340Y316230D01*
X425450Y297370D02*
Y321310D01*
X819150Y247650D02*
X830580D01*
X776810Y92280D02*
Y98380D01*
X774700Y90170D02*
X776810Y92280D01*
X765810Y90170D02*
X774700D01*
X817720Y97790D02*
X818310Y98380D01*
X779780Y97790D02*
X817720D01*
X779190Y98380D02*
X779780Y97790D01*
X776810Y98380D02*
X779190D01*
X818310D02*
Y110920D01*
X829040Y121650D01*
X842010D01*
Y135890D01*
X839470Y133350D02*
X842010Y135890D01*
X819150Y133350D02*
X839470D01*
X512533Y75323D02*
X512781Y75571D01*
X512533Y56603D02*
Y75323D01*
X482600Y55880D02*
X482781Y56061D01*
Y75571D01*
X479141Y291181D02*
X496358Y308398D01*
X464353Y283504D02*
X472030Y291181D01*
X496358Y314748D02*
X509270Y327660D01*
X596520Y43070D02*
X598170Y44720D01*
X577850Y43070D02*
X596520D01*
X803640Y452120D02*
X804020Y452500D01*
Y472440D01*
X475572Y287020D02*
X493993D01*
X468520Y279968D02*
X475572Y287020D01*
X493993D02*
X497803Y290830D01*
X467889Y279968D02*
X468520D01*
X497803Y290830D02*
X497840D01*
X496358Y308398D02*
Y314748D01*
X472030Y291181D02*
X479141D01*
X472056Y276433D02*
X476511Y280888D01*
X471424Y276433D02*
X472056D01*
X453747Y294742D02*
X463550Y304545D01*
Y314960D02*
X468630Y320040D01*
X463550Y304545D02*
Y314960D01*
X457282Y291206D02*
X478790Y312714D01*
Y313690D01*
X453747Y294110D02*
Y294742D01*
X438598Y299380D02*
Y299965D01*
Y299380D02*
X438641Y298519D01*
X438685Y297646D01*
X394849Y269361D02*
X406717D01*
X334010Y332740D02*
X334885Y331865D01*
Y329325D02*
Y331865D01*
Y329325D02*
X394849Y269361D01*
X408974Y270788D02*
X410401Y269361D01*
X408144Y270788D02*
X408974D01*
X406717Y269361D02*
X408144Y270788D01*
X334010Y344440D02*
X351790D01*
X334010Y332740D02*
Y344440D01*
X316230Y332740D02*
Y344440D01*
Y327660D02*
Y332740D01*
Y327660D02*
X384067Y259823D01*
X408413D01*
X383540Y332740D02*
Y344710D01*
Y310365D02*
X417472Y276433D01*
X383540Y310365D02*
Y332740D01*
X570820Y226900D02*
Y268400D01*
X571930Y269510D01*
X591820D01*
X611870D02*
X612140Y269240D01*
X591820Y269510D02*
X611870D01*
X612140Y269240D02*
X615950Y273050D01*
X644150D01*
X348673Y216862D02*
X363092Y202443D01*
X347672Y216862D02*
X348673D01*
X362057Y201408D02*
X378678D01*
X406092Y181918D02*
X407978D01*
X389890Y198120D02*
X406092Y181918D01*
X398658Y218440D02*
X423912Y243694D01*
X378678Y201408D02*
X395709Y218440D01*
X398658D01*
X423912Y243694D02*
X424543D01*
X389890Y198120D02*
Y201969D01*
X428079Y240158D01*
X420370Y218440D02*
Y225378D01*
X431614Y236623D01*
X421640Y203200D02*
Y203200D01*
X428447Y210007D01*
Y226384D01*
X435150Y233087D01*
X457282Y290575D02*
Y291206D01*
X450211Y297646D02*
X455930Y303365D01*
X401320Y299656D02*
Y344710D01*
Y299656D02*
X421008Y279968D01*
X419100Y296018D02*
Y344710D01*
X425450Y297370D02*
X431614Y291206D01*
Y290575D02*
Y291206D01*
X408413Y259823D02*
X410401Y257836D01*
X419100Y296018D02*
X428079Y287039D01*
D83*
X28440Y115040D02*
D03*
Y244040D02*
D03*
X895620Y416130D02*
D03*
Y287130D02*
D03*
D84*
X889000Y471210D02*
D03*
Y70100D02*
D03*
X30100Y471210D02*
D03*
X357780Y30520D02*
D03*
X30100Y70100D02*
D03*
D85*
X86279Y342670D02*
D03*
Y429069D02*
D03*
D86*
X44478Y342670D02*
D03*
Y429069D02*
D03*
D87*
X81280Y356870D02*
D03*
Y414769D02*
D03*
X466281Y64372D02*
D03*
X524180D02*
D03*
D88*
X538480Y69371D02*
D03*
X452080D02*
D03*
D89*
X538480Y27570D02*
D03*
X452080D02*
D03*
D90*
X284200Y533401D02*
D03*
X167198Y533400D02*
D03*
D91*
X203200Y533400D02*
D03*
X248199D02*
D03*
D92*
X873760Y406400D02*
D03*
X853440Y365760D02*
D03*
X873760Y325120D02*
D03*
X853440Y284480D02*
D03*
X873760Y243840D02*
D03*
X853440Y121920D02*
D03*
X833120Y487680D02*
D03*
Y406400D02*
D03*
Y325120D02*
D03*
Y162560D02*
D03*
Y81280D02*
D03*
X792480Y487680D02*
D03*
X772160Y447040D02*
D03*
Y284480D02*
D03*
X792480Y81280D02*
D03*
X751840D02*
D03*
X711200Y487680D02*
D03*
X690880Y365760D02*
D03*
X711200Y81280D02*
D03*
X670560Y406400D02*
D03*
X650240Y121920D02*
D03*
X670560Y81280D02*
D03*
X629920Y162560D02*
D03*
Y81280D02*
D03*
X609600Y40640D02*
D03*
X568960Y284480D02*
D03*
X589280Y243840D02*
D03*
X568960Y203200D02*
D03*
X528320Y121920D02*
D03*
X447040Y365760D02*
D03*
Y203200D02*
D03*
X426720Y162560D02*
D03*
Y81280D02*
D03*
X406400Y40640D02*
D03*
X386080Y162560D02*
D03*
Y81280D02*
D03*
X325120Y447040D02*
D03*
X345440Y243840D02*
D03*
X325120Y203200D02*
D03*
X345440Y162560D02*
D03*
Y81280D02*
D03*
X325120Y40640D02*
D03*
X284480Y284480D02*
D03*
X304800Y243840D02*
D03*
X284480Y203200D02*
D03*
X304800Y162560D02*
D03*
Y81280D02*
D03*
X284480Y40640D02*
D03*
X243840Y284480D02*
D03*
X264160Y243840D02*
D03*
X243840Y203200D02*
D03*
X264160Y162560D02*
D03*
Y81280D02*
D03*
X243840Y40640D02*
D03*
X203200Y365760D02*
D03*
X223520Y325120D02*
D03*
Y162560D02*
D03*
Y81280D02*
D03*
X182880Y325120D02*
D03*
X162560Y203200D02*
D03*
X142240Y487680D02*
D03*
X121920Y447040D02*
D03*
X142240Y406400D02*
D03*
X121920Y365760D02*
D03*
Y284480D02*
D03*
X142240Y243840D02*
D03*
X121920Y203200D02*
D03*
Y121920D02*
D03*
X142240Y81280D02*
D03*
X101600Y487680D02*
D03*
X81280Y365760D02*
D03*
Y284480D02*
D03*
X101600Y243840D02*
D03*
X81280Y203200D02*
D03*
Y121920D02*
D03*
X101600Y81280D02*
D03*
X60960Y487680D02*
D03*
X40640Y365760D02*
D03*
X60960Y325120D02*
D03*
X40640Y284480D02*
D03*
X60960Y243840D02*
D03*
X40640Y203200D02*
D03*
X60960Y162560D02*
D03*
Y81280D02*
D03*
X466090Y124460D02*
D03*
X215900Y229870D02*
D03*
X185420Y248920D02*
D03*
X198120Y207010D02*
D03*
X190500Y149860D02*
D03*
X57150Y177800D02*
D03*
X95250Y144780D02*
D03*
X140970Y214630D02*
D03*
X158750Y261620D02*
D03*
X140970Y104140D02*
D03*
X191770Y102870D02*
D03*
X190500Y172720D02*
D03*
X892810Y486450D02*
D03*
X902470Y479292D02*
D03*
X880918Y484680D02*
D03*
X904240Y467400D02*
D03*
X897082Y457740D02*
D03*
X873760Y475020D02*
D03*
X875530Y463128D02*
D03*
X842010Y457200D02*
D03*
X885190Y455970D02*
D03*
X775970Y472440D02*
D03*
X754380Y468630D02*
D03*
X689610Y444500D02*
D03*
X664210Y441960D02*
D03*
X826770Y316230D02*
D03*
X735330Y330200D02*
D03*
X807720Y298450D02*
D03*
X723900Y234950D02*
D03*
X730250Y228600D02*
D03*
X711200Y323850D02*
D03*
X709930Y234950D02*
D03*
X716280Y228600D02*
D03*
X702310D02*
D03*
X599440Y374650D02*
D03*
X595630Y365760D02*
D03*
X574040Y443230D02*
D03*
X576580Y392430D02*
D03*
X482600Y443230D02*
D03*
X561340Y342900D02*
D03*
X492760Y344170D02*
D03*
X480060Y331470D02*
D03*
X656590Y298450D02*
D03*
X619760Y254000D02*
D03*
X657860Y252730D02*
D03*
X552450Y326390D02*
D03*
X603250Y300990D02*
D03*
X554990Y267970D02*
D03*
X730250Y214630D02*
D03*
X716280D02*
D03*
X723900Y207010D02*
D03*
X709930D02*
D03*
X702310Y214630D02*
D03*
X668020Y209550D02*
D03*
X883920Y144780D02*
D03*
X842010Y160020D02*
D03*
X892810Y85340D02*
D03*
X902470Y78182D02*
D03*
X904240Y66290D02*
D03*
X897082Y56630D02*
D03*
X880918Y83570D02*
D03*
X873760Y73910D02*
D03*
X885190Y54860D02*
D03*
X875530Y62018D02*
D03*
X678180Y190500D02*
D03*
X657860Y185420D02*
D03*
X819150Y71120D02*
D03*
X777240D02*
D03*
X608330Y203200D02*
D03*
X603250Y193040D02*
D03*
X554990Y227330D02*
D03*
X544830Y175260D02*
D03*
X543560Y157480D02*
D03*
X513080Y165100D02*
D03*
X524510Y148590D02*
D03*
X506730D02*
D03*
X543560Y96520D02*
D03*
X529590D02*
D03*
X598170Y30480D02*
D03*
X567690Y60960D02*
D03*
X520700Y110490D02*
D03*
X513080D02*
D03*
X394970Y445770D02*
D03*
X372110Y438150D02*
D03*
X388620Y410210D02*
D03*
X401320Y373380D02*
D03*
X419100D02*
D03*
X383540D02*
D03*
X344170Y461010D02*
D03*
X311150Y473710D02*
D03*
X269240Y511810D02*
D03*
X353060Y438150D02*
D03*
X445770Y279400D02*
D03*
X453390Y271780D02*
D03*
X438150D02*
D03*
X363490Y359140D02*
D03*
X316230Y372110D02*
D03*
X271780Y341630D02*
D03*
X265430Y308610D02*
D03*
X260350Y417830D02*
D03*
X227330Y424180D02*
D03*
X43570Y479292D02*
D03*
X45340Y467400D02*
D03*
X38182Y457740D02*
D03*
X33910Y486450D02*
D03*
X22018Y484680D02*
D03*
X14860Y475020D02*
D03*
X26290Y455970D02*
D03*
X16630Y463128D02*
D03*
X104101Y417869D02*
D03*
X100330Y450850D02*
D03*
X265430Y375920D02*
D03*
X241300Y417830D02*
D03*
X252730Y359410D02*
D03*
X204470Y375920D02*
D03*
X73660Y358140D02*
D03*
X143510Y267970D02*
D03*
X462280Y262890D02*
D03*
X445770Y264160D02*
D03*
X454660Y255270D02*
D03*
X444500Y246380D02*
D03*
X436880Y255270D02*
D03*
X429260Y264160D02*
D03*
X388620Y222250D02*
D03*
X381000Y219710D02*
D03*
X438150Y199390D02*
D03*
X412750Y191770D02*
D03*
X458470Y92710D02*
D03*
X424180Y57150D02*
D03*
X391160Y176530D02*
D03*
X373020Y26710D02*
D03*
X353060Y232410D02*
D03*
X372110Y180340D02*
D03*
X243840Y191770D02*
D03*
X226060Y264160D02*
D03*
X170180Y191770D02*
D03*
X262890Y170180D02*
D03*
X361590Y45760D02*
D03*
X371250Y38602D02*
D03*
X349698Y43990D02*
D03*
X365862Y17050D02*
D03*
X353970Y15280D02*
D03*
X344310Y22438D02*
D03*
X342540Y34330D02*
D03*
X33910Y85340D02*
D03*
X22018Y83570D02*
D03*
X45340Y66290D02*
D03*
X43570Y78182D02*
D03*
X16630Y62018D02*
D03*
X14860Y73910D02*
D03*
X38182Y56630D02*
D03*
X26290Y54860D02*
D03*
X218440Y356870D02*
D03*
X473710Y298450D02*
D03*
X190500Y490220D02*
D03*
Y496570D02*
D03*
X629920Y285750D02*
D03*
X480060Y228600D02*
D03*
X698692Y343092D02*
D03*
X698500Y360680D02*
D03*
X599440Y402590D02*
D03*
X707390Y433070D02*
D03*
X614930Y442210D02*
D03*
X526413Y442593D02*
D03*
X434340Y443230D02*
D03*
X849630Y106680D02*
D03*
X673100Y285750D02*
D03*
X648970Y336550D02*
D03*
X557530Y377190D02*
D03*
X511810Y289560D02*
D03*
X397510Y430530D02*
D03*
X398780Y283210D02*
D03*
X472440Y363220D02*
D03*
X520700Y391160D02*
D03*
X452120Y466090D02*
D03*
X542290Y467360D02*
D03*
X464820Y455930D02*
D03*
X557530D02*
D03*
X633826Y415387D02*
D03*
X646430Y425450D02*
D03*
X888231Y207779D02*
D03*
X842010Y170180D02*
D03*
X805180D02*
D03*
X656590Y273050D02*
D03*
X304800Y402590D02*
D03*
X341630D02*
D03*
X434340Y326390D02*
D03*
Y316230D02*
D03*
X248920Y387350D02*
D03*
X471170Y87630D02*
D03*
X303260Y359140D02*
D03*
X788670Y441960D02*
D03*
X608060Y59420D02*
D03*
X242686Y336434D02*
D03*
X521970Y184150D02*
D03*
X854710Y157480D02*
D03*
X621030Y170180D02*
D03*
X765810Y90170D02*
D03*
X519430Y86360D02*
D03*
X512533Y56603D02*
D03*
X482600Y55880D02*
D03*
X195580Y441960D02*
D03*
X497840Y290830D02*
D03*
X488950Y264160D02*
D03*
X478790Y313690D02*
D03*
X468630Y320040D02*
D03*
X334010Y332740D02*
D03*
X316230D02*
D03*
X420370Y218440D02*
D03*
X383540Y332740D02*
D03*
X401320D02*
D03*
X419100D02*
D03*
X443230Y215900D02*
D03*
X400050Y247650D02*
D03*
X412750Y299720D02*
D03*
M02*
