G04*
G04 #@! TF.GenerationSoftware,Altium Limited,Altium Designer,25.8.1 (18)*
G04*
G04 Layer_Color=32768*
%FSLAX44Y44*%
%MOMM*%
G71*
G04*
G04 #@! TF.SameCoordinates,0A9D1E7D-D055-42B5-8BE4-5928FCC89D19*
G04*
G04*
G04 #@! TF.FilePolarity,Positive*
G04*
G01*
G75*
%ADD10C,0.2000*%
%ADD121C,0.4000*%
%ADD138C,0.1500*%
%ADD140C,0.2500*%
%ADD141C,0.4500*%
%ADD142C,0.0500*%
G36*
X742828Y460619D02*
X741387D01*
Y466379D01*
X742828D01*
Y460619D01*
D02*
G37*
G36*
Y424859D02*
X746908D01*
Y423419D01*
X742828D01*
Y421259D01*
X741387D01*
Y423419D01*
X737307D01*
Y424859D01*
X741387D01*
Y427019D01*
X742828D01*
Y424859D01*
D02*
G37*
G36*
X911570Y212852D02*
X888710D01*
Y140462D01*
X911570D01*
Y137922D01*
X886170D01*
Y215392D01*
X911570D01*
Y212852D01*
D02*
G37*
G36*
X778510Y111760D02*
X745474D01*
Y142255D01*
X778510D01*
Y111760D01*
D02*
G37*
G36*
X828056Y111745D02*
X795020D01*
Y142240D01*
X828056D01*
Y111745D01*
D02*
G37*
G36*
X590000Y73740D02*
X594080D01*
Y72300D01*
X590000D01*
Y70140D01*
X588560D01*
Y72300D01*
X584480D01*
Y73740D01*
X588560D01*
Y75900D01*
X590000D01*
Y73740D01*
D02*
G37*
G36*
Y30780D02*
X588560D01*
Y36540D01*
X590000D01*
Y30780D01*
D02*
G37*
D10*
X865582Y209550D02*
G03*
X865582Y209550I-1001J0D01*
G01*
D121*
X127729Y215100D02*
G03*
X127729Y215100I-1999J0D01*
G01*
X800329Y387190D02*
G03*
X800329Y387190I-1999J0D01*
G01*
X610941Y441831D02*
G03*
X610941Y441831I-1999J0D01*
G01*
X521646Y442215D02*
G03*
X521646Y442215I-1999J0D01*
G01*
X430361Y442641D02*
G03*
X430361Y442641I-1999J0D01*
G01*
X362287Y202039D02*
G03*
X362287Y202039I-1999J0D01*
G01*
D138*
X218705Y175257D02*
G03*
X218705Y175257I-749J0D01*
G01*
X368333Y427030D02*
G03*
X368333Y427030I-749J0D01*
G01*
X521287Y137644D02*
G03*
X521287Y137644I-749J0D01*
G01*
X591547Y354814D02*
G03*
X591547Y354814I-749J0D01*
G01*
D140*
X82530Y356870D02*
G03*
X82530Y356870I-1250J0D01*
G01*
Y414769D02*
G03*
X82530Y414769I-1250J0D01*
G01*
X467530Y64372D02*
G03*
X467530Y64372I-1250J0D01*
G01*
X525430D02*
G03*
X525430Y64372I-1250J0D01*
G01*
D141*
X205448Y533400D02*
G03*
X205448Y533400I-2250J0D01*
G01*
X250449D02*
G03*
X250449Y533400I-2250J0D01*
G01*
D142*
X151390Y256320D02*
X181090D01*
X151390Y241520D02*
X181090D01*
X151390D02*
Y256320D01*
X181090Y241520D02*
Y256320D01*
X149720Y219200D02*
X183020D01*
X149720Y238000D02*
X183020D01*
Y219200D02*
Y238000D01*
X149720Y219200D02*
Y238000D01*
X22110Y170400D02*
X51810D01*
X22110Y185200D02*
X51810D01*
Y170400D02*
Y185200D01*
X22110Y170400D02*
Y185200D01*
X563720Y351800D02*
Y367020D01*
X533560Y351800D02*
Y367020D01*
X563720D01*
X533560Y351800D02*
X563720D01*
X531020Y352280D02*
X551020D01*
X531020Y318280D02*
X551020D01*
Y352280D01*
X531020Y318280D02*
Y352280D01*
X864350Y439640D02*
Y454440D01*
X834650Y439640D02*
Y454440D01*
Y439640D02*
X864350D01*
X834650Y454440D02*
X864350D01*
X20078Y435158D02*
X97478D01*
X276110Y466310D02*
X305810D01*
X276110Y481110D02*
X305810D01*
X276110Y466310D02*
Y481110D01*
X305810Y466310D02*
Y481110D01*
X66300Y443450D02*
X96000D01*
X66300Y458250D02*
X96000D01*
X66300Y443450D02*
Y458250D01*
X96000Y443450D02*
Y458250D01*
X416780Y20840D02*
Y50540D01*
X431580Y20840D02*
Y50540D01*
X416780D02*
X431580D01*
X416780Y20840D02*
X431580D01*
X587850Y35070D02*
Y69070D01*
X567850Y35070D02*
Y69070D01*
X587850D01*
X567850Y35070D02*
X587850D01*
X496358Y304707D02*
X506823Y315172D01*
X475357Y325708D02*
X485822Y336173D01*
X506823Y315172D01*
X475357Y325708D02*
X496358Y304707D01*
X509058Y317407D02*
X519523Y327872D01*
X488057Y338408D02*
X498522Y348873D01*
X519523Y327872D01*
X488057Y338408D02*
X509058Y317407D01*
X465943Y302831D02*
X476408Y292366D01*
X444942Y281830D02*
X455407Y271365D01*
X476408Y292366D01*
X444942Y281830D02*
X465943Y302831D01*
X826060Y69130D02*
Y106130D01*
X769060D02*
X826060D01*
X769060Y69130D02*
Y106130D01*
Y69130D02*
X826060D01*
X634150Y110850D02*
Y312850D01*
Y110850D02*
X829150D01*
Y312850D01*
X634150D02*
X829150D01*
X414116Y215031D02*
X424581Y204566D01*
X393115Y194030D02*
X403580Y183565D01*
X424581Y204566D01*
X393115Y194030D02*
X414116Y215031D01*
X410793Y203285D02*
X432119Y181959D01*
X421555Y214047D02*
X442882Y192721D01*
X410793Y203285D02*
X421555Y214047D01*
X432119Y181959D02*
X442882Y192721D01*
X337419Y217074D02*
X347884Y206609D01*
X358420Y238075D02*
X368885Y227610D01*
X347884Y206609D02*
X368885Y227610D01*
X337419Y217074D02*
X358420Y238075D01*
X411490Y336710D02*
Y366870D01*
X426710Y336710D02*
Y366870D01*
X411490Y336710D02*
X426710D01*
X411490Y366870D02*
X426710D01*
X393710Y336710D02*
Y366870D01*
X408930Y336710D02*
Y366870D01*
X393710Y336710D02*
X408930D01*
X393710Y366870D02*
X408930D01*
X375930Y336710D02*
Y366870D01*
X391150Y336710D02*
Y366870D01*
X375930Y336710D02*
X391150D01*
X375930Y366870D02*
X391150D01*
X308620Y336710D02*
Y366870D01*
X323840Y336710D02*
Y366870D01*
X308620Y336710D02*
X323840D01*
X308620Y366870D02*
X323840D01*
X812020Y462440D02*
Y482440D01*
X778020Y462440D02*
Y482440D01*
Y462440D02*
X812020D01*
X778020Y482440D02*
X812020D01*
X781210Y459730D02*
X811370D01*
X781210Y444510D02*
X811370D01*
Y459730D01*
X781210Y444510D02*
Y459730D01*
X675150Y313850D02*
Y333850D01*
X709150Y313850D02*
Y333850D01*
X675150D02*
X709150D01*
X675150Y313850D02*
X709150D01*
X641510Y331460D02*
X671670D01*
X641510Y316240D02*
X671670D01*
Y331460D01*
X641510Y316240D02*
Y331460D01*
X605780Y36990D02*
Y67150D01*
X590560Y36990D02*
Y67150D01*
Y36990D02*
X605780D01*
X590560Y67150D02*
X605780D01*
X219870Y237480D02*
X250030D01*
X219870Y222260D02*
X250030D01*
Y237480D01*
X219870Y222260D02*
Y237480D01*
X251950Y240190D02*
Y260190D01*
X217950Y240190D02*
Y260190D01*
Y240190D02*
X251950D01*
X217950Y260190D02*
X251950D01*
X541570Y219150D02*
Y276150D01*
X578570D01*
Y219150D02*
Y276150D01*
X541570Y219150D02*
X578570D01*
X235470Y368073D02*
Y382873D01*
X265170Y368073D02*
Y382873D01*
X235470D02*
X265170D01*
X235470Y368073D02*
X265170D01*
X460170Y39380D02*
X490330D01*
X460170Y54600D02*
X490330D01*
Y39380D02*
Y54600D01*
X460170Y39380D02*
Y54600D01*
X502810D02*
X532970D01*
X502810Y39380D02*
X532970D01*
X502810D02*
Y54600D01*
X532970Y39380D02*
Y54600D01*
X689830Y422160D02*
X704630D01*
X689830Y451860D02*
X704630D01*
X689830Y422160D02*
Y451860D01*
X704630Y422160D02*
Y451860D01*
X689470Y418340D02*
X722770D01*
X689470Y399540D02*
X722770D01*
X689470D02*
Y418340D01*
X722770Y399540D02*
Y418340D01*
X712960Y334665D02*
Y368915D01*
X755160D01*
Y334665D02*
Y368915D01*
X712960Y334665D02*
X755160D01*
X625360Y178020D02*
Y192820D01*
X655060Y178020D02*
Y192820D01*
X625360D02*
X655060D01*
X625360Y178020D02*
X655060D01*
X684930Y158174D02*
Y188334D01*
X669710Y158174D02*
Y188334D01*
X684930D01*
X669710Y158174D02*
X684930D01*
X688760Y157904D02*
Y188064D01*
X703980Y157904D02*
Y188064D01*
X688760Y157904D02*
X703980D01*
X688760Y188064D02*
X703980D01*
X712890Y254424D02*
Y284584D01*
X728110Y254424D02*
Y284584D01*
X712890Y254424D02*
X728110D01*
X712890Y284584D02*
X728110D01*
X707380Y254160D02*
Y284320D01*
X692160Y254160D02*
Y284320D01*
X707380D01*
X692160Y254160D02*
X707380D01*
X674260Y234164D02*
Y248964D01*
X644560Y234164D02*
Y248964D01*
Y234164D02*
X674260D01*
X644560Y248964D02*
X674260D01*
X608550Y225540D02*
X623350D01*
X608550Y195840D02*
X623350D01*
Y225540D01*
X608550Y195840D02*
Y225540D01*
X614870Y352310D02*
Y382010D01*
X600070Y352310D02*
Y382010D01*
X614870D01*
X600070Y352310D02*
X614870D01*
X623900Y229354D02*
X665000D01*
X623900Y195354D02*
Y229354D01*
Y195354D02*
X665000D01*
Y229354D01*
X604740Y276340D02*
X619540D01*
X604740Y246640D02*
X619540D01*
X604740D02*
Y276340D01*
X619540Y246640D02*
Y276340D01*
X544568Y3170D02*
Y80570D01*
X378680Y423430D02*
X393480D01*
X378680Y453130D02*
X393480D01*
X378680Y423430D02*
Y453130D01*
X393480Y423430D02*
Y453130D01*
X357030Y402600D02*
Y417820D01*
X387190Y402600D02*
Y417820D01*
X357030D02*
X387190D01*
X357030Y402600D02*
X387190D01*
X334020Y405290D02*
X349240D01*
X334020Y435450D02*
X349240D01*
X334020Y405290D02*
Y435450D01*
X349240Y405290D02*
Y435450D01*
X374130Y453610D02*
Y468410D01*
X344430Y453610D02*
Y468410D01*
Y453610D02*
X374130D01*
X344430Y468410D02*
X374130D01*
X514870Y167860D02*
Y182660D01*
X544570Y167860D02*
Y182660D01*
X514870D02*
X544570D01*
X514870Y167860D02*
X544570D01*
X471180Y117000D02*
X486400D01*
X471180Y147160D02*
X486400D01*
X471180Y117000D02*
Y147160D01*
X486400Y117000D02*
Y147160D01*
X522810Y116850D02*
Y132070D01*
X492650Y116850D02*
Y132070D01*
Y116850D02*
X522810D01*
X492650Y132070D02*
X522810D01*
X528540Y135250D02*
X543340D01*
X528540Y164950D02*
X543340D01*
X528540Y135250D02*
Y164950D01*
X543340Y135250D02*
Y164950D01*
X592070Y335290D02*
Y350510D01*
X561910Y335290D02*
Y350510D01*
Y335290D02*
X592070D01*
X561910Y350510D02*
X592070D01*
X557540Y384650D02*
X572760D01*
X557540Y354490D02*
X572760D01*
Y384650D01*
X557540Y354490D02*
Y384650D01*
X606540Y383760D02*
Y398560D01*
X576840Y383760D02*
Y398560D01*
Y383760D02*
X606540D01*
X576840Y398560D02*
X606540D01*
X476905Y131590D02*
X511155D01*
X476905Y89390D02*
Y131590D01*
Y89390D02*
X511155D01*
Y131590D01*
X545050Y89160D02*
Y118860D01*
X559850Y89160D02*
Y118860D01*
X545050Y89160D02*
X559850D01*
X545050Y118860D02*
X559850D01*
X595770Y99820D02*
Y118620D01*
X562470Y99820D02*
Y118620D01*
Y99820D02*
X595770D01*
X562470Y118620D02*
X595770D01*
X235470Y301210D02*
X265170D01*
X235470Y316010D02*
X265170D01*
Y301210D02*
Y316010D01*
X235470Y301210D02*
Y316010D01*
X175520Y199170D02*
X205220D01*
X175520Y184370D02*
X205220D01*
X175520D02*
Y199170D01*
X205220Y184370D02*
Y199170D01*
X208800Y184370D02*
X238500D01*
X208800Y199170D02*
X238500D01*
Y184370D02*
Y199170D01*
X208800Y184370D02*
Y199170D01*
X191930Y142250D02*
Y157470D01*
X222090Y142250D02*
Y157470D01*
X191930D02*
X222090D01*
X191930Y142250D02*
X222090D01*
X226220Y162570D02*
Y177790D01*
X256380Y162570D02*
Y177790D01*
X226220D02*
X256380D01*
X226220Y162570D02*
X256380D01*
X604740Y278650D02*
Y308350D01*
X619540Y278650D02*
Y308350D01*
X604740D02*
X619540D01*
X604740Y278650D02*
X619540D01*
X286800Y319290D02*
Y348990D01*
X272000Y319290D02*
Y348990D01*
X286800D01*
X272000Y319290D02*
X286800D01*
X834610Y128790D02*
Y158490D01*
X849410Y128790D02*
Y158490D01*
X834610D02*
X849410D01*
X834610Y128790D02*
X849410D01*
X233900Y418090D02*
Y447790D01*
X248700Y418090D02*
Y447790D01*
X233900Y418090D02*
X248700D01*
X233900Y447790D02*
X248700D01*
X252950Y418350D02*
Y448050D01*
X267750Y418350D02*
Y448050D01*
X252950Y418350D02*
X267750D01*
X252950Y448050D02*
X267750D01*
X397230Y160705D02*
X418231Y181706D01*
X386765Y171170D02*
X407766Y192171D01*
X386765Y171170D02*
X397230Y160705D01*
X407766Y192171D02*
X418231Y181706D01*
X380107Y206422D02*
X401108Y227423D01*
X390572Y195957D02*
X411573Y216958D01*
X380107Y206422D02*
X390572Y195957D01*
X401108Y227423D02*
X411573Y216958D01*
X436849Y213437D02*
X457850Y234438D01*
X426384Y223902D02*
X447385Y244903D01*
X457850Y234438D01*
X426384Y223902D02*
X436849Y213437D01*
X413989Y229947D02*
X434990Y250948D01*
X403524Y240412D02*
X424525Y261413D01*
X434990Y250948D01*
X403524Y240412D02*
X413989Y229947D01*
X408604Y290788D02*
X429605Y269786D01*
X419069Y301253D02*
X440070Y280252D01*
X429605Y269786D02*
X440070Y280252D01*
X408604Y290788D02*
X419069Y301253D01*
X462722Y264050D02*
X483723Y285051D01*
X473187Y253585D02*
X494188Y274586D01*
X462722Y264050D02*
X473187Y253585D01*
X483723Y285051D02*
X494188Y274586D01*
X458909Y258873D02*
X479910Y237872D01*
X448444Y248408D02*
X469445Y227407D01*
X448444Y248408D02*
X458909Y258873D01*
X469445Y227407D02*
X479910Y237872D01*
X395904Y278088D02*
X416905Y257087D01*
X406369Y288553D02*
X427370Y267552D01*
X416905Y257087D02*
X427370Y267552D01*
X395904Y278088D02*
X406369Y288553D01*
X620375Y150350D02*
Y192550D01*
X586125Y150350D02*
X620375D01*
X586125D02*
Y192550D01*
X620375D01*
X150515Y81770D02*
X184765D01*
Y123970D01*
X150515D02*
X184765D01*
X150515Y81770D02*
Y123970D01*
X744110Y144790D02*
Y160010D01*
X774270Y144790D02*
Y160010D01*
X744110D02*
X774270D01*
X744110Y144790D02*
X774270D01*
X774540Y92720D02*
Y107940D01*
X744380Y92720D02*
Y107940D01*
Y92720D02*
X774540D01*
X744380Y107940D02*
X774540D01*
X826340Y92720D02*
Y107940D01*
X796180Y92720D02*
Y107940D01*
Y92720D02*
X826340D01*
X796180Y107940D02*
X826340D01*
X796720Y146060D02*
Y161280D01*
X826880Y146060D02*
Y161280D01*
X796720D02*
X826880D01*
X796720Y146060D02*
X826880D01*
X308620Y336710D02*
X323840D01*
X308620Y366870D02*
X323840D01*
Y336710D02*
Y366870D01*
X308620Y336710D02*
Y366870D01*
X326400D02*
X341620D01*
X326400Y336710D02*
X341620D01*
X326400D02*
Y366870D01*
X341620Y336710D02*
Y366870D01*
X411490Y336980D02*
X426710D01*
X411490Y367140D02*
X426710D01*
Y336980D02*
Y367140D01*
X411490Y336980D02*
Y367140D01*
X393710Y336980D02*
X408930D01*
X393710Y367140D02*
X408930D01*
Y336980D02*
Y367140D01*
X393710Y336980D02*
Y367140D01*
X393657Y263832D02*
X444781Y314956D01*
X496208Y263528D01*
X445084Y212404D02*
X496208Y263528D01*
X393657Y263832D02*
X445084Y212404D01*
X344180Y336710D02*
X359400D01*
X344180Y366870D02*
X359400D01*
Y336710D02*
Y366870D01*
X344180Y336710D02*
Y366870D01*
X375930Y336980D02*
X391150D01*
X375930Y367140D02*
X391150D01*
Y336980D02*
Y367140D01*
X375930Y336980D02*
Y367140D01*
X245890Y424835D02*
Y459085D01*
X203690D02*
X245890D01*
X203690Y424835D02*
Y459085D01*
Y424835D02*
X245890D01*
X834400Y99220D02*
X849620D01*
X834400Y129380D02*
X849620D01*
Y99220D02*
Y129380D01*
X834400Y99220D02*
Y129380D01*
X584210Y291940D02*
X599430D01*
X584210Y261780D02*
X599430D01*
X584210D02*
Y291940D01*
X599430Y261780D02*
Y291940D01*
X235302Y358866D02*
X269302D01*
Y317766D02*
Y358866D01*
X235302Y317766D02*
X269302D01*
X235302D02*
Y358866D01*
X166210Y271790D02*
Y287010D01*
X136050Y271790D02*
Y287010D01*
Y271790D02*
X166210D01*
X136050Y287010D02*
X166210D01*
X136050Y289570D02*
Y304790D01*
X166210Y289570D02*
Y304790D01*
X136050D02*
X166210D01*
X136050Y289570D02*
X166210D01*
X101330Y306510D02*
Y361510D01*
X175530Y306510D02*
Y361510D01*
X101330Y306510D02*
X175530D01*
X101330Y361510D02*
X175530D01*
X267500Y450340D02*
Y469140D01*
X234200Y450340D02*
Y469140D01*
Y450340D02*
X267500D01*
X234200Y469140D02*
X267500D01*
X148320Y415730D02*
Y470730D01*
X222520Y415730D02*
Y470730D01*
X148320Y415730D02*
X222520D01*
X148320Y470730D02*
X222520D01*
X197010Y393710D02*
Y408930D01*
X227170Y393710D02*
Y408930D01*
X197010D02*
X227170D01*
X197010Y393710D02*
X227170D01*
X227440Y375930D02*
Y391150D01*
X197280Y375930D02*
Y391150D01*
Y375930D02*
X227440D01*
X197280Y391150D02*
X227440D01*
M02*
