G04*
G04 #@! TF.GenerationSoftware,Altium Limited,Altium Designer,25.8.1 (18)*
G04*
G04 Layer_Color=255*
%FSLAX44Y44*%
%MOMM*%
G71*
G04*
G04 #@! TF.SameCoordinates,0A9D1E7D-D055-42B5-8BE4-5928FCC89D19*
G04*
G04*
G04 #@! TF.FilePolarity,Positive*
G04*
G01*
G75*
G04:AMPARAMS|DCode=20|XSize=0.92mm|YSize=0.98mm|CornerRadius=0mm|HoleSize=0mm|Usage=FLASHONLY|Rotation=315.000|XOffset=0mm|YOffset=0mm|HoleType=Round|Shape=Rectangle|*
%AMROTATEDRECTD20*
4,1,4,-0.6718,-0.0212,0.0212,0.6718,0.6718,0.0212,-0.0212,-0.6718,-0.6718,-0.0212,0.0*
%
%ADD20ROTATEDRECTD20*%

%ADD21R,0.9800X0.9200*%
%ADD26R,0.9200X0.9800*%
%ADD27R,1.0200X1.0400*%
G04:AMPARAMS|DCode=29|XSize=1.21mm|YSize=0.59mm|CornerRadius=0.0738mm|HoleSize=0mm|Usage=FLASHONLY|Rotation=180.000|XOffset=0mm|YOffset=0mm|HoleType=Round|Shape=RoundedRectangle|*
%AMROUNDEDRECTD29*
21,1,1.2100,0.4425,0,0,180.0*
21,1,1.0625,0.5900,0,0,180.0*
1,1,0.1475,-0.5313,0.2213*
1,1,0.1475,0.5313,0.2213*
1,1,0.1475,0.5313,-0.2213*
1,1,0.1475,-0.5313,-0.2213*
%
%ADD29ROUNDEDRECTD29*%
G04:AMPARAMS|DCode=33|XSize=0.92mm|YSize=0.98mm|CornerRadius=0mm|HoleSize=0mm|Usage=FLASHONLY|Rotation=45.000|XOffset=0mm|YOffset=0mm|HoleType=Round|Shape=Rectangle|*
%AMROTATEDRECTD33*
4,1,4,0.0212,-0.6718,-0.6718,0.0212,-0.0212,0.6718,0.6718,-0.0212,0.0212,-0.6718,0.0*
%
%ADD33ROTATEDRECTD33*%

%ADD34R,1.0400X1.0200*%
%ADD73R,2.8800X1.1200*%
%ADD83O,3.1000X1.2000*%
%ADD84C,4.5000*%
%ADD85O,2.1000X1.0000*%
%ADD86O,1.8000X1.0000*%
%ADD87C,0.6500*%
%ADD88O,1.0000X2.1000*%
%ADD89O,1.0000X1.8000*%
%ADD90O,1.3000X3.0000*%
%ADD91C,1.3000*%
%ADD105R,0.9200X1.3800*%
%ADD106R,1.1000X3.5000*%
%ADD107R,0.6000X1.7000*%
%ADD108R,0.2800X0.5850*%
%ADD109R,1.2000X0.5000*%
%ADD110R,1.3200X0.5900*%
%ADD111R,1.7000X0.6000*%
%ADD112R,1.2400X0.6000*%
%ADD113R,0.5900X1.3200*%
%ADD114R,0.5000X1.2000*%
%ADD115R,0.5850X0.2800*%
%ADD116R,1.2400X0.3000*%
%ADD117R,1.0000X2.8000*%
%ADD118R,1.1430X1.0160*%
%ADD119R,2.7000X1.0000*%
G04:AMPARAMS|DCode=120|XSize=1.97mm|YSize=0.6mm|CornerRadius=0.075mm|HoleSize=0mm|Usage=FLASHONLY|Rotation=180.000|XOffset=0mm|YOffset=0mm|HoleType=Round|Shape=RoundedRectangle|*
%AMROUNDEDRECTD120*
21,1,1.9700,0.4500,0,0,180.0*
21,1,1.8200,0.6000,0,0,180.0*
1,1,0.1500,-0.9100,0.2250*
1,1,0.1500,0.9100,0.2250*
1,1,0.1500,0.9100,-0.2250*
1,1,0.1500,-0.9100,-0.2250*
%
%ADD120ROUNDEDRECTD120*%
D20*
X429817Y280040D02*
D03*
X458697Y248620D02*
D03*
X417117Y267340D02*
D03*
X418857Y291000D02*
D03*
X469657Y237660D02*
D03*
X406157Y278300D02*
D03*
D21*
X697230Y444760D02*
D03*
X607470Y374910D02*
D03*
X615950Y202940D02*
D03*
X535940Y157850D02*
D03*
X552450Y96260D02*
D03*
X386080Y446030D02*
D03*
X279400Y341890D02*
D03*
X260350Y425450D02*
D03*
X241300Y425190D02*
D03*
X615950Y218440D02*
D03*
X697230Y429260D02*
D03*
X607470Y359410D02*
D03*
X241300Y440690D02*
D03*
X386080Y430530D02*
D03*
X535940Y142350D02*
D03*
X552450Y111760D02*
D03*
X279400Y326390D02*
D03*
X260350Y440950D02*
D03*
D26*
X158490Y248920D02*
D03*
X173990D02*
D03*
X44710Y177800D02*
D03*
X29210D02*
D03*
X841750Y447040D02*
D03*
X583940Y391160D02*
D03*
X651660Y241564D02*
D03*
X647960Y185420D02*
D03*
X537470Y175260D02*
D03*
X351530Y461010D02*
D03*
X258070Y375473D02*
D03*
Y308610D02*
D03*
X231400Y191770D02*
D03*
X182620D02*
D03*
X857250Y447040D02*
D03*
X242570Y375473D02*
D03*
X632460Y185420D02*
D03*
X667160Y241564D02*
D03*
X367030Y461010D02*
D03*
X521970Y175260D02*
D03*
X599440Y391160D02*
D03*
X242570Y308610D02*
D03*
X198120Y191770D02*
D03*
X215900D02*
D03*
D27*
X677320Y180604D02*
D03*
X419100Y344440D02*
D03*
Y359140D02*
D03*
X401320Y344440D02*
D03*
Y359140D02*
D03*
X383540Y344440D02*
D03*
Y359140D02*
D03*
X316230Y344440D02*
D03*
Y359140D02*
D03*
X677320Y165904D02*
D03*
X696370Y165634D02*
D03*
Y180334D02*
D03*
X720500Y276854D02*
D03*
Y262154D02*
D03*
X699770Y276590D02*
D03*
Y261890D02*
D03*
X341630Y427720D02*
D03*
Y413020D02*
D03*
X478790Y124730D02*
D03*
Y139430D02*
D03*
X565150Y362220D02*
D03*
Y376920D02*
D03*
D29*
X721510Y351790D02*
D03*
X746610Y361290D02*
D03*
Y351790D02*
D03*
Y342290D02*
D03*
X721510Y361290D02*
D03*
Y342290D02*
D03*
D33*
X455195Y281618D02*
D03*
X472975Y263838D02*
D03*
X424737Y251160D02*
D03*
X447597Y234650D02*
D03*
X403368Y193818D02*
D03*
X390360Y206210D02*
D03*
X466155Y292578D02*
D03*
X414328Y204778D02*
D03*
X401320Y217170D02*
D03*
X436637Y223690D02*
D03*
X413777Y240200D02*
D03*
X483935Y274798D02*
D03*
D34*
X569640Y342900D02*
D03*
X500380Y124460D02*
D03*
X379460Y410210D02*
D03*
X205010Y383540D02*
D03*
X143780Y279400D02*
D03*
X248650Y170180D02*
D03*
X766810Y100330D02*
D03*
X819150Y153670D02*
D03*
X751840Y152400D02*
D03*
X804450Y153670D02*
D03*
X467900Y46990D02*
D03*
X525240D02*
D03*
X482600D02*
D03*
X510540D02*
D03*
X143780Y297180D02*
D03*
X204740Y401320D02*
D03*
X364760Y410210D02*
D03*
X515080Y124460D02*
D03*
X584340Y342900D02*
D03*
X214360Y149860D02*
D03*
X199660D02*
D03*
X233950Y170180D02*
D03*
X766540Y152400D02*
D03*
X752110Y100330D02*
D03*
X818610D02*
D03*
X803910D02*
D03*
X158480Y279400D02*
D03*
Y297180D02*
D03*
X219440Y401320D02*
D03*
X219710Y383540D02*
D03*
D73*
X807720Y316631D02*
D03*
Y386629D02*
D03*
Y341630D02*
D03*
Y361630D02*
D03*
D83*
X28440Y115040D02*
D03*
Y244040D02*
D03*
X895620Y416130D02*
D03*
Y287130D02*
D03*
D84*
X889000Y471210D02*
D03*
Y70100D02*
D03*
X30100Y471210D02*
D03*
X357780Y30520D02*
D03*
X30100Y70100D02*
D03*
D85*
X86279Y342670D02*
D03*
Y429069D02*
D03*
D86*
X44478Y342670D02*
D03*
Y429069D02*
D03*
D87*
X81280Y356870D02*
D03*
Y414769D02*
D03*
X466281Y64372D02*
D03*
X524180D02*
D03*
D88*
X538480Y69371D02*
D03*
X452080D02*
D03*
D89*
X538480Y27570D02*
D03*
X452080D02*
D03*
D90*
X284200Y533401D02*
D03*
X167198Y533400D02*
D03*
D91*
X203200Y533400D02*
D03*
X248199D02*
D03*
D105*
X175920Y228600D02*
D03*
X156820D02*
D03*
X715670Y408940D02*
D03*
X588670Y109220D02*
D03*
X696570Y408940D02*
D03*
X241300Y459740D02*
D03*
X569570Y109220D02*
D03*
X260400Y459740D02*
D03*
D106*
X742107Y466269D02*
D03*
X589280Y30890D02*
D03*
X742107Y421369D02*
D03*
X589280Y75790D02*
D03*
D107*
X658410Y442210D02*
D03*
X569116Y442593D02*
D03*
X477831Y443019D02*
D03*
X645910Y442210D02*
D03*
X633410D02*
D03*
X620910D02*
D03*
X440331Y443019D02*
D03*
X531616Y442593D02*
D03*
X556616D02*
D03*
X544116D02*
D03*
X465331Y443019D02*
D03*
X452831D02*
D03*
D108*
X585800Y373490D02*
D03*
X515540Y156320D02*
D03*
X362586Y445706D02*
D03*
X590800Y358140D02*
D03*
X367586Y445706D02*
D03*
X357586D02*
D03*
Y430355D02*
D03*
X362586D02*
D03*
X367586D02*
D03*
X520540Y156320D02*
D03*
X510540D02*
D03*
Y140970D02*
D03*
X515540D02*
D03*
X520540D02*
D03*
X585800Y358140D02*
D03*
X580800D02*
D03*
Y373490D02*
D03*
X590800D02*
D03*
D109*
X585800Y365815D02*
D03*
X515540Y148645D02*
D03*
X362586Y438031D02*
D03*
D110*
X655900Y212354D02*
D03*
X633000Y221854D02*
D03*
X655900D02*
D03*
Y202854D02*
D03*
X633000D02*
D03*
D111*
X870169Y145279D02*
D03*
Y207779D02*
D03*
Y182779D02*
D03*
Y157779D02*
D03*
Y170279D02*
D03*
Y195279D02*
D03*
D112*
X92479Y417869D02*
D03*
X92479Y353870D02*
D03*
Y361869D02*
D03*
Y409870D02*
D03*
D113*
X252302Y349766D02*
D03*
X242802D02*
D03*
X261802D02*
D03*
X242802Y326866D02*
D03*
X261802D02*
D03*
D114*
X206955Y170260D02*
D03*
D115*
X199280D02*
D03*
X214630Y175260D02*
D03*
Y170260D02*
D03*
Y165260D02*
D03*
X199280D02*
D03*
Y175260D02*
D03*
D116*
X92479Y368369D02*
D03*
Y373370D02*
D03*
Y378369D02*
D03*
Y383370D02*
D03*
Y388369D02*
D03*
Y393370D02*
D03*
Y398368D02*
D03*
Y403370D02*
D03*
D117*
X602412Y473710D02*
D03*
X676910Y473710D02*
D03*
X587616Y474094D02*
D03*
X513118Y474094D02*
D03*
X421833Y474520D02*
D03*
X496330Y474520D02*
D03*
D118*
X801386Y118110D02*
D03*
Y135890D02*
D03*
X821706Y127000D02*
D03*
X751824D02*
D03*
X772144Y118110D02*
D03*
Y135890D02*
D03*
D119*
X902170Y226280D02*
D03*
Y126782D02*
D03*
D120*
X163180Y353060D02*
D03*
Y340360D02*
D03*
Y327660D02*
D03*
X210170Y462280D02*
D03*
Y449580D02*
D03*
Y436880D02*
D03*
X113680Y314960D02*
D03*
Y327660D02*
D03*
Y340360D02*
D03*
Y353060D02*
D03*
X163180Y314960D02*
D03*
X160670Y462280D02*
D03*
Y449580D02*
D03*
Y436880D02*
D03*
Y424180D02*
D03*
X210170D02*
D03*
M02*
