G04*
G04 #@! TF.GenerationSoftware,Altium Limited,Altium Designer,25.8.1 (18)*
G04*
G04 Layer_Color=128*
%FSLAX44Y44*%
%MOMM*%
G71*
G04*
G04 #@! TF.SameCoordinates,0A9D1E7D-D055-42B5-8BE4-5928FCC89D19*
G04*
G04*
G04 #@! TF.FilePolarity,Positive*
G04*
G01*
G75*
G04:AMPARAMS|DCode=20|XSize=0.92mm|YSize=0.98mm|CornerRadius=0mm|HoleSize=0mm|Usage=FLASHONLY|Rotation=315.000|XOffset=0mm|YOffset=0mm|HoleType=Round|Shape=Rectangle|*
%AMROTATEDRECTD20*
4,1,4,-0.6718,-0.0212,0.0212,0.6718,0.6718,0.0212,-0.0212,-0.6718,-0.6718,-0.0212,0.0*
%
%ADD20ROTATEDRECTD20*%

%ADD21R,0.9800X0.9200*%
%ADD26R,0.9200X0.9800*%
%ADD27R,1.0200X1.0400*%
G04:AMPARAMS|DCode=29|XSize=1.21mm|YSize=0.59mm|CornerRadius=0.0738mm|HoleSize=0mm|Usage=FLASHONLY|Rotation=180.000|XOffset=0mm|YOffset=0mm|HoleType=Round|Shape=RoundedRectangle|*
%AMROUNDEDRECTD29*
21,1,1.2100,0.4425,0,0,180.0*
21,1,1.0625,0.5900,0,0,180.0*
1,1,0.1475,-0.5313,0.2213*
1,1,0.1475,0.5313,0.2213*
1,1,0.1475,0.5313,-0.2213*
1,1,0.1475,-0.5313,-0.2213*
%
%ADD29ROUNDEDRECTD29*%
G04:AMPARAMS|DCode=33|XSize=0.92mm|YSize=0.98mm|CornerRadius=0mm|HoleSize=0mm|Usage=FLASHONLY|Rotation=45.000|XOffset=0mm|YOffset=0mm|HoleType=Round|Shape=Rectangle|*
%AMROTATEDRECTD33*
4,1,4,0.0212,-0.6718,-0.6718,0.0212,-0.0212,0.6718,0.6718,-0.0212,0.0212,-0.6718,0.0*
%
%ADD33ROTATEDRECTD33*%

%ADD34R,1.0400X1.0200*%
%ADD105R,0.9200X1.3800*%
%ADD106R,1.1000X3.5000*%
%ADD107R,0.6000X1.7000*%
%ADD108R,0.2800X0.5850*%
%ADD109R,1.2000X0.5000*%
%ADD110R,1.3200X0.5900*%
%ADD111R,1.7000X0.6000*%
%ADD113R,0.5900X1.3200*%
%ADD114R,0.5000X1.2000*%
%ADD115R,0.5850X0.2800*%
%ADD117R,1.0000X2.8000*%
%ADD118R,1.1430X1.0160*%
%ADD119R,2.7000X1.0000*%
G04:AMPARAMS|DCode=120|XSize=1.97mm|YSize=0.6mm|CornerRadius=0.075mm|HoleSize=0mm|Usage=FLASHONLY|Rotation=180.000|XOffset=0mm|YOffset=0mm|HoleType=Round|Shape=RoundedRectangle|*
%AMROUNDEDRECTD120*
21,1,1.9700,0.4500,0,0,180.0*
21,1,1.8200,0.6000,0,0,180.0*
1,1,0.1500,-0.9100,0.2250*
1,1,0.1500,0.9100,0.2250*
1,1,0.1500,0.9100,-0.2250*
1,1,0.1500,-0.9100,-0.2250*
%
%ADD120ROUNDEDRECTD120*%
G36*
X92028Y434064D02*
X92276Y434045D01*
X92524Y434014D01*
X92770Y433971D01*
X93013Y433915D01*
X93252Y433848D01*
X93489Y433769D01*
X93721Y433678D01*
X93948Y433575D01*
X94170Y433461D01*
X94386Y433336D01*
X94595Y433201D01*
X94798Y433056D01*
X94992Y432901D01*
X95180Y432735D01*
X95358Y432561D01*
X95527Y432379D01*
X95687Y432187D01*
X95838Y431988D01*
X95979Y431782D01*
X96109Y431570D01*
X96228Y431351D01*
X96336Y431127D01*
X96433Y430897D01*
X96518Y430662D01*
X96591Y430424D01*
X96653Y430183D01*
X96703Y429938D01*
X96740Y429692D01*
X96765Y429444D01*
X96777Y429194D01*
Y428946D01*
X96765Y428697D01*
X96740Y428448D01*
X96703Y428202D01*
X96653Y427958D01*
X96591Y427716D01*
X96518Y427478D01*
X96433Y427243D01*
X96336Y427014D01*
X96228Y426789D01*
X96109Y426570D01*
X95979Y426357D01*
X95838Y426151D01*
X95687Y425953D01*
X95527Y425761D01*
X95358Y425579D01*
X95180Y425405D01*
X94992Y425239D01*
X94798Y425084D01*
X94595Y424938D01*
X94386Y424804D01*
X94170Y424679D01*
X93948Y424565D01*
X93721Y424463D01*
X93489Y424372D01*
X93252Y424292D01*
X93013Y424225D01*
X92770Y424169D01*
X92524Y424126D01*
X92276Y424095D01*
X92028Y424076D01*
X91779Y424070D01*
X80778D01*
X80529Y424076D01*
X80281Y424095D01*
X80033Y424126D01*
X79788Y424169D01*
X79545Y424225D01*
X79305Y424292D01*
X79068Y424372D01*
X78836Y424463D01*
X78609Y424565D01*
X78387Y424679D01*
X78172Y424804D01*
X77962Y424938D01*
X77759Y425084D01*
X77564Y425239D01*
X77378Y425405D01*
X77199Y425579D01*
X77030Y425761D01*
X76870Y425953D01*
X76719Y426151D01*
X76578Y426357D01*
X76448Y426570D01*
X76329Y426789D01*
X76221Y427014D01*
X76124Y427243D01*
X76039Y427478D01*
X75965Y427716D01*
X75904Y427958D01*
X75854Y428202D01*
X75817Y428448D01*
X75793Y428697D01*
X75780Y428946D01*
Y429194D01*
X75793Y429444D01*
X75817Y429692D01*
X75854Y429938D01*
X75904Y430183D01*
X75965Y430424D01*
X76039Y430662D01*
X76124Y430897D01*
X76221Y431127D01*
X76329Y431351D01*
X76448Y431570D01*
X76578Y431782D01*
X76719Y431988D01*
X76870Y432187D01*
X77030Y432379D01*
X77199Y432561D01*
X77378Y432735D01*
X77564Y432901D01*
X77759Y433056D01*
X77962Y433201D01*
X78172Y433336D01*
X78387Y433461D01*
X78609Y433575D01*
X78836Y433678D01*
X79068Y433769D01*
X79305Y433848D01*
X79545Y433915D01*
X79788Y433971D01*
X80033Y434014D01*
X80281Y434045D01*
X80529Y434064D01*
X80778Y434070D01*
X91779D01*
X92028Y434064D01*
D02*
G37*
G36*
X48727D02*
X48976Y434045D01*
X49223Y434014D01*
X49469Y433971D01*
X49712Y433915D01*
X49951Y433848D01*
X50188Y433769D01*
X50420Y433678D01*
X50647Y433575D01*
X50869Y433461D01*
X51085Y433336D01*
X51294Y433201D01*
X51497Y433056D01*
X51692Y432901D01*
X51879Y432735D01*
X52057Y432561D01*
X52227Y432379D01*
X52387Y432187D01*
X52538Y431988D01*
X52678Y431782D01*
X52808Y431570D01*
X52927Y431351D01*
X53035Y431127D01*
X53133Y430897D01*
X53218Y430662D01*
X53291Y430424D01*
X53352Y430183D01*
X53402Y429938D01*
X53439Y429692D01*
X53464Y429444D01*
X53476Y429194D01*
Y428946D01*
X53464Y428697D01*
X53439Y428448D01*
X53402Y428202D01*
X53352Y427958D01*
X53291Y427716D01*
X53218Y427478D01*
X53133Y427243D01*
X53035Y427014D01*
X52927Y426789D01*
X52808Y426570D01*
X52678Y426357D01*
X52538Y426151D01*
X52387Y425953D01*
X52227Y425761D01*
X52057Y425579D01*
X51879Y425405D01*
X51692Y425239D01*
X51497Y425084D01*
X51294Y424938D01*
X51085Y424804D01*
X50869Y424679D01*
X50647Y424565D01*
X50420Y424463D01*
X50188Y424372D01*
X49951Y424292D01*
X49712Y424225D01*
X49469Y424169D01*
X49223Y424126D01*
X48976Y424095D01*
X48727Y424076D01*
X48478Y424070D01*
X40478D01*
X40228Y424076D01*
X39980Y424095D01*
X39732Y424126D01*
X39487Y424169D01*
X39244Y424225D01*
X39004Y424292D01*
X38767Y424372D01*
X38536Y424463D01*
X38308Y424565D01*
X38086Y424679D01*
X37871Y424804D01*
X37661Y424938D01*
X37459Y425084D01*
X37264Y425239D01*
X37077Y425405D01*
X36898Y425579D01*
X36729Y425761D01*
X36569Y425953D01*
X36418Y426151D01*
X36277Y426357D01*
X36147Y426570D01*
X36029Y426789D01*
X35920Y427014D01*
X35824Y427243D01*
X35738Y427478D01*
X35665Y427716D01*
X35603Y427958D01*
X35554Y428202D01*
X35517Y428448D01*
X35492Y428697D01*
X35479Y428946D01*
Y429194D01*
X35492Y429444D01*
X35517Y429692D01*
X35554Y429938D01*
X35603Y430183D01*
X35665Y430424D01*
X35738Y430662D01*
X35824Y430897D01*
X35920Y431127D01*
X36029Y431351D01*
X36147Y431570D01*
X36277Y431782D01*
X36418Y431988D01*
X36569Y432187D01*
X36729Y432379D01*
X36898Y432561D01*
X37077Y432735D01*
X37264Y432901D01*
X37459Y433056D01*
X37661Y433201D01*
X37871Y433336D01*
X38086Y433461D01*
X38308Y433575D01*
X38536Y433678D01*
X38767Y433769D01*
X39004Y433848D01*
X39244Y433915D01*
X39487Y433971D01*
X39732Y434014D01*
X39980Y434045D01*
X40228Y434064D01*
X40478Y434070D01*
X48478D01*
X48727Y434064D01*
D02*
G37*
G36*
X98677Y414870D02*
X86276D01*
Y420870D01*
X98677D01*
Y414870D01*
D02*
G37*
G36*
X908518Y421217D02*
X910206Y419529D01*
X911119Y417324D01*
Y414937D01*
X910206Y412732D01*
X908518Y411044D01*
X906313Y410131D01*
X884926D01*
X882720Y411044D01*
X881033Y412732D01*
X880119Y414937D01*
Y417324D01*
X881033Y419529D01*
X882720Y421217D01*
X884926Y422131D01*
X906313D01*
X908518Y421217D01*
D02*
G37*
G36*
X98677Y406870D02*
X86276D01*
Y412870D01*
X98677D01*
Y406870D01*
D02*
G37*
G36*
Y401870D02*
X86276D01*
Y404870D01*
X98677D01*
Y401870D01*
D02*
G37*
G36*
Y396870D02*
X86276D01*
Y399870D01*
X98677D01*
Y396870D01*
D02*
G37*
G36*
Y391870D02*
X86276D01*
Y394870D01*
X98677D01*
Y391870D01*
D02*
G37*
G36*
Y386871D02*
X86276D01*
Y389870D01*
X98677D01*
Y386871D01*
D02*
G37*
G36*
Y381871D02*
X86276D01*
Y384871D01*
X98677D01*
Y381871D01*
D02*
G37*
G36*
X822120Y381030D02*
X793320D01*
Y392230D01*
X822120D01*
Y381030D01*
D02*
G37*
G36*
X98677Y376870D02*
X86276D01*
Y379871D01*
X98677D01*
Y376870D01*
D02*
G37*
G36*
Y371870D02*
X86276D01*
Y374870D01*
X98677D01*
Y371870D01*
D02*
G37*
G36*
Y366870D02*
X86276D01*
Y369870D01*
X98677D01*
Y366870D01*
D02*
G37*
G36*
Y358870D02*
X86276D01*
Y364870D01*
X98677D01*
Y358870D01*
D02*
G37*
G36*
X822120Y356030D02*
X793320D01*
Y367230D01*
X822120D01*
Y356030D01*
D02*
G37*
G36*
X98677Y350870D02*
X86276D01*
Y356870D01*
X98677D01*
Y350870D01*
D02*
G37*
G36*
X92028Y347663D02*
X92276Y347645D01*
X92524Y347613D01*
X92770Y347570D01*
X93013Y347515D01*
X93252Y347447D01*
X93489Y347368D01*
X93721Y347277D01*
X93948Y347174D01*
X94170Y347061D01*
X94386Y346936D01*
X94595Y346801D01*
X94798Y346655D01*
X94992Y346499D01*
X95180Y346334D01*
X95358Y346161D01*
X95527Y345978D01*
X95687Y345787D01*
X95838Y345588D01*
X95979Y345382D01*
X96109Y345169D01*
X96228Y344951D01*
X96336Y344726D01*
X96433Y344496D01*
X96518Y344261D01*
X96591Y344023D01*
X96653Y343782D01*
X96703Y343538D01*
X96740Y343291D01*
X96765Y343043D01*
X96777Y342794D01*
Y342544D01*
X96765Y342296D01*
X96740Y342048D01*
X96703Y341801D01*
X96653Y341557D01*
X96591Y341315D01*
X96518Y341077D01*
X96433Y340843D01*
X96336Y340613D01*
X96228Y340388D01*
X96109Y340170D01*
X95979Y339957D01*
X95838Y339751D01*
X95687Y339552D01*
X95527Y339361D01*
X95358Y339178D01*
X95180Y339004D01*
X94992Y338839D01*
X94798Y338684D01*
X94595Y338538D01*
X94386Y338403D01*
X94170Y338279D01*
X93948Y338164D01*
X93721Y338062D01*
X93489Y337971D01*
X93252Y337892D01*
X93013Y337824D01*
X92770Y337768D01*
X92524Y337725D01*
X92276Y337694D01*
X92028Y337676D01*
X91779Y337669D01*
X80778D01*
X80529Y337676D01*
X80281Y337694D01*
X80033Y337725D01*
X79788Y337768D01*
X79545Y337824D01*
X79305Y337892D01*
X79068Y337971D01*
X78836Y338062D01*
X78609Y338164D01*
X78387Y338279D01*
X78172Y338403D01*
X77962Y338538D01*
X77759Y338684D01*
X77564Y338839D01*
X77378Y339004D01*
X77199Y339178D01*
X77030Y339361D01*
X76870Y339552D01*
X76719Y339751D01*
X76578Y339957D01*
X76448Y340170D01*
X76329Y340388D01*
X76221Y340613D01*
X76124Y340843D01*
X76039Y341077D01*
X75965Y341315D01*
X75904Y341557D01*
X75854Y341801D01*
X75817Y342048D01*
X75793Y342296D01*
X75780Y342544D01*
Y342794D01*
X75793Y343043D01*
X75817Y343291D01*
X75854Y343538D01*
X75904Y343782D01*
X75965Y344023D01*
X76039Y344261D01*
X76124Y344496D01*
X76221Y344726D01*
X76329Y344951D01*
X76448Y345169D01*
X76578Y345382D01*
X76719Y345588D01*
X76870Y345787D01*
X77030Y345978D01*
X77199Y346161D01*
X77378Y346334D01*
X77564Y346499D01*
X77759Y346655D01*
X77962Y346801D01*
X78172Y346936D01*
X78387Y347061D01*
X78609Y347174D01*
X78836Y347277D01*
X79068Y347368D01*
X79305Y347447D01*
X79545Y347515D01*
X79788Y347570D01*
X80033Y347613D01*
X80281Y347645D01*
X80529Y347663D01*
X80778Y347669D01*
X91779D01*
X92028Y347663D01*
D02*
G37*
G36*
X48727D02*
X48976Y347645D01*
X49223Y347613D01*
X49469Y347570D01*
X49712Y347515D01*
X49951Y347447D01*
X50188Y347368D01*
X50420Y347277D01*
X50647Y347174D01*
X50869Y347061D01*
X51085Y346936D01*
X51294Y346801D01*
X51497Y346655D01*
X51692Y346499D01*
X51879Y346334D01*
X52057Y346161D01*
X52227Y345978D01*
X52387Y345787D01*
X52538Y345588D01*
X52678Y345382D01*
X52808Y345169D01*
X52927Y344951D01*
X53035Y344726D01*
X53133Y344496D01*
X53218Y344261D01*
X53291Y344023D01*
X53352Y343782D01*
X53402Y343538D01*
X53439Y343291D01*
X53464Y343043D01*
X53476Y342794D01*
Y342544D01*
X53464Y342296D01*
X53439Y342048D01*
X53402Y341801D01*
X53352Y341557D01*
X53291Y341315D01*
X53218Y341077D01*
X53133Y340843D01*
X53035Y340613D01*
X52927Y340388D01*
X52808Y340170D01*
X52678Y339957D01*
X52538Y339751D01*
X52387Y339552D01*
X52227Y339361D01*
X52057Y339178D01*
X51879Y339004D01*
X51692Y338839D01*
X51497Y338684D01*
X51294Y338538D01*
X51085Y338403D01*
X50869Y338279D01*
X50647Y338164D01*
X50420Y338062D01*
X50188Y337971D01*
X49951Y337892D01*
X49712Y337824D01*
X49469Y337768D01*
X49223Y337725D01*
X48976Y337694D01*
X48727Y337676D01*
X48478Y337669D01*
X40478D01*
X40228Y337676D01*
X39980Y337694D01*
X39732Y337725D01*
X39487Y337768D01*
X39244Y337824D01*
X39004Y337892D01*
X38767Y337971D01*
X38536Y338062D01*
X38308Y338164D01*
X38086Y338279D01*
X37871Y338403D01*
X37661Y338538D01*
X37459Y338684D01*
X37264Y338839D01*
X37077Y339004D01*
X36898Y339178D01*
X36729Y339361D01*
X36569Y339552D01*
X36418Y339751D01*
X36277Y339957D01*
X36147Y340170D01*
X36029Y340388D01*
X35920Y340613D01*
X35824Y340843D01*
X35738Y341077D01*
X35665Y341315D01*
X35603Y341557D01*
X35554Y341801D01*
X35517Y342048D01*
X35492Y342296D01*
X35479Y342544D01*
Y342794D01*
X35492Y343043D01*
X35517Y343291D01*
X35554Y343538D01*
X35603Y343782D01*
X35665Y344023D01*
X35738Y344261D01*
X35824Y344496D01*
X35920Y344726D01*
X36029Y344951D01*
X36147Y345169D01*
X36277Y345382D01*
X36418Y345588D01*
X36569Y345787D01*
X36729Y345978D01*
X36898Y346161D01*
X37077Y346334D01*
X37264Y346499D01*
X37459Y346655D01*
X37661Y346801D01*
X37871Y346936D01*
X38086Y347061D01*
X38308Y347174D01*
X38536Y347277D01*
X38767Y347368D01*
X39004Y347447D01*
X39244Y347515D01*
X39487Y347570D01*
X39732Y347613D01*
X39980Y347645D01*
X40228Y347663D01*
X40478Y347669D01*
X48478D01*
X48727Y347663D01*
D02*
G37*
G36*
X822120Y336030D02*
X793320D01*
Y347230D01*
X822120D01*
Y336030D01*
D02*
G37*
G36*
Y311030D02*
X793320D01*
Y322230D01*
X822120D01*
Y311030D01*
D02*
G37*
G36*
X908518Y292216D02*
X910206Y290528D01*
X911119Y288323D01*
Y285936D01*
X910206Y283731D01*
X908518Y282043D01*
X906313Y281129D01*
X884926D01*
X882720Y282043D01*
X881033Y283731D01*
X880119Y285936D01*
Y288323D01*
X881033Y290528D01*
X882720Y292216D01*
X884926Y293129D01*
X906313D01*
X908518Y292216D01*
D02*
G37*
D20*
X429817Y280040D02*
D03*
X458697Y248620D02*
D03*
X417117Y267340D02*
D03*
X418857Y291000D02*
D03*
X469657Y237660D02*
D03*
X406157Y278300D02*
D03*
D21*
X697230Y444760D02*
D03*
X607470Y374910D02*
D03*
X615950Y202940D02*
D03*
X535940Y157850D02*
D03*
X552450Y96260D02*
D03*
X386080Y446030D02*
D03*
X279400Y341890D02*
D03*
X260350Y425450D02*
D03*
X241300Y425190D02*
D03*
X615950Y218440D02*
D03*
X697230Y429260D02*
D03*
X607470Y359410D02*
D03*
X241300Y440690D02*
D03*
X386080Y430530D02*
D03*
X535940Y142350D02*
D03*
X552450Y111760D02*
D03*
X279400Y326390D02*
D03*
X260350Y440950D02*
D03*
D26*
X158490Y248920D02*
D03*
X173990D02*
D03*
X44710Y177800D02*
D03*
X29210D02*
D03*
X841750Y447040D02*
D03*
X583940Y391160D02*
D03*
X651660Y241564D02*
D03*
X647960Y185420D02*
D03*
X537470Y175260D02*
D03*
X351530Y461010D02*
D03*
X258070Y375473D02*
D03*
Y308610D02*
D03*
X231400Y191770D02*
D03*
X182620D02*
D03*
X857250Y447040D02*
D03*
X242570Y375473D02*
D03*
X632460Y185420D02*
D03*
X667160Y241564D02*
D03*
X367030Y461010D02*
D03*
X521970Y175260D02*
D03*
X599440Y391160D02*
D03*
X242570Y308610D02*
D03*
X198120Y191770D02*
D03*
X215900D02*
D03*
D27*
X677320Y180604D02*
D03*
X419100Y344440D02*
D03*
Y359140D02*
D03*
X401320Y344440D02*
D03*
Y359140D02*
D03*
X383540Y344440D02*
D03*
Y359140D02*
D03*
X316230Y344440D02*
D03*
Y359140D02*
D03*
X677320Y165904D02*
D03*
X696370Y165634D02*
D03*
Y180334D02*
D03*
X720500Y276854D02*
D03*
Y262154D02*
D03*
X699770Y276590D02*
D03*
Y261890D02*
D03*
X341630Y427720D02*
D03*
Y413020D02*
D03*
X478790Y124730D02*
D03*
Y139430D02*
D03*
X565150Y362220D02*
D03*
Y376920D02*
D03*
D29*
X721510Y351790D02*
D03*
X746610Y361290D02*
D03*
Y351790D02*
D03*
Y342290D02*
D03*
X721510Y361290D02*
D03*
Y342290D02*
D03*
D33*
X455195Y281618D02*
D03*
X472975Y263838D02*
D03*
X424737Y251160D02*
D03*
X447597Y234650D02*
D03*
X403368Y193818D02*
D03*
X390360Y206210D02*
D03*
X466155Y292578D02*
D03*
X414328Y204778D02*
D03*
X401320Y217170D02*
D03*
X436637Y223690D02*
D03*
X413777Y240200D02*
D03*
X483935Y274798D02*
D03*
D34*
X569640Y342900D02*
D03*
X500380Y124460D02*
D03*
X379460Y410210D02*
D03*
X205010Y383540D02*
D03*
X143780Y279400D02*
D03*
X248650Y170180D02*
D03*
X766810Y100330D02*
D03*
X819150Y153670D02*
D03*
X751840Y152400D02*
D03*
X804450Y153670D02*
D03*
X467900Y46990D02*
D03*
X525240D02*
D03*
X482600D02*
D03*
X510540D02*
D03*
X143780Y297180D02*
D03*
X204740Y401320D02*
D03*
X364760Y410210D02*
D03*
X515080Y124460D02*
D03*
X584340Y342900D02*
D03*
X214360Y149860D02*
D03*
X199660D02*
D03*
X233950Y170180D02*
D03*
X766540Y152400D02*
D03*
X752110Y100330D02*
D03*
X818610D02*
D03*
X803910D02*
D03*
X158480Y279400D02*
D03*
Y297180D02*
D03*
X219440Y401320D02*
D03*
X219710Y383540D02*
D03*
D105*
X175920Y228600D02*
D03*
X156820D02*
D03*
X715670Y408940D02*
D03*
X588670Y109220D02*
D03*
X696570Y408940D02*
D03*
X241300Y459740D02*
D03*
X569570Y109220D02*
D03*
X260400Y459740D02*
D03*
D106*
X742107Y466269D02*
D03*
X589280Y30890D02*
D03*
X742107Y421369D02*
D03*
X589280Y75790D02*
D03*
D107*
X658410Y442210D02*
D03*
X569116Y442593D02*
D03*
X477831Y443019D02*
D03*
X645910Y442210D02*
D03*
X633410D02*
D03*
X620910D02*
D03*
X440331Y443019D02*
D03*
X531616Y442593D02*
D03*
X556616D02*
D03*
X544116D02*
D03*
X465331Y443019D02*
D03*
X452831D02*
D03*
D108*
X585800Y373490D02*
D03*
X515540Y156320D02*
D03*
X362586Y445706D02*
D03*
X590800Y358140D02*
D03*
X367586Y445706D02*
D03*
X357586D02*
D03*
Y430355D02*
D03*
X362586D02*
D03*
X367586D02*
D03*
X520540Y156320D02*
D03*
X510540D02*
D03*
Y140970D02*
D03*
X515540D02*
D03*
X520540D02*
D03*
X585800Y358140D02*
D03*
X580800D02*
D03*
Y373490D02*
D03*
X590800D02*
D03*
D109*
X585800Y365815D02*
D03*
X515540Y148645D02*
D03*
X362586Y438031D02*
D03*
D110*
X655900Y212354D02*
D03*
X633000Y221854D02*
D03*
X655900D02*
D03*
Y202854D02*
D03*
X633000D02*
D03*
D111*
X870169Y145279D02*
D03*
Y207779D02*
D03*
Y182779D02*
D03*
Y157779D02*
D03*
Y170279D02*
D03*
Y195279D02*
D03*
D113*
X252302Y349766D02*
D03*
X242802D02*
D03*
X261802D02*
D03*
X242802Y326866D02*
D03*
X261802D02*
D03*
D114*
X206955Y170260D02*
D03*
D115*
X199280D02*
D03*
X214630Y175260D02*
D03*
Y170260D02*
D03*
Y165260D02*
D03*
X199280D02*
D03*
Y175260D02*
D03*
D117*
X602412Y473710D02*
D03*
X676910Y473710D02*
D03*
X587616Y474094D02*
D03*
X513118Y474094D02*
D03*
X421833Y474520D02*
D03*
X496330Y474520D02*
D03*
D118*
X801386Y118110D02*
D03*
Y135890D02*
D03*
X821706Y127000D02*
D03*
X751824D02*
D03*
X772144Y118110D02*
D03*
Y135890D02*
D03*
D119*
X902170Y226280D02*
D03*
Y126782D02*
D03*
D120*
X163180Y353060D02*
D03*
Y340360D02*
D03*
Y327660D02*
D03*
X210170Y462280D02*
D03*
Y449580D02*
D03*
Y436880D02*
D03*
X113680Y314960D02*
D03*
Y327660D02*
D03*
Y340360D02*
D03*
Y353060D02*
D03*
X163180Y314960D02*
D03*
X160670Y462280D02*
D03*
Y449580D02*
D03*
Y436880D02*
D03*
Y424180D02*
D03*
X210170D02*
D03*
M02*
