G04*
G04 #@! TF.GenerationSoftware,Altium Limited,Altium Designer,25.8.1 (18)*
G04*
G04 Layer_Color=16711935*
%FSLAX44Y44*%
%MOMM*%
G71*
G04*
G04 #@! TF.SameCoordinates,0A9D1E7D-D055-42B5-8BE4-5928FCC89D19*
G04*
G04*
G04 #@! TF.FilePolarity,Negative*
G04*
G01*
G75*
%ADD38R,2.9816X1.2216*%
G04:AMPARAMS|DCode=42|XSize=0.98mm|YSize=1.04mm|CornerRadius=0mm|HoleSize=0mm|Usage=FLASHONLY|Rotation=315.000|XOffset=0mm|YOffset=0mm|HoleType=Round|Shape=Rectangle|*
%AMROTATEDRECTD42*
4,1,4,-0.7142,-0.0212,0.0212,0.7142,0.7142,0.0212,-0.0212,-0.7142,-0.7142,-0.0212,0.0*
%
%ADD42ROTATEDRECTD42*%

%ADD43R,1.0400X0.9800*%
%ADD49R,0.9800X1.0400*%
%ADD50R,1.0800X1.1000*%
G04:AMPARAMS|DCode=53|XSize=1.27mm|YSize=0.65mm|CornerRadius=0.1038mm|HoleSize=0mm|Usage=FLASHONLY|Rotation=180.000|XOffset=0mm|YOffset=0mm|HoleType=Round|Shape=RoundedRectangle|*
%AMROUNDEDRECTD53*
21,1,1.2700,0.4425,0,0,180.0*
21,1,1.0625,0.6500,0,0,180.0*
1,1,0.2075,-0.5313,0.2213*
1,1,0.2075,0.5313,0.2213*
1,1,0.2075,0.5313,-0.2213*
1,1,0.2075,-0.5313,-0.2213*
%
%ADD53ROUNDEDRECTD53*%
G04:AMPARAMS|DCode=57|XSize=0.98mm|YSize=1.04mm|CornerRadius=0mm|HoleSize=0mm|Usage=FLASHONLY|Rotation=45.000|XOffset=0mm|YOffset=0mm|HoleType=Round|Shape=Rectangle|*
%AMROTATEDRECTD57*
4,1,4,0.0212,-0.7142,-0.7142,0.0212,-0.0212,0.7142,0.7142,-0.0212,0.0212,-0.7142,0.0*
%
%ADD57ROTATEDRECTD57*%

%ADD58R,1.1000X1.0800*%
%ADD63O,3.2016X1.3016*%
%ADD64C,4.1000*%
%ADD65O,2.2000X1.1000*%
%ADD66O,1.9000X1.1000*%
%ADD67C,0.7100*%
%ADD68O,1.1000X2.2000*%
%ADD69O,1.1000X1.9000*%
%ADD70O,1.4016X3.1016*%
%ADD71C,1.3600*%
%ADD72C,0.6600*%
%ADD122R,0.9800X1.4400*%
%ADD123R,1.2016X3.6016*%
%ADD124R,0.7000X1.8000*%
%ADD125R,0.3816X0.6866*%
%ADD126R,1.3016X0.6016*%
%ADD127R,1.5240X0.7940*%
%ADD128R,1.8016X0.7016*%
%ADD129R,1.3400X0.7000*%
%ADD130R,0.7940X1.5240*%
%ADD131R,0.6016X1.3016*%
%ADD132R,0.6866X0.3816*%
%ADD133R,1.3400X0.4000*%
%ADD134R,1.1000X2.9000*%
%ADD135R,1.2030X1.0760*%
%ADD136R,2.8016X1.1016*%
G04:AMPARAMS|DCode=137|XSize=2.03mm|YSize=0.66mm|CornerRadius=0.105mm|HoleSize=0mm|Usage=FLASHONLY|Rotation=180.000|XOffset=0mm|YOffset=0mm|HoleType=Round|Shape=RoundedRectangle|*
%AMROUNDEDRECTD137*
21,1,2.0300,0.4500,0,0,180.0*
21,1,1.8200,0.6600,0,0,180.0*
1,1,0.2100,-0.9100,0.2250*
1,1,0.2100,0.9100,0.2250*
1,1,0.2100,0.9100,-0.2250*
1,1,0.2100,-0.9100,-0.2250*
%
%ADD137ROUNDEDRECTD137*%
D38*
X807720Y316631D02*
D03*
Y386629D02*
D03*
Y341630D02*
D03*
Y361630D02*
D03*
D42*
X429817Y280040D02*
D03*
X458697Y248620D02*
D03*
X417117Y267340D02*
D03*
X418857Y291000D02*
D03*
X469657Y237660D02*
D03*
X406157Y278300D02*
D03*
D43*
X697230Y444760D02*
D03*
X607470Y374910D02*
D03*
X615950Y202940D02*
D03*
X535940Y157850D02*
D03*
X552450Y96260D02*
D03*
X386080Y446030D02*
D03*
X279400Y341890D02*
D03*
X260350Y425450D02*
D03*
X241300Y425190D02*
D03*
X615950Y218440D02*
D03*
X697230Y429260D02*
D03*
X607470Y359410D02*
D03*
X241300Y440690D02*
D03*
X386080Y430530D02*
D03*
X535940Y142350D02*
D03*
X552450Y111760D02*
D03*
X279400Y326390D02*
D03*
X260350Y440950D02*
D03*
D49*
X158490Y248920D02*
D03*
X173990D02*
D03*
X44710Y177800D02*
D03*
X29210D02*
D03*
X841750Y447040D02*
D03*
X583940Y391160D02*
D03*
X651660Y241564D02*
D03*
X647960Y185420D02*
D03*
X537470Y175260D02*
D03*
X351530Y461010D02*
D03*
X258070Y375473D02*
D03*
Y308610D02*
D03*
X231400Y191770D02*
D03*
X182620D02*
D03*
X857250Y447040D02*
D03*
X242570Y375473D02*
D03*
X632460Y185420D02*
D03*
X667160Y241564D02*
D03*
X367030Y461010D02*
D03*
X521970Y175260D02*
D03*
X599440Y391160D02*
D03*
X242570Y308610D02*
D03*
X198120Y191770D02*
D03*
X215900D02*
D03*
D50*
X677320Y180604D02*
D03*
X419100Y344440D02*
D03*
Y359140D02*
D03*
X401320Y344440D02*
D03*
Y359140D02*
D03*
X383540Y344440D02*
D03*
Y359140D02*
D03*
X316230Y344440D02*
D03*
Y359140D02*
D03*
X677320Y165904D02*
D03*
X696370Y165634D02*
D03*
Y180334D02*
D03*
X720500Y276854D02*
D03*
Y262154D02*
D03*
X699770Y276590D02*
D03*
Y261890D02*
D03*
X341630Y427720D02*
D03*
Y413020D02*
D03*
X478790Y124730D02*
D03*
Y139430D02*
D03*
X565150Y362220D02*
D03*
Y376920D02*
D03*
D53*
X721510Y351790D02*
D03*
X746610Y361290D02*
D03*
Y351790D02*
D03*
Y342290D02*
D03*
X721510Y361290D02*
D03*
Y342290D02*
D03*
D57*
X455195Y281618D02*
D03*
X472975Y263838D02*
D03*
X424737Y251160D02*
D03*
X447597Y234650D02*
D03*
X403368Y193818D02*
D03*
X390360Y206210D02*
D03*
X466155Y292578D02*
D03*
X414328Y204778D02*
D03*
X401320Y217170D02*
D03*
X436637Y223690D02*
D03*
X413777Y240200D02*
D03*
X483935Y274798D02*
D03*
D58*
X569640Y342900D02*
D03*
X500380Y124460D02*
D03*
X379460Y410210D02*
D03*
X205010Y383540D02*
D03*
X143780Y279400D02*
D03*
X248650Y170180D02*
D03*
X766810Y100330D02*
D03*
X819150Y153670D02*
D03*
X751840Y152400D02*
D03*
X804450Y153670D02*
D03*
X467900Y46990D02*
D03*
X525240D02*
D03*
X482600D02*
D03*
X510540D02*
D03*
X143780Y297180D02*
D03*
X204740Y401320D02*
D03*
X364760Y410210D02*
D03*
X515080Y124460D02*
D03*
X584340Y342900D02*
D03*
X214360Y149860D02*
D03*
X199660D02*
D03*
X233950Y170180D02*
D03*
X766540Y152400D02*
D03*
X752110Y100330D02*
D03*
X818610D02*
D03*
X803910D02*
D03*
X158480Y279400D02*
D03*
Y297180D02*
D03*
X219440Y401320D02*
D03*
X219710Y383540D02*
D03*
D63*
X28440Y115040D02*
D03*
Y244040D02*
D03*
X895620Y416130D02*
D03*
Y287130D02*
D03*
D64*
X889000Y471210D02*
D03*
Y70100D02*
D03*
X30100Y471210D02*
D03*
X357780Y30520D02*
D03*
X30100Y70100D02*
D03*
D65*
X86279Y342670D02*
D03*
Y429069D02*
D03*
D66*
X44478Y342670D02*
D03*
Y429069D02*
D03*
D67*
X81280Y356870D02*
D03*
Y414769D02*
D03*
X466281Y64372D02*
D03*
X524180D02*
D03*
D68*
X538480Y69371D02*
D03*
X452080D02*
D03*
D69*
X538480Y27570D02*
D03*
X452080D02*
D03*
D70*
X284200Y533401D02*
D03*
X167198Y533400D02*
D03*
D71*
X203200Y533400D02*
D03*
X248199D02*
D03*
D72*
X892810Y486450D02*
D03*
X902470Y479292D02*
D03*
X880918Y484680D02*
D03*
X904240Y467400D02*
D03*
X897082Y457740D02*
D03*
X873760Y475020D02*
D03*
X875530Y463128D02*
D03*
X885190Y455970D02*
D03*
X892810Y85340D02*
D03*
X902470Y78182D02*
D03*
X904240Y66290D02*
D03*
X897082Y56630D02*
D03*
X880918Y83570D02*
D03*
X873760Y73910D02*
D03*
X885190Y54860D02*
D03*
X875530Y62018D02*
D03*
X43570Y479292D02*
D03*
X45340Y467400D02*
D03*
X38182Y457740D02*
D03*
X33910Y486450D02*
D03*
X22018Y484680D02*
D03*
X14860Y475020D02*
D03*
X26290Y455970D02*
D03*
X16630Y463128D02*
D03*
X373020Y26710D02*
D03*
X361590Y45760D02*
D03*
X371250Y38602D02*
D03*
X349698Y43990D02*
D03*
X365862Y17050D02*
D03*
X353970Y15280D02*
D03*
X344310Y22438D02*
D03*
X342540Y34330D02*
D03*
X33910Y85340D02*
D03*
X22018Y83570D02*
D03*
X45340Y66290D02*
D03*
X43570Y78182D02*
D03*
X16630Y62018D02*
D03*
X14860Y73910D02*
D03*
X38182Y56630D02*
D03*
X26290Y54860D02*
D03*
D122*
X175920Y228600D02*
D03*
X156820D02*
D03*
X715670Y408940D02*
D03*
X588670Y109220D02*
D03*
X696570Y408940D02*
D03*
X241300Y459740D02*
D03*
X569570Y109220D02*
D03*
X260400Y459740D02*
D03*
D123*
X742107Y466269D02*
D03*
X589280Y30890D02*
D03*
X742107Y421369D02*
D03*
X589280Y75790D02*
D03*
D124*
X658410Y442210D02*
D03*
X569116Y442593D02*
D03*
X477831Y443019D02*
D03*
X645910Y442210D02*
D03*
X633410D02*
D03*
X620910D02*
D03*
X440331Y443019D02*
D03*
X531616Y442593D02*
D03*
X556616D02*
D03*
X544116D02*
D03*
X465331Y443019D02*
D03*
X452831D02*
D03*
D125*
X585800Y373490D02*
D03*
X515540Y156320D02*
D03*
X362586Y445706D02*
D03*
X590800Y358140D02*
D03*
X367586Y445706D02*
D03*
X357586D02*
D03*
Y430355D02*
D03*
X362586D02*
D03*
X367586D02*
D03*
X520540Y156320D02*
D03*
X510540D02*
D03*
Y140970D02*
D03*
X515540D02*
D03*
X520540D02*
D03*
X585800Y358140D02*
D03*
X580800D02*
D03*
Y373490D02*
D03*
X590800D02*
D03*
D126*
X585800Y365815D02*
D03*
X515540Y148645D02*
D03*
X362586Y438031D02*
D03*
D127*
X655900Y212354D02*
D03*
X633000Y221854D02*
D03*
X655900D02*
D03*
Y202854D02*
D03*
X633000D02*
D03*
D128*
X870169Y145279D02*
D03*
Y207779D02*
D03*
Y182779D02*
D03*
Y157779D02*
D03*
Y170279D02*
D03*
Y195279D02*
D03*
D129*
X92479Y417869D02*
D03*
X92479Y353870D02*
D03*
Y361869D02*
D03*
Y409870D02*
D03*
D130*
X252302Y349766D02*
D03*
X242802D02*
D03*
X261802D02*
D03*
X242802Y326866D02*
D03*
X261802D02*
D03*
D131*
X206955Y170260D02*
D03*
D132*
X199280D02*
D03*
X214630Y175260D02*
D03*
Y170260D02*
D03*
Y165260D02*
D03*
X199280D02*
D03*
Y175260D02*
D03*
D133*
X92479Y368369D02*
D03*
Y373370D02*
D03*
Y378369D02*
D03*
Y383370D02*
D03*
Y388369D02*
D03*
Y393370D02*
D03*
Y398368D02*
D03*
Y403370D02*
D03*
D134*
X602412Y473710D02*
D03*
X676910Y473710D02*
D03*
X587616Y474094D02*
D03*
X513118Y474094D02*
D03*
X421833Y474520D02*
D03*
X496330Y474520D02*
D03*
D135*
X801386Y118110D02*
D03*
Y135890D02*
D03*
X821706Y127000D02*
D03*
X751824D02*
D03*
X772144Y118110D02*
D03*
Y135890D02*
D03*
D136*
X902170Y226280D02*
D03*
Y126782D02*
D03*
D137*
X163180Y353060D02*
D03*
Y340360D02*
D03*
Y327660D02*
D03*
X210170Y462280D02*
D03*
Y449580D02*
D03*
Y436880D02*
D03*
X113680Y314960D02*
D03*
Y327660D02*
D03*
Y340360D02*
D03*
Y353060D02*
D03*
X163180Y314960D02*
D03*
X160670Y462280D02*
D03*
Y449580D02*
D03*
Y436880D02*
D03*
Y424180D02*
D03*
X210170D02*
D03*
M02*
