G04*
G04 #@! TF.GenerationSoftware,Altium Limited,Altium Designer,25.8.1 (18)*
G04*
G04 Layer_Physical_Order=2*
G04 Layer_Color=32768*
%FSLAX44Y44*%
%MOMM*%
G71*
G04*
G04 #@! TF.SameCoordinates,0A9D1E7D-D055-42B5-8BE4-5928FCC89D19*
G04*
G04*
G04 #@! TF.FilePolarity,Negative*
G04*
G01*
G75*
%ADD93C,1.0160*%
%ADD94O,3.5160X1.7160*%
G04:AMPARAMS|DCode=95|XSize=3.724mm|YSize=3.724mm|CornerRadius=0mm|HoleSize=0mm|Usage=FLASHONLY|Rotation=0.000|XOffset=0mm|YOffset=0mm|HoleType=Round|Shape=Relief|Width=0.508mm|Gap=0.254mm|Entries=4|*
%AMTHD95*
7,0,0,3.7240,3.2160,0.5080,45*
%
%ADD95THD95*%
%ADD96O,2.7160X1.6160*%
%ADD97O,2.4160X1.6160*%
%ADD98C,1.6660*%
%ADD99O,1.6160X2.7160*%
%ADD100O,1.6160X2.4160*%
%ADD101O,1.9160X3.5160*%
%ADD102C,2.3160*%
%ADD103C,1.3160*%
D93*
X900000Y40500D02*
G03*
X920000Y60500I0J20000D01*
G01*
X920000Y480247D02*
G03*
X900000Y500247I-20000J0D01*
G01*
X20500Y500247D02*
G03*
X500Y480247I0J-20000D01*
G01*
Y60500D02*
G03*
X20500Y40500I20000J0D01*
G01*
X20500D02*
X230500D01*
Y500D02*
Y40500D01*
Y500D02*
X644485D01*
Y40500D01*
X900000Y40500D01*
X920000Y60500D02*
X920000Y480247D01*
X310378Y500247D02*
X900000D01*
X310378D02*
Y560247D01*
X140505D02*
X310378D01*
X140505Y500247D02*
Y560247D01*
X20500Y500247D02*
X140505Y500247D01*
X500Y60500D02*
Y480247D01*
D94*
X28440Y115040D02*
D03*
Y244040D02*
D03*
X895620Y416130D02*
D03*
Y287130D02*
D03*
D95*
X889000Y471210D02*
D03*
Y70100D02*
D03*
X30100Y471210D02*
D03*
X357780Y30520D02*
D03*
X30100Y70100D02*
D03*
D96*
X86279Y342670D02*
D03*
Y429069D02*
D03*
D97*
X44478Y342670D02*
D03*
Y429069D02*
D03*
D98*
X81280Y356870D02*
D03*
Y414769D02*
D03*
X466281Y64372D02*
D03*
X524180D02*
D03*
D99*
X538480Y69371D02*
D03*
X452080D02*
D03*
D100*
X538480Y27570D02*
D03*
X452080D02*
D03*
D101*
X284200Y533401D02*
D03*
X167198Y533400D02*
D03*
D102*
X203200Y533400D02*
D03*
X248199D02*
D03*
D103*
X466090Y124460D02*
D03*
X215900Y229870D02*
D03*
X185420Y248920D02*
D03*
X198120Y207010D02*
D03*
X190500Y149860D02*
D03*
X140970Y214630D02*
D03*
Y104140D02*
D03*
X218440Y356870D02*
D03*
X473710Y298450D02*
D03*
X190500Y490220D02*
D03*
Y496570D02*
D03*
X629920Y285750D02*
D03*
X480060Y228600D02*
D03*
X698692Y343092D02*
D03*
X698500Y360680D02*
D03*
X599440Y402590D02*
D03*
X707390Y433070D02*
D03*
X614930Y442210D02*
D03*
X526413Y442593D02*
D03*
X434340Y443230D02*
D03*
X849630Y106680D02*
D03*
X673100Y285750D02*
D03*
X648970Y336550D02*
D03*
X557530Y377190D02*
D03*
X511810Y289560D02*
D03*
X397510Y430530D02*
D03*
X398780Y283210D02*
D03*
X472440Y363220D02*
D03*
X520700Y391160D02*
D03*
X452120Y466090D02*
D03*
X542290Y467360D02*
D03*
X464820Y455930D02*
D03*
X557530D02*
D03*
X633826Y415387D02*
D03*
X646430Y425450D02*
D03*
X888231Y207779D02*
D03*
X842010Y170180D02*
D03*
X805180D02*
D03*
X656590Y273050D02*
D03*
X304800Y402590D02*
D03*
X341630D02*
D03*
X434340Y326390D02*
D03*
Y316230D02*
D03*
X248920Y387350D02*
D03*
X471170Y87630D02*
D03*
X303260Y359140D02*
D03*
X788670Y441960D02*
D03*
X608060Y59420D02*
D03*
X242686Y336434D02*
D03*
X521970Y184150D02*
D03*
X854710Y157480D02*
D03*
X621030Y170180D02*
D03*
X765810Y90170D02*
D03*
X519430Y86360D02*
D03*
X512533Y56603D02*
D03*
X482600Y55880D02*
D03*
X195580Y441960D02*
D03*
X497840Y290830D02*
D03*
X488950Y264160D02*
D03*
X478790Y313690D02*
D03*
X468630Y320040D02*
D03*
X334010Y332740D02*
D03*
X316230D02*
D03*
X420370Y218440D02*
D03*
X383540Y332740D02*
D03*
X401320D02*
D03*
X419100D02*
D03*
X443230Y215900D02*
D03*
X400050Y247650D02*
D03*
X412750Y299720D02*
D03*
M02*
