G04*
G04 #@! TF.GenerationSoftware,Altium Limited,Altium Designer,25.8.1 (18)*
G04*
G04 Layer_Color=16711935*
%FSLAX44Y44*%
%MOMM*%
G71*
G04*
G04 #@! TF.SameCoordinates,0A9D1E7D-D055-42B5-8BE4-5928FCC89D19*
G04*
G04*
G04 #@! TF.FilePolarity,Positive*
G04*
G01*
G75*
%ADD10C,0.2000*%
%ADD14C,0.1270*%
G36*
X229950Y244190D02*
X224950D01*
Y256190D01*
X229950D01*
Y244190D01*
D02*
G37*
G36*
X244950D02*
X239950D01*
Y256190D01*
X244950D01*
Y244190D01*
D02*
G37*
G36*
X547020Y330280D02*
Y325280D01*
X535020D01*
Y330280D01*
X547020D01*
D02*
G37*
G36*
Y345280D02*
Y340280D01*
X535020D01*
Y345280D01*
X547020D01*
D02*
G37*
G36*
X571850Y42070D02*
Y47070D01*
X583850D01*
Y42070D01*
X571850D01*
D02*
G37*
G36*
Y57070D02*
Y62070D01*
X583850D01*
Y57070D01*
X571850D01*
D02*
G37*
G36*
X682150Y329850D02*
X687150D01*
Y317850D01*
X682150D01*
Y329850D01*
D02*
G37*
G36*
X697150D02*
X702150D01*
Y317850D01*
X697150D01*
Y329850D01*
D02*
G37*
G36*
X754871Y124714D02*
Y129286D01*
X749030D01*
Y124714D01*
X754871D01*
D02*
G37*
G36*
X774940Y115316D02*
Y119887D01*
X769096D01*
Y115316D01*
X774940D01*
D02*
G37*
G36*
X798592Y119888D02*
Y115315D01*
X804434D01*
Y119888D01*
X798592D01*
D02*
G37*
G36*
X818659Y129286D02*
Y124714D01*
X824500D01*
Y129286D01*
X818659D01*
D02*
G37*
G36*
X774938Y134112D02*
Y138685D01*
X769096D01*
Y134112D01*
X774938D01*
D02*
G37*
G36*
X798590Y138684D02*
Y134113D01*
X804434D01*
Y138684D01*
X798590D01*
D02*
G37*
G36*
X790020Y466440D02*
X785020D01*
Y478440D01*
X790020D01*
Y466440D01*
D02*
G37*
G36*
X805020D02*
X800020D01*
Y478440D01*
X805020D01*
Y466440D01*
D02*
G37*
D10*
X830740Y76330D02*
G03*
X830740Y76330I-1000J0D01*
G01*
X627650Y298450D02*
G03*
X627650Y298450I-1000J0D01*
G01*
X549770Y215470D02*
G03*
X549770Y215470I-1000J0D01*
G01*
X709510Y342340D02*
G03*
X709510Y342340I-1000J0D01*
G01*
X670450Y221854D02*
G03*
X670450Y221854I-1000J0D01*
G01*
X920000Y480247D02*
G03*
X900000Y500247I-20000J0D01*
G01*
X20500D02*
G03*
X500Y480247I0J-20000D01*
G01*
X900000Y40500D02*
G03*
X920000Y60500I0J20000D01*
G01*
X500Y60500D02*
G03*
X20500Y40500I20000J0D01*
G01*
X504480Y136040D02*
G03*
X504480Y136040I-1000J0D01*
G01*
X613700Y197000D02*
G03*
X613700Y197000I-1000J0D01*
G01*
X159190Y77320D02*
G03*
X159190Y77320I-1000J0D01*
G01*
X251340Y432510D02*
G03*
X251340Y432510I-1000J0D01*
G01*
X243802Y363316D02*
G03*
X243802Y363316I-1000J0D01*
G01*
X179430Y353060D02*
G03*
X179430Y353060I-1000J0D01*
G01*
X226420Y462280D02*
G03*
X226420Y462280I-1000J0D01*
G01*
X535020Y325280D02*
X547020D01*
Y345280D01*
X535020D02*
X547020D01*
X535020Y325280D02*
Y345280D01*
X583850Y42070D02*
Y62070D01*
X571850Y42070D02*
X583850D01*
X571850D02*
Y62070D01*
X583850D01*
X785020Y466440D02*
Y478440D01*
Y466440D02*
X805020D01*
Y478440D01*
X785020D02*
X805020D01*
X702150Y317850D02*
Y329850D01*
X682150D02*
X702150D01*
X682150Y317850D02*
Y329850D01*
Y317850D02*
X702150D01*
X224950Y244190D02*
Y256190D01*
Y244190D02*
X244950D01*
Y256190D01*
X224950D02*
X244950D01*
X920000Y60500D02*
Y480247D01*
X310378Y500247D02*
X900000D01*
X500Y60500D02*
Y480247D01*
X140505Y560247D02*
X310378D01*
X140505Y500247D02*
Y560247D01*
X20500Y500247D02*
X140505D01*
X230500Y500D02*
Y40500D01*
X310378Y500247D02*
Y560247D01*
X20500Y40500D02*
X230500D01*
X644485Y500D02*
Y40500D01*
X900000D01*
X230500Y500D02*
X644485D01*
X402022Y263599D02*
X444448Y306025D01*
X486875Y263599D01*
X444448Y221172D02*
X486875Y263599D01*
X402022D02*
X444448Y221172D01*
D14*
X157440Y253720D02*
X175040D01*
X157440Y244120D02*
X175040D01*
Y253720D01*
X157440Y244120D02*
Y253720D01*
X155870Y221800D02*
X176870D01*
X155870Y235400D02*
X176870D01*
X155870Y221800D02*
Y235400D01*
X176870Y221800D02*
Y235400D01*
X28160Y173000D02*
X45760D01*
X28160Y182600D02*
X45760D01*
X28160Y173000D02*
Y182600D01*
X45760Y173000D02*
Y182600D01*
X539640Y354310D02*
Y364510D01*
X557640Y354310D02*
Y364510D01*
X539640D02*
X557640D01*
X539640Y354310D02*
X557640D01*
X840700Y442240D02*
Y451840D01*
X858300Y442240D02*
Y451840D01*
X840700Y442240D02*
X858300D01*
X840700Y451840D02*
X858300D01*
X282160Y468910D02*
X299760D01*
X282160Y478510D02*
X299760D01*
Y468910D02*
Y478510D01*
X282160Y468910D02*
Y478510D01*
X72350Y446050D02*
X89950D01*
X72350Y455650D02*
X89950D01*
Y446050D02*
Y455650D01*
X72350Y446050D02*
Y455650D01*
X419380Y26890D02*
Y44490D01*
X428980Y26890D02*
Y44490D01*
X419380Y26890D02*
X428980D01*
X419380Y44490D02*
X428980D01*
X481473Y323269D02*
X488261Y330057D01*
X493918Y310823D02*
X500707Y317612D01*
X488261Y330057D02*
X500707Y317612D01*
X481473Y323269D02*
X493918Y310823D01*
X494173Y335969D02*
X500961Y342757D01*
X506618Y323523D02*
X513407Y330312D01*
X500961Y342757D02*
X513407Y330312D01*
X494173Y335969D02*
X506618Y323523D01*
X451059Y284269D02*
X457847Y277481D01*
X463504Y296714D02*
X470292Y289926D01*
X457847Y277481D02*
X470292Y289926D01*
X451059Y284269D02*
X463504Y296714D01*
X776560Y71630D02*
X818560D01*
X776560D02*
Y103630D01*
X818560D01*
Y71630D02*
Y103630D01*
X641650Y310350D02*
X821650D01*
Y118350D02*
Y310350D01*
X641650Y118350D02*
X821650D01*
X641650D02*
Y310350D01*
X399231Y196470D02*
X406020Y189681D01*
X411676Y208915D02*
X418465Y202127D01*
X406020Y189681D02*
X418465Y202127D01*
X399231Y196470D02*
X411676Y208915D01*
X416867Y200760D02*
X429595Y188033D01*
X424080Y207973D02*
X436807Y195245D01*
X429595Y188033D02*
X436807Y195245D01*
X416867Y200760D02*
X424080Y207973D01*
X355980Y231959D02*
X362769Y225170D01*
X343535Y219513D02*
X350323Y212725D01*
X362769Y225170D01*
X343535Y219513D02*
X355980Y231959D01*
X414000Y342790D02*
Y360790D01*
X424200Y342790D02*
Y360790D01*
X414000D02*
X424200D01*
X414000Y342790D02*
X424200D01*
X396220D02*
Y360790D01*
X406420Y342790D02*
Y360790D01*
X396220D02*
X406420D01*
X396220Y342790D02*
X406420D01*
X378440D02*
Y360790D01*
X388640Y342790D02*
Y360790D01*
X378440D02*
X388640D01*
X378440Y342790D02*
X388640D01*
X311130D02*
Y360790D01*
X321330Y342790D02*
Y360790D01*
X311130D02*
X321330D01*
X311130Y342790D02*
X321330D01*
X787290Y457220D02*
X805290D01*
X787290Y447020D02*
X805290D01*
X787290D02*
Y457220D01*
X805290Y447020D02*
Y457220D01*
X647590Y328950D02*
X665590D01*
X647590Y318750D02*
X665590D01*
X647590D02*
Y328950D01*
X665590Y318750D02*
Y328950D01*
X603270Y43070D02*
Y61070D01*
X593070Y43070D02*
Y61070D01*
X603270D01*
X593070Y43070D02*
X603270D01*
X225950Y234970D02*
X243950D01*
X225950Y224770D02*
X243950D01*
X225950D02*
Y234970D01*
X243950Y224770D02*
Y234970D01*
X544070Y226650D02*
X576070D01*
Y268650D01*
X544070D02*
X576070D01*
X544070Y226650D02*
Y268650D01*
X259120Y370673D02*
Y380273D01*
X241520Y370673D02*
Y380273D01*
X259120D01*
X241520Y370673D02*
X259120D01*
X466250Y41890D02*
X484250D01*
X466250Y52090D02*
X484250D01*
X466250Y41890D02*
Y52090D01*
X484250Y41890D02*
Y52090D01*
X508890D02*
X526890D01*
X508890Y41890D02*
X526890D01*
Y52090D01*
X508890Y41890D02*
Y52090D01*
X692430Y445810D02*
X702030D01*
X692430Y428210D02*
X702030D01*
X692430D02*
Y445810D01*
X702030Y428210D02*
Y445810D01*
X695620Y415740D02*
X716620D01*
X695620Y402140D02*
X716620D01*
Y415740D01*
X695620Y402140D02*
Y415740D01*
X725935Y337165D02*
X742185D01*
Y366415D01*
X725935D02*
X742185D01*
X725935Y337165D02*
Y366415D01*
X649010Y180620D02*
Y190220D01*
X631410Y180620D02*
Y190220D01*
X649010D01*
X631410Y180620D02*
X649010D01*
X682420Y164254D02*
Y182254D01*
X672220Y164254D02*
Y182254D01*
Y164254D02*
X682420D01*
X672220Y182254D02*
X682420D01*
X691270Y163984D02*
Y181984D01*
X701470Y163984D02*
Y181984D01*
X691270D02*
X701470D01*
X691270Y163984D02*
X701470D01*
X715400Y260504D02*
Y278504D01*
X725600Y260504D02*
Y278504D01*
X715400D02*
X725600D01*
X715400Y260504D02*
X725600D01*
X704870Y260240D02*
Y278240D01*
X694670Y260240D02*
Y278240D01*
Y260240D02*
X704870D01*
X694670Y278240D02*
X704870D01*
X650610Y236764D02*
Y246364D01*
X668210Y236764D02*
Y246364D01*
X650610Y236764D02*
X668210D01*
X650610Y246364D02*
X668210D01*
X611150Y201890D02*
X620750D01*
X611150Y219490D02*
X620750D01*
Y201890D02*
Y219490D01*
X611150Y201890D02*
Y219490D01*
X612270Y358360D02*
Y375960D01*
X602670Y358360D02*
Y375960D01*
Y358360D02*
X612270D01*
X602670Y375960D02*
X612270D01*
X636450Y226854D02*
X652450D01*
X636450Y197854D02*
Y226854D01*
Y197854D02*
X652450D01*
Y226854D01*
X607340Y252690D02*
X616940D01*
X607340Y270290D02*
X616940D01*
X607340Y252690D02*
Y270290D01*
X616940Y252690D02*
Y270290D01*
X381280Y447080D02*
X390880D01*
X381280Y429480D02*
X390880D01*
X381280D02*
Y447080D01*
X390880Y429480D02*
Y447080D01*
X381110Y405110D02*
Y415310D01*
X363110Y405110D02*
Y415310D01*
X381110D01*
X363110Y405110D02*
X381110D01*
X336530Y429370D02*
X346730D01*
X336530Y411370D02*
X346730D01*
X336530D02*
Y429370D01*
X346730Y411370D02*
Y429370D01*
X350480Y456210D02*
Y465810D01*
X368080Y456210D02*
Y465810D01*
X350480Y456210D02*
X368080D01*
X350480Y465810D02*
X368080D01*
X538520Y170460D02*
Y180060D01*
X520920Y170460D02*
Y180060D01*
X538520D01*
X520920Y170460D02*
X538520D01*
X473690Y141080D02*
X483890D01*
X473690Y123080D02*
X483890D01*
X473690D02*
Y141080D01*
X483890Y123080D02*
Y141080D01*
X498730Y119360D02*
Y129560D01*
X516730Y119360D02*
Y129560D01*
X498730Y119360D02*
X516730D01*
X498730Y129560D02*
X516730D01*
X531140Y158900D02*
X540740D01*
X531140Y141300D02*
X540740D01*
X531140D02*
Y158900D01*
X540740Y141300D02*
Y158900D01*
X567990Y337800D02*
Y348000D01*
X585990Y337800D02*
Y348000D01*
X567990Y337800D02*
X585990D01*
X567990Y348000D02*
X585990D01*
X560050Y360570D02*
X570250D01*
X560050Y378570D02*
X570250D01*
Y360570D02*
Y378570D01*
X560050Y360570D02*
Y378570D01*
X582890Y386360D02*
Y395960D01*
X600490Y386360D02*
Y395960D01*
X582890Y386360D02*
X600490D01*
X582890Y395960D02*
X600490D01*
X508655Y102365D02*
Y118615D01*
X479405Y102365D02*
X508655D01*
X479405D02*
Y118615D01*
X508655D01*
X547650Y95210D02*
Y112810D01*
X557250Y95210D02*
Y112810D01*
X547650D02*
X557250D01*
X547650Y95210D02*
X557250D01*
X568620Y102420D02*
Y116020D01*
X589620Y102420D02*
Y116020D01*
X568620Y102420D02*
X589620D01*
X568620Y116020D02*
X589620D01*
X241520Y303810D02*
X259120D01*
X241520Y313410D02*
X259120D01*
X241520Y303810D02*
Y313410D01*
X259120Y303810D02*
Y313410D01*
X181570Y196570D02*
X199170D01*
X181570Y186970D02*
X199170D01*
Y196570D01*
X181570Y186970D02*
Y196570D01*
X214850Y186970D02*
X232450D01*
X214850Y196570D02*
X232450D01*
X214850Y186970D02*
Y196570D01*
X232450Y186970D02*
Y196570D01*
X216010Y144760D02*
Y154960D01*
X198010Y144760D02*
Y154960D01*
X216010D01*
X198010Y144760D02*
X216010D01*
X250300Y165080D02*
Y175280D01*
X232300Y165080D02*
Y175280D01*
X250300D01*
X232300Y165080D02*
X250300D01*
X607340Y284700D02*
Y302300D01*
X616940Y284700D02*
Y302300D01*
X607340Y284700D02*
X616940D01*
X607340Y302300D02*
X616940D01*
X284200Y325340D02*
Y342940D01*
X274600Y325340D02*
Y342940D01*
Y325340D02*
X284200D01*
X274600Y342940D02*
X284200D01*
X837210Y134840D02*
Y152440D01*
X846810Y134840D02*
Y152440D01*
X837210Y134840D02*
X846810D01*
X837210Y152440D02*
X846810D01*
X236500Y424140D02*
Y441740D01*
X246100Y424140D02*
Y441740D01*
X236500D02*
X246100D01*
X236500Y424140D02*
X246100D01*
X255550Y424400D02*
Y442000D01*
X265150Y424400D02*
Y442000D01*
X255550D02*
X265150D01*
X255550Y424400D02*
X265150D01*
X399670Y166821D02*
X412115Y179266D01*
X392881Y173610D02*
X405326Y186055D01*
X412115Y179266D01*
X392881Y173610D02*
X399670Y166821D01*
X386223Y208862D02*
X398668Y221307D01*
X393012Y202073D02*
X405457Y214518D01*
X398668Y221307D02*
X405457Y214518D01*
X386223Y208862D02*
X393012Y202073D01*
X439289Y219553D02*
X451734Y231998D01*
X432501Y226341D02*
X444946Y238786D01*
X432501Y226341D02*
X439289Y219553D01*
X444946Y238786D02*
X451734Y231998D01*
X416429Y236063D02*
X428874Y248508D01*
X409641Y242851D02*
X422086Y255296D01*
X409641Y242851D02*
X416429Y236063D01*
X422086Y255296D02*
X428874Y248508D01*
X414721Y288348D02*
X427166Y275903D01*
X421509Y295136D02*
X433954Y282691D01*
X414721Y288348D02*
X421509Y295136D01*
X427166Y275903D02*
X433954Y282691D01*
X468839Y266489D02*
X481284Y278934D01*
X475627Y259701D02*
X488072Y272146D01*
X481284Y278934D02*
X488072Y272146D01*
X468839Y266489D02*
X475627Y259701D01*
X461349Y252756D02*
X473794Y240311D01*
X454560Y245968D02*
X467006Y233523D01*
X473794Y240311D01*
X454560Y245968D02*
X461349Y252756D01*
X402021Y275648D02*
X414466Y263203D01*
X408809Y282436D02*
X421254Y269991D01*
X402021Y275648D02*
X408809Y282436D01*
X414466Y263203D02*
X421254Y269991D01*
X588625Y179575D02*
X617875D01*
X588625Y163325D02*
Y179575D01*
Y163325D02*
X617875D01*
Y179575D01*
X153015Y94745D02*
Y110995D01*
X182265D01*
Y94745D02*
Y110995D01*
X153015Y94745D02*
X182265D01*
X768190Y147300D02*
Y157500D01*
X750190Y147300D02*
Y157500D01*
X768190D01*
X750190Y147300D02*
X768190D01*
X750460Y95230D02*
Y105430D01*
X768460Y95230D02*
Y105430D01*
X750460Y95230D02*
X768460D01*
X750460Y105430D02*
X768460D01*
X802260Y95230D02*
Y105430D01*
X820260Y95230D02*
Y105430D01*
X802260Y95230D02*
X820260D01*
X802260Y105430D02*
X820260D01*
X820800Y148570D02*
Y158770D01*
X802800Y148570D02*
Y158770D01*
X820800D01*
X802800Y148570D02*
X820800D01*
X311130Y360790D02*
X321330D01*
X311130Y342790D02*
X321330D01*
Y360790D01*
X311130Y342790D02*
Y360790D01*
X328910Y342790D02*
X339110D01*
X328910Y360790D02*
X339110D01*
X328910Y342790D02*
Y360790D01*
X339110Y342790D02*
Y360790D01*
X414000Y361060D02*
X424200D01*
X414000Y343060D02*
X424200D01*
Y361060D01*
X414000Y343060D02*
Y361060D01*
X396220D02*
X406420D01*
X396220Y343060D02*
X406420D01*
Y361060D01*
X396220Y343060D02*
Y361060D01*
X444448Y221172D02*
X486875Y263599D01*
X346690Y360790D02*
X356890D01*
X346690Y342790D02*
X356890D01*
Y360790D01*
X346690Y342790D02*
Y360790D01*
X378440Y361060D02*
X388640D01*
X378440Y343060D02*
X388640D01*
Y361060D01*
X378440Y343060D02*
Y361060D01*
X216665Y427335D02*
X232915D01*
X216665D02*
Y456585D01*
X232915D01*
Y427335D02*
Y456585D01*
X836910Y123300D02*
X847110D01*
X836910Y105300D02*
X847110D01*
Y123300D01*
X836910Y105300D02*
Y123300D01*
X586720Y267860D02*
X596920D01*
X586720Y285860D02*
X596920D01*
X586720Y267860D02*
Y285860D01*
X596920Y267860D02*
Y285860D01*
X237802Y346316D02*
X266802D01*
Y330316D02*
Y346316D01*
X237802Y330316D02*
X266802D01*
X237802D02*
Y346316D01*
X142130Y274300D02*
Y284500D01*
X160130Y274300D02*
Y284500D01*
X142130Y274300D02*
X160130D01*
X142130Y284500D02*
X160130D01*
Y292080D02*
Y302280D01*
X142130Y292080D02*
Y302280D01*
X160130D01*
X142130Y292080D02*
X160130D01*
X118430Y309010D02*
Y359010D01*
X158430Y309010D02*
Y359010D01*
X118430Y309010D02*
X158430D01*
X118430Y359010D02*
X158430D01*
X240350Y452940D02*
Y466540D01*
X261350Y452940D02*
Y466540D01*
X240350Y452940D02*
X261350D01*
X240350Y466540D02*
X261350D01*
X165420Y418230D02*
Y468230D01*
X205420Y418230D02*
Y468230D01*
X165420Y418230D02*
X205420D01*
X165420Y468230D02*
X205420D01*
X221090Y396220D02*
Y406420D01*
X203090Y396220D02*
Y406420D01*
X221090D01*
X203090Y396220D02*
X221090D01*
X203360Y378440D02*
Y388640D01*
X221360Y378440D02*
Y388640D01*
X203360Y378440D02*
X221360D01*
X203360Y388640D02*
X221360D01*
M02*
