G04*
G04 #@! TF.GenerationSoftware,Altium Limited,Altium Designer,25.8.1 (18)*
G04*
G04 Layer_Color=65535*
%FSLAX44Y44*%
%MOMM*%
G71*
G04*
G04 #@! TF.SameCoordinates,0A9D1E7D-D055-42B5-8BE4-5928FCC89D19*
G04*
G04*
G04 #@! TF.FilePolarity,Positive*
G04*
G01*
G75*
%ADD10C,0.2000*%
%ADD11C,0.1000*%
%ADD12C,0.3000*%
%ADD13C,0.2540*%
%ADD14C,0.1270*%
%ADD15C,0.0127*%
%ADD16C,0.2032*%
G36*
X760730Y62804D02*
X742950D01*
Y71817D01*
X760730D01*
Y62804D01*
D02*
G37*
G36*
X580390Y202504D02*
X562610D01*
Y211516D01*
X580390D01*
Y202504D01*
D02*
G37*
%LPC*%
G36*
X752086Y70301D02*
X751986D01*
X751744Y70293D01*
X751528Y70268D01*
X751336Y70234D01*
X751169Y70201D01*
X751094Y70176D01*
X751028Y70159D01*
X750978Y70143D01*
X750928Y70126D01*
X750894Y70109D01*
X750869Y70101D01*
X750853Y70093D01*
X750844D01*
X750678Y70009D01*
X750536Y69918D01*
X750411Y69818D01*
X750311Y69726D01*
X750228Y69643D01*
X750178Y69576D01*
X750136Y69526D01*
X750128Y69518D01*
Y69509D01*
X750045Y69368D01*
X749986Y69218D01*
X749945Y69076D01*
X749920Y68951D01*
X749903Y68843D01*
X749886Y68760D01*
Y68726D01*
Y68701D01*
Y68693D01*
Y68685D01*
X749895Y68560D01*
X749911Y68435D01*
X749936Y68326D01*
X749970Y68218D01*
X750053Y68018D01*
X750153Y67843D01*
X750195Y67768D01*
X750245Y67710D01*
X750286Y67652D01*
X750328Y67602D01*
X750361Y67568D01*
X750386Y67543D01*
X750403Y67527D01*
X750411Y67518D01*
X750486Y67460D01*
X750578Y67402D01*
X750669Y67343D01*
X750778Y67293D01*
X750986Y67193D01*
X751203Y67110D01*
X751311Y67077D01*
X751403Y67043D01*
X751494Y67018D01*
X751569Y66993D01*
X751628Y66977D01*
X751677Y66960D01*
X751711Y66952D01*
X751719D01*
X751852Y66918D01*
X751969Y66885D01*
X752077Y66860D01*
X752177Y66835D01*
X752261Y66810D01*
X752336Y66793D01*
X752402Y66768D01*
X752461Y66752D01*
X752511Y66743D01*
X752552Y66727D01*
X752611Y66710D01*
X752644Y66694D01*
X752652D01*
X752761Y66652D01*
X752844Y66610D01*
X752919Y66568D01*
X752977Y66527D01*
X753019Y66494D01*
X753044Y66469D01*
X753061Y66452D01*
X753069Y66444D01*
X753111Y66385D01*
X753144Y66327D01*
X753160Y66269D01*
X753177Y66219D01*
X753186Y66169D01*
X753194Y66127D01*
Y66102D01*
Y66094D01*
X753186Y65977D01*
X753152Y65877D01*
X753102Y65777D01*
X753052Y65694D01*
X752994Y65627D01*
X752952Y65577D01*
X752919Y65544D01*
X752902Y65535D01*
X752786Y65461D01*
X752652Y65402D01*
X752511Y65360D01*
X752377Y65335D01*
X752252Y65319D01*
X752152Y65302D01*
X752061D01*
X751869Y65311D01*
X751702Y65344D01*
X751561Y65385D01*
X751436Y65436D01*
X751336Y65486D01*
X751269Y65527D01*
X751228Y65560D01*
X751211Y65569D01*
X751103Y65685D01*
X751019Y65810D01*
X750944Y65952D01*
X750894Y66094D01*
X750853Y66219D01*
X750819Y66319D01*
X750811Y66352D01*
Y66385D01*
X750803Y66402D01*
Y66410D01*
X749670Y66302D01*
X749695Y66127D01*
X749728Y65960D01*
X749778Y65802D01*
X749820Y65660D01*
X749878Y65527D01*
X749936Y65402D01*
X749995Y65294D01*
X750053Y65194D01*
X750111Y65111D01*
X750170Y65036D01*
X750220Y64969D01*
X750270Y64911D01*
X750303Y64869D01*
X750336Y64844D01*
X750353Y64827D01*
X750361Y64819D01*
X750478Y64727D01*
X750603Y64652D01*
X750736Y64586D01*
X750878Y64527D01*
X751011Y64486D01*
X751153Y64444D01*
X751428Y64386D01*
X751553Y64361D01*
X751669Y64344D01*
X751769Y64336D01*
X751861Y64327D01*
X751936Y64319D01*
X752044D01*
X752311Y64327D01*
X752552Y64352D01*
X752769Y64386D01*
X752861Y64402D01*
X752952Y64427D01*
X753027Y64444D01*
X753094Y64461D01*
X753152Y64477D01*
X753202Y64494D01*
X753244Y64511D01*
X753269Y64519D01*
X753286Y64527D01*
X753294D01*
X753477Y64619D01*
X753627Y64719D01*
X753769Y64819D01*
X753877Y64927D01*
X753960Y65019D01*
X754027Y65102D01*
X754060Y65152D01*
X754077Y65161D01*
Y65169D01*
X754169Y65335D01*
X754244Y65494D01*
X754294Y65652D01*
X754327Y65802D01*
X754343Y65919D01*
X754352Y65977D01*
X754360Y66019D01*
Y66102D01*
X754352Y66302D01*
X754327Y66477D01*
X754285Y66635D01*
X754244Y66768D01*
X754202Y66877D01*
X754160Y66952D01*
X754135Y67002D01*
X754127Y67018D01*
X754035Y67152D01*
X753927Y67268D01*
X753819Y67368D01*
X753719Y67452D01*
X753627Y67518D01*
X753552Y67568D01*
X753502Y67602D01*
X753494Y67610D01*
X753485D01*
X753402Y67652D01*
X753319Y67693D01*
X753119Y67768D01*
X752911Y67835D01*
X752711Y67902D01*
X752619Y67927D01*
X752527Y67951D01*
X752444Y67976D01*
X752377Y67993D01*
X752319Y68010D01*
X752277Y68018D01*
X752244Y68026D01*
X752236D01*
X752086Y68068D01*
X751953Y68102D01*
X751827Y68135D01*
X751711Y68168D01*
X751619Y68201D01*
X751528Y68235D01*
X751453Y68268D01*
X751386Y68293D01*
X751328Y68318D01*
X751286Y68343D01*
X751244Y68360D01*
X751219Y68376D01*
X751178Y68401D01*
X751169Y68410D01*
X751111Y68468D01*
X751069Y68526D01*
X751044Y68585D01*
X751028Y68643D01*
X751011Y68685D01*
X751003Y68726D01*
Y68751D01*
Y68760D01*
X751011Y68843D01*
X751028Y68910D01*
X751061Y68976D01*
X751094Y69026D01*
X751128Y69068D01*
X751161Y69093D01*
X751178Y69110D01*
X751186Y69118D01*
X751303Y69193D01*
X751428Y69243D01*
X751561Y69285D01*
X751686Y69310D01*
X751794Y69326D01*
X751886Y69335D01*
X751969D01*
X752144Y69326D01*
X752294Y69301D01*
X752419Y69268D01*
X752519Y69234D01*
X752602Y69201D01*
X752661Y69168D01*
X752694Y69143D01*
X752702Y69134D01*
X752786Y69051D01*
X752861Y68951D01*
X752919Y68851D01*
X752961Y68743D01*
X752994Y68651D01*
X753010Y68576D01*
X753027Y68518D01*
Y68510D01*
Y68501D01*
X754194Y68543D01*
X754185Y68693D01*
X754160Y68826D01*
X754127Y68960D01*
X754085Y69076D01*
X754044Y69193D01*
X753994Y69301D01*
X753944Y69393D01*
X753894Y69484D01*
X753835Y69559D01*
X753785Y69626D01*
X753735Y69684D01*
X753694Y69734D01*
X753660Y69768D01*
X753635Y69793D01*
X753619Y69809D01*
X753610Y69818D01*
X753502Y69901D01*
X753385Y69976D01*
X753260Y70043D01*
X753127Y70101D01*
X752994Y70143D01*
X752861Y70184D01*
X752594Y70243D01*
X752469Y70259D01*
X752361Y70276D01*
X752252Y70284D01*
X752161Y70293D01*
X752086Y70301D01*
D02*
G37*
G36*
X759517Y70193D02*
X754943D01*
Y69218D01*
X756651D01*
Y64427D01*
X757818D01*
Y69218D01*
X759517D01*
Y70193D01*
D02*
G37*
G36*
X746762D02*
X744163D01*
Y64427D01*
X745329D01*
Y66835D01*
X745704D01*
X745821Y66827D01*
X745921Y66818D01*
X746004Y66802D01*
X746071Y66793D01*
X746112Y66777D01*
X746137Y66768D01*
X746146D01*
X746212Y66735D01*
X746279Y66702D01*
X746337Y66660D01*
X746396Y66627D01*
X746437Y66585D01*
X746470Y66552D01*
X746487Y66535D01*
X746496Y66527D01*
X746529Y66485D01*
X746571Y66444D01*
X746662Y66319D01*
X746762Y66185D01*
X746870Y66035D01*
X746962Y65902D01*
X747004Y65835D01*
X747037Y65785D01*
X747070Y65744D01*
X747095Y65710D01*
X747104Y65685D01*
X747112Y65677D01*
X747945Y64427D01*
X749345D01*
X748637Y65552D01*
X748562Y65669D01*
X748487Y65785D01*
X748420Y65885D01*
X748353Y65977D01*
X748295Y66060D01*
X748245Y66144D01*
X748145Y66269D01*
X748070Y66369D01*
X748020Y66435D01*
X747979Y66477D01*
X747970Y66485D01*
X747878Y66585D01*
X747770Y66677D01*
X747670Y66752D01*
X747570Y66827D01*
X747487Y66885D01*
X747420Y66927D01*
X747370Y66960D01*
X747362Y66968D01*
X747354D01*
X747495Y66993D01*
X747620Y67027D01*
X747737Y67060D01*
X747853Y67102D01*
X747953Y67143D01*
X748045Y67185D01*
X748137Y67227D01*
X748212Y67277D01*
X748278Y67318D01*
X748337Y67360D01*
X748387Y67402D01*
X748420Y67435D01*
X748453Y67460D01*
X748478Y67485D01*
X748487Y67493D01*
X748495Y67502D01*
X748562Y67585D01*
X748620Y67668D01*
X748720Y67852D01*
X748787Y68026D01*
X748828Y68201D01*
X748862Y68351D01*
X748870Y68410D01*
Y68468D01*
X748878Y68510D01*
Y68551D01*
Y68568D01*
Y68576D01*
X748870Y68760D01*
X748837Y68935D01*
X748795Y69085D01*
X748753Y69218D01*
X748703Y69326D01*
X748662Y69409D01*
X748645Y69434D01*
X748628Y69459D01*
X748620Y69468D01*
Y69476D01*
X748520Y69618D01*
X748412Y69734D01*
X748303Y69826D01*
X748195Y69909D01*
X748095Y69959D01*
X748020Y70001D01*
X747970Y70026D01*
X747962Y70034D01*
X747953D01*
X747870Y70059D01*
X747778Y70084D01*
X747570Y70126D01*
X747345Y70151D01*
X747129Y70176D01*
X747020D01*
X746929Y70184D01*
X746837D01*
X746762Y70193D01*
D02*
G37*
%LPD*%
G36*
X746737Y69209D02*
X746920D01*
X746995Y69201D01*
X747045D01*
X747070Y69193D01*
X747079D01*
X747179Y69168D01*
X747270Y69134D01*
X747345Y69101D01*
X747404Y69060D01*
X747454Y69018D01*
X747495Y68993D01*
X747512Y68968D01*
X747520Y68960D01*
X747570Y68893D01*
X747612Y68810D01*
X747637Y68735D01*
X747662Y68660D01*
X747670Y68593D01*
X747679Y68543D01*
Y68510D01*
Y68493D01*
X747670Y68401D01*
X747662Y68318D01*
X747637Y68243D01*
X747620Y68176D01*
X747595Y68127D01*
X747570Y68093D01*
X747562Y68068D01*
X747554Y68060D01*
X747504Y68001D01*
X747454Y67951D01*
X747345Y67877D01*
X747304Y67852D01*
X747262Y67835D01*
X747237Y67818D01*
X747229D01*
X747187Y67810D01*
X747120Y67793D01*
X747054Y67785D01*
X746979Y67776D01*
X746804Y67768D01*
X746629Y67760D01*
X746462Y67752D01*
X745329D01*
Y69218D01*
X746662D01*
X746737Y69209D01*
D02*
G37*
%LPC*%
G36*
X576478Y209893D02*
X575403D01*
Y206010D01*
X573020Y209893D01*
X571896D01*
Y204127D01*
X572971D01*
Y207926D01*
X575312Y204127D01*
X576478D01*
Y209893D01*
D02*
G37*
G36*
X570796D02*
X566522D01*
Y204127D01*
X570904D01*
Y205102D01*
X567688D01*
Y206668D01*
X570579D01*
Y207643D01*
X567688D01*
Y208918D01*
X570796D01*
Y209893D01*
D02*
G37*
%LPD*%
D10*
X542020Y315280D02*
G03*
X542020Y315280I-1000J0D01*
G01*
X578850Y72070D02*
G03*
X578850Y72070I-1000J0D01*
G01*
X830740Y76330D02*
G03*
X830740Y76330I-1000J0D01*
G01*
X627650Y298450D02*
G03*
X627650Y298450I-1000J0D01*
G01*
X776020Y472440D02*
G03*
X776020Y472440I-1000J0D01*
G01*
X713150Y323850D02*
G03*
X713150Y323850I-1000J0D01*
G01*
X215950Y250190D02*
G03*
X215950Y250190I-1000J0D01*
G01*
X549770Y215470D02*
G03*
X549770Y215470I-1000J0D01*
G01*
X504480Y136040D02*
G03*
X504480Y136040I-1000J0D01*
G01*
X613700Y197000D02*
G03*
X613700Y197000I-1000J0D01*
G01*
X159190Y77320D02*
G03*
X159190Y77320I-1000J0D01*
G01*
X251340Y432510D02*
G03*
X251340Y432510I-1000J0D01*
G01*
X547020Y333280D02*
Y337280D01*
X535020Y333280D02*
Y337280D01*
X583850Y50070D02*
Y54070D01*
X571850Y50070D02*
Y54070D01*
X793020Y466440D02*
X797020D01*
X793020Y478440D02*
X797020D01*
X690150Y329850D02*
X694150D01*
X690150Y317850D02*
X694150D01*
X232950Y244190D02*
X236950D01*
X232950Y256190D02*
X236950D01*
X444448Y221172D02*
X448691Y225415D01*
X440205D02*
X444448Y221172D01*
X402022Y263599D02*
X406264Y259356D01*
X402022Y263599D02*
X406264Y267841D01*
X482632Y259356D02*
X486875Y263599D01*
X482632Y267841D02*
X486875Y263599D01*
X444448Y306025D02*
X448691Y301782D01*
X440205D02*
X444448Y306025D01*
D11*
X41100Y471210D02*
G03*
X41100Y471210I-11000J0D01*
G01*
X900000Y471209D02*
G03*
X900000Y471209I-11000J0D01*
G01*
X368783Y30518D02*
G03*
X368783Y30518I-11000J0D01*
G01*
X41100Y70100D02*
G03*
X41100Y70100I-11000J0D01*
G01*
X900000D02*
G03*
X900000Y70100I-11000J0D01*
G01*
X533400Y367030D02*
X563880D01*
X533400Y351790D02*
Y367030D01*
X563880Y351790D02*
Y367030D01*
X533400Y351790D02*
X563880D01*
X275850Y481330D02*
X306330D01*
X275850Y466090D02*
Y481330D01*
Y466090D02*
X306330D01*
Y481330D01*
X66040Y458470D02*
X96520D01*
X66040Y443230D02*
Y458470D01*
Y443230D02*
X96520D01*
Y458470D01*
X431800Y20320D02*
Y50800D01*
X416560D02*
X431800D01*
X416560Y20320D02*
Y50800D01*
Y20320D02*
X431800D01*
X496570Y304184D02*
X507346Y314960D01*
X475017Y325736D02*
X496570Y304184D01*
X475017Y325736D02*
X485794Y336513D01*
X507346Y314960D01*
X509270Y316884D02*
X520046Y327660D01*
X487717Y338436D02*
X509270Y316884D01*
X487717Y338436D02*
X498494Y349213D01*
X520046Y327660D01*
X410673Y203391D02*
X432225Y181838D01*
X443002Y192615D01*
X410673Y203391D02*
X421449Y214167D01*
X443002Y192615D01*
X336895Y216862D02*
X347672Y206085D01*
X336895Y216862D02*
X358448Y238414D01*
X369225Y227638D01*
X347672Y206085D02*
X369225Y227638D01*
X781050Y459740D02*
X811530D01*
X781050Y444500D02*
Y459740D01*
X811530Y444500D02*
Y459740D01*
X781050Y444500D02*
X811530D01*
X641350Y331470D02*
X671830D01*
X641350Y316230D02*
Y331470D01*
X671830Y316230D02*
Y331470D01*
X641350Y316230D02*
X671830D01*
X605790Y36830D02*
Y67310D01*
X590550D02*
X605790D01*
X590550Y36830D02*
X605790D01*
X590550D02*
Y67310D01*
X219710Y237490D02*
X250190D01*
X219710Y222250D02*
Y237490D01*
X250190Y222250D02*
Y237490D01*
X219710Y222250D02*
X250190D01*
X604520Y276860D02*
X619760D01*
Y246380D02*
Y276860D01*
X604520Y246380D02*
X619760D01*
X604520D02*
Y276860D01*
X141985Y492122D02*
X761985D01*
X141985Y370122D02*
Y492122D01*
Y370122D02*
X761985D01*
Y492122D01*
X619760Y278130D02*
Y308610D01*
X604520D02*
X619760D01*
X604520Y278130D02*
Y308610D01*
Y278130D02*
X619760D01*
X849630Y128270D02*
Y158750D01*
X834390D02*
X849630D01*
X834390Y128270D02*
Y158750D01*
Y128270D02*
X849630D01*
X386426Y171142D02*
X407978Y192694D01*
X386426Y171142D02*
X397202Y160366D01*
X418755Y181918D01*
X407978Y192694D02*
X418755Y181918D01*
X323850Y336550D02*
Y367030D01*
X308610D02*
X323850D01*
X308610Y336550D02*
X323850D01*
X308610D02*
Y367030D01*
X326390Y336550D02*
Y367030D01*
Y336550D02*
X341630D01*
X326390Y367030D02*
X341630D01*
Y336550D02*
Y367030D01*
X426720Y336820D02*
Y367300D01*
X411480D02*
X426720D01*
X411480Y336820D02*
X426720D01*
X411480D02*
Y367300D01*
X408940Y336820D02*
Y367300D01*
X393700D02*
X408940D01*
X393700Y336820D02*
X408940D01*
X393700D02*
Y367300D01*
X359410Y336550D02*
Y367030D01*
X344170D02*
X359410D01*
X344170Y336550D02*
X359410D01*
X344170D02*
Y367030D01*
X391160Y336820D02*
Y367300D01*
X375920D02*
X391160D01*
X375920Y336820D02*
X391160D01*
X375920D02*
Y367300D01*
X849630Y99060D02*
Y129540D01*
X834390D02*
X849630D01*
X834390Y99060D02*
X849630D01*
X834390D02*
Y129540D01*
X584200Y261620D02*
Y292100D01*
Y261620D02*
X599440D01*
X584200Y292100D02*
X599440D01*
Y261620D02*
Y292100D01*
D12*
X348525Y199183D02*
G03*
X348543Y199165I-1052J-1070D01*
G01*
D13*
X220360Y689566D02*
G03*
X225720Y691826I1966J2822D01*
G01*
X217719Y691344D02*
G03*
X213629Y689235I-1489J-2133D01*
G01*
Y674630D02*
G03*
X217719Y672497I2601J-1D01*
G01*
X225720Y672039D02*
G03*
X220360Y674300I-3393J-561D01*
G01*
Y607066D02*
G03*
X225720Y609327I1966J2822D01*
G01*
X217719Y608844D02*
G03*
X213629Y606736I-1489J-2133D01*
G01*
Y592131D02*
G03*
X217719Y589997I2601J-1D01*
G01*
X225720Y589540D02*
G03*
X220360Y591801I-3393J-561D01*
G01*
X46108Y113500D02*
X102870D01*
Y136629D01*
X2540Y245580D02*
X10773D01*
X2540Y113500D02*
Y245580D01*
Y113500D02*
X10773D01*
X102870Y222451D02*
Y245580D01*
X46108D02*
X102870D01*
Y152451D02*
Y161629D01*
Y177451D02*
Y181629D01*
Y197451D02*
Y206629D01*
X43686Y133459D02*
Y153759D01*
X55787Y132558D02*
Y155159D01*
X44677Y202271D02*
Y222570D01*
X56776Y201369D02*
Y223970D01*
X22024Y198044D02*
X79429Y194488D01*
X22024Y198044D02*
Y227000D01*
X79429Y231826D01*
Y226746D02*
Y231826D01*
X28077Y221694D02*
X79429Y226746D01*
X28077Y204191D02*
Y221694D01*
Y204191D02*
X79429Y198298D01*
Y194488D02*
Y198298D01*
X21374Y129680D02*
X78740Y126200D01*
X21374Y129680D02*
X21423Y158532D01*
X78774Y163482D01*
X78735Y158395D02*
X78774Y163482D01*
X33332Y153292D02*
X78735Y158395D01*
X26550Y152540D02*
X33332Y153292D01*
X26550Y152540D02*
X26658Y135042D01*
X74440Y130302D01*
X78740Y130003D01*
Y126200D02*
Y130003D01*
X450280Y1270D02*
X540280D01*
Y16484D01*
X450280Y1270D02*
Y16484D01*
X540280Y38656D02*
Y56785D01*
X450280Y38656D02*
Y56785D01*
X182946Y636708D02*
Y657282D01*
X207838D01*
Y636708D02*
Y657282D01*
X182946Y636708D02*
X207838D01*
X243398D02*
Y657282D01*
X268291D01*
Y636708D02*
Y657282D01*
X243398Y636708D02*
X268291D01*
X225618Y609276D02*
Y672015D01*
X217744Y589972D02*
X220284Y591750D01*
X213426Y592005D02*
Y606736D01*
X217744Y608768D02*
X220284Y606990D01*
X217744Y672522D02*
X220284Y674300D01*
X213426Y674555D02*
Y689032D01*
X217744Y691318D02*
X220284Y689540D01*
Y689286D02*
Y689540D01*
X165699Y564874D02*
X285699D01*
X165699Y711874D02*
X285699D01*
X225618Y691826D02*
Y711874D01*
Y589465D02*
X225699Y564874D01*
X165699D02*
Y711874D01*
X268011Y523872D02*
X275752D01*
X243012D02*
X253388D01*
X223012D02*
X228389D01*
X198011D02*
X208389D01*
X175647D02*
X183388D01*
X165699Y552057D02*
Y564874D01*
X285699Y552057D02*
Y711874D01*
X552654Y344088D02*
Y334092D01*
X557652D01*
X559319Y335758D01*
Y342422D01*
X557652Y344088D01*
X552654D01*
X562651Y334092D02*
X565983D01*
X564317D01*
Y344088D01*
X562651Y342422D01*
X570981D02*
X572648Y344088D01*
X575980D01*
X577646Y342422D01*
Y335758D01*
X575980Y334092D01*
X572648D01*
X570981Y335758D01*
Y342422D01*
X395988Y35686D02*
X394655Y37019D01*
X391990D01*
X390657Y35686D01*
Y30354D01*
X391990Y29021D01*
X394655D01*
X395988Y30354D01*
X402653Y29021D02*
Y37019D01*
X398654Y33020D01*
X403986D01*
X411983Y37019D02*
X406652D01*
Y33020D01*
X409317Y34353D01*
X410650D01*
X411983Y33020D01*
Y30354D01*
X410650Y29021D01*
X407985D01*
X406652Y30354D01*
X293055Y430052D02*
X291389Y431718D01*
X288057D01*
X286391Y430052D01*
Y423388D01*
X288057Y421722D01*
X291389D01*
X293055Y423388D01*
X296388Y430052D02*
X298054Y431718D01*
X301386D01*
X303052Y430052D01*
Y428386D01*
X301386Y426720D01*
X299720D01*
X301386D01*
X303052Y425054D01*
Y423388D01*
X301386Y421722D01*
X298054D01*
X296388Y423388D01*
X313049Y431718D02*
X306385D01*
Y426720D01*
X309717Y428386D01*
X311383D01*
X313049Y426720D01*
Y423388D01*
X311383Y421722D01*
X308051D01*
X306385Y423388D01*
X75886Y471962D02*
X74219Y473628D01*
X70887D01*
X69221Y471962D01*
Y465298D01*
X70887Y463632D01*
X74219D01*
X75886Y465298D01*
X79218Y471962D02*
X80884Y473628D01*
X84216D01*
X85882Y471962D01*
Y470296D01*
X84216Y468630D01*
X82550D01*
X84216D01*
X85882Y466964D01*
Y465298D01*
X84216Y463632D01*
X80884D01*
X79218Y465298D01*
X89214Y471962D02*
X90881Y473628D01*
X94213D01*
X95879Y471962D01*
Y470296D01*
X94213Y468630D01*
X92547D01*
X94213D01*
X95879Y466964D01*
Y465298D01*
X94213Y463632D01*
X90881D01*
X89214Y465298D01*
X569519Y30398D02*
Y20402D01*
X574518D01*
X576184Y22068D01*
Y28732D01*
X574518Y30398D01*
X569519D01*
X579516D02*
X586181D01*
Y28732D01*
X579516Y22068D01*
Y20402D01*
X608971Y318852D02*
Y328848D01*
X613969D01*
X615635Y327182D01*
Y323850D01*
X613969Y322184D01*
X608971D01*
X612303D02*
X615635Y318852D01*
X623966D02*
Y328848D01*
X618968Y323850D01*
X625632D01*
X635629Y328848D02*
X628965D01*
Y323850D01*
X632297Y325516D01*
X633963D01*
X635629Y323850D01*
Y320518D01*
X633963Y318852D01*
X630631D01*
X628965Y320518D01*
X258451Y223602D02*
Y233598D01*
X263449D01*
X265116Y231932D01*
Y228600D01*
X263449Y226934D01*
X258451D01*
X261783D02*
X265116Y223602D01*
X273446D02*
Y233598D01*
X268448Y228600D01*
X275112D01*
X278444Y231932D02*
X280111Y233598D01*
X283443D01*
X285109Y231932D01*
Y230266D01*
X283443Y228600D01*
X281777D01*
X283443D01*
X285109Y226934D01*
Y225268D01*
X283443Y223602D01*
X280111D01*
X278444Y225268D01*
X766451Y422992D02*
Y432988D01*
X771449D01*
X773115Y431322D01*
Y427990D01*
X771449Y426324D01*
X766451D01*
X769783D02*
X773115Y422992D01*
X781446D02*
Y432988D01*
X776448Y427990D01*
X783112D01*
X793109Y432988D02*
X789777Y431322D01*
X786444Y427990D01*
Y424658D01*
X788111Y422992D01*
X791443D01*
X793109Y424658D01*
Y426324D01*
X791443Y427990D01*
X786444D01*
X591191Y73742D02*
Y83738D01*
X596189D01*
X597855Y82072D01*
Y78740D01*
X596189Y77074D01*
X591191D01*
X594523D02*
X597855Y73742D01*
X606186D02*
Y83738D01*
X601188Y78740D01*
X607852D01*
X616183Y73742D02*
Y83738D01*
X611185Y78740D01*
X617849D01*
X718109Y327578D02*
Y317582D01*
X723108D01*
X724774Y319248D01*
Y325912D01*
X723108Y327578D01*
X718109D01*
X728106Y325912D02*
X729772Y327578D01*
X733104D01*
X734771Y325912D01*
Y324246D01*
X733104Y322580D01*
X734771Y320914D01*
Y319248D01*
X733104Y317582D01*
X729772D01*
X728106Y319248D01*
Y320914D01*
X729772Y322580D01*
X728106Y324246D01*
Y325912D01*
X729772Y322580D02*
X733104D01*
X257099Y255188D02*
Y245192D01*
X262098D01*
X263764Y246858D01*
Y253522D01*
X262098Y255188D01*
X257099D01*
X273761D02*
X270428Y253522D01*
X267096Y250190D01*
Y246858D01*
X268762Y245192D01*
X272094D01*
X273761Y246858D01*
Y248524D01*
X272094Y250190D01*
X267096D01*
X818439Y477438D02*
Y467442D01*
X823438D01*
X825104Y469108D01*
Y475772D01*
X823438Y477438D01*
X818439D01*
X828436Y469108D02*
X830102Y467442D01*
X833435D01*
X835101Y469108D01*
Y475772D01*
X833435Y477438D01*
X830102D01*
X828436Y475772D01*
Y474106D01*
X830102Y472440D01*
X835101D01*
X346395Y184068D02*
X353060Y174072D01*
Y184068D02*
X346395Y174072D01*
X356392D02*
X359725D01*
X358058D01*
Y184068D01*
X356392Y182402D01*
X373939Y272968D02*
Y264638D01*
X375606Y262972D01*
X378938D01*
X380604Y264638D01*
Y272968D01*
X383936D02*
X390601D01*
Y271302D01*
X383936Y264638D01*
Y262972D01*
X346792Y332099D02*
X356788D01*
Y327101D01*
X355122Y325434D01*
X351790D01*
X350124Y327101D01*
Y332099D01*
Y328767D02*
X346792Y325434D01*
Y315438D02*
Y322102D01*
X353456Y315438D01*
X355122D01*
X356788Y317104D01*
Y320436D01*
X355122Y322102D01*
X356788Y305441D02*
X355122Y308773D01*
X351790Y312105D01*
X348458D01*
X346792Y310439D01*
Y307107D01*
X348458Y305441D01*
X350124D01*
X351790Y307107D01*
Y312105D01*
X329012Y331829D02*
X339008D01*
Y326831D01*
X337342Y325164D01*
X334010D01*
X332344Y326831D01*
Y331829D01*
Y328497D02*
X329012Y325164D01*
Y315168D02*
Y321832D01*
X335676Y315168D01*
X337342D01*
X339008Y316834D01*
Y320166D01*
X337342Y321832D01*
X339008Y305171D02*
Y311835D01*
X334010D01*
X335676Y308503D01*
Y306837D01*
X334010Y305171D01*
X330678D01*
X329012Y306837D01*
Y310169D01*
X330678Y311835D01*
X417019Y153411D02*
X409951Y160479D01*
X413485Y164014D01*
X415841D01*
X418198Y161658D01*
Y159301D01*
X414663Y155767D01*
X417019Y158123D02*
X421732D01*
X428801Y165192D02*
X424088Y160479D01*
Y169904D01*
X422910Y171082D01*
X420554Y171082D01*
X418198Y168726D01*
Y166370D01*
X434691Y171082D02*
X427622Y178151D01*
Y171082D01*
X432335Y175795D01*
X431882Y365119D02*
X441878D01*
Y360121D01*
X440212Y358455D01*
X436880D01*
X435214Y360121D01*
Y365119D01*
Y361787D02*
X431882Y358455D01*
Y348458D02*
Y355122D01*
X438546Y348458D01*
X440212D01*
X441878Y350124D01*
Y353456D01*
X440212Y355122D01*
Y345125D02*
X441878Y343459D01*
Y340127D01*
X440212Y338461D01*
X438546D01*
X436880Y340127D01*
Y341793D01*
Y340127D01*
X435214Y338461D01*
X433548D01*
X431882Y340127D01*
Y343459D01*
X433548Y345125D01*
X309962Y331829D02*
X319958D01*
Y326831D01*
X318292Y325164D01*
X314960D01*
X313294Y326831D01*
Y331829D01*
Y328497D02*
X309962Y325164D01*
Y315168D02*
Y321832D01*
X316626Y315168D01*
X318292D01*
X319958Y316834D01*
Y320166D01*
X318292Y321832D01*
X309962Y305171D02*
Y311835D01*
X316626Y305171D01*
X318292D01*
X319958Y306837D01*
Y310169D01*
X318292Y311835D01*
X378542Y331703D02*
X388538D01*
Y326704D01*
X386872Y325038D01*
X383540D01*
X381874Y326704D01*
Y331703D01*
Y328371D02*
X378542Y325038D01*
Y315042D02*
Y321706D01*
X385206Y315042D01*
X386872D01*
X388538Y316708D01*
Y320040D01*
X386872Y321706D01*
X378542Y311709D02*
Y308377D01*
Y310043D01*
X388538D01*
X386872Y311709D01*
X396322Y332099D02*
X406318D01*
Y327101D01*
X404652Y325434D01*
X401320D01*
X399654Y327101D01*
Y332099D01*
Y328767D02*
X396322Y325434D01*
Y315438D02*
Y322102D01*
X402986Y315438D01*
X404652D01*
X406318Y317104D01*
Y320436D01*
X404652Y322102D01*
Y312105D02*
X406318Y310439D01*
Y307107D01*
X404652Y305441D01*
X397988D01*
X396322Y307107D01*
Y310439D01*
X397988Y312105D01*
X404652D01*
X834949Y81092D02*
Y91088D01*
X839948D01*
X841614Y89422D01*
Y86090D01*
X839948Y84424D01*
X834949D01*
X838282D02*
X841614Y81092D01*
X844946Y82758D02*
X846612Y81092D01*
X849945D01*
X851611Y82758D01*
Y89422D01*
X849945Y91088D01*
X846612D01*
X844946Y89422D01*
Y87756D01*
X846612Y86090D01*
X851611D01*
X507289Y353142D02*
Y363138D01*
X512288D01*
X513954Y361472D01*
Y358140D01*
X512288Y356474D01*
X507289D01*
X510622D02*
X513954Y353142D01*
X523951Y363138D02*
X517286D01*
Y358140D01*
X520618Y359806D01*
X522285D01*
X523951Y358140D01*
Y354808D01*
X522285Y353142D01*
X518952D01*
X517286Y354808D01*
X583489Y245192D02*
Y255188D01*
X588488D01*
X590154Y253522D01*
Y250190D01*
X588488Y248524D01*
X583489D01*
X586822D02*
X590154Y245192D01*
X593486Y253522D02*
X595152Y255188D01*
X598484D01*
X600151Y253522D01*
Y251856D01*
X598484Y250190D01*
X596818D01*
X598484D01*
X600151Y248524D01*
Y246858D01*
X598484Y245192D01*
X595152D01*
X593486Y246858D01*
X188519Y121838D02*
Y111842D01*
X193518D01*
X195184Y113508D01*
Y120172D01*
X193518Y121838D01*
X188519D01*
X205181D02*
X198516D01*
Y116840D01*
X201848Y118506D01*
X203514D01*
X205181Y116840D01*
Y113508D01*
X203514Y111842D01*
X200182D01*
X198516Y113508D01*
X469818Y115011D02*
X459822D01*
Y110012D01*
X461488Y108346D01*
X468152D01*
X469818Y110012D01*
Y115011D01*
X459822Y100015D02*
X469818D01*
X464820Y105014D01*
Y98349D01*
X563169Y172638D02*
Y162642D01*
X568168D01*
X569834Y164308D01*
Y170972D01*
X568168Y172638D01*
X563169D01*
X573166Y170972D02*
X574832Y172638D01*
X578164D01*
X579831Y170972D01*
Y169306D01*
X578164Y167640D01*
X576498D01*
X578164D01*
X579831Y165974D01*
Y164308D01*
X578164Y162642D01*
X574832D01*
X573166Y164308D01*
X251145Y464738D02*
Y454742D01*
X256144D01*
X257810Y456408D01*
Y463072D01*
X256144Y464738D01*
X251145D01*
X261142Y454742D02*
X264475D01*
X262808D01*
Y464738D01*
X261142Y463072D01*
X462464Y349969D02*
Y352325D01*
X460107Y354681D01*
X457751D01*
X453039Y349969D01*
Y347612D01*
X455395Y345256D01*
X457751D01*
X463642Y337009D02*
X458929Y341722D01*
X468354D01*
X469533Y342900D01*
X469533Y345256D01*
X467176Y347612D01*
X464820D01*
X470711Y329940D02*
X465998Y334653D01*
X475423D01*
X476601Y335831D01*
X476601Y338187D01*
X474245Y340544D01*
X471889D01*
X475072Y360221D02*
Y362577D01*
X472716Y364933D01*
X470359D01*
X465647Y360221D01*
Y357864D01*
X468003Y355508D01*
X470359D01*
X476250Y347261D02*
X471538Y351974D01*
X480962D01*
X482141Y353152D01*
X482141Y355508D01*
X479784Y357864D01*
X477428D01*
X478606Y344905D02*
X480962Y342549D01*
X479784Y343727D01*
X486853Y350796D01*
X484497D01*
X367208Y150941D02*
X364852D01*
X362496Y148585D01*
Y146228D01*
X367208Y141516D01*
X369565D01*
X371921Y143872D01*
Y146228D01*
X375455Y147407D02*
X377812Y149763D01*
X376633Y148585D01*
X369565Y155653D01*
Y153297D01*
X375455Y159188D02*
Y161544D01*
X377812Y163900D01*
X380168Y163900D01*
X381346Y162722D01*
Y160366D01*
X383702Y160366D01*
X384880Y159188D01*
X384880Y156832D01*
X382524Y154475D01*
X380168D01*
X378990Y155653D01*
Y158010D01*
X376633Y158010D01*
X375455Y159188D01*
X378990Y158010D02*
X381346Y160366D01*
X333880Y231913D02*
X331524D01*
X329168Y229557D01*
Y227200D01*
X333880Y222488D01*
X336236D01*
X338593Y224844D01*
Y227200D01*
X342127Y228378D02*
X344483Y230735D01*
X343305Y229557D01*
X336236Y236625D01*
Y234269D01*
X340949Y241338D02*
X345662Y246050D01*
X346840Y244872D01*
Y235447D01*
X348018Y234269D01*
X842529Y173512D02*
X840862Y175178D01*
X837530D01*
X835864Y173512D01*
Y166848D01*
X837530Y165182D01*
X840862D01*
X842529Y166848D01*
X845861Y165182D02*
X849193D01*
X847527D01*
Y175178D01*
X845861Y173512D01*
X854192D02*
X855858Y175178D01*
X859190D01*
X860856Y173512D01*
Y166848D01*
X859190Y165182D01*
X855858D01*
X854192Y166848D01*
Y173512D01*
X610474Y237012D02*
X608808Y238678D01*
X605476D01*
X603809Y237012D01*
Y230348D01*
X605476Y228682D01*
X608808D01*
X610474Y230348D01*
X613806Y237012D02*
X615472Y238678D01*
X618805D01*
X620471Y237012D01*
Y235346D01*
X618805Y233680D01*
X620471Y232014D01*
Y230348D01*
X618805Y228682D01*
X615472D01*
X613806Y230348D01*
Y232014D01*
X615472Y233680D01*
X613806Y235346D01*
Y237012D01*
X615472Y233680D02*
X618805D01*
X588884Y314482D02*
X587218Y316148D01*
X583885D01*
X582219Y314482D01*
Y307818D01*
X583885Y306152D01*
X587218D01*
X588884Y307818D01*
X597215Y306152D02*
Y316148D01*
X592216Y311150D01*
X598881D01*
D14*
X458340Y221872D02*
G03*
X458340Y221872I-1270J0D01*
G01*
X785260Y71630D02*
X809860D01*
X785260Y103630D02*
X809860D01*
X821650Y306150D02*
Y310350D01*
Y118350D02*
Y125650D01*
X641650Y118350D02*
X654100D01*
X809200D02*
X821650D01*
X641650Y306150D02*
Y310350D01*
Y118350D02*
Y125650D01*
Y310350D02*
X821650D01*
X576070Y235350D02*
Y259950D01*
X544070Y235350D02*
Y259950D01*
X509680Y102365D02*
Y118615D01*
X478380Y102365D02*
Y118615D01*
X587600Y163325D02*
Y179575D01*
X618900Y163325D02*
Y179575D01*
X151990Y94745D02*
Y110995D01*
X183290Y94745D02*
Y110995D01*
X216665Y426310D02*
X232915D01*
X216665Y457610D02*
X232915D01*
D15*
X141548Y369685D02*
Y491685D01*
X761548D01*
Y369685D02*
Y491685D01*
X141548Y369685D02*
X761548D01*
D16*
X349584Y203071D02*
X373625Y227112D01*
X403324Y197414D01*
X379282Y173372D02*
X403324Y197414D01*
X349584Y203071D02*
X379282Y173372D01*
M02*
